G04 (created by PCBNEW (2013-jul-07)-stable) date nie, 13 lis 2016, 20:29:25*
%MOIN*%
G04 Gerber Fmt 3.4, Leading zero omitted, Abs format*
%FSLAX34Y34*%
G01*
G70*
G90*
G04 APERTURE LIST*
%ADD10C,0.00590551*%
%ADD11C,0.00787402*%
%ADD12C,0.00984252*%
%ADD13C,0.005*%
%ADD14C,0.015*%
%ADD15C,0.0039*%
%ADD16C,0.006*%
%ADD17C,0.008*%
%ADD18C,0.0026*%
%ADD19C,0.024*%
%ADD20C,0.003*%
%ADD21C,0.0045*%
%ADD22C,0.01125*%
%ADD23C,0.012*%
%ADD24C,0.0047*%
%ADD25C,0.0043*%
%ADD26C,0.0035*%
G04 APERTURE END LIST*
G54D10*
G54D11*
X49128Y-39265D02*
X49128Y-39584D01*
X49109Y-39621D01*
X49090Y-39640D01*
X49053Y-39659D01*
X48978Y-39659D01*
X48940Y-39640D01*
X48921Y-39621D01*
X48903Y-39584D01*
X48903Y-39265D01*
X48734Y-39546D02*
X48546Y-39546D01*
X48771Y-39659D02*
X48640Y-39265D01*
X48509Y-39659D01*
X48153Y-39659D02*
X48284Y-39471D01*
X48378Y-39659D02*
X48378Y-39265D01*
X48228Y-39265D01*
X48190Y-39284D01*
X48171Y-39303D01*
X48153Y-39340D01*
X48153Y-39396D01*
X48171Y-39434D01*
X48190Y-39453D01*
X48228Y-39471D01*
X48378Y-39471D01*
X48040Y-39265D02*
X47815Y-39265D01*
X47928Y-39659D02*
X47928Y-39265D01*
G54D12*
X46976Y-42139D02*
X46976Y-41548D01*
X46723Y-42110D02*
X46639Y-42139D01*
X46498Y-42139D01*
X46442Y-42110D01*
X46414Y-42082D01*
X46385Y-42026D01*
X46385Y-41970D01*
X46414Y-41914D01*
X46442Y-41885D01*
X46498Y-41857D01*
X46610Y-41829D01*
X46667Y-41801D01*
X46695Y-41773D01*
X46723Y-41717D01*
X46723Y-41660D01*
X46695Y-41604D01*
X46667Y-41576D01*
X46610Y-41548D01*
X46470Y-41548D01*
X46385Y-41576D01*
X46132Y-42139D02*
X46132Y-41548D01*
X45907Y-41548D01*
X45851Y-41576D01*
X45823Y-41604D01*
X45795Y-41660D01*
X45795Y-41745D01*
X45823Y-41801D01*
X45851Y-41829D01*
X45907Y-41857D01*
X46132Y-41857D01*
X59299Y-49668D02*
X59374Y-49631D01*
X59487Y-49631D01*
X59599Y-49668D01*
X59674Y-49743D01*
X59712Y-49818D01*
X59749Y-49968D01*
X59749Y-50081D01*
X59712Y-50231D01*
X59674Y-50306D01*
X59599Y-50381D01*
X59487Y-50418D01*
X59412Y-50418D01*
X59299Y-50381D01*
X59262Y-50343D01*
X59262Y-50081D01*
X59412Y-50081D01*
X58924Y-50418D02*
X58924Y-49631D01*
X58475Y-50418D01*
X58475Y-49631D01*
X58100Y-50418D02*
X58100Y-49631D01*
X57912Y-49631D01*
X57800Y-49668D01*
X57725Y-49743D01*
X57687Y-49818D01*
X57650Y-49968D01*
X57650Y-50081D01*
X57687Y-50231D01*
X57725Y-50306D01*
X57800Y-50381D01*
X57912Y-50418D01*
X58100Y-50418D01*
X62712Y-50118D02*
X62112Y-50118D01*
X62412Y-50418D02*
X62412Y-49818D01*
X61362Y-49631D02*
X61737Y-49631D01*
X61774Y-50006D01*
X61737Y-49968D01*
X61662Y-49931D01*
X61475Y-49931D01*
X61400Y-49968D01*
X61362Y-50006D01*
X61325Y-50081D01*
X61325Y-50268D01*
X61362Y-50343D01*
X61400Y-50381D01*
X61475Y-50418D01*
X61662Y-50418D01*
X61737Y-50381D01*
X61774Y-50343D01*
X61100Y-49631D02*
X60837Y-50418D01*
X60575Y-49631D01*
G54D10*
X47216Y-31679D02*
X47366Y-31679D01*
X48516Y-31679D02*
X48366Y-31679D01*
X48516Y-35579D02*
X48366Y-35579D01*
X47216Y-35579D02*
X47366Y-35579D01*
X46866Y-35879D02*
X47366Y-35879D01*
X48866Y-35879D02*
X48366Y-35879D01*
X48866Y-31379D02*
X48366Y-31379D01*
X46866Y-31379D02*
X47366Y-31379D01*
X48516Y-31679D02*
X48766Y-31929D01*
X48766Y-31929D02*
X48766Y-35329D01*
X48766Y-35329D02*
X48516Y-35579D01*
X47216Y-35579D02*
X46966Y-35329D01*
X46966Y-35329D02*
X46966Y-31929D01*
X46966Y-31929D02*
X47216Y-31679D01*
X48866Y-35879D02*
X48866Y-31379D01*
X46866Y-31379D02*
X46866Y-35879D01*
G54D13*
X65596Y-42561D02*
X65596Y-43461D01*
X65596Y-43461D02*
X66096Y-43461D01*
X66096Y-43461D02*
X66096Y-42561D01*
X66096Y-42561D02*
X65596Y-42561D01*
X60416Y-45479D02*
X61316Y-45479D01*
X61316Y-45479D02*
X61316Y-44979D01*
X61316Y-44979D02*
X60416Y-44979D01*
X60416Y-44979D02*
X60416Y-45479D01*
X65990Y-36557D02*
X65990Y-37457D01*
X65990Y-37457D02*
X66490Y-37457D01*
X66490Y-37457D02*
X66490Y-36557D01*
X66490Y-36557D02*
X65990Y-36557D01*
X53316Y-35479D02*
X53316Y-36379D01*
X53316Y-36379D02*
X53816Y-36379D01*
X53816Y-36379D02*
X53816Y-35479D01*
X53816Y-35479D02*
X53316Y-35479D01*
X54716Y-41079D02*
X54716Y-40179D01*
X54716Y-40179D02*
X54216Y-40179D01*
X54216Y-40179D02*
X54216Y-41079D01*
X54216Y-41079D02*
X54716Y-41079D01*
X54216Y-38979D02*
X54216Y-39879D01*
X54216Y-39879D02*
X54716Y-39879D01*
X54716Y-39879D02*
X54716Y-38979D01*
X54716Y-38979D02*
X54216Y-38979D01*
X55516Y-41079D02*
X55516Y-40179D01*
X55516Y-40179D02*
X55016Y-40179D01*
X55016Y-40179D02*
X55016Y-41079D01*
X55016Y-41079D02*
X55516Y-41079D01*
X55016Y-38979D02*
X55016Y-39879D01*
X55016Y-39879D02*
X55516Y-39879D01*
X55516Y-39879D02*
X55516Y-38979D01*
X55516Y-38979D02*
X55016Y-38979D01*
X52516Y-46579D02*
X53416Y-46579D01*
X53416Y-46579D02*
X53416Y-46079D01*
X53416Y-46079D02*
X52516Y-46079D01*
X52516Y-46079D02*
X52516Y-46579D01*
X48959Y-43655D02*
X49859Y-43655D01*
X49859Y-43655D02*
X49859Y-43155D01*
X49859Y-43155D02*
X48959Y-43155D01*
X48959Y-43155D02*
X48959Y-43655D01*
X49116Y-37179D02*
X49116Y-36279D01*
X49116Y-36279D02*
X48616Y-36279D01*
X48616Y-36279D02*
X48616Y-37179D01*
X48616Y-37179D02*
X49116Y-37179D01*
X55516Y-42279D02*
X55516Y-41379D01*
X55516Y-41379D02*
X55016Y-41379D01*
X55016Y-41379D02*
X55016Y-42279D01*
X55016Y-42279D02*
X55516Y-42279D01*
X54716Y-42279D02*
X54716Y-41379D01*
X54716Y-41379D02*
X54216Y-41379D01*
X54216Y-41379D02*
X54216Y-42279D01*
X54216Y-42279D02*
X54716Y-42279D01*
X63716Y-46179D02*
X63716Y-45279D01*
X63716Y-45279D02*
X63216Y-45279D01*
X63216Y-45279D02*
X63216Y-46179D01*
X63216Y-46179D02*
X63716Y-46179D01*
G54D14*
X52266Y-43429D02*
X52266Y-28429D01*
X52266Y-28429D02*
X50266Y-28429D01*
X50266Y-28429D02*
X50266Y-43429D01*
X50266Y-43429D02*
X52266Y-43429D01*
X51766Y-43429D02*
X51766Y-42929D01*
X51766Y-42929D02*
X50766Y-42929D01*
X50766Y-42929D02*
X50766Y-43429D01*
G54D13*
X59716Y-43629D02*
X59716Y-43029D01*
X59766Y-42879D02*
X59766Y-43779D01*
X59816Y-43879D02*
X59816Y-42779D01*
X59866Y-42679D02*
X59866Y-43979D01*
X59916Y-44029D02*
X59916Y-42629D01*
X62066Y-43329D02*
G75*
G03X62066Y-43329I-1200J0D01*
G74*
G01*
X59566Y-44629D02*
X59566Y-42029D01*
X59566Y-42029D02*
X61866Y-42029D01*
X61866Y-42029D02*
X62166Y-42329D01*
X62166Y-42329D02*
X62166Y-44329D01*
X62166Y-44329D02*
X61866Y-44629D01*
X61866Y-44629D02*
X59566Y-44629D01*
X61716Y-43329D02*
X61416Y-43329D01*
X61566Y-43479D02*
X61566Y-43179D01*
G54D15*
X46616Y-32179D02*
G75*
G03X46616Y-32179I-50J0D01*
G74*
G01*
X46566Y-32629D02*
X46566Y-32229D01*
X46566Y-32229D02*
X45966Y-32229D01*
X45966Y-32229D02*
X45966Y-32629D01*
X45966Y-33029D02*
X45966Y-33429D01*
X45966Y-33429D02*
X46566Y-33429D01*
X46566Y-33429D02*
X46566Y-33029D01*
X46016Y-35079D02*
G75*
G03X46016Y-35079I-50J0D01*
G74*
G01*
X45966Y-34629D02*
X45966Y-35029D01*
X45966Y-35029D02*
X46566Y-35029D01*
X46566Y-35029D02*
X46566Y-34629D01*
X46566Y-34229D02*
X46566Y-33829D01*
X46566Y-33829D02*
X45966Y-33829D01*
X45966Y-33829D02*
X45966Y-34229D01*
G54D16*
X49023Y-39937D02*
X48023Y-39937D01*
X48023Y-39937D02*
X48023Y-42937D01*
X48023Y-42937D02*
X49023Y-42937D01*
X49023Y-42937D02*
X49023Y-39937D01*
X48023Y-40937D02*
X49023Y-40937D01*
G54D17*
X45466Y-42429D02*
X45466Y-45429D01*
X47466Y-45429D02*
X47466Y-42429D01*
X47466Y-42429D02*
X45466Y-42429D01*
X45466Y-45429D02*
X47466Y-45429D01*
G54D18*
X60416Y-48679D02*
X60116Y-48679D01*
X60116Y-48679D02*
X60116Y-47179D01*
X60416Y-47179D02*
X60116Y-47179D01*
X60416Y-48679D02*
X60416Y-47179D01*
G54D16*
X62266Y-49329D02*
X62266Y-48779D01*
X58266Y-46379D02*
X62266Y-46379D01*
X58266Y-46379D02*
X58266Y-47079D01*
X62266Y-49329D02*
X58266Y-49329D01*
X62266Y-46729D02*
X62466Y-46679D01*
X62266Y-46729D02*
X62266Y-46379D01*
X62466Y-46679D02*
X62466Y-47129D01*
X62466Y-47129D02*
X62266Y-47079D01*
X62266Y-47079D02*
X62266Y-46729D01*
X62266Y-47079D02*
X58266Y-47079D01*
X58266Y-47079D02*
X58266Y-48779D01*
X62266Y-48779D02*
X58266Y-48779D01*
X62266Y-48779D02*
X62266Y-47079D01*
X58266Y-48779D02*
X58266Y-49329D01*
X59676Y-48479D02*
X58726Y-47529D01*
X59826Y-48329D02*
X58876Y-47379D01*
X61806Y-48329D02*
X60856Y-47379D01*
X61656Y-48479D02*
X60706Y-47529D01*
G54D19*
X59676Y-48329D02*
X58876Y-47529D01*
X61656Y-48329D02*
X60856Y-47529D01*
G54D16*
X59826Y-48329D02*
X59676Y-48479D01*
X58876Y-47379D02*
X58726Y-47529D01*
X61806Y-48329D02*
X61656Y-48479D01*
X60856Y-47379D02*
X60706Y-47529D01*
G54D20*
X59417Y-46729D02*
G75*
G03X59417Y-46729I-141J0D01*
G74*
G01*
X61397Y-46729D02*
G75*
G03X61397Y-46729I-141J0D01*
G74*
G01*
X59771Y-47929D02*
G75*
G03X59771Y-47929I-494J0D01*
G74*
G01*
X61751Y-47929D02*
G75*
G03X61751Y-47929I-494J0D01*
G74*
G01*
G54D13*
X57366Y-48679D02*
X57366Y-49579D01*
X57366Y-49579D02*
X56716Y-49579D01*
X56016Y-48679D02*
X55366Y-48679D01*
X55366Y-48679D02*
X55366Y-49579D01*
X55366Y-49579D02*
X56016Y-49579D01*
X56716Y-48679D02*
X57366Y-48679D01*
G54D10*
X46254Y-35612D02*
X46044Y-35927D01*
X46044Y-35612D02*
X46254Y-35927D01*
X45760Y-35927D02*
X45940Y-35927D01*
X45850Y-35927D02*
X45850Y-35612D01*
X45880Y-35657D01*
X45910Y-35687D01*
X45940Y-35702D01*
X47032Y-36327D02*
X47212Y-36327D01*
X47122Y-36327D02*
X47122Y-36012D01*
X47152Y-36057D01*
X47182Y-36087D01*
X47212Y-36102D01*
X46762Y-36012D02*
X46822Y-36012D01*
X46852Y-36027D01*
X46867Y-36042D01*
X46897Y-36087D01*
X46912Y-36147D01*
X46912Y-36267D01*
X46897Y-36297D01*
X46882Y-36312D01*
X46852Y-36327D01*
X46792Y-36327D01*
X46762Y-36312D01*
X46747Y-36297D01*
X46732Y-36267D01*
X46732Y-36192D01*
X46747Y-36162D01*
X46762Y-36147D01*
X46792Y-36132D01*
X46852Y-36132D01*
X46882Y-36147D01*
X46897Y-36162D01*
X46912Y-36192D01*
X46597Y-36327D02*
X46597Y-36012D01*
X46492Y-36237D01*
X46387Y-36012D01*
X46387Y-36327D01*
X46237Y-36327D02*
X46237Y-36012D01*
X46237Y-36162D02*
X46057Y-36162D01*
X46057Y-36327D02*
X46057Y-36012D01*
X45937Y-36117D02*
X45772Y-36117D01*
X45937Y-36327D01*
X45772Y-36327D01*
G54D21*
X65930Y-43880D02*
X65990Y-43785D01*
X66032Y-43880D02*
X66032Y-43680D01*
X65964Y-43680D01*
X65947Y-43690D01*
X65938Y-43700D01*
X65930Y-43719D01*
X65930Y-43747D01*
X65938Y-43766D01*
X65947Y-43776D01*
X65964Y-43785D01*
X66032Y-43785D01*
X65861Y-43700D02*
X65852Y-43690D01*
X65835Y-43680D01*
X65792Y-43680D01*
X65775Y-43690D01*
X65767Y-43700D01*
X65758Y-43719D01*
X65758Y-43738D01*
X65767Y-43766D01*
X65870Y-43880D01*
X65758Y-43880D01*
X61730Y-45261D02*
X61738Y-45271D01*
X61764Y-45280D01*
X61781Y-45280D01*
X61807Y-45271D01*
X61824Y-45252D01*
X61832Y-45233D01*
X61841Y-45195D01*
X61841Y-45166D01*
X61832Y-45128D01*
X61824Y-45109D01*
X61807Y-45090D01*
X61781Y-45080D01*
X61764Y-45080D01*
X61738Y-45090D01*
X61730Y-45100D01*
X61558Y-45280D02*
X61661Y-45280D01*
X61610Y-45280D02*
X61610Y-45080D01*
X61627Y-45109D01*
X61644Y-45128D01*
X61661Y-45138D01*
X66330Y-37780D02*
X66390Y-37685D01*
X66432Y-37780D02*
X66432Y-37580D01*
X66364Y-37580D01*
X66347Y-37590D01*
X66338Y-37600D01*
X66330Y-37619D01*
X66330Y-37647D01*
X66338Y-37666D01*
X66347Y-37676D01*
X66364Y-37685D01*
X66432Y-37685D01*
X66270Y-37580D02*
X66158Y-37580D01*
X66218Y-37657D01*
X66192Y-37657D01*
X66175Y-37666D01*
X66167Y-37676D01*
X66158Y-37695D01*
X66158Y-37742D01*
X66167Y-37761D01*
X66175Y-37771D01*
X66192Y-37780D01*
X66244Y-37780D01*
X66261Y-37771D01*
X66270Y-37761D01*
X53630Y-35261D02*
X53638Y-35271D01*
X53664Y-35280D01*
X53681Y-35280D01*
X53707Y-35271D01*
X53724Y-35252D01*
X53732Y-35233D01*
X53741Y-35195D01*
X53741Y-35166D01*
X53732Y-35128D01*
X53724Y-35109D01*
X53707Y-35090D01*
X53681Y-35080D01*
X53664Y-35080D01*
X53638Y-35090D01*
X53630Y-35100D01*
X53544Y-35280D02*
X53510Y-35280D01*
X53492Y-35271D01*
X53484Y-35261D01*
X53467Y-35233D01*
X53458Y-35195D01*
X53458Y-35119D01*
X53467Y-35100D01*
X53475Y-35090D01*
X53492Y-35080D01*
X53527Y-35080D01*
X53544Y-35090D01*
X53552Y-35100D01*
X53561Y-35119D01*
X53561Y-35166D01*
X53552Y-35185D01*
X53544Y-35195D01*
X53527Y-35204D01*
X53492Y-35204D01*
X53475Y-35195D01*
X53467Y-35185D01*
X53458Y-35166D01*
X53930Y-40680D02*
X53990Y-40585D01*
X54032Y-40680D02*
X54032Y-40480D01*
X53964Y-40480D01*
X53947Y-40490D01*
X53938Y-40500D01*
X53930Y-40519D01*
X53930Y-40547D01*
X53938Y-40566D01*
X53947Y-40576D01*
X53964Y-40585D01*
X54032Y-40585D01*
X53870Y-40480D02*
X53750Y-40480D01*
X53827Y-40680D01*
X53930Y-39480D02*
X53990Y-39385D01*
X54032Y-39480D02*
X54032Y-39280D01*
X53964Y-39280D01*
X53947Y-39290D01*
X53938Y-39300D01*
X53930Y-39319D01*
X53930Y-39347D01*
X53938Y-39366D01*
X53947Y-39376D01*
X53964Y-39385D01*
X54032Y-39385D01*
X53844Y-39480D02*
X53810Y-39480D01*
X53792Y-39471D01*
X53784Y-39461D01*
X53767Y-39433D01*
X53758Y-39395D01*
X53758Y-39319D01*
X53767Y-39300D01*
X53775Y-39290D01*
X53792Y-39280D01*
X53827Y-39280D01*
X53844Y-39290D01*
X53852Y-39300D01*
X53861Y-39319D01*
X53861Y-39366D01*
X53852Y-39385D01*
X53844Y-39395D01*
X53827Y-39404D01*
X53792Y-39404D01*
X53775Y-39395D01*
X53767Y-39385D01*
X53758Y-39366D01*
X56030Y-40680D02*
X56090Y-40585D01*
X56132Y-40680D02*
X56132Y-40480D01*
X56064Y-40480D01*
X56047Y-40490D01*
X56038Y-40500D01*
X56030Y-40519D01*
X56030Y-40547D01*
X56038Y-40566D01*
X56047Y-40576D01*
X56064Y-40585D01*
X56132Y-40585D01*
X55927Y-40566D02*
X55944Y-40557D01*
X55952Y-40547D01*
X55961Y-40528D01*
X55961Y-40519D01*
X55952Y-40500D01*
X55944Y-40490D01*
X55927Y-40480D01*
X55892Y-40480D01*
X55875Y-40490D01*
X55867Y-40500D01*
X55858Y-40519D01*
X55858Y-40528D01*
X55867Y-40547D01*
X55875Y-40557D01*
X55892Y-40566D01*
X55927Y-40566D01*
X55944Y-40576D01*
X55952Y-40585D01*
X55961Y-40604D01*
X55961Y-40642D01*
X55952Y-40661D01*
X55944Y-40671D01*
X55927Y-40680D01*
X55892Y-40680D01*
X55875Y-40671D01*
X55867Y-40661D01*
X55858Y-40642D01*
X55858Y-40604D01*
X55867Y-40585D01*
X55875Y-40576D01*
X55892Y-40566D01*
X56115Y-39480D02*
X56175Y-39385D01*
X56218Y-39480D02*
X56218Y-39280D01*
X56150Y-39280D01*
X56132Y-39290D01*
X56124Y-39300D01*
X56115Y-39319D01*
X56115Y-39347D01*
X56124Y-39366D01*
X56132Y-39376D01*
X56150Y-39385D01*
X56218Y-39385D01*
X55944Y-39480D02*
X56047Y-39480D01*
X55995Y-39480D02*
X55995Y-39280D01*
X56012Y-39309D01*
X56030Y-39328D01*
X56047Y-39338D01*
X55832Y-39280D02*
X55815Y-39280D01*
X55798Y-39290D01*
X55790Y-39300D01*
X55781Y-39319D01*
X55772Y-39357D01*
X55772Y-39404D01*
X55781Y-39442D01*
X55790Y-39461D01*
X55798Y-39471D01*
X55815Y-39480D01*
X55832Y-39480D01*
X55850Y-39471D01*
X55858Y-39461D01*
X55867Y-39442D01*
X55875Y-39404D01*
X55875Y-39357D01*
X55867Y-39319D01*
X55858Y-39300D01*
X55850Y-39290D01*
X55832Y-39280D01*
X54015Y-46361D02*
X54024Y-46371D01*
X54050Y-46380D01*
X54067Y-46380D01*
X54092Y-46371D01*
X54110Y-46352D01*
X54118Y-46333D01*
X54127Y-46295D01*
X54127Y-46266D01*
X54118Y-46228D01*
X54110Y-46209D01*
X54092Y-46190D01*
X54067Y-46180D01*
X54050Y-46180D01*
X54024Y-46190D01*
X54015Y-46200D01*
X53844Y-46380D02*
X53947Y-46380D01*
X53895Y-46380D02*
X53895Y-46180D01*
X53912Y-46209D01*
X53930Y-46228D01*
X53947Y-46238D01*
X53775Y-46200D02*
X53767Y-46190D01*
X53750Y-46180D01*
X53707Y-46180D01*
X53690Y-46190D01*
X53681Y-46200D01*
X53672Y-46219D01*
X53672Y-46238D01*
X53681Y-46266D01*
X53784Y-46380D01*
X53672Y-46380D01*
X49515Y-43980D02*
X49575Y-43885D01*
X49618Y-43980D02*
X49618Y-43780D01*
X49550Y-43780D01*
X49532Y-43790D01*
X49524Y-43800D01*
X49515Y-43819D01*
X49515Y-43847D01*
X49524Y-43866D01*
X49532Y-43876D01*
X49550Y-43885D01*
X49618Y-43885D01*
X49344Y-43980D02*
X49447Y-43980D01*
X49395Y-43980D02*
X49395Y-43780D01*
X49412Y-43809D01*
X49430Y-43828D01*
X49447Y-43838D01*
X49172Y-43980D02*
X49275Y-43980D01*
X49224Y-43980D02*
X49224Y-43780D01*
X49241Y-43809D01*
X49258Y-43828D01*
X49275Y-43838D01*
X48928Y-36599D02*
X48937Y-36590D01*
X48947Y-36564D01*
X48947Y-36547D01*
X48937Y-36521D01*
X48918Y-36504D01*
X48899Y-36496D01*
X48861Y-36487D01*
X48832Y-36487D01*
X48794Y-36496D01*
X48775Y-36504D01*
X48756Y-36521D01*
X48747Y-36547D01*
X48747Y-36564D01*
X48756Y-36590D01*
X48766Y-36599D01*
X48747Y-36659D02*
X48747Y-36779D01*
X48947Y-36701D01*
X56030Y-41880D02*
X56090Y-41785D01*
X56132Y-41880D02*
X56132Y-41680D01*
X56064Y-41680D01*
X56047Y-41690D01*
X56038Y-41700D01*
X56030Y-41719D01*
X56030Y-41747D01*
X56038Y-41766D01*
X56047Y-41776D01*
X56064Y-41785D01*
X56132Y-41785D01*
X55875Y-41680D02*
X55910Y-41680D01*
X55927Y-41690D01*
X55935Y-41700D01*
X55952Y-41728D01*
X55961Y-41766D01*
X55961Y-41842D01*
X55952Y-41861D01*
X55944Y-41871D01*
X55927Y-41880D01*
X55892Y-41880D01*
X55875Y-41871D01*
X55867Y-41861D01*
X55858Y-41842D01*
X55858Y-41795D01*
X55867Y-41776D01*
X55875Y-41766D01*
X55892Y-41757D01*
X55927Y-41757D01*
X55944Y-41766D01*
X55952Y-41776D01*
X55961Y-41795D01*
X53930Y-41880D02*
X53990Y-41785D01*
X54032Y-41880D02*
X54032Y-41680D01*
X53964Y-41680D01*
X53947Y-41690D01*
X53938Y-41700D01*
X53930Y-41719D01*
X53930Y-41747D01*
X53938Y-41766D01*
X53947Y-41776D01*
X53964Y-41785D01*
X54032Y-41785D01*
X53767Y-41680D02*
X53852Y-41680D01*
X53861Y-41776D01*
X53852Y-41766D01*
X53835Y-41757D01*
X53792Y-41757D01*
X53775Y-41766D01*
X53767Y-41776D01*
X53758Y-41795D01*
X53758Y-41842D01*
X53767Y-41861D01*
X53775Y-41871D01*
X53792Y-41880D01*
X53835Y-41880D01*
X53852Y-41871D01*
X53861Y-41861D01*
X63430Y-46580D02*
X63490Y-46485D01*
X63532Y-46580D02*
X63532Y-46380D01*
X63464Y-46380D01*
X63447Y-46390D01*
X63438Y-46400D01*
X63430Y-46419D01*
X63430Y-46447D01*
X63438Y-46466D01*
X63447Y-46476D01*
X63464Y-46485D01*
X63532Y-46485D01*
X63258Y-46580D02*
X63361Y-46580D01*
X63310Y-46580D02*
X63310Y-46380D01*
X63327Y-46409D01*
X63344Y-46428D01*
X63361Y-46438D01*
G54D22*
X53339Y-27242D02*
X53339Y-26642D01*
X52867Y-27185D02*
X52889Y-27214D01*
X52953Y-27242D01*
X52996Y-27242D01*
X53060Y-27214D01*
X53103Y-27157D01*
X53124Y-27100D01*
X53146Y-26985D01*
X53146Y-26900D01*
X53124Y-26785D01*
X53103Y-26728D01*
X53060Y-26671D01*
X52996Y-26642D01*
X52953Y-26642D01*
X52889Y-26671D01*
X52867Y-26700D01*
X52439Y-27242D02*
X52696Y-27242D01*
X52567Y-27242D02*
X52567Y-26642D01*
X52610Y-26728D01*
X52653Y-26785D01*
X52696Y-26814D01*
G54D23*
G54D22*
X53267Y-27971D02*
X53053Y-27971D01*
X53310Y-28142D02*
X53160Y-27542D01*
X53010Y-28142D01*
X52925Y-27542D02*
X52667Y-27542D01*
X52796Y-28142D02*
X52796Y-27542D01*
X52517Y-28142D02*
X52517Y-27542D01*
X52367Y-27971D01*
X52217Y-27542D01*
X52217Y-28142D01*
X52003Y-27828D02*
X51853Y-27828D01*
X51789Y-28142D02*
X52003Y-28142D01*
X52003Y-27542D01*
X51789Y-27542D01*
X51360Y-27571D02*
X51403Y-27542D01*
X51467Y-27542D01*
X51532Y-27571D01*
X51575Y-27628D01*
X51596Y-27685D01*
X51617Y-27800D01*
X51617Y-27885D01*
X51596Y-28000D01*
X51575Y-28057D01*
X51532Y-28114D01*
X51467Y-28142D01*
X51425Y-28142D01*
X51360Y-28114D01*
X51339Y-28085D01*
X51339Y-27885D01*
X51425Y-27885D01*
X51167Y-27971D02*
X50953Y-27971D01*
X51210Y-28142D02*
X51060Y-27542D01*
X50910Y-28142D01*
X50696Y-27800D02*
X50739Y-27771D01*
X50760Y-27742D01*
X50782Y-27685D01*
X50782Y-27657D01*
X50760Y-27600D01*
X50739Y-27571D01*
X50696Y-27542D01*
X50610Y-27542D01*
X50567Y-27571D01*
X50546Y-27600D01*
X50525Y-27657D01*
X50525Y-27685D01*
X50546Y-27742D01*
X50567Y-27771D01*
X50610Y-27800D01*
X50696Y-27800D01*
X50739Y-27828D01*
X50760Y-27857D01*
X50782Y-27914D01*
X50782Y-28028D01*
X50760Y-28085D01*
X50739Y-28114D01*
X50696Y-28142D01*
X50610Y-28142D01*
X50567Y-28114D01*
X50546Y-28085D01*
X50525Y-28028D01*
X50525Y-27914D01*
X50546Y-27857D01*
X50567Y-27828D01*
X50610Y-27800D01*
X50353Y-27971D02*
X50139Y-27971D01*
X50396Y-28142D02*
X50246Y-27542D01*
X50096Y-28142D01*
X49946Y-27914D02*
X49603Y-27914D01*
X49389Y-28142D02*
X49389Y-27542D01*
X49217Y-27542D01*
X49175Y-27571D01*
X49153Y-27600D01*
X49132Y-27657D01*
X49132Y-27742D01*
X49153Y-27800D01*
X49175Y-27828D01*
X49217Y-27857D01*
X49389Y-27857D01*
G54D23*
G54D24*
X58632Y-43360D02*
X58642Y-43370D01*
X58670Y-43379D01*
X58689Y-43379D01*
X58717Y-43370D01*
X58736Y-43351D01*
X58745Y-43332D01*
X58754Y-43295D01*
X58754Y-43267D01*
X58745Y-43229D01*
X58736Y-43210D01*
X58717Y-43192D01*
X58689Y-43182D01*
X58670Y-43182D01*
X58642Y-43192D01*
X58632Y-43201D01*
X58557Y-43201D02*
X58548Y-43192D01*
X58529Y-43182D01*
X58482Y-43182D01*
X58463Y-43192D01*
X58454Y-43201D01*
X58445Y-43220D01*
X58445Y-43239D01*
X58454Y-43267D01*
X58567Y-43379D01*
X58445Y-43379D01*
G54D25*
X45626Y-32460D02*
X45636Y-32470D01*
X45664Y-32479D01*
X45682Y-32479D01*
X45711Y-32470D01*
X45729Y-32451D01*
X45739Y-32432D01*
X45748Y-32395D01*
X45748Y-32367D01*
X45739Y-32329D01*
X45729Y-32310D01*
X45711Y-32292D01*
X45682Y-32282D01*
X45664Y-32282D01*
X45636Y-32292D01*
X45626Y-32301D01*
X45439Y-32479D02*
X45551Y-32479D01*
X45495Y-32479D02*
X45495Y-32282D01*
X45514Y-32310D01*
X45532Y-32329D01*
X45551Y-32339D01*
X45251Y-32479D02*
X45363Y-32479D01*
X45307Y-32479D02*
X45307Y-32282D01*
X45326Y-32310D01*
X45345Y-32329D01*
X45363Y-32339D01*
X45748Y-32582D02*
X45626Y-32582D01*
X45692Y-32657D01*
X45664Y-32657D01*
X45645Y-32667D01*
X45636Y-32676D01*
X45626Y-32695D01*
X45626Y-32742D01*
X45636Y-32760D01*
X45645Y-32770D01*
X45664Y-32779D01*
X45720Y-32779D01*
X45739Y-32770D01*
X45748Y-32760D01*
X45560Y-32582D02*
X45439Y-32582D01*
X45504Y-32657D01*
X45476Y-32657D01*
X45457Y-32667D01*
X45448Y-32676D01*
X45439Y-32695D01*
X45439Y-32742D01*
X45448Y-32760D01*
X45457Y-32770D01*
X45476Y-32779D01*
X45532Y-32779D01*
X45551Y-32770D01*
X45560Y-32760D01*
X45354Y-32648D02*
X45354Y-32845D01*
X45354Y-32657D02*
X45335Y-32648D01*
X45298Y-32648D01*
X45279Y-32657D01*
X45270Y-32667D01*
X45260Y-32685D01*
X45260Y-32742D01*
X45270Y-32760D01*
X45279Y-32770D01*
X45298Y-32779D01*
X45335Y-32779D01*
X45354Y-32770D01*
X45626Y-33960D02*
X45636Y-33970D01*
X45664Y-33979D01*
X45682Y-33979D01*
X45711Y-33970D01*
X45729Y-33951D01*
X45739Y-33932D01*
X45748Y-33895D01*
X45748Y-33867D01*
X45739Y-33829D01*
X45729Y-33810D01*
X45711Y-33792D01*
X45682Y-33782D01*
X45664Y-33782D01*
X45636Y-33792D01*
X45626Y-33801D01*
X45439Y-33979D02*
X45551Y-33979D01*
X45495Y-33979D02*
X45495Y-33782D01*
X45514Y-33810D01*
X45532Y-33829D01*
X45551Y-33839D01*
X45317Y-33782D02*
X45298Y-33782D01*
X45279Y-33792D01*
X45270Y-33801D01*
X45260Y-33820D01*
X45251Y-33857D01*
X45251Y-33904D01*
X45260Y-33942D01*
X45270Y-33960D01*
X45279Y-33970D01*
X45298Y-33979D01*
X45317Y-33979D01*
X45335Y-33970D01*
X45345Y-33960D01*
X45354Y-33942D01*
X45363Y-33904D01*
X45363Y-33857D01*
X45354Y-33820D01*
X45345Y-33801D01*
X45335Y-33792D01*
X45317Y-33782D01*
X45748Y-34082D02*
X45626Y-34082D01*
X45692Y-34157D01*
X45664Y-34157D01*
X45645Y-34167D01*
X45636Y-34176D01*
X45626Y-34195D01*
X45626Y-34242D01*
X45636Y-34260D01*
X45645Y-34270D01*
X45664Y-34279D01*
X45720Y-34279D01*
X45739Y-34270D01*
X45748Y-34260D01*
X45560Y-34082D02*
X45439Y-34082D01*
X45504Y-34157D01*
X45476Y-34157D01*
X45457Y-34167D01*
X45448Y-34176D01*
X45439Y-34195D01*
X45439Y-34242D01*
X45448Y-34260D01*
X45457Y-34270D01*
X45476Y-34279D01*
X45532Y-34279D01*
X45551Y-34270D01*
X45560Y-34260D01*
X45354Y-34148D02*
X45354Y-34345D01*
X45354Y-34157D02*
X45335Y-34148D01*
X45298Y-34148D01*
X45279Y-34157D01*
X45270Y-34167D01*
X45260Y-34185D01*
X45260Y-34242D01*
X45270Y-34260D01*
X45279Y-34270D01*
X45298Y-34279D01*
X45335Y-34279D01*
X45354Y-34270D01*
G54D16*
X47833Y-40061D02*
X47833Y-40347D01*
X47852Y-40404D01*
X47890Y-40442D01*
X47947Y-40461D01*
X47985Y-40461D01*
X47471Y-40195D02*
X47471Y-40461D01*
X47566Y-40042D02*
X47661Y-40328D01*
X47414Y-40328D01*
G54D17*
X47133Y-40761D02*
X47133Y-41047D01*
X47152Y-41104D01*
X47190Y-41142D01*
X47247Y-41161D01*
X47285Y-41161D01*
X46961Y-40800D02*
X46942Y-40780D01*
X46904Y-40761D01*
X46809Y-40761D01*
X46771Y-40780D01*
X46752Y-40800D01*
X46733Y-40838D01*
X46733Y-40876D01*
X46752Y-40933D01*
X46980Y-41161D01*
X46733Y-41161D01*
G54D26*
X62333Y-45483D02*
X62333Y-45983D01*
X62366Y-46083D01*
X62433Y-46150D01*
X62533Y-46183D01*
X62600Y-46183D01*
X61633Y-46183D02*
X62033Y-46183D01*
X61833Y-46183D02*
X61833Y-45483D01*
X61900Y-45583D01*
X61966Y-45650D01*
X62033Y-45683D01*
X60200Y-46150D02*
X60100Y-46183D01*
X59933Y-46183D01*
X59866Y-46150D01*
X59833Y-46116D01*
X59800Y-46050D01*
X59800Y-45983D01*
X59833Y-45916D01*
X59866Y-45883D01*
X59933Y-45850D01*
X60066Y-45816D01*
X60133Y-45783D01*
X60166Y-45750D01*
X60200Y-45683D01*
X60200Y-45616D01*
X60166Y-45550D01*
X60133Y-45516D01*
X60066Y-45483D01*
X59900Y-45483D01*
X59800Y-45516D01*
X59200Y-45716D02*
X59200Y-46183D01*
X59500Y-45716D02*
X59500Y-46083D01*
X59466Y-46150D01*
X59400Y-46183D01*
X59300Y-46183D01*
X59233Y-46150D01*
X59200Y-46116D01*
X58866Y-45716D02*
X58866Y-46416D01*
X58866Y-45750D02*
X58800Y-45716D01*
X58666Y-45716D01*
X58600Y-45750D01*
X58566Y-45783D01*
X58533Y-45850D01*
X58533Y-46050D01*
X58566Y-46116D01*
X58600Y-46150D01*
X58666Y-46183D01*
X58800Y-46183D01*
X58866Y-46150D01*
X58233Y-45716D02*
X58233Y-46416D01*
X58233Y-45750D02*
X58166Y-45716D01*
X58033Y-45716D01*
X57966Y-45750D01*
X57933Y-45783D01*
X57900Y-45850D01*
X57900Y-46050D01*
X57933Y-46116D01*
X57966Y-46150D01*
X58033Y-46183D01*
X58166Y-46183D01*
X58233Y-46150D01*
X57500Y-46183D02*
X57566Y-46150D01*
X57600Y-46083D01*
X57600Y-45483D01*
X57300Y-45716D02*
X57133Y-46183D01*
X56966Y-45716D02*
X57133Y-46183D01*
X57200Y-46350D01*
X57233Y-46383D01*
X57300Y-46416D01*
X61709Y-46891D02*
X61932Y-46891D01*
X61821Y-46891D02*
X61821Y-46501D01*
X61858Y-46557D01*
X61895Y-46594D01*
X61932Y-46613D01*
X59932Y-46539D02*
X59913Y-46520D01*
X59876Y-46501D01*
X59783Y-46501D01*
X59746Y-46520D01*
X59728Y-46539D01*
X59709Y-46576D01*
X59709Y-46613D01*
X59728Y-46669D01*
X59951Y-46891D01*
X59709Y-46891D01*
G54D13*
X56492Y-50021D02*
X56592Y-49878D01*
X56664Y-50021D02*
X56664Y-49721D01*
X56550Y-49721D01*
X56521Y-49735D01*
X56507Y-49750D01*
X56492Y-49778D01*
X56492Y-49821D01*
X56507Y-49850D01*
X56521Y-49864D01*
X56550Y-49878D01*
X56664Y-49878D01*
X56392Y-49721D02*
X56207Y-49721D01*
X56307Y-49835D01*
X56264Y-49835D01*
X56235Y-49850D01*
X56221Y-49864D01*
X56207Y-49892D01*
X56207Y-49964D01*
X56221Y-49992D01*
X56235Y-50007D01*
X56264Y-50021D01*
X56350Y-50021D01*
X56378Y-50007D01*
X56392Y-49992D01*
X55935Y-49721D02*
X56078Y-49721D01*
X56092Y-49864D01*
X56078Y-49850D01*
X56050Y-49835D01*
X55978Y-49835D01*
X55950Y-49850D01*
X55935Y-49864D01*
X55921Y-49892D01*
X55921Y-49964D01*
X55935Y-49992D01*
X55950Y-50007D01*
X55978Y-50021D01*
X56050Y-50021D01*
X56078Y-50007D01*
X56092Y-49992D01*
M02*
