G04 (created by PCBNEW (2013-jul-07)-stable) date nie, 13 lis 2016, 20:29:25*
%MOIN*%
G04 Gerber Fmt 3.4, Leading zero omitted, Abs format*
%FSLAX34Y34*%
G01*
G70*
G90*
G04 APERTURE LIST*
%ADD10C,0.00590551*%
%ADD11R,0.055X0.055*%
%ADD12C,0.055*%
%ADD13R,0.0551X0.0138*%
%ADD14R,0.08X0.06*%
%ADD15R,0.045X0.025*%
%ADD16R,0.025X0.045*%
%ADD17C,0.0787402*%
%ADD18R,0.1417X0.063*%
%ADD19R,0.06X0.06*%
%ADD20C,0.06*%
%ADD21O,0.055X0.11*%
%ADD22R,0.06X0.08*%
%ADD23C,0.045*%
G04 APERTURE END LIST*
G54D10*
G54D11*
X64766Y-36629D03*
G54D12*
X64766Y-35629D03*
X63766Y-35629D03*
G54D11*
X64766Y-42029D03*
G54D12*
X64766Y-41029D03*
X63766Y-41029D03*
G54D11*
X64766Y-45229D03*
G54D12*
X64766Y-44229D03*
X63766Y-44229D03*
G54D13*
X62007Y-34842D03*
X62007Y-34448D03*
X62007Y-34055D03*
X62007Y-33661D03*
X62007Y-33267D03*
X62007Y-32874D03*
X62007Y-32480D03*
X62007Y-32086D03*
X62007Y-31692D03*
X62007Y-31299D03*
X62007Y-30905D03*
X62007Y-30511D03*
X58858Y-30511D03*
X58858Y-30905D03*
X58858Y-31299D03*
X58858Y-31692D03*
X58858Y-32086D03*
X58858Y-32480D03*
X58858Y-32874D03*
X58858Y-33267D03*
X58858Y-33661D03*
X58858Y-34055D03*
X58858Y-34448D03*
X58858Y-34842D03*
G54D14*
X51666Y-35779D03*
X51666Y-34479D03*
G54D15*
X58066Y-40629D03*
X58066Y-40029D03*
X58066Y-41429D03*
X58066Y-42029D03*
X58066Y-43429D03*
X58066Y-42829D03*
X50766Y-34829D03*
X50766Y-35429D03*
X53566Y-37429D03*
X53566Y-36829D03*
X56862Y-45463D03*
X56862Y-46063D03*
X46466Y-47029D03*
X46466Y-47629D03*
X57662Y-45463D03*
X57662Y-46063D03*
X45666Y-47029D03*
X45666Y-47629D03*
X46266Y-37629D03*
X46266Y-38229D03*
X65866Y-46724D03*
X65866Y-47324D03*
X45466Y-37629D03*
X45466Y-38229D03*
X66666Y-46724D03*
X66666Y-47324D03*
X66469Y-38222D03*
X66469Y-38822D03*
X56102Y-36707D03*
X56102Y-37307D03*
X65669Y-38222D03*
X65669Y-38822D03*
X55511Y-36707D03*
X55511Y-37307D03*
X46466Y-29429D03*
X46466Y-30029D03*
G54D16*
X60566Y-35929D03*
X59966Y-35929D03*
G54D15*
X66511Y-30508D03*
X66511Y-29908D03*
X65711Y-30508D03*
X65711Y-29908D03*
X45666Y-29429D03*
X45666Y-30029D03*
X57066Y-29429D03*
X57066Y-28829D03*
X57866Y-29429D03*
X57866Y-28829D03*
G54D17*
X47440Y-46850D03*
X56102Y-46850D03*
X64763Y-46850D03*
X47440Y-38188D03*
X56102Y-38188D03*
X64763Y-38188D03*
X47440Y-29527D03*
X56102Y-29527D03*
X64763Y-29527D03*
X64763Y-30708D03*
X64763Y-39370D03*
X64763Y-48031D03*
G54D12*
X49766Y-41429D03*
X49766Y-40429D03*
X49766Y-39429D03*
X49766Y-38429D03*
X49766Y-37429D03*
X49766Y-36429D03*
X49766Y-35429D03*
X49766Y-34429D03*
X49766Y-33429D03*
X49766Y-32429D03*
X49766Y-31429D03*
X49766Y-30429D03*
X49766Y-29429D03*
G54D11*
X49766Y-42429D03*
G54D12*
X52766Y-29429D03*
X52766Y-30429D03*
X52766Y-31429D03*
X52766Y-32429D03*
X52766Y-33429D03*
X52766Y-34429D03*
X52766Y-35429D03*
X52766Y-36429D03*
X52766Y-37429D03*
X52766Y-38429D03*
X52766Y-39429D03*
X52766Y-40429D03*
X52766Y-41429D03*
X52766Y-42429D03*
G54D18*
X59183Y-37729D03*
X61349Y-37729D03*
G54D19*
X48523Y-40437D03*
G54D20*
X48523Y-41437D03*
X48523Y-42437D03*
G54D19*
X45966Y-44929D03*
G54D20*
X46966Y-44929D03*
X45966Y-43929D03*
X46966Y-43929D03*
X45966Y-42929D03*
X46966Y-42929D03*
G54D21*
X51416Y-47679D03*
X52416Y-47679D03*
X53416Y-47679D03*
X54416Y-47679D03*
X54416Y-44679D03*
X53416Y-44679D03*
X52416Y-44679D03*
X51416Y-44679D03*
G54D19*
X54566Y-35829D03*
G54D20*
X54566Y-36829D03*
G54D22*
X56716Y-49129D03*
X55416Y-49129D03*
G54D14*
X59366Y-44479D03*
X59366Y-43179D03*
G54D23*
X51476Y-29429D03*
X48917Y-29822D03*
X50984Y-33267D03*
X44842Y-36023D03*
X45177Y-31200D03*
X50984Y-30511D03*
G54D15*
X62166Y-45529D03*
X62166Y-46129D03*
G54D14*
X61266Y-46529D03*
X61266Y-45229D03*
G54D23*
X45078Y-46456D03*
X47834Y-49606D03*
X46653Y-39370D03*
X48425Y-46062D03*
X53838Y-33070D03*
X44685Y-40944D03*
X55511Y-43503D03*
M02*
