G04 (created by PCBNEW (2013-jul-07)-stable) date nie, 13 lis 2016, 20:29:25*
%MOIN*%
G04 Gerber Fmt 3.4, Leading zero omitted, Abs format*
%FSLAX34Y34*%
G01*
G70*
G90*
G04 APERTURE LIST*
%ADD10C,0.00590551*%
%ADD11C,0.012*%
%ADD12C,0.005*%
%ADD13C,0.01*%
%ADD14C,0.006*%
%ADD15C,0.008*%
%ADD16C,0.0055*%
%ADD17C,0.0051*%
%ADD18C,0.0045*%
%ADD19C,0.0047*%
G04 APERTURE END LIST*
G54D10*
G54D11*
X63266Y-35629D02*
X64766Y-37129D01*
X64766Y-37129D02*
X65266Y-37129D01*
X65266Y-37129D02*
X65766Y-36629D01*
X65766Y-36629D02*
X65766Y-35629D01*
X65766Y-35629D02*
X64766Y-34629D01*
X64766Y-34629D02*
X63766Y-34629D01*
X63766Y-34629D02*
X63266Y-35129D01*
X63266Y-35129D02*
X63266Y-35629D01*
X63266Y-41029D02*
X64766Y-42529D01*
X64766Y-42529D02*
X65266Y-42529D01*
X65266Y-42529D02*
X65766Y-42029D01*
X65766Y-42029D02*
X65766Y-41029D01*
X65766Y-41029D02*
X64766Y-40029D01*
X64766Y-40029D02*
X63766Y-40029D01*
X63766Y-40029D02*
X63266Y-40529D01*
X63266Y-40529D02*
X63266Y-41029D01*
X63266Y-44229D02*
X64766Y-45729D01*
X64766Y-45729D02*
X65266Y-45729D01*
X65266Y-45729D02*
X65766Y-45229D01*
X65766Y-45229D02*
X65766Y-44229D01*
X65766Y-44229D02*
X64766Y-43229D01*
X64766Y-43229D02*
X63766Y-43229D01*
X63766Y-43229D02*
X63266Y-43729D01*
X63266Y-43729D02*
X63266Y-44229D01*
G54D10*
X61614Y-35236D02*
X61614Y-35039D01*
X59251Y-35236D02*
X59251Y-35039D01*
X61440Y-34842D02*
G75*
G03X61440Y-34842I-220J0D01*
G74*
G01*
X59251Y-30118D02*
X61614Y-30118D01*
X61614Y-30118D02*
X61614Y-35039D01*
X61614Y-35236D02*
X59251Y-35236D01*
X59251Y-35039D02*
X59251Y-30118D01*
G54D12*
X51216Y-36129D02*
X52116Y-36129D01*
X52116Y-36129D02*
X52116Y-35479D01*
X51216Y-34779D02*
X51216Y-34129D01*
X51216Y-34129D02*
X52116Y-34129D01*
X52116Y-34129D02*
X52116Y-34779D01*
X51216Y-35479D02*
X51216Y-36129D01*
X57816Y-40779D02*
X57816Y-39879D01*
X57816Y-39879D02*
X58316Y-39879D01*
X58316Y-39879D02*
X58316Y-40779D01*
X58316Y-40779D02*
X57816Y-40779D01*
X58316Y-41279D02*
X58316Y-42179D01*
X58316Y-42179D02*
X57816Y-42179D01*
X57816Y-42179D02*
X57816Y-41279D01*
X57816Y-41279D02*
X58316Y-41279D01*
X57816Y-43579D02*
X57816Y-42679D01*
X57816Y-42679D02*
X58316Y-42679D01*
X58316Y-42679D02*
X58316Y-43579D01*
X58316Y-43579D02*
X57816Y-43579D01*
X51016Y-34679D02*
X51016Y-35579D01*
X51016Y-35579D02*
X50516Y-35579D01*
X50516Y-35579D02*
X50516Y-34679D01*
X50516Y-34679D02*
X51016Y-34679D01*
X53316Y-37579D02*
X53316Y-36679D01*
X53316Y-36679D02*
X53816Y-36679D01*
X53816Y-36679D02*
X53816Y-37579D01*
X53816Y-37579D02*
X53316Y-37579D01*
X57112Y-45313D02*
X57112Y-46213D01*
X57112Y-46213D02*
X56612Y-46213D01*
X56612Y-46213D02*
X56612Y-45313D01*
X56612Y-45313D02*
X57112Y-45313D01*
X46716Y-46879D02*
X46716Y-47779D01*
X46716Y-47779D02*
X46216Y-47779D01*
X46216Y-47779D02*
X46216Y-46879D01*
X46216Y-46879D02*
X46716Y-46879D01*
X57912Y-45313D02*
X57912Y-46213D01*
X57912Y-46213D02*
X57412Y-46213D01*
X57412Y-46213D02*
X57412Y-45313D01*
X57412Y-45313D02*
X57912Y-45313D01*
X45916Y-46879D02*
X45916Y-47779D01*
X45916Y-47779D02*
X45416Y-47779D01*
X45416Y-47779D02*
X45416Y-46879D01*
X45416Y-46879D02*
X45916Y-46879D01*
X46516Y-37479D02*
X46516Y-38379D01*
X46516Y-38379D02*
X46016Y-38379D01*
X46016Y-38379D02*
X46016Y-37479D01*
X46016Y-37479D02*
X46516Y-37479D01*
X66116Y-46574D02*
X66116Y-47474D01*
X66116Y-47474D02*
X65616Y-47474D01*
X65616Y-47474D02*
X65616Y-46574D01*
X65616Y-46574D02*
X66116Y-46574D01*
X45716Y-37479D02*
X45716Y-38379D01*
X45716Y-38379D02*
X45216Y-38379D01*
X45216Y-38379D02*
X45216Y-37479D01*
X45216Y-37479D02*
X45716Y-37479D01*
X66916Y-46574D02*
X66916Y-47474D01*
X66916Y-47474D02*
X66416Y-47474D01*
X66416Y-47474D02*
X66416Y-46574D01*
X66416Y-46574D02*
X66916Y-46574D01*
X66719Y-38072D02*
X66719Y-38972D01*
X66719Y-38972D02*
X66219Y-38972D01*
X66219Y-38972D02*
X66219Y-38072D01*
X66219Y-38072D02*
X66719Y-38072D01*
X56352Y-36557D02*
X56352Y-37457D01*
X56352Y-37457D02*
X55852Y-37457D01*
X55852Y-37457D02*
X55852Y-36557D01*
X55852Y-36557D02*
X56352Y-36557D01*
X65919Y-38072D02*
X65919Y-38972D01*
X65919Y-38972D02*
X65419Y-38972D01*
X65419Y-38972D02*
X65419Y-38072D01*
X65419Y-38072D02*
X65919Y-38072D01*
X55761Y-36557D02*
X55761Y-37457D01*
X55761Y-37457D02*
X55261Y-37457D01*
X55261Y-37457D02*
X55261Y-36557D01*
X55261Y-36557D02*
X55761Y-36557D01*
X46716Y-29279D02*
X46716Y-30179D01*
X46716Y-30179D02*
X46216Y-30179D01*
X46216Y-30179D02*
X46216Y-29279D01*
X46216Y-29279D02*
X46716Y-29279D01*
X60716Y-36179D02*
X59816Y-36179D01*
X59816Y-36179D02*
X59816Y-35679D01*
X59816Y-35679D02*
X60716Y-35679D01*
X60716Y-35679D02*
X60716Y-36179D01*
X66261Y-30658D02*
X66261Y-29758D01*
X66261Y-29758D02*
X66761Y-29758D01*
X66761Y-29758D02*
X66761Y-30658D01*
X66761Y-30658D02*
X66261Y-30658D01*
X65461Y-30658D02*
X65461Y-29758D01*
X65461Y-29758D02*
X65961Y-29758D01*
X65961Y-29758D02*
X65961Y-30658D01*
X65961Y-30658D02*
X65461Y-30658D01*
X45916Y-29279D02*
X45916Y-30179D01*
X45916Y-30179D02*
X45416Y-30179D01*
X45416Y-30179D02*
X45416Y-29279D01*
X45416Y-29279D02*
X45916Y-29279D01*
X56816Y-29579D02*
X56816Y-28679D01*
X56816Y-28679D02*
X57316Y-28679D01*
X57316Y-28679D02*
X57316Y-29579D01*
X57316Y-29579D02*
X56816Y-29579D01*
X57616Y-29579D02*
X57616Y-28679D01*
X57616Y-28679D02*
X58116Y-28679D01*
X58116Y-28679D02*
X58116Y-29579D01*
X58116Y-29579D02*
X57616Y-29579D01*
X61416Y-38029D02*
X61416Y-37429D01*
X61366Y-37279D02*
X61366Y-38179D01*
X61316Y-38279D02*
X61316Y-37179D01*
X61266Y-37079D02*
X61266Y-38379D01*
X61216Y-38429D02*
X61216Y-37029D01*
X61466Y-37729D02*
G75*
G03X61466Y-37729I-1200J0D01*
G74*
G01*
X61566Y-39029D02*
X61566Y-36429D01*
X61566Y-36429D02*
X59266Y-36429D01*
X59266Y-36429D02*
X58966Y-36729D01*
X58966Y-36729D02*
X58966Y-38729D01*
X58966Y-38729D02*
X59266Y-39029D01*
X59266Y-39029D02*
X61566Y-39029D01*
X59416Y-37729D02*
X59716Y-37729D01*
X59566Y-37879D02*
X59566Y-37579D01*
G54D13*
X50916Y-45679D02*
X51416Y-45679D01*
X51416Y-45679D02*
X51416Y-46679D01*
X51416Y-46679D02*
X50916Y-46679D01*
X50916Y-45179D02*
X54916Y-45179D01*
X54916Y-45179D02*
X54916Y-47179D01*
X54916Y-47179D02*
X50916Y-47179D01*
X50916Y-47179D02*
X50916Y-45179D01*
G54D14*
X54066Y-35329D02*
X55066Y-35329D01*
X55066Y-35329D02*
X55066Y-37329D01*
X55066Y-37329D02*
X54066Y-37329D01*
X54066Y-37329D02*
X54066Y-35329D01*
G54D12*
X57066Y-49579D02*
X57066Y-48679D01*
X57066Y-48679D02*
X56416Y-48679D01*
X55716Y-49579D02*
X55066Y-49579D01*
X55066Y-49579D02*
X55066Y-48679D01*
X55066Y-48679D02*
X55716Y-48679D01*
X56416Y-49579D02*
X57066Y-49579D01*
X58916Y-44829D02*
X59816Y-44829D01*
X59816Y-44829D02*
X59816Y-44179D01*
X58916Y-43479D02*
X58916Y-42829D01*
X58916Y-42829D02*
X59816Y-42829D01*
X59816Y-42829D02*
X59816Y-43479D01*
X58916Y-44179D02*
X58916Y-44829D01*
X51792Y-29429D02*
G75*
G03X51792Y-29429I-316J0D01*
G74*
G01*
X49233Y-29822D02*
G75*
G03X49233Y-29822I-316J0D01*
G74*
G01*
X51300Y-33267D02*
G75*
G03X51300Y-33267I-316J0D01*
G74*
G01*
X45158Y-36023D02*
G75*
G03X45158Y-36023I-316J0D01*
G74*
G01*
X45493Y-31200D02*
G75*
G03X45493Y-31200I-316J0D01*
G74*
G01*
X51300Y-30511D02*
G75*
G03X51300Y-30511I-316J0D01*
G74*
G01*
X62416Y-45379D02*
X62416Y-46279D01*
X62416Y-46279D02*
X61916Y-46279D01*
X61916Y-46279D02*
X61916Y-45379D01*
X61916Y-45379D02*
X62416Y-45379D01*
X60816Y-46879D02*
X60816Y-46979D01*
X60816Y-46979D02*
X61716Y-46979D01*
X61716Y-46979D02*
X61716Y-46879D01*
X60816Y-46879D02*
X61716Y-46879D01*
X61716Y-46879D02*
X61716Y-46229D01*
X60816Y-45529D02*
X60816Y-44879D01*
X60816Y-44879D02*
X61716Y-44879D01*
X61716Y-44879D02*
X61716Y-45529D01*
X60816Y-46229D02*
X60816Y-46879D01*
X45394Y-46456D02*
G75*
G03X45394Y-46456I-316J0D01*
G74*
G01*
X48150Y-49606D02*
G75*
G03X48150Y-49606I-316J0D01*
G74*
G01*
X46969Y-39370D02*
G75*
G03X46969Y-39370I-316J0D01*
G74*
G01*
X48741Y-46062D02*
G75*
G03X48741Y-46062I-316J0D01*
G74*
G01*
X54154Y-33070D02*
G75*
G03X54154Y-33070I-316J0D01*
G74*
G01*
X45001Y-40944D02*
G75*
G03X45001Y-40944I-316J0D01*
G74*
G01*
X55828Y-43503D02*
G75*
G03X55828Y-43503I-316J0D01*
G74*
G01*
G54D15*
X66261Y-36100D02*
X66223Y-36080D01*
X66185Y-36042D01*
X66128Y-35985D01*
X66090Y-35966D01*
X66052Y-35966D01*
X66071Y-36061D02*
X66033Y-36042D01*
X65995Y-36004D01*
X65976Y-35928D01*
X65976Y-35795D01*
X65995Y-35719D01*
X66033Y-35680D01*
X66071Y-35661D01*
X66147Y-35661D01*
X66185Y-35680D01*
X66223Y-35719D01*
X66242Y-35795D01*
X66242Y-35928D01*
X66223Y-36004D01*
X66185Y-36042D01*
X66147Y-36061D01*
X66071Y-36061D01*
X66376Y-35661D02*
X66623Y-35661D01*
X66490Y-35814D01*
X66547Y-35814D01*
X66585Y-35833D01*
X66604Y-35852D01*
X66623Y-35890D01*
X66623Y-35985D01*
X66604Y-36023D01*
X66585Y-36042D01*
X66547Y-36061D01*
X66433Y-36061D01*
X66395Y-36042D01*
X66376Y-36023D01*
X65942Y-36547D02*
X66133Y-36547D01*
X65904Y-36661D02*
X66038Y-36261D01*
X66171Y-36661D01*
X66514Y-36661D02*
X66285Y-36661D01*
X66400Y-36661D02*
X66400Y-36261D01*
X66361Y-36319D01*
X66323Y-36357D01*
X66285Y-36376D01*
X66761Y-36261D02*
X66800Y-36261D01*
X66838Y-36280D01*
X66857Y-36300D01*
X66876Y-36338D01*
X66895Y-36414D01*
X66895Y-36509D01*
X66876Y-36585D01*
X66857Y-36623D01*
X66838Y-36642D01*
X66800Y-36661D01*
X66761Y-36661D01*
X66723Y-36642D01*
X66704Y-36623D01*
X66685Y-36585D01*
X66666Y-36509D01*
X66666Y-36414D01*
X66685Y-36338D01*
X66704Y-36300D01*
X66723Y-36280D01*
X66761Y-36261D01*
X67276Y-36661D02*
X67047Y-36661D01*
X67161Y-36661D02*
X67161Y-36261D01*
X67123Y-36319D01*
X67085Y-36357D01*
X67047Y-36376D01*
X67638Y-36261D02*
X67447Y-36261D01*
X67428Y-36452D01*
X67447Y-36433D01*
X67485Y-36414D01*
X67580Y-36414D01*
X67619Y-36433D01*
X67638Y-36452D01*
X67657Y-36490D01*
X67657Y-36585D01*
X67638Y-36623D01*
X67619Y-36642D01*
X67580Y-36661D01*
X67485Y-36661D01*
X67447Y-36642D01*
X67428Y-36623D01*
X66361Y-41500D02*
X66323Y-41480D01*
X66285Y-41442D01*
X66228Y-41385D01*
X66190Y-41366D01*
X66152Y-41366D01*
X66171Y-41461D02*
X66133Y-41442D01*
X66095Y-41404D01*
X66076Y-41328D01*
X66076Y-41195D01*
X66095Y-41119D01*
X66133Y-41080D01*
X66171Y-41061D01*
X66247Y-41061D01*
X66285Y-41080D01*
X66323Y-41119D01*
X66342Y-41195D01*
X66342Y-41328D01*
X66323Y-41404D01*
X66285Y-41442D01*
X66247Y-41461D01*
X66171Y-41461D01*
X66495Y-41100D02*
X66514Y-41080D01*
X66552Y-41061D01*
X66647Y-41061D01*
X66685Y-41080D01*
X66704Y-41100D01*
X66723Y-41138D01*
X66723Y-41176D01*
X66704Y-41233D01*
X66476Y-41461D01*
X66723Y-41461D01*
X66142Y-41947D02*
X66333Y-41947D01*
X66104Y-42061D02*
X66238Y-41661D01*
X66371Y-42061D01*
X66714Y-42061D02*
X66485Y-42061D01*
X66600Y-42061D02*
X66600Y-41661D01*
X66561Y-41719D01*
X66523Y-41757D01*
X66485Y-41776D01*
X66961Y-41661D02*
X67000Y-41661D01*
X67038Y-41680D01*
X67057Y-41700D01*
X67076Y-41738D01*
X67095Y-41814D01*
X67095Y-41909D01*
X67076Y-41985D01*
X67057Y-42023D01*
X67038Y-42042D01*
X67000Y-42061D01*
X66961Y-42061D01*
X66923Y-42042D01*
X66904Y-42023D01*
X66885Y-41985D01*
X66866Y-41909D01*
X66866Y-41814D01*
X66885Y-41738D01*
X66904Y-41700D01*
X66923Y-41680D01*
X66961Y-41661D01*
X67476Y-42061D02*
X67247Y-42061D01*
X67361Y-42061D02*
X67361Y-41661D01*
X67323Y-41719D01*
X67285Y-41757D01*
X67247Y-41776D01*
X67838Y-41661D02*
X67647Y-41661D01*
X67628Y-41852D01*
X67647Y-41833D01*
X67685Y-41814D01*
X67780Y-41814D01*
X67819Y-41833D01*
X67838Y-41852D01*
X67857Y-41890D01*
X67857Y-41985D01*
X67838Y-42023D01*
X67819Y-42042D01*
X67780Y-42061D01*
X67685Y-42061D01*
X67647Y-42042D01*
X67628Y-42023D01*
X66261Y-44600D02*
X66223Y-44580D01*
X66185Y-44542D01*
X66128Y-44485D01*
X66090Y-44466D01*
X66052Y-44466D01*
X66071Y-44561D02*
X66033Y-44542D01*
X65995Y-44504D01*
X65976Y-44428D01*
X65976Y-44295D01*
X65995Y-44219D01*
X66033Y-44180D01*
X66071Y-44161D01*
X66147Y-44161D01*
X66185Y-44180D01*
X66223Y-44219D01*
X66242Y-44295D01*
X66242Y-44428D01*
X66223Y-44504D01*
X66185Y-44542D01*
X66147Y-44561D01*
X66071Y-44561D01*
X66623Y-44561D02*
X66395Y-44561D01*
X66509Y-44561D02*
X66509Y-44161D01*
X66471Y-44219D01*
X66433Y-44257D01*
X66395Y-44276D01*
X66042Y-45147D02*
X66233Y-45147D01*
X66004Y-45261D02*
X66138Y-44861D01*
X66271Y-45261D01*
X66614Y-45261D02*
X66385Y-45261D01*
X66500Y-45261D02*
X66500Y-44861D01*
X66461Y-44919D01*
X66423Y-44957D01*
X66385Y-44976D01*
X66861Y-44861D02*
X66900Y-44861D01*
X66938Y-44880D01*
X66957Y-44900D01*
X66976Y-44938D01*
X66995Y-45014D01*
X66995Y-45109D01*
X66976Y-45185D01*
X66957Y-45223D01*
X66938Y-45242D01*
X66900Y-45261D01*
X66861Y-45261D01*
X66823Y-45242D01*
X66804Y-45223D01*
X66785Y-45185D01*
X66766Y-45109D01*
X66766Y-45014D01*
X66785Y-44938D01*
X66804Y-44900D01*
X66823Y-44880D01*
X66861Y-44861D01*
X67376Y-45261D02*
X67147Y-45261D01*
X67261Y-45261D02*
X67261Y-44861D01*
X67223Y-44919D01*
X67185Y-44957D01*
X67147Y-44976D01*
X67738Y-44861D02*
X67547Y-44861D01*
X67528Y-45052D01*
X67547Y-45033D01*
X67585Y-45014D01*
X67680Y-45014D01*
X67719Y-45033D01*
X67738Y-45052D01*
X67757Y-45090D01*
X67757Y-45185D01*
X67738Y-45223D01*
X67719Y-45242D01*
X67680Y-45261D01*
X67585Y-45261D01*
X67547Y-45242D01*
X67528Y-45223D01*
G54D16*
X59099Y-28865D02*
X59099Y-29184D01*
X59118Y-29221D01*
X59137Y-29240D01*
X59174Y-29259D01*
X59249Y-29259D01*
X59287Y-29240D01*
X59306Y-29221D01*
X59324Y-29184D01*
X59324Y-28865D01*
X59718Y-29259D02*
X59493Y-29259D01*
X59606Y-29259D02*
X59606Y-28865D01*
X59568Y-28921D01*
X59531Y-28959D01*
X59493Y-28978D01*
G54D17*
X59089Y-29840D02*
X59146Y-29859D01*
X59239Y-29859D01*
X59277Y-29840D01*
X59296Y-29821D01*
X59315Y-29784D01*
X59315Y-29746D01*
X59296Y-29709D01*
X59277Y-29690D01*
X59239Y-29671D01*
X59164Y-29653D01*
X59127Y-29634D01*
X59108Y-29615D01*
X59089Y-29578D01*
X59089Y-29540D01*
X59108Y-29503D01*
X59127Y-29484D01*
X59164Y-29465D01*
X59258Y-29465D01*
X59315Y-29484D01*
X59427Y-29465D02*
X59652Y-29465D01*
X59540Y-29859D02*
X59540Y-29465D01*
X59765Y-29503D02*
X59784Y-29484D01*
X59821Y-29465D01*
X59915Y-29465D01*
X59952Y-29484D01*
X59971Y-29503D01*
X59990Y-29540D01*
X59990Y-29578D01*
X59971Y-29634D01*
X59746Y-29859D01*
X59990Y-29859D01*
X60140Y-29503D02*
X60159Y-29484D01*
X60196Y-29465D01*
X60290Y-29465D01*
X60328Y-29484D01*
X60346Y-29503D01*
X60365Y-29540D01*
X60365Y-29578D01*
X60346Y-29634D01*
X60121Y-29859D01*
X60365Y-29859D01*
X60515Y-29503D02*
X60534Y-29484D01*
X60572Y-29465D01*
X60665Y-29465D01*
X60703Y-29484D01*
X60722Y-29503D01*
X60740Y-29540D01*
X60740Y-29578D01*
X60722Y-29634D01*
X60497Y-29859D01*
X60740Y-29859D01*
X61116Y-29859D02*
X60891Y-29859D01*
X61003Y-29859D02*
X61003Y-29465D01*
X60966Y-29521D01*
X60928Y-29559D01*
X60891Y-29578D01*
X61510Y-29821D02*
X61491Y-29840D01*
X61435Y-29859D01*
X61397Y-29859D01*
X61341Y-29840D01*
X61303Y-29803D01*
X61285Y-29765D01*
X61266Y-29690D01*
X61266Y-29634D01*
X61285Y-29559D01*
X61303Y-29521D01*
X61341Y-29484D01*
X61397Y-29465D01*
X61435Y-29465D01*
X61491Y-29484D01*
X61510Y-29503D01*
G54D12*
X51550Y-36621D02*
X51407Y-36621D01*
X51407Y-36321D01*
X51807Y-36621D02*
X51635Y-36621D01*
X51721Y-36621D02*
X51721Y-36321D01*
X51692Y-36364D01*
X51664Y-36392D01*
X51635Y-36407D01*
G54D18*
X57284Y-40380D02*
X57224Y-40285D01*
X57181Y-40380D02*
X57181Y-40180D01*
X57250Y-40180D01*
X57267Y-40190D01*
X57275Y-40200D01*
X57284Y-40219D01*
X57284Y-40247D01*
X57275Y-40266D01*
X57267Y-40276D01*
X57250Y-40285D01*
X57181Y-40285D01*
X57344Y-40180D02*
X57455Y-40180D01*
X57395Y-40257D01*
X57421Y-40257D01*
X57438Y-40266D01*
X57447Y-40276D01*
X57455Y-40295D01*
X57455Y-40342D01*
X57447Y-40361D01*
X57438Y-40371D01*
X57421Y-40380D01*
X57370Y-40380D01*
X57352Y-40371D01*
X57344Y-40361D01*
X57515Y-40180D02*
X57627Y-40180D01*
X57567Y-40257D01*
X57592Y-40257D01*
X57610Y-40266D01*
X57618Y-40276D01*
X57627Y-40295D01*
X57627Y-40342D01*
X57618Y-40361D01*
X57610Y-40371D01*
X57592Y-40380D01*
X57541Y-40380D01*
X57524Y-40371D01*
X57515Y-40361D01*
X57284Y-41780D02*
X57224Y-41685D01*
X57181Y-41780D02*
X57181Y-41580D01*
X57250Y-41580D01*
X57267Y-41590D01*
X57275Y-41600D01*
X57284Y-41619D01*
X57284Y-41647D01*
X57275Y-41666D01*
X57267Y-41676D01*
X57250Y-41685D01*
X57181Y-41685D01*
X57344Y-41580D02*
X57455Y-41580D01*
X57395Y-41657D01*
X57421Y-41657D01*
X57438Y-41666D01*
X57447Y-41676D01*
X57455Y-41695D01*
X57455Y-41742D01*
X57447Y-41761D01*
X57438Y-41771D01*
X57421Y-41780D01*
X57370Y-41780D01*
X57352Y-41771D01*
X57344Y-41761D01*
X57524Y-41600D02*
X57532Y-41590D01*
X57550Y-41580D01*
X57592Y-41580D01*
X57610Y-41590D01*
X57618Y-41600D01*
X57627Y-41619D01*
X57627Y-41638D01*
X57618Y-41666D01*
X57515Y-41780D01*
X57627Y-41780D01*
X57284Y-43180D02*
X57224Y-43085D01*
X57181Y-43180D02*
X57181Y-42980D01*
X57250Y-42980D01*
X57267Y-42990D01*
X57275Y-43000D01*
X57284Y-43019D01*
X57284Y-43047D01*
X57275Y-43066D01*
X57267Y-43076D01*
X57250Y-43085D01*
X57181Y-43085D01*
X57344Y-42980D02*
X57455Y-42980D01*
X57395Y-43057D01*
X57421Y-43057D01*
X57438Y-43066D01*
X57447Y-43076D01*
X57455Y-43095D01*
X57455Y-43142D01*
X57447Y-43161D01*
X57438Y-43171D01*
X57421Y-43180D01*
X57370Y-43180D01*
X57352Y-43171D01*
X57344Y-43161D01*
X57627Y-43180D02*
X57524Y-43180D01*
X57575Y-43180D02*
X57575Y-42980D01*
X57558Y-43009D01*
X57541Y-43028D01*
X57524Y-43038D01*
X50770Y-35961D02*
X50761Y-35971D01*
X50735Y-35980D01*
X50718Y-35980D01*
X50692Y-35971D01*
X50675Y-35952D01*
X50667Y-35933D01*
X50658Y-35895D01*
X50658Y-35866D01*
X50667Y-35828D01*
X50675Y-35809D01*
X50692Y-35790D01*
X50718Y-35780D01*
X50735Y-35780D01*
X50761Y-35790D01*
X50770Y-35800D01*
X50872Y-35866D02*
X50855Y-35857D01*
X50847Y-35847D01*
X50838Y-35828D01*
X50838Y-35819D01*
X50847Y-35800D01*
X50855Y-35790D01*
X50872Y-35780D01*
X50907Y-35780D01*
X50924Y-35790D01*
X50932Y-35800D01*
X50941Y-35819D01*
X50941Y-35828D01*
X50932Y-35847D01*
X50924Y-35857D01*
X50907Y-35866D01*
X50872Y-35866D01*
X50855Y-35876D01*
X50847Y-35885D01*
X50838Y-35904D01*
X50838Y-35942D01*
X50847Y-35961D01*
X50855Y-35971D01*
X50872Y-35980D01*
X50907Y-35980D01*
X50924Y-35971D01*
X50932Y-35961D01*
X50941Y-35942D01*
X50941Y-35904D01*
X50932Y-35885D01*
X50924Y-35876D01*
X50907Y-35866D01*
X53484Y-37980D02*
X53424Y-37885D01*
X53381Y-37980D02*
X53381Y-37780D01*
X53450Y-37780D01*
X53467Y-37790D01*
X53475Y-37800D01*
X53484Y-37819D01*
X53484Y-37847D01*
X53475Y-37866D01*
X53467Y-37876D01*
X53450Y-37885D01*
X53381Y-37885D01*
X53544Y-37780D02*
X53655Y-37780D01*
X53595Y-37857D01*
X53621Y-37857D01*
X53638Y-37866D01*
X53647Y-37876D01*
X53655Y-37895D01*
X53655Y-37942D01*
X53647Y-37961D01*
X53638Y-37971D01*
X53621Y-37980D01*
X53570Y-37980D01*
X53552Y-37971D01*
X53544Y-37961D01*
X53810Y-37847D02*
X53810Y-37980D01*
X53767Y-37771D02*
X53724Y-37914D01*
X53835Y-37914D01*
X56784Y-45080D02*
X56724Y-44985D01*
X56681Y-45080D02*
X56681Y-44880D01*
X56750Y-44880D01*
X56767Y-44890D01*
X56775Y-44900D01*
X56784Y-44919D01*
X56784Y-44947D01*
X56775Y-44966D01*
X56767Y-44976D01*
X56750Y-44985D01*
X56681Y-44985D01*
X56955Y-45080D02*
X56852Y-45080D01*
X56904Y-45080D02*
X56904Y-44880D01*
X56887Y-44909D01*
X56870Y-44928D01*
X56852Y-44938D01*
X57118Y-44880D02*
X57032Y-44880D01*
X57024Y-44976D01*
X57032Y-44966D01*
X57050Y-44957D01*
X57092Y-44957D01*
X57110Y-44966D01*
X57118Y-44976D01*
X57127Y-44995D01*
X57127Y-45042D01*
X57118Y-45061D01*
X57110Y-45071D01*
X57092Y-45080D01*
X57050Y-45080D01*
X57032Y-45071D01*
X57024Y-45061D01*
X46284Y-48180D02*
X46224Y-48085D01*
X46181Y-48180D02*
X46181Y-47980D01*
X46250Y-47980D01*
X46267Y-47990D01*
X46275Y-48000D01*
X46284Y-48019D01*
X46284Y-48047D01*
X46275Y-48066D01*
X46267Y-48076D01*
X46250Y-48085D01*
X46181Y-48085D01*
X46455Y-48180D02*
X46352Y-48180D01*
X46404Y-48180D02*
X46404Y-47980D01*
X46387Y-48009D01*
X46370Y-48028D01*
X46352Y-48038D01*
X46515Y-47980D02*
X46627Y-47980D01*
X46567Y-48057D01*
X46592Y-48057D01*
X46610Y-48066D01*
X46618Y-48076D01*
X46627Y-48095D01*
X46627Y-48142D01*
X46618Y-48161D01*
X46610Y-48171D01*
X46592Y-48180D01*
X46541Y-48180D01*
X46524Y-48171D01*
X46515Y-48161D01*
X57584Y-45080D02*
X57524Y-44985D01*
X57481Y-45080D02*
X57481Y-44880D01*
X57550Y-44880D01*
X57567Y-44890D01*
X57575Y-44900D01*
X57584Y-44919D01*
X57584Y-44947D01*
X57575Y-44966D01*
X57567Y-44976D01*
X57550Y-44985D01*
X57481Y-44985D01*
X57755Y-45080D02*
X57652Y-45080D01*
X57704Y-45080D02*
X57704Y-44880D01*
X57687Y-44909D01*
X57670Y-44928D01*
X57652Y-44938D01*
X57910Y-44947D02*
X57910Y-45080D01*
X57867Y-44871D02*
X57824Y-45014D01*
X57935Y-45014D01*
X45484Y-48180D02*
X45424Y-48085D01*
X45381Y-48180D02*
X45381Y-47980D01*
X45450Y-47980D01*
X45467Y-47990D01*
X45475Y-48000D01*
X45484Y-48019D01*
X45484Y-48047D01*
X45475Y-48066D01*
X45467Y-48076D01*
X45450Y-48085D01*
X45381Y-48085D01*
X45655Y-48180D02*
X45552Y-48180D01*
X45604Y-48180D02*
X45604Y-47980D01*
X45587Y-48009D01*
X45570Y-48028D01*
X45552Y-48038D01*
X45724Y-48000D02*
X45732Y-47990D01*
X45750Y-47980D01*
X45792Y-47980D01*
X45810Y-47990D01*
X45818Y-48000D01*
X45827Y-48019D01*
X45827Y-48038D01*
X45818Y-48066D01*
X45715Y-48180D01*
X45827Y-48180D01*
X46184Y-37280D02*
X46124Y-37185D01*
X46081Y-37280D02*
X46081Y-37080D01*
X46150Y-37080D01*
X46167Y-37090D01*
X46175Y-37100D01*
X46184Y-37119D01*
X46184Y-37147D01*
X46175Y-37166D01*
X46167Y-37176D01*
X46150Y-37185D01*
X46081Y-37185D01*
X46355Y-37280D02*
X46252Y-37280D01*
X46304Y-37280D02*
X46304Y-37080D01*
X46287Y-37109D01*
X46270Y-37128D01*
X46252Y-37138D01*
X46441Y-37280D02*
X46475Y-37280D01*
X46492Y-37271D01*
X46501Y-37261D01*
X46518Y-37233D01*
X46527Y-37195D01*
X46527Y-37119D01*
X46518Y-37100D01*
X46510Y-37090D01*
X46492Y-37080D01*
X46458Y-37080D01*
X46441Y-37090D01*
X46432Y-37100D01*
X46424Y-37119D01*
X46424Y-37166D01*
X46432Y-37185D01*
X46441Y-37195D01*
X46458Y-37204D01*
X46492Y-37204D01*
X46510Y-37195D01*
X46518Y-37185D01*
X46527Y-37166D01*
X65784Y-46280D02*
X65724Y-46185D01*
X65681Y-46280D02*
X65681Y-46080D01*
X65750Y-46080D01*
X65767Y-46090D01*
X65775Y-46100D01*
X65784Y-46119D01*
X65784Y-46147D01*
X65775Y-46166D01*
X65767Y-46176D01*
X65750Y-46185D01*
X65681Y-46185D01*
X65955Y-46280D02*
X65852Y-46280D01*
X65904Y-46280D02*
X65904Y-46080D01*
X65887Y-46109D01*
X65870Y-46128D01*
X65852Y-46138D01*
X66015Y-46080D02*
X66135Y-46080D01*
X66058Y-46280D01*
X45384Y-37280D02*
X45324Y-37185D01*
X45281Y-37280D02*
X45281Y-37080D01*
X45350Y-37080D01*
X45367Y-37090D01*
X45375Y-37100D01*
X45384Y-37119D01*
X45384Y-37147D01*
X45375Y-37166D01*
X45367Y-37176D01*
X45350Y-37185D01*
X45281Y-37185D01*
X45555Y-37280D02*
X45452Y-37280D01*
X45504Y-37280D02*
X45504Y-37080D01*
X45487Y-37109D01*
X45470Y-37128D01*
X45452Y-37138D01*
X45658Y-37166D02*
X45641Y-37157D01*
X45632Y-37147D01*
X45624Y-37128D01*
X45624Y-37119D01*
X45632Y-37100D01*
X45641Y-37090D01*
X45658Y-37080D01*
X45692Y-37080D01*
X45710Y-37090D01*
X45718Y-37100D01*
X45727Y-37119D01*
X45727Y-37128D01*
X45718Y-37147D01*
X45710Y-37157D01*
X45692Y-37166D01*
X45658Y-37166D01*
X45641Y-37176D01*
X45632Y-37185D01*
X45624Y-37204D01*
X45624Y-37242D01*
X45632Y-37261D01*
X45641Y-37271D01*
X45658Y-37280D01*
X45692Y-37280D01*
X45710Y-37271D01*
X45718Y-37261D01*
X45727Y-37242D01*
X45727Y-37204D01*
X45718Y-37185D01*
X45710Y-37176D01*
X45692Y-37166D01*
X66584Y-46280D02*
X66524Y-46185D01*
X66481Y-46280D02*
X66481Y-46080D01*
X66550Y-46080D01*
X66567Y-46090D01*
X66575Y-46100D01*
X66584Y-46119D01*
X66584Y-46147D01*
X66575Y-46166D01*
X66567Y-46176D01*
X66550Y-46185D01*
X66481Y-46185D01*
X66755Y-46280D02*
X66652Y-46280D01*
X66704Y-46280D02*
X66704Y-46080D01*
X66687Y-46109D01*
X66670Y-46128D01*
X66652Y-46138D01*
X66910Y-46080D02*
X66875Y-46080D01*
X66858Y-46090D01*
X66850Y-46100D01*
X66832Y-46128D01*
X66824Y-46166D01*
X66824Y-46242D01*
X66832Y-46261D01*
X66841Y-46271D01*
X66858Y-46280D01*
X66892Y-46280D01*
X66910Y-46271D01*
X66918Y-46261D01*
X66927Y-46242D01*
X66927Y-46195D01*
X66918Y-46176D01*
X66910Y-46166D01*
X66892Y-46157D01*
X66858Y-46157D01*
X66841Y-46166D01*
X66832Y-46176D01*
X66824Y-46195D01*
X66384Y-37880D02*
X66324Y-37785D01*
X66281Y-37880D02*
X66281Y-37680D01*
X66350Y-37680D01*
X66367Y-37690D01*
X66375Y-37700D01*
X66384Y-37719D01*
X66384Y-37747D01*
X66375Y-37766D01*
X66367Y-37776D01*
X66350Y-37785D01*
X66281Y-37785D01*
X66452Y-37700D02*
X66461Y-37690D01*
X66478Y-37680D01*
X66521Y-37680D01*
X66538Y-37690D01*
X66547Y-37700D01*
X66555Y-37719D01*
X66555Y-37738D01*
X66547Y-37766D01*
X66444Y-37880D01*
X66555Y-37880D01*
X66615Y-37680D02*
X66727Y-37680D01*
X66667Y-37757D01*
X66692Y-37757D01*
X66710Y-37766D01*
X66718Y-37776D01*
X66727Y-37795D01*
X66727Y-37842D01*
X66718Y-37861D01*
X66710Y-37871D01*
X66692Y-37880D01*
X66641Y-37880D01*
X66624Y-37871D01*
X66615Y-37861D01*
X55984Y-36280D02*
X55924Y-36185D01*
X55881Y-36280D02*
X55881Y-36080D01*
X55950Y-36080D01*
X55967Y-36090D01*
X55975Y-36100D01*
X55984Y-36119D01*
X55984Y-36147D01*
X55975Y-36166D01*
X55967Y-36176D01*
X55950Y-36185D01*
X55881Y-36185D01*
X56052Y-36100D02*
X56061Y-36090D01*
X56078Y-36080D01*
X56121Y-36080D01*
X56138Y-36090D01*
X56147Y-36100D01*
X56155Y-36119D01*
X56155Y-36138D01*
X56147Y-36166D01*
X56044Y-36280D01*
X56155Y-36280D01*
X56327Y-36280D02*
X56224Y-36280D01*
X56275Y-36280D02*
X56275Y-36080D01*
X56258Y-36109D01*
X56241Y-36128D01*
X56224Y-36138D01*
X65584Y-37880D02*
X65524Y-37785D01*
X65481Y-37880D02*
X65481Y-37680D01*
X65550Y-37680D01*
X65567Y-37690D01*
X65575Y-37700D01*
X65584Y-37719D01*
X65584Y-37747D01*
X65575Y-37766D01*
X65567Y-37776D01*
X65550Y-37785D01*
X65481Y-37785D01*
X65652Y-37700D02*
X65661Y-37690D01*
X65678Y-37680D01*
X65721Y-37680D01*
X65738Y-37690D01*
X65747Y-37700D01*
X65755Y-37719D01*
X65755Y-37738D01*
X65747Y-37766D01*
X65644Y-37880D01*
X65755Y-37880D01*
X65824Y-37700D02*
X65832Y-37690D01*
X65850Y-37680D01*
X65892Y-37680D01*
X65910Y-37690D01*
X65918Y-37700D01*
X65927Y-37719D01*
X65927Y-37738D01*
X65918Y-37766D01*
X65815Y-37880D01*
X65927Y-37880D01*
X55384Y-36280D02*
X55324Y-36185D01*
X55281Y-36280D02*
X55281Y-36080D01*
X55350Y-36080D01*
X55367Y-36090D01*
X55375Y-36100D01*
X55384Y-36119D01*
X55384Y-36147D01*
X55375Y-36166D01*
X55367Y-36176D01*
X55350Y-36185D01*
X55281Y-36185D01*
X55452Y-36100D02*
X55461Y-36090D01*
X55478Y-36080D01*
X55521Y-36080D01*
X55538Y-36090D01*
X55547Y-36100D01*
X55555Y-36119D01*
X55555Y-36138D01*
X55547Y-36166D01*
X55444Y-36280D01*
X55555Y-36280D01*
X55667Y-36080D02*
X55684Y-36080D01*
X55701Y-36090D01*
X55710Y-36100D01*
X55718Y-36119D01*
X55727Y-36157D01*
X55727Y-36204D01*
X55718Y-36242D01*
X55710Y-36261D01*
X55701Y-36271D01*
X55684Y-36280D01*
X55667Y-36280D01*
X55650Y-36271D01*
X55641Y-36261D01*
X55632Y-36242D01*
X55624Y-36204D01*
X55624Y-36157D01*
X55632Y-36119D01*
X55641Y-36100D01*
X55650Y-36090D01*
X55667Y-36080D01*
X46384Y-29080D02*
X46324Y-28985D01*
X46281Y-29080D02*
X46281Y-28880D01*
X46350Y-28880D01*
X46367Y-28890D01*
X46375Y-28900D01*
X46384Y-28919D01*
X46384Y-28947D01*
X46375Y-28966D01*
X46367Y-28976D01*
X46350Y-28985D01*
X46281Y-28985D01*
X46452Y-28900D02*
X46461Y-28890D01*
X46478Y-28880D01*
X46521Y-28880D01*
X46538Y-28890D01*
X46547Y-28900D01*
X46555Y-28919D01*
X46555Y-28938D01*
X46547Y-28966D01*
X46444Y-29080D01*
X46555Y-29080D01*
X46718Y-28880D02*
X46632Y-28880D01*
X46624Y-28976D01*
X46632Y-28966D01*
X46650Y-28957D01*
X46692Y-28957D01*
X46710Y-28966D01*
X46718Y-28976D01*
X46727Y-28995D01*
X46727Y-29042D01*
X46718Y-29061D01*
X46710Y-29071D01*
X46692Y-29080D01*
X46650Y-29080D01*
X46632Y-29071D01*
X46624Y-29061D01*
X59184Y-35961D02*
X59175Y-35971D01*
X59150Y-35980D01*
X59132Y-35980D01*
X59107Y-35971D01*
X59090Y-35952D01*
X59081Y-35933D01*
X59072Y-35895D01*
X59072Y-35866D01*
X59081Y-35828D01*
X59090Y-35809D01*
X59107Y-35790D01*
X59132Y-35780D01*
X59150Y-35780D01*
X59175Y-35790D01*
X59184Y-35800D01*
X59355Y-35980D02*
X59252Y-35980D01*
X59304Y-35980D02*
X59304Y-35780D01*
X59287Y-35809D01*
X59270Y-35828D01*
X59252Y-35838D01*
X59415Y-35780D02*
X59527Y-35780D01*
X59467Y-35857D01*
X59492Y-35857D01*
X59510Y-35866D01*
X59518Y-35876D01*
X59527Y-35895D01*
X59527Y-35942D01*
X59518Y-35961D01*
X59510Y-35971D01*
X59492Y-35980D01*
X59441Y-35980D01*
X59424Y-35971D01*
X59415Y-35961D01*
X66384Y-29380D02*
X66324Y-29285D01*
X66281Y-29380D02*
X66281Y-29180D01*
X66350Y-29180D01*
X66367Y-29190D01*
X66375Y-29200D01*
X66384Y-29219D01*
X66384Y-29247D01*
X66375Y-29266D01*
X66367Y-29276D01*
X66350Y-29285D01*
X66281Y-29285D01*
X66452Y-29200D02*
X66461Y-29190D01*
X66478Y-29180D01*
X66521Y-29180D01*
X66538Y-29190D01*
X66547Y-29200D01*
X66555Y-29219D01*
X66555Y-29238D01*
X66547Y-29266D01*
X66444Y-29380D01*
X66555Y-29380D01*
X66658Y-29266D02*
X66641Y-29257D01*
X66632Y-29247D01*
X66624Y-29228D01*
X66624Y-29219D01*
X66632Y-29200D01*
X66641Y-29190D01*
X66658Y-29180D01*
X66692Y-29180D01*
X66710Y-29190D01*
X66718Y-29200D01*
X66727Y-29219D01*
X66727Y-29228D01*
X66718Y-29247D01*
X66710Y-29257D01*
X66692Y-29266D01*
X66658Y-29266D01*
X66641Y-29276D01*
X66632Y-29285D01*
X66624Y-29304D01*
X66624Y-29342D01*
X66632Y-29361D01*
X66641Y-29371D01*
X66658Y-29380D01*
X66692Y-29380D01*
X66710Y-29371D01*
X66718Y-29361D01*
X66727Y-29342D01*
X66727Y-29304D01*
X66718Y-29285D01*
X66710Y-29276D01*
X66692Y-29266D01*
X65584Y-29380D02*
X65524Y-29285D01*
X65481Y-29380D02*
X65481Y-29180D01*
X65550Y-29180D01*
X65567Y-29190D01*
X65575Y-29200D01*
X65584Y-29219D01*
X65584Y-29247D01*
X65575Y-29266D01*
X65567Y-29276D01*
X65550Y-29285D01*
X65481Y-29285D01*
X65652Y-29200D02*
X65661Y-29190D01*
X65678Y-29180D01*
X65721Y-29180D01*
X65738Y-29190D01*
X65747Y-29200D01*
X65755Y-29219D01*
X65755Y-29238D01*
X65747Y-29266D01*
X65644Y-29380D01*
X65755Y-29380D01*
X65841Y-29380D02*
X65875Y-29380D01*
X65892Y-29371D01*
X65901Y-29361D01*
X65918Y-29333D01*
X65927Y-29295D01*
X65927Y-29219D01*
X65918Y-29200D01*
X65910Y-29190D01*
X65892Y-29180D01*
X65858Y-29180D01*
X65841Y-29190D01*
X65832Y-29200D01*
X65824Y-29219D01*
X65824Y-29266D01*
X65832Y-29285D01*
X65841Y-29295D01*
X65858Y-29304D01*
X65892Y-29304D01*
X65910Y-29295D01*
X65918Y-29285D01*
X65927Y-29266D01*
X45584Y-29080D02*
X45524Y-28985D01*
X45481Y-29080D02*
X45481Y-28880D01*
X45550Y-28880D01*
X45567Y-28890D01*
X45575Y-28900D01*
X45584Y-28919D01*
X45584Y-28947D01*
X45575Y-28966D01*
X45567Y-28976D01*
X45550Y-28985D01*
X45481Y-28985D01*
X45652Y-28900D02*
X45661Y-28890D01*
X45678Y-28880D01*
X45721Y-28880D01*
X45738Y-28890D01*
X45747Y-28900D01*
X45755Y-28919D01*
X45755Y-28938D01*
X45747Y-28966D01*
X45644Y-29080D01*
X45755Y-29080D01*
X45910Y-28947D02*
X45910Y-29080D01*
X45867Y-28871D02*
X45824Y-29014D01*
X45935Y-29014D01*
X56984Y-28480D02*
X56924Y-28385D01*
X56881Y-28480D02*
X56881Y-28280D01*
X56950Y-28280D01*
X56967Y-28290D01*
X56975Y-28300D01*
X56984Y-28319D01*
X56984Y-28347D01*
X56975Y-28366D01*
X56967Y-28376D01*
X56950Y-28385D01*
X56881Y-28385D01*
X57052Y-28300D02*
X57061Y-28290D01*
X57078Y-28280D01*
X57121Y-28280D01*
X57138Y-28290D01*
X57147Y-28300D01*
X57155Y-28319D01*
X57155Y-28338D01*
X57147Y-28366D01*
X57044Y-28480D01*
X57155Y-28480D01*
X57310Y-28280D02*
X57275Y-28280D01*
X57258Y-28290D01*
X57250Y-28300D01*
X57232Y-28328D01*
X57224Y-28366D01*
X57224Y-28442D01*
X57232Y-28461D01*
X57241Y-28471D01*
X57258Y-28480D01*
X57292Y-28480D01*
X57310Y-28471D01*
X57318Y-28461D01*
X57327Y-28442D01*
X57327Y-28395D01*
X57318Y-28376D01*
X57310Y-28366D01*
X57292Y-28357D01*
X57258Y-28357D01*
X57241Y-28366D01*
X57232Y-28376D01*
X57224Y-28395D01*
X57684Y-28480D02*
X57624Y-28385D01*
X57581Y-28480D02*
X57581Y-28280D01*
X57650Y-28280D01*
X57667Y-28290D01*
X57675Y-28300D01*
X57684Y-28319D01*
X57684Y-28347D01*
X57675Y-28366D01*
X57667Y-28376D01*
X57650Y-28385D01*
X57581Y-28385D01*
X57752Y-28300D02*
X57761Y-28290D01*
X57778Y-28280D01*
X57821Y-28280D01*
X57838Y-28290D01*
X57847Y-28300D01*
X57855Y-28319D01*
X57855Y-28338D01*
X57847Y-28366D01*
X57744Y-28480D01*
X57855Y-28480D01*
X57915Y-28280D02*
X58035Y-28280D01*
X57958Y-28480D01*
G54D19*
X57773Y-37760D02*
X57763Y-37770D01*
X57735Y-37779D01*
X57717Y-37779D01*
X57688Y-37770D01*
X57670Y-37751D01*
X57660Y-37732D01*
X57651Y-37695D01*
X57651Y-37667D01*
X57660Y-37629D01*
X57670Y-37610D01*
X57688Y-37592D01*
X57717Y-37582D01*
X57735Y-37582D01*
X57763Y-37592D01*
X57773Y-37601D01*
X57960Y-37779D02*
X57848Y-37779D01*
X57904Y-37779D02*
X57904Y-37582D01*
X57885Y-37610D01*
X57867Y-37629D01*
X57848Y-37639D01*
X58129Y-37648D02*
X58129Y-37779D01*
X58082Y-37573D02*
X58036Y-37714D01*
X58157Y-37714D01*
G54D15*
X49857Y-45902D02*
X49857Y-46307D01*
X49878Y-46354D01*
X49900Y-46378D01*
X49942Y-46402D01*
X50028Y-46402D01*
X50071Y-46378D01*
X50092Y-46354D01*
X50114Y-46307D01*
X50114Y-45902D01*
X50307Y-45950D02*
X50328Y-45926D01*
X50371Y-45902D01*
X50478Y-45902D01*
X50521Y-45926D01*
X50542Y-45950D01*
X50564Y-45997D01*
X50564Y-46045D01*
X50542Y-46116D01*
X50285Y-46402D01*
X50564Y-46402D01*
X48423Y-46850D02*
X48442Y-46826D01*
X48480Y-46802D01*
X48576Y-46802D01*
X48614Y-46826D01*
X48633Y-46850D01*
X48652Y-46897D01*
X48652Y-46945D01*
X48633Y-47016D01*
X48404Y-47302D01*
X48652Y-47302D01*
X48995Y-46969D02*
X48995Y-47302D01*
X48900Y-46778D02*
X48804Y-47135D01*
X49052Y-47135D01*
X49433Y-47254D02*
X49414Y-47278D01*
X49357Y-47302D01*
X49319Y-47302D01*
X49261Y-47278D01*
X49223Y-47230D01*
X49204Y-47183D01*
X49185Y-47088D01*
X49185Y-47016D01*
X49204Y-46921D01*
X49223Y-46873D01*
X49261Y-46826D01*
X49319Y-46802D01*
X49357Y-46802D01*
X49414Y-46826D01*
X49433Y-46850D01*
X49795Y-46802D02*
X49604Y-46802D01*
X49585Y-47040D01*
X49604Y-47016D01*
X49642Y-46992D01*
X49738Y-46992D01*
X49776Y-47016D01*
X49795Y-47040D01*
X49814Y-47088D01*
X49814Y-47207D01*
X49795Y-47254D01*
X49776Y-47278D01*
X49738Y-47302D01*
X49642Y-47302D01*
X49604Y-47278D01*
X49585Y-47254D01*
X50195Y-47302D02*
X49966Y-47302D01*
X50080Y-47302D02*
X50080Y-46802D01*
X50042Y-46873D01*
X50004Y-46921D01*
X49966Y-46945D01*
X50347Y-46850D02*
X50366Y-46826D01*
X50404Y-46802D01*
X50500Y-46802D01*
X50538Y-46826D01*
X50557Y-46850D01*
X50576Y-46897D01*
X50576Y-46945D01*
X50557Y-47016D01*
X50328Y-47302D01*
X50576Y-47302D01*
G54D14*
X54571Y-37850D02*
X54542Y-37835D01*
X54514Y-37807D01*
X54471Y-37764D01*
X54442Y-37750D01*
X54414Y-37750D01*
X54428Y-37821D02*
X54400Y-37807D01*
X54371Y-37778D01*
X54357Y-37721D01*
X54357Y-37621D01*
X54371Y-37564D01*
X54400Y-37535D01*
X54428Y-37521D01*
X54485Y-37521D01*
X54514Y-37535D01*
X54542Y-37564D01*
X54557Y-37621D01*
X54557Y-37721D01*
X54542Y-37778D01*
X54514Y-37807D01*
X54485Y-37821D01*
X54428Y-37821D01*
X54814Y-37621D02*
X54814Y-37821D01*
X54742Y-37507D02*
X54671Y-37721D01*
X54857Y-37721D01*
G54D12*
X56250Y-50021D02*
X56150Y-49878D01*
X56078Y-50021D02*
X56078Y-49721D01*
X56192Y-49721D01*
X56221Y-49735D01*
X56235Y-49750D01*
X56250Y-49778D01*
X56250Y-49821D01*
X56235Y-49850D01*
X56221Y-49864D01*
X56192Y-49878D01*
X56078Y-49878D01*
X56507Y-49821D02*
X56507Y-50021D01*
X56435Y-49707D02*
X56364Y-49921D01*
X56550Y-49921D01*
X59207Y-42521D02*
X59107Y-42378D01*
X59035Y-42521D02*
X59035Y-42221D01*
X59150Y-42221D01*
X59178Y-42235D01*
X59192Y-42250D01*
X59207Y-42278D01*
X59207Y-42321D01*
X59192Y-42350D01*
X59178Y-42364D01*
X59150Y-42378D01*
X59035Y-42378D01*
X59307Y-42221D02*
X59492Y-42221D01*
X59392Y-42335D01*
X59435Y-42335D01*
X59464Y-42350D01*
X59478Y-42364D01*
X59492Y-42392D01*
X59492Y-42464D01*
X59478Y-42492D01*
X59464Y-42507D01*
X59435Y-42521D01*
X59350Y-42521D01*
X59321Y-42507D01*
X59307Y-42492D01*
X59678Y-42221D02*
X59707Y-42221D01*
X59735Y-42235D01*
X59750Y-42250D01*
X59764Y-42278D01*
X59778Y-42335D01*
X59778Y-42407D01*
X59764Y-42464D01*
X59750Y-42492D01*
X59735Y-42507D01*
X59707Y-42521D01*
X59678Y-42521D01*
X59650Y-42507D01*
X59635Y-42492D01*
X59621Y-42464D01*
X59607Y-42407D01*
X59607Y-42335D01*
X59621Y-42278D01*
X59635Y-42250D01*
X59650Y-42235D01*
X59678Y-42221D01*
X44694Y-35605D02*
X44694Y-35405D01*
X44771Y-35405D01*
X44790Y-35415D01*
X44799Y-35424D01*
X44809Y-35443D01*
X44809Y-35472D01*
X44799Y-35491D01*
X44790Y-35500D01*
X44771Y-35510D01*
X44694Y-35510D01*
X44990Y-35405D02*
X44894Y-35405D01*
X44885Y-35500D01*
X44894Y-35491D01*
X44913Y-35481D01*
X44961Y-35481D01*
X44980Y-35491D01*
X44990Y-35500D01*
X44999Y-35519D01*
X44999Y-35567D01*
X44990Y-35586D01*
X44980Y-35596D01*
X44961Y-35605D01*
X44913Y-35605D01*
X44894Y-35596D01*
X44885Y-35586D01*
X45029Y-30782D02*
X45029Y-30582D01*
X45105Y-30582D01*
X45124Y-30592D01*
X45134Y-30601D01*
X45143Y-30620D01*
X45143Y-30649D01*
X45134Y-30668D01*
X45124Y-30677D01*
X45105Y-30687D01*
X45029Y-30687D01*
X45315Y-30582D02*
X45277Y-30582D01*
X45258Y-30592D01*
X45248Y-30601D01*
X45229Y-30630D01*
X45220Y-30668D01*
X45220Y-30744D01*
X45229Y-30763D01*
X45239Y-30773D01*
X45258Y-30782D01*
X45296Y-30782D01*
X45315Y-30773D01*
X45324Y-30763D01*
X45334Y-30744D01*
X45334Y-30697D01*
X45324Y-30677D01*
X45315Y-30668D01*
X45296Y-30658D01*
X45258Y-30658D01*
X45239Y-30668D01*
X45229Y-30677D01*
X45220Y-30697D01*
G54D18*
X62170Y-45161D02*
X62161Y-45171D01*
X62135Y-45180D01*
X62118Y-45180D01*
X62092Y-45171D01*
X62075Y-45152D01*
X62067Y-45133D01*
X62058Y-45095D01*
X62058Y-45066D01*
X62067Y-45028D01*
X62075Y-45009D01*
X62092Y-44990D01*
X62118Y-44980D01*
X62135Y-44980D01*
X62161Y-44990D01*
X62170Y-45000D01*
X62230Y-44980D02*
X62341Y-44980D01*
X62281Y-45057D01*
X62307Y-45057D01*
X62324Y-45066D01*
X62332Y-45076D01*
X62341Y-45095D01*
X62341Y-45142D01*
X62332Y-45161D01*
X62324Y-45171D01*
X62307Y-45180D01*
X62255Y-45180D01*
X62238Y-45171D01*
X62230Y-45161D01*
G54D12*
X61078Y-44621D02*
X61078Y-44321D01*
X61150Y-44321D01*
X61192Y-44335D01*
X61221Y-44364D01*
X61235Y-44392D01*
X61250Y-44450D01*
X61250Y-44492D01*
X61235Y-44550D01*
X61221Y-44578D01*
X61192Y-44607D01*
X61150Y-44621D01*
X61078Y-44621D01*
X61364Y-44350D02*
X61378Y-44335D01*
X61407Y-44321D01*
X61478Y-44321D01*
X61507Y-44335D01*
X61521Y-44350D01*
X61535Y-44378D01*
X61535Y-44407D01*
X61521Y-44450D01*
X61350Y-44621D01*
X61535Y-44621D01*
M02*
