M48
;DRILL file {Pcbnew (2013-jul-07)-stable} date nie, 13 lis 2016, 20:29:14
;FORMAT={-:-/ absolute / metric / decimal}
FMAT,2
METRIC,TZ
T1C0.635
T2C0.800
T3C0.813
T4C1.000
T5C1.016
T6C1.321
%
G90
G05
M71
T1
X113.5Y-104.
X113.9Y-91.5
X114.5Y-118.
X114.75Y-79.25
X118.5Y-100.
X121.5Y-126.
X123.Y-117.
X124.25Y-75.75
X129.5Y-77.5
X129.5Y-84.5
X130.75Y-74.75
X136.75Y-84.
X141.Y-110.5
T2
X120.31Y-85.418
X120.5Y-75.
X120.5Y-97.
X120.5Y-119.
X133.3Y-119.2
X135.3Y-119.2
X142.5Y-75.
X142.5Y-97.
X142.5Y-119.
X148.Y-85.5
X155.108Y-107.262
X155.616Y-103.96
X156.Y-86.5
X159.25Y-87.
X159.75Y-85.75
X160.188Y-94.816
X164.5Y-75.
X164.5Y-97.
X164.5Y-119.
T3
X126.406Y-74.75
X126.406Y-77.29
X126.406Y-79.83
X126.406Y-82.37
X126.406Y-84.91
X126.406Y-87.45
X126.406Y-89.99
X126.406Y-92.53
X126.406Y-95.07
X126.406Y-97.61
X126.406Y-100.15
X126.406Y-102.69
X126.406Y-105.23
X126.406Y-107.77
X134.026Y-74.75
X134.026Y-77.29
X134.026Y-79.83
X134.026Y-82.37
X134.026Y-84.91
X134.026Y-87.45
X134.026Y-89.99
X134.026Y-92.53
X134.026Y-95.07
X134.026Y-97.61
X134.026Y-100.15
X134.026Y-102.69
X134.026Y-105.23
X134.026Y-107.77
X161.966Y-90.498
X161.966Y-104.214
X161.966Y-112.342
X164.506Y-90.498
X164.506Y-93.038
X164.506Y-104.214
X164.506Y-106.754
X164.506Y-112.342
X164.506Y-114.882
T4
X164.5Y-78.
X164.5Y-100.
X164.5Y-122.
T5
X116.754Y-109.04
X116.754Y-111.58
X116.754Y-114.12
X119.294Y-109.04
X119.294Y-111.58
X119.294Y-114.12
X123.25Y-102.71
X123.25Y-105.25
X123.25Y-107.79
X138.598Y-91.006
X138.598Y-93.546
T6
X150.561Y-121.74
X155.591Y-121.74
T0
M30
