G04 (created by PCBNEW (2013-jul-07)-stable) date nie, 13 lis 2016, 20:29:25*
%MOIN*%
G04 Gerber Fmt 3.4, Leading zero omitted, Abs format*
%FSLAX34Y34*%
G01*
G70*
G90*
G04 APERTURE LIST*
%ADD10C,0.00590551*%
%ADD11R,0.0787X0.2165*%
%ADD12R,0.055X0.055*%
%ADD13C,0.055*%
%ADD14R,0.045X0.025*%
%ADD15R,0.025X0.045*%
%ADD16C,0.0787402*%
%ADD17R,0.1417X0.063*%
%ADD18R,0.055X0.035*%
%ADD19R,0.06X0.06*%
%ADD20C,0.06*%
%ADD21O,0.078X0.156*%
%ADD22R,0.06X0.08*%
%ADD23C,0.045*%
G04 APERTURE END LIST*
G54D10*
G54D11*
X47866Y-31779D03*
X47866Y-35479D03*
G54D12*
X64766Y-36629D03*
G54D13*
X64766Y-35629D03*
X63766Y-35629D03*
G54D12*
X64766Y-42029D03*
G54D13*
X64766Y-41029D03*
X63766Y-41029D03*
G54D12*
X64766Y-45229D03*
G54D13*
X64766Y-44229D03*
X63766Y-44229D03*
G54D14*
X65846Y-42711D03*
X65846Y-43311D03*
G54D15*
X60566Y-45229D03*
X61166Y-45229D03*
G54D14*
X66240Y-36707D03*
X66240Y-37307D03*
X53566Y-35629D03*
X53566Y-36229D03*
X54466Y-40929D03*
X54466Y-40329D03*
X54466Y-39129D03*
X54466Y-39729D03*
X55266Y-40929D03*
X55266Y-40329D03*
X55266Y-39129D03*
X55266Y-39729D03*
G54D15*
X52666Y-46329D03*
X53266Y-46329D03*
X49109Y-43405D03*
X49709Y-43405D03*
G54D14*
X48866Y-37029D03*
X48866Y-36429D03*
X55266Y-42129D03*
X55266Y-41529D03*
X54466Y-42129D03*
X54466Y-41529D03*
X63466Y-46029D03*
X63466Y-45429D03*
G54D16*
X47440Y-46850D03*
X56102Y-46850D03*
X64763Y-46850D03*
X47440Y-38188D03*
X56102Y-38188D03*
X64763Y-38188D03*
X47440Y-29527D03*
X56102Y-29527D03*
X64763Y-29527D03*
X64763Y-30708D03*
X64763Y-39370D03*
X64763Y-48031D03*
G54D13*
X49766Y-41429D03*
X49766Y-40429D03*
X49766Y-39429D03*
X49766Y-38429D03*
X49766Y-37429D03*
X49766Y-36429D03*
X49766Y-35429D03*
X49766Y-34429D03*
X49766Y-33429D03*
X49766Y-32429D03*
X49766Y-31429D03*
X49766Y-30429D03*
X49766Y-29429D03*
G54D12*
X49766Y-42429D03*
G54D13*
X52766Y-29429D03*
X52766Y-30429D03*
X52766Y-31429D03*
X52766Y-32429D03*
X52766Y-33429D03*
X52766Y-34429D03*
X52766Y-35429D03*
X52766Y-36429D03*
X52766Y-37429D03*
X52766Y-38429D03*
X52766Y-39429D03*
X52766Y-40429D03*
X52766Y-41429D03*
X52766Y-42429D03*
G54D17*
X61949Y-43329D03*
X59783Y-43329D03*
G54D18*
X46266Y-32454D03*
X46266Y-33204D03*
X46266Y-34804D03*
X46266Y-34054D03*
G54D19*
X48523Y-40437D03*
G54D20*
X48523Y-41437D03*
X48523Y-42437D03*
G54D19*
X45966Y-44929D03*
G54D20*
X46966Y-44929D03*
X45966Y-43929D03*
X46966Y-43929D03*
X45966Y-42929D03*
X46966Y-42929D03*
G54D21*
X61256Y-47929D03*
X59276Y-47929D03*
G54D19*
X54566Y-35829D03*
G54D20*
X54566Y-36829D03*
G54D22*
X57016Y-49129D03*
X55716Y-49129D03*
G54D23*
X51476Y-29429D03*
X48917Y-29822D03*
X50984Y-33267D03*
X44842Y-36023D03*
X45177Y-31200D03*
X50984Y-30511D03*
X45078Y-46456D03*
X47834Y-49606D03*
X46653Y-39370D03*
X48425Y-46062D03*
X53838Y-33070D03*
X44685Y-40944D03*
X55511Y-43503D03*
M02*
