M48
;DRILL file {Pcbnew (2013-jul-07)-stable} date nie, 28 cze 2015, 22:07:42
;FORMAT={-:-/ absolute / inch / decimal}
FMAT,2
INCH,TZ
T1C0.024
T2C0.035
T3C0.039
T4C0.040
T5C0.120
%
G90
G05
M72
T1
X6.2413Y-2.97
X6.6732Y-2.6083
X6.7028Y-2.7854
X6.8413Y-2.91
X6.8799Y-1.752
X6.9685Y-1.752
X7.0167Y-2.3199
X7.0768Y-1.752
X7.0768Y-2.3819
X7.1217Y-2.2067
X7.1267Y-2.0667
X7.1752Y-1.752
X7.2323Y-2.0669
X7.3327Y-2.0768
X7.3327Y-2.3425
X7.3346Y-2.3898
X8.06Y-1.4
X8.09Y-1.35
X8.54Y-1.85
X8.56Y-1.92
T2
X5.9843Y-2.8346
X6.063Y-2.5591
X6.1811Y-2.5197
X6.5945Y-2.4803
X6.6732Y-1.8701
X6.6929Y-2.4016
X6.752Y-1.7913
X6.7717Y-2.2146
X6.7717Y-2.3524
X6.9291Y-2.1161
X7.0472Y-2.1752
X7.126Y-2.874
X7.313Y-2.5492
T3
X5.7874Y-1.7957
X5.7874Y-1.8957
X5.7874Y-1.9957
X5.7874Y-2.0957
X5.7874Y-2.1957
X5.7874Y-2.2957
X5.7874Y-2.3957
X5.7874Y-2.4957
X5.8858Y-1.7957
X5.8858Y-1.8957
X5.8858Y-1.9957
X5.8858Y-2.0957
X5.8858Y-2.1957
X5.8858Y-2.2957
X5.8858Y-2.3957
X5.8858Y-2.4957
X6.8283Y-1.5551
X6.9283Y-1.5551
X7.0283Y-1.5551
X7.1283Y-1.5551
X7.2283Y-1.5551
X8.1496Y-1.7957
X8.1496Y-1.8957
X8.1496Y-1.9957
X8.1496Y-2.0957
X8.1496Y-2.1957
X8.1496Y-2.2957
X8.1496Y-2.3957
X8.1496Y-2.4957
X8.248Y-1.7957
X8.248Y-1.8957
X8.248Y-1.9957
X8.248Y-2.0957
X8.248Y-2.1957
X8.248Y-2.2957
X8.248Y-2.3957
X8.248Y-2.4957
T4
X5.5602Y-1.9857
X5.5602Y-2.0957
X5.5602Y-2.2007
X5.5602Y-2.3107
X5.6602Y-1.9307
X5.6602Y-2.0407
X5.6602Y-2.1457
X5.6602Y-2.2557
X5.6602Y-2.3657
X8.3949Y-1.9257
X8.3949Y-2.0357
X8.3949Y-2.1457
X8.3949Y-2.2507
X8.3949Y-2.3607
X8.4949Y-1.9807
X8.4949Y-2.0907
X8.4949Y-2.1957
X8.4949Y-2.3057
T5
X5.5602Y-1.6507
X5.5602Y-2.6507
X8.4949Y-1.6407
X8.4949Y-2.6407
T0
M30
