G04 (created by PCBNEW (2013-jul-07)-stable) date nie, 28 cze 2015, 22:07:45*
%MOIN*%
G04 Gerber Fmt 3.4, Leading zero omitted, Abs format*
%FSLAX34Y34*%
G01*
G70*
G90*
G04 APERTURE LIST*
%ADD10C,0.005*%
%ADD11C,0.00590551*%
%ADD12C,0.00787402*%
%ADD13C,0.011811*%
G04 APERTURE END LIST*
G54D10*
G54D11*
X85826Y-13385D02*
G75*
G03X85826Y-13385I-787J0D01*
G74*
G01*
X85826Y-29527D02*
G75*
G03X85826Y-29527I-787J0D01*
G74*
G01*
X56299Y-29527D02*
G75*
G03X56299Y-29527I-787J0D01*
G74*
G01*
X56299Y-13385D02*
G75*
G03X56299Y-13385I-787J0D01*
G74*
G01*
X53543Y-31496D02*
X53543Y-11417D01*
X87007Y-31496D02*
X53543Y-31496D01*
X87007Y-11417D02*
X87007Y-31496D01*
X53543Y-11417D02*
X87007Y-11417D01*
G54D12*
X62294Y-29581D02*
X62531Y-29818D01*
X62531Y-29581D02*
X62294Y-29818D01*
X66614Y-25964D02*
X66850Y-26200D01*
X66850Y-25964D02*
X66614Y-26200D01*
X66909Y-27736D02*
X67145Y-27972D01*
X67145Y-27736D02*
X66909Y-27972D01*
X68294Y-28981D02*
X68531Y-29218D01*
X68531Y-28981D02*
X68294Y-29218D01*
X68681Y-17401D02*
X68917Y-17637D01*
X68917Y-17401D02*
X68681Y-17637D01*
X69566Y-17401D02*
X69803Y-17637D01*
X69803Y-17401D02*
X69566Y-17637D01*
X70049Y-23080D02*
X70285Y-23316D01*
X70285Y-23080D02*
X70049Y-23316D01*
X70649Y-17401D02*
X70885Y-17637D01*
X70885Y-17401D02*
X70649Y-17637D01*
X70649Y-23700D02*
X70885Y-23937D01*
X70885Y-23700D02*
X70649Y-23937D01*
X71098Y-21948D02*
X71334Y-22185D01*
X71334Y-21948D02*
X71098Y-22185D01*
X71148Y-20548D02*
X71384Y-20785D01*
X71384Y-20548D02*
X71148Y-20785D01*
X71633Y-17401D02*
X71870Y-17637D01*
X71870Y-17401D02*
X71633Y-17637D01*
X72204Y-20551D02*
X72440Y-20787D01*
X72440Y-20551D02*
X72204Y-20787D01*
X73208Y-20649D02*
X73444Y-20885D01*
X73444Y-20649D02*
X73208Y-20885D01*
X73208Y-23307D02*
X73444Y-23543D01*
X73444Y-23307D02*
X73208Y-23543D01*
X73228Y-23779D02*
X73464Y-24015D01*
X73464Y-23779D02*
X73228Y-24015D01*
X80481Y-13881D02*
X80718Y-14118D01*
X80718Y-13881D02*
X80481Y-14118D01*
X80781Y-13381D02*
X81018Y-13618D01*
X81018Y-13381D02*
X80781Y-13618D01*
X85281Y-18381D02*
X85518Y-18618D01*
X85518Y-18381D02*
X85281Y-18618D01*
X85481Y-19081D02*
X85718Y-19318D01*
X85718Y-19081D02*
X85481Y-19318D01*
X60019Y-28346D02*
G75*
G03X60019Y-28346I-177J0D01*
G74*
G01*
X60807Y-25590D02*
G75*
G03X60807Y-25590I-177J0D01*
G74*
G01*
X61988Y-25196D02*
G75*
G03X61988Y-25196I-177J0D01*
G74*
G01*
X66122Y-24803D02*
G75*
G03X66122Y-24803I-177J0D01*
G74*
G01*
X66909Y-18700D02*
G75*
G03X66909Y-18700I-177J0D01*
G74*
G01*
X67106Y-24015D02*
G75*
G03X67106Y-24015I-177J0D01*
G74*
G01*
X67696Y-17913D02*
G75*
G03X67696Y-17913I-177J0D01*
G74*
G01*
X67893Y-22145D02*
G75*
G03X67893Y-22145I-177J0D01*
G74*
G01*
X67893Y-23523D02*
G75*
G03X67893Y-23523I-177J0D01*
G74*
G01*
X69468Y-21161D02*
G75*
G03X69468Y-21161I-177J0D01*
G74*
G01*
X70649Y-21751D02*
G75*
G03X70649Y-21751I-177J0D01*
G74*
G01*
X71437Y-28740D02*
G75*
G03X71437Y-28740I-177J0D01*
G74*
G01*
X73307Y-25492D02*
G75*
G03X73307Y-25492I-177J0D01*
G74*
G01*
X57874Y-17759D02*
X57874Y-18153D01*
X57677Y-17956D02*
X58070Y-17956D01*
X57874Y-18759D02*
X57874Y-19153D01*
X57677Y-18956D02*
X58070Y-18956D01*
X57874Y-19759D02*
X57874Y-20153D01*
X57677Y-19956D02*
X58070Y-19956D01*
X57874Y-20759D02*
X57874Y-21153D01*
X57677Y-20956D02*
X58070Y-20956D01*
X57874Y-21759D02*
X57874Y-22153D01*
X57677Y-21956D02*
X58070Y-21956D01*
X57874Y-22759D02*
X57874Y-23153D01*
X57677Y-22956D02*
X58070Y-22956D01*
X57874Y-23759D02*
X57874Y-24153D01*
X57677Y-23956D02*
X58070Y-23956D01*
X57874Y-24759D02*
X57874Y-25153D01*
X57677Y-24956D02*
X58070Y-24956D01*
X58858Y-17759D02*
X58858Y-18153D01*
X58661Y-17956D02*
X59055Y-17956D01*
X58858Y-18759D02*
X58858Y-19153D01*
X58661Y-18956D02*
X59055Y-18956D01*
X58858Y-19759D02*
X58858Y-20153D01*
X58661Y-19956D02*
X59055Y-19956D01*
X58858Y-20759D02*
X58858Y-21153D01*
X58661Y-20956D02*
X59055Y-20956D01*
X58858Y-21759D02*
X58858Y-22153D01*
X58661Y-21956D02*
X59055Y-21956D01*
X58858Y-22759D02*
X58858Y-23153D01*
X58661Y-22956D02*
X59055Y-22956D01*
X58858Y-23759D02*
X58858Y-24153D01*
X58661Y-23956D02*
X59055Y-23956D01*
X58858Y-24759D02*
X58858Y-25153D01*
X58661Y-24956D02*
X59055Y-24956D01*
X68283Y-15354D02*
X68283Y-15748D01*
X68086Y-15551D02*
X68480Y-15551D01*
X69283Y-15354D02*
X69283Y-15748D01*
X69086Y-15551D02*
X69480Y-15551D01*
X70283Y-15354D02*
X70283Y-15748D01*
X70086Y-15551D02*
X70480Y-15551D01*
X71283Y-15354D02*
X71283Y-15748D01*
X71086Y-15551D02*
X71480Y-15551D01*
X72283Y-15354D02*
X72283Y-15748D01*
X72086Y-15551D02*
X72480Y-15551D01*
X81496Y-17759D02*
X81496Y-18153D01*
X81299Y-17956D02*
X81692Y-17956D01*
X81496Y-18759D02*
X81496Y-19153D01*
X81299Y-18956D02*
X81692Y-18956D01*
X81496Y-19759D02*
X81496Y-20153D01*
X81299Y-19956D02*
X81692Y-19956D01*
X81496Y-20759D02*
X81496Y-21153D01*
X81299Y-20956D02*
X81692Y-20956D01*
X81496Y-21759D02*
X81496Y-22153D01*
X81299Y-21956D02*
X81692Y-21956D01*
X81496Y-22759D02*
X81496Y-23153D01*
X81299Y-22956D02*
X81692Y-22956D01*
X81496Y-23759D02*
X81496Y-24153D01*
X81299Y-23956D02*
X81692Y-23956D01*
X81496Y-24759D02*
X81496Y-25153D01*
X81299Y-24956D02*
X81692Y-24956D01*
X82480Y-17759D02*
X82480Y-18153D01*
X82283Y-17956D02*
X82677Y-17956D01*
X82480Y-18759D02*
X82480Y-19153D01*
X82283Y-18956D02*
X82677Y-18956D01*
X82480Y-19759D02*
X82480Y-20153D01*
X82283Y-19956D02*
X82677Y-19956D01*
X82480Y-20759D02*
X82480Y-21153D01*
X82283Y-20956D02*
X82677Y-20956D01*
X82480Y-21759D02*
X82480Y-22153D01*
X82283Y-21956D02*
X82677Y-21956D01*
X82480Y-22759D02*
X82480Y-23153D01*
X82283Y-22956D02*
X82677Y-22956D01*
X82480Y-23759D02*
X82480Y-24153D01*
X82283Y-23956D02*
X82677Y-23956D01*
X82480Y-24759D02*
X82480Y-25153D01*
X82283Y-24956D02*
X82677Y-24956D01*
X55743Y-19998D02*
X55743Y-19715D01*
X55460Y-19715D01*
X55460Y-19998D01*
X55743Y-19998D01*
X55743Y-21098D02*
X55743Y-20815D01*
X55460Y-20815D01*
X55460Y-21098D01*
X55743Y-21098D01*
X55743Y-22148D02*
X55743Y-21865D01*
X55460Y-21865D01*
X55460Y-22148D01*
X55743Y-22148D01*
X55743Y-23248D02*
X55743Y-22965D01*
X55460Y-22965D01*
X55460Y-23248D01*
X55743Y-23248D01*
X56743Y-19448D02*
X56743Y-19165D01*
X56460Y-19165D01*
X56460Y-19448D01*
X56743Y-19448D01*
X56743Y-20548D02*
X56743Y-20265D01*
X56460Y-20265D01*
X56460Y-20548D01*
X56743Y-20548D01*
X56743Y-21598D02*
X56743Y-21315D01*
X56460Y-21315D01*
X56460Y-21598D01*
X56743Y-21598D01*
X56743Y-22698D02*
X56743Y-22415D01*
X56460Y-22415D01*
X56460Y-22698D01*
X56743Y-22698D01*
X56743Y-23798D02*
X56743Y-23515D01*
X56460Y-23515D01*
X56460Y-23798D01*
X56743Y-23798D01*
X84090Y-19398D02*
X84090Y-19115D01*
X83807Y-19115D01*
X83807Y-19398D01*
X84090Y-19398D01*
X84090Y-20498D02*
X84090Y-20215D01*
X83807Y-20215D01*
X83807Y-20498D01*
X84090Y-20498D01*
X84090Y-21598D02*
X84090Y-21315D01*
X83807Y-21315D01*
X83807Y-21598D01*
X84090Y-21598D01*
X84090Y-22648D02*
X84090Y-22365D01*
X83807Y-22365D01*
X83807Y-22648D01*
X84090Y-22648D01*
X84090Y-23748D02*
X84090Y-23465D01*
X83807Y-23465D01*
X83807Y-23748D01*
X84090Y-23748D01*
X85090Y-19948D02*
X85090Y-19665D01*
X84807Y-19665D01*
X84807Y-19948D01*
X85090Y-19948D01*
X85090Y-21048D02*
X85090Y-20765D01*
X84807Y-20765D01*
X84807Y-21048D01*
X85090Y-21048D01*
X85090Y-22098D02*
X85090Y-21815D01*
X84807Y-21815D01*
X84807Y-22098D01*
X85090Y-22098D01*
X85090Y-23198D02*
X85090Y-22915D01*
X84807Y-22915D01*
X84807Y-23198D01*
X85090Y-23198D01*
X55602Y-17106D02*
X56202Y-16506D01*
X55602Y-15906D01*
X55002Y-16506D01*
X55602Y-17106D01*
X55602Y-27106D02*
X56202Y-26506D01*
X55602Y-25906D01*
X55002Y-26506D01*
X55602Y-27106D01*
X84948Y-17006D02*
X85548Y-16406D01*
X84948Y-15806D01*
X84348Y-16406D01*
X84948Y-17006D01*
X84948Y-27006D02*
X85548Y-26406D01*
X84948Y-25806D01*
X84348Y-26406D01*
X84948Y-27006D01*
G54D13*
X54582Y-33302D02*
X54582Y-32121D01*
X54863Y-32121D01*
X55032Y-32178D01*
X55144Y-32290D01*
X55201Y-32402D01*
X55257Y-32627D01*
X55257Y-32796D01*
X55201Y-33021D01*
X55144Y-33134D01*
X55032Y-33246D01*
X54863Y-33302D01*
X54582Y-33302D01*
X55763Y-33302D02*
X55763Y-32515D01*
X55763Y-32740D02*
X55819Y-32627D01*
X55875Y-32571D01*
X55988Y-32515D01*
X56100Y-32515D01*
X56494Y-33302D02*
X56494Y-32515D01*
X56494Y-32121D02*
X56438Y-32178D01*
X56494Y-32234D01*
X56550Y-32178D01*
X56494Y-32121D01*
X56494Y-32234D01*
X57225Y-33302D02*
X57113Y-33246D01*
X57057Y-33134D01*
X57057Y-32121D01*
X57844Y-33302D02*
X57732Y-33246D01*
X57675Y-33134D01*
X57675Y-32121D01*
X59194Y-33302D02*
X59194Y-32121D01*
X59588Y-32965D01*
X59981Y-32121D01*
X59981Y-33302D01*
X61050Y-33302D02*
X61050Y-32684D01*
X60994Y-32571D01*
X60881Y-32515D01*
X60656Y-32515D01*
X60544Y-32571D01*
X61050Y-33246D02*
X60937Y-33302D01*
X60656Y-33302D01*
X60544Y-33246D01*
X60487Y-33134D01*
X60487Y-33021D01*
X60544Y-32909D01*
X60656Y-32852D01*
X60937Y-32852D01*
X61050Y-32796D01*
X61612Y-32515D02*
X61612Y-33696D01*
X61612Y-32571D02*
X61725Y-32515D01*
X61950Y-32515D01*
X62062Y-32571D01*
X62118Y-32627D01*
X62175Y-32740D01*
X62175Y-33077D01*
X62118Y-33190D01*
X62062Y-33246D01*
X61950Y-33302D01*
X61725Y-33302D01*
X61612Y-33246D01*
X62681Y-33190D02*
X62737Y-33246D01*
X62681Y-33302D01*
X62625Y-33246D01*
X62681Y-33190D01*
X62681Y-33302D01*
X62681Y-32571D02*
X62737Y-32627D01*
X62681Y-32684D01*
X62625Y-32627D01*
X62681Y-32571D01*
X62681Y-32684D01*
X53277Y-35187D02*
X53513Y-35423D01*
X53513Y-35187D02*
X53277Y-35423D01*
X54807Y-34602D02*
X54919Y-34602D01*
X55032Y-34658D01*
X55088Y-34714D01*
X55144Y-34827D01*
X55201Y-35052D01*
X55201Y-35333D01*
X55144Y-35558D01*
X55088Y-35670D01*
X55032Y-35726D01*
X54919Y-35783D01*
X54807Y-35783D01*
X54694Y-35726D01*
X54638Y-35670D01*
X54582Y-35558D01*
X54526Y-35333D01*
X54526Y-35052D01*
X54582Y-34827D01*
X54638Y-34714D01*
X54694Y-34658D01*
X54807Y-34602D01*
X55707Y-35670D02*
X55763Y-35726D01*
X55707Y-35783D01*
X55651Y-35726D01*
X55707Y-35670D01*
X55707Y-35783D01*
X56775Y-34602D02*
X56550Y-34602D01*
X56438Y-34658D01*
X56382Y-34714D01*
X56269Y-34883D01*
X56213Y-35108D01*
X56213Y-35558D01*
X56269Y-35670D01*
X56325Y-35726D01*
X56438Y-35783D01*
X56663Y-35783D01*
X56775Y-35726D01*
X56832Y-35670D01*
X56888Y-35558D01*
X56888Y-35276D01*
X56832Y-35164D01*
X56775Y-35108D01*
X56663Y-35052D01*
X56438Y-35052D01*
X56325Y-35108D01*
X56269Y-35164D01*
X56213Y-35276D01*
X57619Y-34602D02*
X57732Y-34602D01*
X57844Y-34658D01*
X57900Y-34714D01*
X57956Y-34827D01*
X58013Y-35052D01*
X58013Y-35333D01*
X57956Y-35558D01*
X57900Y-35670D01*
X57844Y-35726D01*
X57732Y-35783D01*
X57619Y-35783D01*
X57507Y-35726D01*
X57450Y-35670D01*
X57394Y-35558D01*
X57338Y-35333D01*
X57338Y-35052D01*
X57394Y-34827D01*
X57450Y-34714D01*
X57507Y-34658D01*
X57619Y-34602D01*
X58519Y-35783D02*
X58519Y-34995D01*
X58519Y-35108D02*
X58575Y-35052D01*
X58688Y-34995D01*
X58856Y-34995D01*
X58969Y-35052D01*
X59025Y-35164D01*
X59025Y-35783D01*
X59025Y-35164D02*
X59081Y-35052D01*
X59194Y-34995D01*
X59363Y-34995D01*
X59475Y-35052D01*
X59531Y-35164D01*
X59531Y-35783D01*
X60094Y-35783D02*
X60094Y-34995D01*
X60094Y-35108D02*
X60150Y-35052D01*
X60262Y-34995D01*
X60431Y-34995D01*
X60544Y-35052D01*
X60600Y-35164D01*
X60600Y-35783D01*
X60600Y-35164D02*
X60656Y-35052D01*
X60769Y-34995D01*
X60937Y-34995D01*
X61050Y-35052D01*
X61106Y-35164D01*
X61106Y-35783D01*
X63412Y-34545D02*
X62400Y-36064D01*
X64931Y-34602D02*
X65043Y-34602D01*
X65156Y-34658D01*
X65212Y-34714D01*
X65268Y-34827D01*
X65324Y-35052D01*
X65324Y-35333D01*
X65268Y-35558D01*
X65212Y-35670D01*
X65156Y-35726D01*
X65043Y-35783D01*
X64931Y-35783D01*
X64818Y-35726D01*
X64762Y-35670D01*
X64706Y-35558D01*
X64649Y-35333D01*
X64649Y-35052D01*
X64706Y-34827D01*
X64762Y-34714D01*
X64818Y-34658D01*
X64931Y-34602D01*
X65830Y-35670D02*
X65887Y-35726D01*
X65830Y-35783D01*
X65774Y-35726D01*
X65830Y-35670D01*
X65830Y-35783D01*
X66618Y-34602D02*
X66730Y-34602D01*
X66843Y-34658D01*
X66899Y-34714D01*
X66955Y-34827D01*
X67012Y-35052D01*
X67012Y-35333D01*
X66955Y-35558D01*
X66899Y-35670D01*
X66843Y-35726D01*
X66730Y-35783D01*
X66618Y-35783D01*
X66505Y-35726D01*
X66449Y-35670D01*
X66393Y-35558D01*
X66337Y-35333D01*
X66337Y-35052D01*
X66393Y-34827D01*
X66449Y-34714D01*
X66505Y-34658D01*
X66618Y-34602D01*
X67462Y-34714D02*
X67518Y-34658D01*
X67630Y-34602D01*
X67911Y-34602D01*
X68024Y-34658D01*
X68080Y-34714D01*
X68136Y-34827D01*
X68136Y-34939D01*
X68080Y-35108D01*
X67405Y-35783D01*
X68136Y-35783D01*
X69149Y-34995D02*
X69149Y-35783D01*
X68868Y-34545D02*
X68586Y-35389D01*
X69318Y-35389D01*
X69711Y-34602D02*
X69711Y-34827D01*
X70161Y-34602D02*
X70161Y-34827D01*
X71905Y-36233D02*
X71848Y-36176D01*
X71736Y-36008D01*
X71680Y-35895D01*
X71624Y-35726D01*
X71567Y-35445D01*
X71567Y-35220D01*
X71624Y-34939D01*
X71680Y-34770D01*
X71736Y-34658D01*
X71848Y-34489D01*
X71905Y-34433D01*
X72298Y-34714D02*
X72355Y-34658D01*
X72467Y-34602D01*
X72748Y-34602D01*
X72861Y-34658D01*
X72917Y-34714D01*
X72973Y-34827D01*
X72973Y-34939D01*
X72917Y-35108D01*
X72242Y-35783D01*
X72973Y-35783D01*
X73705Y-34602D02*
X73817Y-34602D01*
X73929Y-34658D01*
X73986Y-34714D01*
X74042Y-34827D01*
X74098Y-35052D01*
X74098Y-35333D01*
X74042Y-35558D01*
X73986Y-35670D01*
X73929Y-35726D01*
X73817Y-35783D01*
X73705Y-35783D01*
X73592Y-35726D01*
X73536Y-35670D01*
X73480Y-35558D01*
X73423Y-35333D01*
X73423Y-35052D01*
X73480Y-34827D01*
X73536Y-34714D01*
X73592Y-34658D01*
X73705Y-34602D01*
X75504Y-35783D02*
X75504Y-34602D01*
X76010Y-35783D02*
X76010Y-35164D01*
X75954Y-35052D01*
X75842Y-34995D01*
X75673Y-34995D01*
X75561Y-35052D01*
X75504Y-35108D01*
X76742Y-35783D02*
X76629Y-35726D01*
X76573Y-35670D01*
X76517Y-35558D01*
X76517Y-35220D01*
X76573Y-35108D01*
X76629Y-35052D01*
X76742Y-34995D01*
X76910Y-34995D01*
X77023Y-35052D01*
X77079Y-35108D01*
X77135Y-35220D01*
X77135Y-35558D01*
X77079Y-35670D01*
X77023Y-35726D01*
X76910Y-35783D01*
X76742Y-35783D01*
X77810Y-35783D02*
X77698Y-35726D01*
X77642Y-35614D01*
X77642Y-34602D01*
X78710Y-35726D02*
X78598Y-35783D01*
X78373Y-35783D01*
X78260Y-35726D01*
X78204Y-35614D01*
X78204Y-35164D01*
X78260Y-35052D01*
X78373Y-34995D01*
X78598Y-34995D01*
X78710Y-35052D01*
X78766Y-35164D01*
X78766Y-35276D01*
X78204Y-35389D01*
X79216Y-35726D02*
X79329Y-35783D01*
X79554Y-35783D01*
X79666Y-35726D01*
X79723Y-35614D01*
X79723Y-35558D01*
X79666Y-35445D01*
X79554Y-35389D01*
X79385Y-35389D01*
X79273Y-35333D01*
X79216Y-35220D01*
X79216Y-35164D01*
X79273Y-35052D01*
X79385Y-34995D01*
X79554Y-34995D01*
X79666Y-35052D01*
X80116Y-36233D02*
X80172Y-36176D01*
X80285Y-36008D01*
X80341Y-35895D01*
X80397Y-35726D01*
X80454Y-35445D01*
X80454Y-35220D01*
X80397Y-34939D01*
X80341Y-34770D01*
X80285Y-34658D01*
X80172Y-34489D01*
X80116Y-34433D01*
G54D12*
X53513Y-36864D02*
G75*
G03X53513Y-36864I-177J0D01*
G74*
G01*
G54D13*
X54807Y-36161D02*
X54919Y-36161D01*
X55032Y-36217D01*
X55088Y-36273D01*
X55144Y-36386D01*
X55201Y-36611D01*
X55201Y-36892D01*
X55144Y-37117D01*
X55088Y-37229D01*
X55032Y-37285D01*
X54919Y-37342D01*
X54807Y-37342D01*
X54694Y-37285D01*
X54638Y-37229D01*
X54582Y-37117D01*
X54526Y-36892D01*
X54526Y-36611D01*
X54582Y-36386D01*
X54638Y-36273D01*
X54694Y-36217D01*
X54807Y-36161D01*
X55707Y-37229D02*
X55763Y-37285D01*
X55707Y-37342D01*
X55651Y-37285D01*
X55707Y-37229D01*
X55707Y-37342D01*
X56325Y-37342D02*
X56550Y-37342D01*
X56663Y-37285D01*
X56719Y-37229D01*
X56832Y-37061D01*
X56888Y-36836D01*
X56888Y-36386D01*
X56832Y-36273D01*
X56775Y-36217D01*
X56663Y-36161D01*
X56438Y-36161D01*
X56325Y-36217D01*
X56269Y-36273D01*
X56213Y-36386D01*
X56213Y-36667D01*
X56269Y-36779D01*
X56325Y-36836D01*
X56438Y-36892D01*
X56663Y-36892D01*
X56775Y-36836D01*
X56832Y-36779D01*
X56888Y-36667D01*
X57619Y-36161D02*
X57732Y-36161D01*
X57844Y-36217D01*
X57900Y-36273D01*
X57956Y-36386D01*
X58013Y-36611D01*
X58013Y-36892D01*
X57956Y-37117D01*
X57900Y-37229D01*
X57844Y-37285D01*
X57732Y-37342D01*
X57619Y-37342D01*
X57507Y-37285D01*
X57450Y-37229D01*
X57394Y-37117D01*
X57338Y-36892D01*
X57338Y-36611D01*
X57394Y-36386D01*
X57450Y-36273D01*
X57507Y-36217D01*
X57619Y-36161D01*
X58519Y-37342D02*
X58519Y-36554D01*
X58519Y-36667D02*
X58575Y-36611D01*
X58688Y-36554D01*
X58856Y-36554D01*
X58969Y-36611D01*
X59025Y-36723D01*
X59025Y-37342D01*
X59025Y-36723D02*
X59081Y-36611D01*
X59194Y-36554D01*
X59363Y-36554D01*
X59475Y-36611D01*
X59531Y-36723D01*
X59531Y-37342D01*
X60094Y-37342D02*
X60094Y-36554D01*
X60094Y-36667D02*
X60150Y-36611D01*
X60262Y-36554D01*
X60431Y-36554D01*
X60544Y-36611D01*
X60600Y-36723D01*
X60600Y-37342D01*
X60600Y-36723D02*
X60656Y-36611D01*
X60769Y-36554D01*
X60937Y-36554D01*
X61050Y-36611D01*
X61106Y-36723D01*
X61106Y-37342D01*
X63412Y-36104D02*
X62400Y-37623D01*
X64931Y-36161D02*
X65043Y-36161D01*
X65156Y-36217D01*
X65212Y-36273D01*
X65268Y-36386D01*
X65324Y-36611D01*
X65324Y-36892D01*
X65268Y-37117D01*
X65212Y-37229D01*
X65156Y-37285D01*
X65043Y-37342D01*
X64931Y-37342D01*
X64818Y-37285D01*
X64762Y-37229D01*
X64706Y-37117D01*
X64649Y-36892D01*
X64649Y-36611D01*
X64706Y-36386D01*
X64762Y-36273D01*
X64818Y-36217D01*
X64931Y-36161D01*
X65830Y-37229D02*
X65887Y-37285D01*
X65830Y-37342D01*
X65774Y-37285D01*
X65830Y-37229D01*
X65830Y-37342D01*
X66618Y-36161D02*
X66730Y-36161D01*
X66843Y-36217D01*
X66899Y-36273D01*
X66955Y-36386D01*
X67012Y-36611D01*
X67012Y-36892D01*
X66955Y-37117D01*
X66899Y-37229D01*
X66843Y-37285D01*
X66730Y-37342D01*
X66618Y-37342D01*
X66505Y-37285D01*
X66449Y-37229D01*
X66393Y-37117D01*
X66337Y-36892D01*
X66337Y-36611D01*
X66393Y-36386D01*
X66449Y-36273D01*
X66505Y-36217D01*
X66618Y-36161D01*
X67405Y-36161D02*
X68136Y-36161D01*
X67743Y-36611D01*
X67911Y-36611D01*
X68024Y-36667D01*
X68080Y-36723D01*
X68136Y-36836D01*
X68136Y-37117D01*
X68080Y-37229D01*
X68024Y-37285D01*
X67911Y-37342D01*
X67574Y-37342D01*
X67462Y-37285D01*
X67405Y-37229D01*
X69205Y-36161D02*
X68643Y-36161D01*
X68586Y-36723D01*
X68643Y-36667D01*
X68755Y-36611D01*
X69036Y-36611D01*
X69149Y-36667D01*
X69205Y-36723D01*
X69261Y-36836D01*
X69261Y-37117D01*
X69205Y-37229D01*
X69149Y-37285D01*
X69036Y-37342D01*
X68755Y-37342D01*
X68643Y-37285D01*
X68586Y-37229D01*
X69711Y-36161D02*
X69711Y-36386D01*
X70161Y-36161D02*
X70161Y-36386D01*
X71905Y-37792D02*
X71848Y-37735D01*
X71736Y-37567D01*
X71680Y-37454D01*
X71624Y-37285D01*
X71567Y-37004D01*
X71567Y-36779D01*
X71624Y-36498D01*
X71680Y-36329D01*
X71736Y-36217D01*
X71848Y-36048D01*
X71905Y-35992D01*
X72973Y-37342D02*
X72298Y-37342D01*
X72636Y-37342D02*
X72636Y-36161D01*
X72523Y-36329D01*
X72411Y-36442D01*
X72298Y-36498D01*
X73367Y-36161D02*
X74098Y-36161D01*
X73705Y-36611D01*
X73873Y-36611D01*
X73986Y-36667D01*
X74042Y-36723D01*
X74098Y-36836D01*
X74098Y-37117D01*
X74042Y-37229D01*
X73986Y-37285D01*
X73873Y-37342D01*
X73536Y-37342D01*
X73423Y-37285D01*
X73367Y-37229D01*
X75504Y-37342D02*
X75504Y-36161D01*
X76010Y-37342D02*
X76010Y-36723D01*
X75954Y-36611D01*
X75842Y-36554D01*
X75673Y-36554D01*
X75561Y-36611D01*
X75504Y-36667D01*
X76742Y-37342D02*
X76629Y-37285D01*
X76573Y-37229D01*
X76517Y-37117D01*
X76517Y-36779D01*
X76573Y-36667D01*
X76629Y-36611D01*
X76742Y-36554D01*
X76910Y-36554D01*
X77023Y-36611D01*
X77079Y-36667D01*
X77135Y-36779D01*
X77135Y-37117D01*
X77079Y-37229D01*
X77023Y-37285D01*
X76910Y-37342D01*
X76742Y-37342D01*
X77810Y-37342D02*
X77698Y-37285D01*
X77642Y-37173D01*
X77642Y-36161D01*
X78710Y-37285D02*
X78598Y-37342D01*
X78373Y-37342D01*
X78260Y-37285D01*
X78204Y-37173D01*
X78204Y-36723D01*
X78260Y-36611D01*
X78373Y-36554D01*
X78598Y-36554D01*
X78710Y-36611D01*
X78766Y-36723D01*
X78766Y-36836D01*
X78204Y-36948D01*
X79216Y-37285D02*
X79329Y-37342D01*
X79554Y-37342D01*
X79666Y-37285D01*
X79723Y-37173D01*
X79723Y-37117D01*
X79666Y-37004D01*
X79554Y-36948D01*
X79385Y-36948D01*
X79273Y-36892D01*
X79216Y-36779D01*
X79216Y-36723D01*
X79273Y-36611D01*
X79385Y-36554D01*
X79554Y-36554D01*
X79666Y-36611D01*
X80116Y-37792D02*
X80172Y-37735D01*
X80285Y-37567D01*
X80341Y-37454D01*
X80397Y-37285D01*
X80454Y-37004D01*
X80454Y-36779D01*
X80397Y-36498D01*
X80341Y-36329D01*
X80285Y-36217D01*
X80172Y-36048D01*
X80116Y-35992D01*
X53316Y-38226D02*
X53316Y-38620D01*
X53120Y-38423D02*
X53513Y-38423D01*
X55201Y-38901D02*
X54526Y-38901D01*
X54863Y-38901D02*
X54863Y-37720D01*
X54751Y-37888D01*
X54638Y-38001D01*
X54526Y-38057D01*
X55707Y-38788D02*
X55763Y-38845D01*
X55707Y-38901D01*
X55651Y-38845D01*
X55707Y-38788D01*
X55707Y-38901D01*
X56494Y-37720D02*
X56607Y-37720D01*
X56719Y-37776D01*
X56775Y-37832D01*
X56832Y-37945D01*
X56888Y-38170D01*
X56888Y-38451D01*
X56832Y-38676D01*
X56775Y-38788D01*
X56719Y-38845D01*
X56607Y-38901D01*
X56494Y-38901D01*
X56382Y-38845D01*
X56325Y-38788D01*
X56269Y-38676D01*
X56213Y-38451D01*
X56213Y-38170D01*
X56269Y-37945D01*
X56325Y-37832D01*
X56382Y-37776D01*
X56494Y-37720D01*
X57619Y-37720D02*
X57732Y-37720D01*
X57844Y-37776D01*
X57900Y-37832D01*
X57956Y-37945D01*
X58013Y-38170D01*
X58013Y-38451D01*
X57956Y-38676D01*
X57900Y-38788D01*
X57844Y-38845D01*
X57732Y-38901D01*
X57619Y-38901D01*
X57507Y-38845D01*
X57450Y-38788D01*
X57394Y-38676D01*
X57338Y-38451D01*
X57338Y-38170D01*
X57394Y-37945D01*
X57450Y-37832D01*
X57507Y-37776D01*
X57619Y-37720D01*
X58519Y-38901D02*
X58519Y-38113D01*
X58519Y-38226D02*
X58575Y-38170D01*
X58688Y-38113D01*
X58856Y-38113D01*
X58969Y-38170D01*
X59025Y-38282D01*
X59025Y-38901D01*
X59025Y-38282D02*
X59081Y-38170D01*
X59194Y-38113D01*
X59363Y-38113D01*
X59475Y-38170D01*
X59531Y-38282D01*
X59531Y-38901D01*
X60094Y-38901D02*
X60094Y-38113D01*
X60094Y-38226D02*
X60150Y-38170D01*
X60262Y-38113D01*
X60431Y-38113D01*
X60544Y-38170D01*
X60600Y-38282D01*
X60600Y-38901D01*
X60600Y-38282D02*
X60656Y-38170D01*
X60769Y-38113D01*
X60937Y-38113D01*
X61050Y-38170D01*
X61106Y-38282D01*
X61106Y-38901D01*
X63412Y-37663D02*
X62400Y-39182D01*
X64931Y-37720D02*
X65043Y-37720D01*
X65156Y-37776D01*
X65212Y-37832D01*
X65268Y-37945D01*
X65324Y-38170D01*
X65324Y-38451D01*
X65268Y-38676D01*
X65212Y-38788D01*
X65156Y-38845D01*
X65043Y-38901D01*
X64931Y-38901D01*
X64818Y-38845D01*
X64762Y-38788D01*
X64706Y-38676D01*
X64649Y-38451D01*
X64649Y-38170D01*
X64706Y-37945D01*
X64762Y-37832D01*
X64818Y-37776D01*
X64931Y-37720D01*
X65830Y-38788D02*
X65887Y-38845D01*
X65830Y-38901D01*
X65774Y-38845D01*
X65830Y-38788D01*
X65830Y-38901D01*
X66618Y-37720D02*
X66730Y-37720D01*
X66843Y-37776D01*
X66899Y-37832D01*
X66955Y-37945D01*
X67012Y-38170D01*
X67012Y-38451D01*
X66955Y-38676D01*
X66899Y-38788D01*
X66843Y-38845D01*
X66730Y-38901D01*
X66618Y-38901D01*
X66505Y-38845D01*
X66449Y-38788D01*
X66393Y-38676D01*
X66337Y-38451D01*
X66337Y-38170D01*
X66393Y-37945D01*
X66449Y-37832D01*
X66505Y-37776D01*
X66618Y-37720D01*
X67405Y-37720D02*
X68136Y-37720D01*
X67743Y-38170D01*
X67911Y-38170D01*
X68024Y-38226D01*
X68080Y-38282D01*
X68136Y-38395D01*
X68136Y-38676D01*
X68080Y-38788D01*
X68024Y-38845D01*
X67911Y-38901D01*
X67574Y-38901D01*
X67462Y-38845D01*
X67405Y-38788D01*
X68699Y-38901D02*
X68924Y-38901D01*
X69036Y-38845D01*
X69093Y-38788D01*
X69205Y-38620D01*
X69261Y-38395D01*
X69261Y-37945D01*
X69205Y-37832D01*
X69149Y-37776D01*
X69036Y-37720D01*
X68811Y-37720D01*
X68699Y-37776D01*
X68643Y-37832D01*
X68586Y-37945D01*
X68586Y-38226D01*
X68643Y-38338D01*
X68699Y-38395D01*
X68811Y-38451D01*
X69036Y-38451D01*
X69149Y-38395D01*
X69205Y-38338D01*
X69261Y-38226D01*
X69711Y-37720D02*
X69711Y-37945D01*
X70161Y-37720D02*
X70161Y-37945D01*
X71905Y-39351D02*
X71848Y-39294D01*
X71736Y-39126D01*
X71680Y-39013D01*
X71624Y-38845D01*
X71567Y-38563D01*
X71567Y-38338D01*
X71624Y-38057D01*
X71680Y-37888D01*
X71736Y-37776D01*
X71848Y-37607D01*
X71905Y-37551D01*
X72242Y-37720D02*
X72973Y-37720D01*
X72580Y-38170D01*
X72748Y-38170D01*
X72861Y-38226D01*
X72917Y-38282D01*
X72973Y-38395D01*
X72973Y-38676D01*
X72917Y-38788D01*
X72861Y-38845D01*
X72748Y-38901D01*
X72411Y-38901D01*
X72298Y-38845D01*
X72242Y-38788D01*
X73367Y-37720D02*
X74154Y-37720D01*
X73648Y-38901D01*
X75504Y-38901D02*
X75504Y-37720D01*
X76010Y-38901D02*
X76010Y-38282D01*
X75954Y-38170D01*
X75842Y-38113D01*
X75673Y-38113D01*
X75561Y-38170D01*
X75504Y-38226D01*
X76742Y-38901D02*
X76629Y-38845D01*
X76573Y-38788D01*
X76517Y-38676D01*
X76517Y-38338D01*
X76573Y-38226D01*
X76629Y-38170D01*
X76742Y-38113D01*
X76910Y-38113D01*
X77023Y-38170D01*
X77079Y-38226D01*
X77135Y-38338D01*
X77135Y-38676D01*
X77079Y-38788D01*
X77023Y-38845D01*
X76910Y-38901D01*
X76742Y-38901D01*
X77810Y-38901D02*
X77698Y-38845D01*
X77642Y-38732D01*
X77642Y-37720D01*
X78710Y-38845D02*
X78598Y-38901D01*
X78373Y-38901D01*
X78260Y-38845D01*
X78204Y-38732D01*
X78204Y-38282D01*
X78260Y-38170D01*
X78373Y-38113D01*
X78598Y-38113D01*
X78710Y-38170D01*
X78766Y-38282D01*
X78766Y-38395D01*
X78204Y-38507D01*
X79216Y-38845D02*
X79329Y-38901D01*
X79554Y-38901D01*
X79666Y-38845D01*
X79723Y-38732D01*
X79723Y-38676D01*
X79666Y-38563D01*
X79554Y-38507D01*
X79385Y-38507D01*
X79273Y-38451D01*
X79216Y-38338D01*
X79216Y-38282D01*
X79273Y-38170D01*
X79385Y-38113D01*
X79554Y-38113D01*
X79666Y-38170D01*
X80116Y-39351D02*
X80172Y-39294D01*
X80285Y-39126D01*
X80341Y-39013D01*
X80397Y-38845D01*
X80454Y-38563D01*
X80454Y-38338D01*
X80397Y-38057D01*
X80341Y-37888D01*
X80285Y-37776D01*
X80172Y-37607D01*
X80116Y-37551D01*
G54D12*
X53455Y-40123D02*
X53455Y-39840D01*
X53172Y-39840D01*
X53172Y-40123D01*
X53455Y-40123D01*
G54D13*
X55201Y-40460D02*
X54526Y-40460D01*
X54863Y-40460D02*
X54863Y-39279D01*
X54751Y-39447D01*
X54638Y-39560D01*
X54526Y-39616D01*
X55707Y-40347D02*
X55763Y-40404D01*
X55707Y-40460D01*
X55651Y-40404D01*
X55707Y-40347D01*
X55707Y-40460D01*
X56494Y-39279D02*
X56607Y-39279D01*
X56719Y-39335D01*
X56775Y-39391D01*
X56832Y-39504D01*
X56888Y-39729D01*
X56888Y-40010D01*
X56832Y-40235D01*
X56775Y-40347D01*
X56719Y-40404D01*
X56607Y-40460D01*
X56494Y-40460D01*
X56382Y-40404D01*
X56325Y-40347D01*
X56269Y-40235D01*
X56213Y-40010D01*
X56213Y-39729D01*
X56269Y-39504D01*
X56325Y-39391D01*
X56382Y-39335D01*
X56494Y-39279D01*
X57338Y-39391D02*
X57394Y-39335D01*
X57507Y-39279D01*
X57788Y-39279D01*
X57900Y-39335D01*
X57956Y-39391D01*
X58013Y-39504D01*
X58013Y-39616D01*
X57956Y-39785D01*
X57282Y-40460D01*
X58013Y-40460D01*
X58519Y-40460D02*
X58519Y-39672D01*
X58519Y-39785D02*
X58575Y-39729D01*
X58688Y-39672D01*
X58856Y-39672D01*
X58969Y-39729D01*
X59025Y-39841D01*
X59025Y-40460D01*
X59025Y-39841D02*
X59081Y-39729D01*
X59194Y-39672D01*
X59363Y-39672D01*
X59475Y-39729D01*
X59531Y-39841D01*
X59531Y-40460D01*
X60094Y-40460D02*
X60094Y-39672D01*
X60094Y-39785D02*
X60150Y-39729D01*
X60262Y-39672D01*
X60431Y-39672D01*
X60544Y-39729D01*
X60600Y-39841D01*
X60600Y-40460D01*
X60600Y-39841D02*
X60656Y-39729D01*
X60769Y-39672D01*
X60937Y-39672D01*
X61050Y-39729D01*
X61106Y-39841D01*
X61106Y-40460D01*
X63412Y-39223D02*
X62400Y-40741D01*
X64931Y-39279D02*
X65043Y-39279D01*
X65156Y-39335D01*
X65212Y-39391D01*
X65268Y-39504D01*
X65324Y-39729D01*
X65324Y-40010D01*
X65268Y-40235D01*
X65212Y-40347D01*
X65156Y-40404D01*
X65043Y-40460D01*
X64931Y-40460D01*
X64818Y-40404D01*
X64762Y-40347D01*
X64706Y-40235D01*
X64649Y-40010D01*
X64649Y-39729D01*
X64706Y-39504D01*
X64762Y-39391D01*
X64818Y-39335D01*
X64931Y-39279D01*
X65830Y-40347D02*
X65887Y-40404D01*
X65830Y-40460D01*
X65774Y-40404D01*
X65830Y-40347D01*
X65830Y-40460D01*
X66618Y-39279D02*
X66730Y-39279D01*
X66843Y-39335D01*
X66899Y-39391D01*
X66955Y-39504D01*
X67012Y-39729D01*
X67012Y-40010D01*
X66955Y-40235D01*
X66899Y-40347D01*
X66843Y-40404D01*
X66730Y-40460D01*
X66618Y-40460D01*
X66505Y-40404D01*
X66449Y-40347D01*
X66393Y-40235D01*
X66337Y-40010D01*
X66337Y-39729D01*
X66393Y-39504D01*
X66449Y-39391D01*
X66505Y-39335D01*
X66618Y-39279D01*
X68024Y-39672D02*
X68024Y-40460D01*
X67743Y-39223D02*
X67462Y-40066D01*
X68193Y-40066D01*
X68868Y-39279D02*
X68980Y-39279D01*
X69093Y-39335D01*
X69149Y-39391D01*
X69205Y-39504D01*
X69261Y-39729D01*
X69261Y-40010D01*
X69205Y-40235D01*
X69149Y-40347D01*
X69093Y-40404D01*
X68980Y-40460D01*
X68868Y-40460D01*
X68755Y-40404D01*
X68699Y-40347D01*
X68643Y-40235D01*
X68586Y-40010D01*
X68586Y-39729D01*
X68643Y-39504D01*
X68699Y-39391D01*
X68755Y-39335D01*
X68868Y-39279D01*
X69711Y-39279D02*
X69711Y-39504D01*
X70161Y-39279D02*
X70161Y-39504D01*
X71905Y-40910D02*
X71848Y-40854D01*
X71736Y-40685D01*
X71680Y-40572D01*
X71624Y-40404D01*
X71567Y-40122D01*
X71567Y-39897D01*
X71624Y-39616D01*
X71680Y-39447D01*
X71736Y-39335D01*
X71848Y-39166D01*
X71905Y-39110D01*
X72973Y-40460D02*
X72298Y-40460D01*
X72636Y-40460D02*
X72636Y-39279D01*
X72523Y-39447D01*
X72411Y-39560D01*
X72298Y-39616D01*
X73648Y-39785D02*
X73536Y-39729D01*
X73480Y-39672D01*
X73423Y-39560D01*
X73423Y-39504D01*
X73480Y-39391D01*
X73536Y-39335D01*
X73648Y-39279D01*
X73873Y-39279D01*
X73986Y-39335D01*
X74042Y-39391D01*
X74098Y-39504D01*
X74098Y-39560D01*
X74042Y-39672D01*
X73986Y-39729D01*
X73873Y-39785D01*
X73648Y-39785D01*
X73536Y-39841D01*
X73480Y-39897D01*
X73423Y-40010D01*
X73423Y-40235D01*
X73480Y-40347D01*
X73536Y-40404D01*
X73648Y-40460D01*
X73873Y-40460D01*
X73986Y-40404D01*
X74042Y-40347D01*
X74098Y-40235D01*
X74098Y-40010D01*
X74042Y-39897D01*
X73986Y-39841D01*
X73873Y-39785D01*
X75504Y-40460D02*
X75504Y-39279D01*
X76010Y-40460D02*
X76010Y-39841D01*
X75954Y-39729D01*
X75842Y-39672D01*
X75673Y-39672D01*
X75561Y-39729D01*
X75504Y-39785D01*
X76742Y-40460D02*
X76629Y-40404D01*
X76573Y-40347D01*
X76517Y-40235D01*
X76517Y-39897D01*
X76573Y-39785D01*
X76629Y-39729D01*
X76742Y-39672D01*
X76910Y-39672D01*
X77023Y-39729D01*
X77079Y-39785D01*
X77135Y-39897D01*
X77135Y-40235D01*
X77079Y-40347D01*
X77023Y-40404D01*
X76910Y-40460D01*
X76742Y-40460D01*
X77810Y-40460D02*
X77698Y-40404D01*
X77642Y-40291D01*
X77642Y-39279D01*
X78710Y-40404D02*
X78598Y-40460D01*
X78373Y-40460D01*
X78260Y-40404D01*
X78204Y-40291D01*
X78204Y-39841D01*
X78260Y-39729D01*
X78373Y-39672D01*
X78598Y-39672D01*
X78710Y-39729D01*
X78766Y-39841D01*
X78766Y-39954D01*
X78204Y-40066D01*
X79216Y-40404D02*
X79329Y-40460D01*
X79554Y-40460D01*
X79666Y-40404D01*
X79723Y-40291D01*
X79723Y-40235D01*
X79666Y-40122D01*
X79554Y-40066D01*
X79385Y-40066D01*
X79273Y-40010D01*
X79216Y-39897D01*
X79216Y-39841D01*
X79273Y-39729D01*
X79385Y-39672D01*
X79554Y-39672D01*
X79666Y-39729D01*
X80116Y-40910D02*
X80172Y-40854D01*
X80285Y-40685D01*
X80341Y-40572D01*
X80397Y-40404D01*
X80454Y-40122D01*
X80454Y-39897D01*
X80397Y-39616D01*
X80341Y-39447D01*
X80285Y-39335D01*
X80172Y-39166D01*
X80116Y-39110D01*
G54D12*
X52913Y-42141D02*
X53513Y-41541D01*
X52913Y-40941D01*
X52313Y-41541D01*
X52913Y-42141D01*
G54D13*
X54469Y-40838D02*
X55201Y-40838D01*
X54807Y-41288D01*
X54976Y-41288D01*
X55088Y-41344D01*
X55144Y-41400D01*
X55201Y-41513D01*
X55201Y-41794D01*
X55144Y-41906D01*
X55088Y-41963D01*
X54976Y-42019D01*
X54638Y-42019D01*
X54526Y-41963D01*
X54469Y-41906D01*
X55707Y-41906D02*
X55763Y-41963D01*
X55707Y-42019D01*
X55651Y-41963D01*
X55707Y-41906D01*
X55707Y-42019D01*
X56494Y-40838D02*
X56607Y-40838D01*
X56719Y-40894D01*
X56775Y-40950D01*
X56832Y-41063D01*
X56888Y-41288D01*
X56888Y-41569D01*
X56832Y-41794D01*
X56775Y-41906D01*
X56719Y-41963D01*
X56607Y-42019D01*
X56494Y-42019D01*
X56382Y-41963D01*
X56325Y-41906D01*
X56269Y-41794D01*
X56213Y-41569D01*
X56213Y-41288D01*
X56269Y-41063D01*
X56325Y-40950D01*
X56382Y-40894D01*
X56494Y-40838D01*
X57956Y-40838D02*
X57394Y-40838D01*
X57338Y-41400D01*
X57394Y-41344D01*
X57507Y-41288D01*
X57788Y-41288D01*
X57900Y-41344D01*
X57956Y-41400D01*
X58013Y-41513D01*
X58013Y-41794D01*
X57956Y-41906D01*
X57900Y-41963D01*
X57788Y-42019D01*
X57507Y-42019D01*
X57394Y-41963D01*
X57338Y-41906D01*
X58519Y-42019D02*
X58519Y-41232D01*
X58519Y-41344D02*
X58575Y-41288D01*
X58688Y-41232D01*
X58856Y-41232D01*
X58969Y-41288D01*
X59025Y-41400D01*
X59025Y-42019D01*
X59025Y-41400D02*
X59081Y-41288D01*
X59194Y-41232D01*
X59363Y-41232D01*
X59475Y-41288D01*
X59531Y-41400D01*
X59531Y-42019D01*
X60094Y-42019D02*
X60094Y-41232D01*
X60094Y-41344D02*
X60150Y-41288D01*
X60262Y-41232D01*
X60431Y-41232D01*
X60544Y-41288D01*
X60600Y-41400D01*
X60600Y-42019D01*
X60600Y-41400D02*
X60656Y-41288D01*
X60769Y-41232D01*
X60937Y-41232D01*
X61050Y-41288D01*
X61106Y-41400D01*
X61106Y-42019D01*
X63412Y-40782D02*
X62400Y-42300D01*
X64931Y-40838D02*
X65043Y-40838D01*
X65156Y-40894D01*
X65212Y-40950D01*
X65268Y-41063D01*
X65324Y-41288D01*
X65324Y-41569D01*
X65268Y-41794D01*
X65212Y-41906D01*
X65156Y-41963D01*
X65043Y-42019D01*
X64931Y-42019D01*
X64818Y-41963D01*
X64762Y-41906D01*
X64706Y-41794D01*
X64649Y-41569D01*
X64649Y-41288D01*
X64706Y-41063D01*
X64762Y-40950D01*
X64818Y-40894D01*
X64931Y-40838D01*
X65830Y-41906D02*
X65887Y-41963D01*
X65830Y-42019D01*
X65774Y-41963D01*
X65830Y-41906D01*
X65830Y-42019D01*
X67012Y-42019D02*
X66337Y-42019D01*
X66674Y-42019D02*
X66674Y-40838D01*
X66562Y-41007D01*
X66449Y-41119D01*
X66337Y-41175D01*
X67462Y-40950D02*
X67518Y-40894D01*
X67630Y-40838D01*
X67911Y-40838D01*
X68024Y-40894D01*
X68080Y-40950D01*
X68136Y-41063D01*
X68136Y-41175D01*
X68080Y-41344D01*
X67405Y-42019D01*
X68136Y-42019D01*
X68868Y-40838D02*
X68980Y-40838D01*
X69093Y-40894D01*
X69149Y-40950D01*
X69205Y-41063D01*
X69261Y-41288D01*
X69261Y-41569D01*
X69205Y-41794D01*
X69149Y-41906D01*
X69093Y-41963D01*
X68980Y-42019D01*
X68868Y-42019D01*
X68755Y-41963D01*
X68699Y-41906D01*
X68643Y-41794D01*
X68586Y-41569D01*
X68586Y-41288D01*
X68643Y-41063D01*
X68699Y-40950D01*
X68755Y-40894D01*
X68868Y-40838D01*
X69711Y-40838D02*
X69711Y-41063D01*
X70161Y-40838D02*
X70161Y-41063D01*
X71905Y-42469D02*
X71848Y-42413D01*
X71736Y-42244D01*
X71680Y-42131D01*
X71624Y-41963D01*
X71567Y-41681D01*
X71567Y-41456D01*
X71624Y-41175D01*
X71680Y-41007D01*
X71736Y-40894D01*
X71848Y-40725D01*
X71905Y-40669D01*
X72861Y-41232D02*
X72861Y-42019D01*
X72580Y-40782D02*
X72298Y-41625D01*
X73030Y-41625D01*
X74379Y-42019D02*
X74379Y-40838D01*
X74886Y-42019D02*
X74886Y-41400D01*
X74829Y-41288D01*
X74717Y-41232D01*
X74548Y-41232D01*
X74436Y-41288D01*
X74379Y-41344D01*
X75617Y-42019D02*
X75504Y-41963D01*
X75448Y-41906D01*
X75392Y-41794D01*
X75392Y-41456D01*
X75448Y-41344D01*
X75504Y-41288D01*
X75617Y-41232D01*
X75785Y-41232D01*
X75898Y-41288D01*
X75954Y-41344D01*
X76010Y-41456D01*
X76010Y-41794D01*
X75954Y-41906D01*
X75898Y-41963D01*
X75785Y-42019D01*
X75617Y-42019D01*
X76685Y-42019D02*
X76573Y-41963D01*
X76517Y-41850D01*
X76517Y-40838D01*
X77585Y-41963D02*
X77473Y-42019D01*
X77248Y-42019D01*
X77135Y-41963D01*
X77079Y-41850D01*
X77079Y-41400D01*
X77135Y-41288D01*
X77248Y-41232D01*
X77473Y-41232D01*
X77585Y-41288D01*
X77642Y-41400D01*
X77642Y-41513D01*
X77079Y-41625D01*
X78091Y-41963D02*
X78204Y-42019D01*
X78429Y-42019D01*
X78541Y-41963D01*
X78598Y-41850D01*
X78598Y-41794D01*
X78541Y-41681D01*
X78429Y-41625D01*
X78260Y-41625D01*
X78148Y-41569D01*
X78091Y-41456D01*
X78091Y-41400D01*
X78148Y-41288D01*
X78260Y-41232D01*
X78429Y-41232D01*
X78541Y-41288D01*
X78991Y-42469D02*
X79048Y-42413D01*
X79160Y-42244D01*
X79216Y-42131D01*
X79273Y-41963D01*
X79329Y-41681D01*
X79329Y-41456D01*
X79273Y-41175D01*
X79216Y-41007D01*
X79160Y-40894D01*
X79048Y-40725D01*
X78991Y-40669D01*
M02*
