G04 (created by PCBNEW (2013-jul-07)-stable) date nie, 28 cze 2015, 22:06:29*
%MOIN*%
G04 Gerber Fmt 3.4, Leading zero omitted, Abs format*
%FSLAX34Y34*%
G01*
G70*
G90*
G04 APERTURE LIST*
%ADD10C,0.00590551*%
%ADD11R,0.0196X0.145669*%
%ADD12R,0.0787X0.0984*%
%ADD13R,0.015748X0.0984252*%
%ADD14R,0.0708661X0.0393701*%
%ADD15R,0.063X0.0276*%
%ADD16R,0.0827X0.0276*%
%ADD17R,0.1083X0.0787*%
%ADD18R,0.055X0.035*%
%ADD19R,0.025X0.045*%
%ADD20R,0.2165X0.0787*%
%ADD21C,0.15*%
%ADD22R,0.06X0.06*%
%ADD23C,0.06*%
%ADD24R,0.045X0.025*%
%ADD25R,0.0787X0.0177*%
%ADD26R,0.0177X0.0787*%
%ADD27R,0.0579X0.0165*%
%ADD28R,0.0590551X0.0590551*%
%ADD29C,0.0610236*%
%ADD30R,0.0610236X0.0610236*%
%ADD31R,0.05X0.1*%
%ADD32C,0.0472441*%
%ADD33C,0.0354331*%
%ADD34C,0.038*%
%ADD35C,0.014*%
%ADD36C,0.018*%
%ADD37C,0.01*%
%ADD38C,0.028*%
G04 APERTURE END LIST*
G54D10*
G54D11*
X62992Y-28503D03*
X63307Y-28503D03*
X62362Y-28503D03*
X62677Y-28503D03*
G54D12*
X61221Y-30905D03*
X64763Y-30905D03*
X61260Y-28740D03*
X64763Y-28740D03*
G54D11*
X63622Y-28503D03*
G54D13*
X69291Y-29822D03*
X69547Y-29822D03*
X68779Y-29822D03*
X69035Y-29822D03*
X69803Y-29822D03*
G54D14*
X71181Y-29842D03*
X71181Y-31141D03*
X67440Y-29842D03*
X67440Y-31141D03*
G54D15*
X68366Y-18109D03*
G54D16*
X68268Y-18700D03*
G54D15*
X68366Y-19291D03*
G54D17*
X67323Y-18700D03*
G54D18*
X63681Y-24981D03*
X63681Y-24231D03*
X62696Y-24981D03*
X62696Y-24231D03*
G54D19*
X72042Y-25492D03*
X72642Y-25492D03*
G54D20*
X71319Y-26870D03*
X75019Y-26870D03*
G54D21*
X55602Y-26506D03*
X55602Y-16506D03*
G54D22*
X56602Y-23656D03*
G54D23*
X56602Y-22556D03*
X56602Y-21456D03*
X56602Y-20406D03*
X56602Y-19306D03*
X55602Y-19856D03*
X55602Y-20956D03*
X55602Y-22006D03*
X55602Y-23106D03*
G54D24*
X69192Y-18705D03*
X69192Y-18105D03*
G54D25*
X65722Y-21938D03*
X65722Y-22253D03*
X65722Y-22568D03*
X65722Y-22883D03*
X65722Y-23198D03*
X65722Y-23513D03*
X65722Y-23828D03*
X65722Y-24143D03*
X69488Y-24141D03*
X69488Y-21931D03*
X69488Y-22251D03*
X69488Y-22571D03*
X69488Y-22881D03*
X69488Y-23201D03*
X69488Y-23511D03*
X69488Y-23831D03*
G54D26*
X66506Y-24931D03*
X66820Y-24931D03*
X67136Y-24931D03*
X67450Y-24931D03*
X67766Y-24931D03*
X68080Y-24931D03*
X68396Y-24931D03*
X68710Y-24931D03*
X66508Y-21151D03*
X66818Y-21151D03*
X67138Y-21151D03*
X67448Y-21151D03*
X67758Y-21151D03*
X68078Y-21151D03*
X68398Y-21151D03*
X68718Y-21151D03*
G54D27*
X73986Y-22347D03*
X73986Y-22603D03*
X73986Y-22859D03*
X73986Y-23115D03*
X71784Y-21583D03*
X73986Y-21579D03*
X73986Y-21835D03*
X73986Y-22091D03*
X71782Y-23371D03*
X71782Y-23115D03*
X71782Y-22859D03*
X71782Y-22603D03*
X71782Y-22347D03*
X71782Y-22091D03*
X73986Y-23371D03*
X71784Y-21835D03*
X73986Y-21323D03*
X73986Y-23627D03*
X71782Y-23627D03*
X71782Y-21323D03*
X73986Y-21068D03*
X73986Y-23882D03*
X71782Y-23882D03*
X71782Y-21068D03*
X73986Y-20812D03*
X73986Y-24138D03*
X71782Y-24138D03*
X71782Y-20812D03*
G54D19*
X74315Y-25492D03*
X73715Y-25492D03*
X67524Y-25885D03*
X66924Y-25885D03*
G54D24*
X74866Y-21216D03*
X74866Y-20616D03*
G54D19*
X67613Y-19980D03*
X68213Y-19980D03*
G54D24*
X70766Y-21116D03*
X70766Y-21716D03*
G54D21*
X84948Y-16406D03*
X84948Y-26406D03*
G54D22*
X83948Y-19256D03*
G54D23*
X83948Y-20356D03*
X83948Y-21456D03*
X83948Y-22506D03*
X83948Y-23606D03*
X84948Y-23056D03*
X84948Y-21956D03*
X84948Y-20906D03*
X84948Y-19806D03*
G54D28*
X81496Y-17956D03*
G54D29*
X81496Y-18956D03*
X81496Y-19956D03*
X81496Y-20956D03*
X81496Y-21956D03*
X81496Y-22956D03*
X81496Y-23956D03*
X81496Y-24956D03*
G54D28*
X58858Y-17956D03*
G54D29*
X58858Y-18956D03*
X58858Y-19956D03*
X58858Y-20956D03*
X58858Y-21956D03*
X58858Y-22956D03*
X58858Y-23956D03*
X58858Y-24956D03*
G54D28*
X57874Y-17956D03*
G54D29*
X57874Y-18956D03*
X57874Y-19956D03*
X57874Y-20956D03*
X57874Y-21956D03*
X57874Y-22956D03*
X57874Y-23956D03*
X57874Y-24956D03*
G54D28*
X82480Y-17956D03*
G54D29*
X82480Y-18956D03*
X82480Y-19956D03*
X82480Y-20956D03*
X82480Y-21956D03*
X82480Y-22956D03*
X82480Y-23956D03*
X82480Y-24956D03*
G54D30*
X72283Y-15551D03*
G54D29*
X71283Y-15551D03*
X70283Y-15551D03*
X69283Y-15551D03*
X68283Y-15551D03*
G54D18*
X71259Y-18780D03*
X71259Y-18030D03*
X70374Y-18780D03*
X70374Y-18030D03*
X64665Y-23504D03*
X64665Y-22754D03*
G54D31*
X63788Y-23129D03*
X62588Y-23129D03*
G54D19*
X69581Y-16535D03*
X70181Y-16535D03*
G54D32*
X67519Y-17913D03*
X67716Y-23523D03*
G54D33*
X66732Y-26082D03*
X85400Y-18500D03*
X80900Y-13500D03*
X80600Y-14000D03*
X85600Y-19200D03*
X71751Y-17519D03*
X68799Y-17519D03*
X70167Y-23198D03*
X73346Y-23897D03*
X73326Y-23425D03*
X70767Y-23818D03*
G54D32*
X59842Y-28346D03*
X60629Y-25590D03*
X61811Y-25196D03*
X71259Y-28740D03*
X73129Y-25492D03*
X69291Y-21161D03*
X70472Y-21751D03*
X66732Y-18700D03*
X65944Y-24803D03*
X66929Y-24015D03*
X67716Y-22145D03*
G54D33*
X71266Y-20666D03*
X72322Y-20669D03*
X70767Y-17519D03*
X69685Y-17519D03*
G54D32*
X62412Y-29700D03*
X68412Y-29100D03*
G54D33*
X71216Y-22066D03*
X67027Y-27854D03*
X73326Y-20767D03*
G54D34*
X70181Y-16535D02*
X70814Y-16535D01*
X70814Y-16535D02*
X71283Y-16066D01*
X70766Y-21116D02*
X70766Y-19980D01*
X71283Y-15551D02*
X71283Y-16066D01*
X72440Y-19094D02*
X71555Y-19980D01*
X71555Y-19980D02*
X70766Y-19980D01*
X71283Y-16066D02*
X72440Y-17224D01*
X72440Y-17224D02*
X72440Y-19094D01*
X70766Y-19980D02*
X68213Y-19980D01*
G54D35*
X70374Y-18780D02*
X70374Y-19291D01*
X70374Y-19291D02*
X70374Y-19291D01*
X70374Y-19291D02*
X70374Y-19291D01*
X68366Y-19291D02*
X70374Y-19291D01*
X70374Y-19291D02*
X70748Y-19291D01*
X70748Y-19291D02*
X71259Y-18780D01*
G54D36*
X68213Y-19980D02*
X68213Y-20074D01*
X67758Y-20529D02*
X67758Y-21151D01*
X68213Y-20074D02*
X67758Y-20529D01*
G54D34*
X68366Y-19291D02*
X68366Y-19429D01*
X68213Y-19581D02*
X68213Y-19980D01*
X68366Y-19429D02*
X68213Y-19581D01*
G54D35*
X70766Y-21116D02*
X71216Y-21116D01*
X71422Y-21323D02*
X71782Y-21323D01*
X71216Y-21116D02*
X71422Y-21323D01*
G54D37*
X71782Y-22347D02*
X71782Y-22091D01*
X71782Y-21323D02*
X72172Y-21323D01*
X72192Y-22091D02*
X71782Y-22091D01*
X72266Y-22016D02*
X72192Y-22091D01*
X72266Y-21416D02*
X72266Y-22016D01*
X72172Y-21323D02*
X72266Y-21416D01*
G54D34*
X68366Y-18109D02*
X68366Y-18110D01*
X69188Y-18110D02*
X69192Y-18105D01*
X68366Y-18110D02*
X69188Y-18110D01*
X68169Y-17913D02*
X68366Y-18109D01*
X67519Y-17913D02*
X68169Y-17913D01*
X67716Y-23523D02*
X67706Y-23513D01*
G54D38*
X68396Y-24931D02*
X68396Y-24203D01*
X67706Y-23513D02*
X65722Y-23513D01*
X68396Y-24203D02*
X67706Y-23513D01*
G54D36*
X67136Y-24931D02*
X67136Y-25383D01*
X66924Y-25595D02*
X66924Y-25885D01*
X67136Y-25383D02*
X66924Y-25595D01*
X66732Y-26082D02*
X66732Y-26077D01*
X66732Y-26077D02*
X66924Y-25885D01*
G54D37*
X57874Y-20956D02*
X56960Y-20956D01*
X56960Y-20956D02*
X55602Y-20956D01*
X62992Y-28503D02*
X62992Y-25276D01*
X62992Y-25276D02*
X62696Y-24981D01*
X69291Y-29822D02*
X69291Y-29228D01*
X69291Y-29228D02*
X68762Y-28700D01*
X68762Y-28700D02*
X67062Y-28700D01*
X67062Y-28700D02*
X65662Y-30100D01*
X65662Y-30100D02*
X63562Y-30100D01*
X63562Y-30100D02*
X62992Y-29529D01*
X62992Y-29529D02*
X62992Y-28503D01*
X62588Y-23129D02*
X62992Y-22726D01*
X66230Y-22253D02*
X65722Y-22253D01*
X66338Y-22145D02*
X66230Y-22253D01*
X66338Y-21850D02*
X66338Y-22145D01*
X66141Y-21653D02*
X66338Y-21850D01*
X63582Y-21653D02*
X66141Y-21653D01*
X62992Y-22244D02*
X63582Y-21653D01*
X62992Y-22726D02*
X62992Y-22244D01*
X62696Y-24231D02*
X62992Y-23936D01*
X62992Y-23533D02*
X62588Y-23129D01*
X62992Y-23936D02*
X62992Y-23533D01*
X62588Y-23129D02*
X62795Y-23129D01*
X62795Y-23129D02*
X62588Y-23129D01*
X62588Y-23129D02*
X62588Y-22844D01*
X63307Y-28503D02*
X63307Y-25355D01*
X63307Y-25355D02*
X63681Y-24981D01*
X69547Y-29822D02*
X69547Y-29184D01*
X63307Y-29444D02*
X63307Y-28503D01*
X63662Y-29800D02*
X63307Y-29444D01*
X65562Y-29800D02*
X63662Y-29800D01*
X66962Y-28400D02*
X65562Y-29800D01*
X68862Y-28400D02*
X66962Y-28400D01*
X69547Y-29084D02*
X68862Y-28400D01*
X69547Y-29184D02*
X69547Y-29084D01*
X63681Y-24231D02*
X63287Y-23837D01*
X63691Y-21938D02*
X65722Y-21938D01*
X63287Y-22342D02*
X63691Y-21938D01*
X63287Y-23837D02*
X63287Y-22342D01*
X82480Y-18956D02*
X81988Y-18464D01*
X64232Y-13582D02*
X58858Y-18956D01*
X74429Y-13582D02*
X64232Y-13582D01*
X78115Y-17269D02*
X74429Y-13582D01*
X81796Y-17269D02*
X78115Y-17269D01*
X81988Y-17460D02*
X81796Y-17269D01*
X81988Y-18464D02*
X81988Y-17460D01*
X83948Y-19256D02*
X82780Y-19256D01*
X82780Y-19256D02*
X82480Y-18956D01*
X57874Y-18956D02*
X57303Y-18956D01*
X55093Y-23656D02*
X56602Y-23656D01*
X54625Y-23188D02*
X55093Y-23656D01*
X54625Y-21122D02*
X54625Y-23188D01*
X55354Y-20393D02*
X54625Y-21122D01*
X55846Y-20393D02*
X55354Y-20393D01*
X56102Y-20137D02*
X55846Y-20393D01*
X56102Y-19094D02*
X56102Y-20137D01*
X56397Y-18799D02*
X56102Y-19094D01*
X57145Y-18799D02*
X56397Y-18799D01*
X57303Y-18956D02*
X57145Y-18799D01*
X82480Y-19956D02*
X83271Y-19956D01*
X83421Y-19806D02*
X84948Y-19806D01*
X83271Y-19956D02*
X83421Y-19806D01*
X83700Y-16800D02*
X85400Y-18500D01*
X83700Y-16300D02*
X83700Y-16800D01*
X80900Y-13500D02*
X83700Y-16300D01*
X83948Y-22506D02*
X83497Y-22506D01*
X82972Y-23464D02*
X82480Y-23956D01*
X82972Y-23031D02*
X82972Y-23464D01*
X83497Y-22506D02*
X82972Y-23031D01*
X78300Y-16800D02*
X74433Y-12933D01*
X82480Y-17580D02*
X81700Y-16800D01*
X81700Y-16800D02*
X78300Y-16800D01*
X82480Y-17956D02*
X82480Y-17580D01*
X58858Y-17956D02*
X63881Y-12933D01*
X63881Y-12933D02*
X74433Y-12933D01*
X82480Y-17956D02*
X83232Y-17956D01*
X85610Y-22395D02*
X84948Y-23056D01*
X85610Y-19710D02*
X85610Y-22395D01*
X83856Y-17956D02*
X85610Y-19710D01*
X83232Y-17956D02*
X83856Y-17956D01*
X57874Y-17956D02*
X56708Y-17956D01*
X55602Y-19062D02*
X55602Y-19856D01*
X56708Y-17956D02*
X55602Y-19062D01*
X83200Y-16600D02*
X83200Y-16800D01*
X80600Y-14000D02*
X83200Y-16600D01*
X83200Y-16800D02*
X85600Y-19200D01*
X82480Y-24956D02*
X83366Y-24070D01*
X84448Y-21406D02*
X84948Y-20906D01*
X84448Y-22775D02*
X84448Y-21406D01*
X84173Y-23051D02*
X84448Y-22775D01*
X83641Y-23051D02*
X84173Y-23051D01*
X83366Y-23326D02*
X83641Y-23051D01*
X83366Y-24070D02*
X83366Y-23326D01*
X67138Y-20582D02*
X65944Y-19389D01*
X65944Y-19389D02*
X65944Y-18208D01*
X65944Y-18208D02*
X66633Y-17519D01*
X67138Y-20681D02*
X67138Y-21151D01*
X67138Y-20681D02*
X67138Y-20582D01*
X67027Y-17125D02*
X66633Y-17519D01*
X71358Y-17125D02*
X67027Y-17125D01*
X71751Y-17519D02*
X71358Y-17125D01*
X73986Y-22347D02*
X80105Y-22347D01*
X80105Y-22347D02*
X81496Y-20956D01*
X73986Y-21835D02*
X78617Y-21835D01*
X78617Y-21835D02*
X81496Y-18956D01*
X73986Y-22091D02*
X79361Y-22091D01*
X79361Y-22091D02*
X81496Y-19956D01*
X73986Y-21579D02*
X77873Y-21579D01*
X77873Y-21579D02*
X81496Y-17956D01*
X73986Y-22603D02*
X80849Y-22603D01*
X80849Y-22603D02*
X81496Y-21956D01*
X69488Y-23511D02*
X70952Y-23511D01*
X71323Y-23882D02*
X71782Y-23882D01*
X70952Y-23511D02*
X71323Y-23882D01*
X69488Y-22571D02*
X70602Y-22571D01*
X71402Y-23371D02*
X71782Y-23371D01*
X70602Y-22571D02*
X71402Y-23371D01*
X69488Y-22881D02*
X70617Y-22881D01*
X71363Y-23627D02*
X71782Y-23627D01*
X70617Y-22881D02*
X71363Y-23627D01*
X69488Y-22251D02*
X70578Y-22251D01*
X71441Y-23115D02*
X71782Y-23115D01*
X70578Y-22251D02*
X71441Y-23115D01*
X70283Y-15551D02*
X70952Y-14881D01*
X72121Y-24138D02*
X72637Y-23622D01*
X72637Y-23622D02*
X72637Y-20078D01*
X72637Y-20078D02*
X73523Y-19192D01*
X72121Y-24138D02*
X71782Y-24138D01*
X73523Y-15531D02*
X73523Y-19192D01*
X72874Y-14881D02*
X73523Y-15531D01*
X70952Y-14881D02*
X72874Y-14881D01*
X69488Y-24141D02*
X70543Y-24141D01*
X70546Y-24138D02*
X71782Y-24138D01*
X70543Y-24141D02*
X70546Y-24138D01*
X82480Y-21956D02*
X83169Y-21267D01*
X83169Y-21136D02*
X83948Y-20356D01*
X83169Y-21267D02*
X83169Y-21136D01*
X57874Y-21956D02*
X57202Y-21956D01*
X57202Y-21956D02*
X56602Y-22556D01*
X67125Y-17421D02*
X68700Y-17421D01*
X67448Y-20696D02*
X67448Y-20499D01*
X67448Y-21151D02*
X67448Y-20696D01*
X66240Y-18307D02*
X67125Y-17421D01*
X66240Y-19291D02*
X66240Y-18307D01*
X67448Y-20499D02*
X66240Y-19291D01*
X68700Y-17421D02*
X68799Y-17519D01*
X69488Y-23201D02*
X70164Y-23201D01*
X70164Y-23201D02*
X70167Y-23198D01*
X73617Y-23882D02*
X73986Y-23882D01*
X73602Y-23897D02*
X73617Y-23882D01*
X73346Y-23897D02*
X73602Y-23897D01*
X69488Y-23831D02*
X70755Y-23831D01*
X73528Y-23627D02*
X73986Y-23627D01*
X73326Y-23425D02*
X73528Y-23627D01*
X70755Y-23831D02*
X70767Y-23818D01*
X69283Y-15551D02*
X70346Y-14488D01*
X72933Y-23818D02*
X72145Y-24606D01*
X72145Y-24606D02*
X69035Y-24606D01*
X69035Y-24606D02*
X68710Y-24931D01*
X72933Y-20374D02*
X73917Y-19389D01*
X72933Y-23449D02*
X72933Y-20374D01*
X72933Y-23449D02*
X72933Y-23818D01*
X73917Y-15216D02*
X73917Y-19389D01*
X73188Y-14488D02*
X73917Y-15216D01*
X70346Y-14488D02*
X73188Y-14488D01*
X73986Y-24138D02*
X73622Y-24138D01*
X73598Y-24138D02*
X72804Y-24931D01*
X73622Y-24138D02*
X73598Y-24138D01*
X72804Y-24931D02*
X68710Y-24931D01*
X73986Y-23115D02*
X80654Y-23115D01*
X80654Y-23115D02*
X81496Y-23956D01*
X73986Y-23371D02*
X79910Y-23371D01*
X79910Y-23371D02*
X81496Y-24956D01*
X73986Y-22859D02*
X80831Y-22859D01*
X80929Y-22956D02*
X81496Y-22956D01*
X80831Y-22859D02*
X80929Y-22956D01*
X82480Y-22956D02*
X83094Y-22342D01*
X83094Y-22311D02*
X83948Y-21456D01*
X83094Y-22342D02*
X83094Y-22311D01*
X57874Y-22956D02*
X57102Y-22956D01*
X56122Y-21937D02*
X56602Y-21456D01*
X56122Y-22874D02*
X56122Y-21937D01*
X56338Y-23090D02*
X56122Y-22874D01*
X56968Y-23090D02*
X56338Y-23090D01*
X57102Y-22956D02*
X56968Y-23090D01*
X72042Y-25492D02*
X71319Y-26215D01*
X71319Y-26215D02*
X71319Y-26870D01*
X68080Y-24931D02*
X68080Y-25462D01*
X71319Y-27401D02*
X71319Y-26870D01*
X71062Y-27657D02*
X71319Y-27401D01*
X70275Y-27657D02*
X71062Y-27657D01*
X68080Y-25462D02*
X70275Y-27657D01*
X74315Y-25492D02*
X75019Y-26195D01*
X75019Y-26195D02*
X75019Y-26870D01*
X75019Y-26870D02*
X73228Y-26870D01*
X67766Y-25541D02*
X67766Y-24931D01*
X67913Y-25688D02*
X67766Y-25541D01*
X67913Y-25688D02*
X67913Y-25688D01*
X70177Y-27952D02*
X67913Y-25688D01*
X72145Y-27952D02*
X70177Y-27952D01*
X73228Y-26870D02*
X72145Y-27952D01*
G54D34*
X68283Y-15551D02*
X68283Y-16118D01*
X68700Y-16535D02*
X69581Y-16535D01*
X68283Y-16118D02*
X68700Y-16535D01*
G54D38*
X67323Y-18700D02*
X68268Y-18700D01*
G54D34*
X83948Y-23606D02*
X83948Y-25303D01*
X80511Y-28740D02*
X71259Y-28740D01*
X83948Y-25303D02*
X80511Y-28740D01*
X73129Y-25492D02*
X72642Y-25492D01*
X73129Y-25492D02*
X73715Y-25492D01*
X70437Y-21716D02*
X69881Y-21161D01*
X69881Y-21161D02*
X69291Y-21161D01*
X70472Y-21716D02*
X70437Y-21716D01*
X70472Y-21751D02*
X70472Y-21716D01*
X70766Y-21716D02*
X70437Y-21716D01*
X66732Y-18700D02*
X67323Y-18700D01*
X69192Y-18705D02*
X69188Y-18700D01*
X69188Y-18700D02*
X68268Y-18700D01*
X67613Y-19980D02*
X67323Y-19690D01*
X67323Y-19690D02*
X67323Y-18700D01*
X64960Y-24803D02*
X65944Y-24803D01*
X64960Y-24803D02*
X64665Y-24507D01*
X64665Y-23504D02*
X64665Y-24507D01*
G54D37*
X66820Y-24931D02*
X66820Y-24420D01*
X66929Y-24311D02*
X66929Y-24015D01*
X66820Y-24420D02*
X66929Y-24311D01*
G54D38*
X67450Y-24241D02*
X67450Y-24931D01*
X67224Y-24015D02*
X67450Y-24241D01*
X66929Y-24015D02*
X67224Y-24015D01*
G54D36*
X67450Y-24931D02*
X67450Y-25422D01*
X67450Y-25422D02*
X67524Y-25496D01*
X67524Y-25496D02*
X67524Y-25885D01*
G54D37*
X68078Y-21151D02*
X68078Y-21931D01*
X68011Y-21850D02*
X68011Y-21931D01*
X68011Y-21865D02*
X68011Y-21850D01*
X68078Y-21931D02*
X68011Y-21865D01*
G54D38*
X66830Y-21948D02*
X67519Y-21948D01*
X67519Y-21948D02*
X67716Y-22145D01*
G54D36*
X66508Y-21626D02*
X66830Y-21948D01*
X66508Y-21151D02*
X66508Y-21626D01*
G54D38*
X67930Y-21931D02*
X68011Y-21931D01*
X67716Y-22145D02*
X67930Y-21931D01*
X68011Y-21931D02*
X69488Y-21931D01*
G54D35*
X70766Y-21716D02*
X71216Y-21716D01*
X71350Y-21583D02*
X71784Y-21583D01*
X71216Y-21716D02*
X71350Y-21583D01*
X71411Y-20812D02*
X71782Y-20812D01*
X71266Y-20666D02*
X71411Y-20812D01*
X72199Y-21068D02*
X71782Y-21068D01*
X72322Y-20944D02*
X72199Y-21068D01*
X72322Y-20669D02*
X72322Y-20944D01*
G54D37*
X71259Y-17716D02*
X71259Y-18030D01*
X71062Y-17519D02*
X71259Y-17716D01*
X70767Y-17519D02*
X71062Y-17519D01*
X69685Y-17519D02*
X70177Y-17519D01*
X70374Y-17716D02*
X70374Y-18030D01*
X70177Y-17519D02*
X70374Y-17716D01*
G54D36*
X65722Y-22568D02*
X65226Y-22568D01*
X65040Y-22754D02*
X64665Y-22754D01*
X65226Y-22568D02*
X65040Y-22754D01*
G54D37*
X63788Y-23129D02*
X64163Y-22754D01*
X64163Y-22754D02*
X64665Y-22754D01*
G54D36*
X68779Y-29266D02*
X68612Y-29100D01*
X68779Y-29822D02*
X68779Y-29266D01*
X68612Y-29100D02*
X68412Y-29100D01*
G54D38*
X62362Y-29650D02*
X62362Y-29450D01*
X62412Y-29700D02*
X62362Y-29650D01*
G54D34*
X67440Y-29842D02*
X67833Y-29450D01*
X67833Y-29450D02*
X68062Y-29450D01*
X68062Y-29450D02*
X68412Y-29100D01*
X62412Y-29700D02*
X61462Y-29700D01*
X61260Y-29497D02*
X61260Y-28740D01*
X61462Y-29700D02*
X61260Y-29497D01*
G54D36*
X62362Y-29449D02*
X62362Y-28503D01*
X62362Y-29450D02*
X62362Y-29449D01*
G54D35*
X71448Y-21835D02*
X71784Y-21835D01*
X71216Y-22066D02*
X71448Y-21835D01*
G54D34*
X64158Y-27854D02*
X66437Y-27854D01*
X66437Y-27854D02*
X67027Y-27854D01*
X67027Y-27854D02*
X69094Y-27854D01*
X64018Y-27994D02*
X64158Y-27854D01*
X64018Y-27994D02*
X63812Y-28200D01*
G54D36*
X63812Y-28200D02*
X63812Y-28312D01*
X63812Y-28312D02*
X63622Y-28503D01*
G54D34*
X69980Y-28740D02*
X69980Y-29330D01*
X69980Y-29330D02*
X69962Y-29330D01*
X69094Y-27854D02*
X69980Y-28740D01*
G54D36*
X69803Y-29822D02*
X69962Y-29662D01*
X69962Y-29662D02*
X69962Y-29330D01*
X69962Y-29330D02*
X69962Y-29100D01*
G54D35*
X73586Y-21323D02*
X73986Y-21323D01*
X73326Y-21062D02*
X73586Y-21323D01*
X73326Y-20767D02*
X73326Y-21062D01*
X73986Y-21068D02*
X74367Y-21068D01*
X74516Y-21216D02*
X74866Y-21216D01*
X74367Y-21068D02*
X74516Y-21216D01*
X73986Y-20812D02*
X74371Y-20812D01*
X74566Y-20616D02*
X74866Y-20616D01*
X74371Y-20812D02*
X74566Y-20616D01*
G54D10*
G36*
X86534Y-31022D02*
X86291Y-31022D01*
X86291Y-29619D01*
X86291Y-29527D01*
X86291Y-29435D01*
X86291Y-13477D01*
X86291Y-13385D01*
X86291Y-13293D01*
X86291Y-13293D01*
X86291Y-13293D01*
X86230Y-12991D01*
X86160Y-12821D01*
X86159Y-12820D01*
X85990Y-12566D01*
X85989Y-12565D01*
X85858Y-12435D01*
X85603Y-12264D01*
X85432Y-12194D01*
X85431Y-12194D01*
X85132Y-12134D01*
X85131Y-12133D01*
X84946Y-12134D01*
X84645Y-12194D01*
X84474Y-12265D01*
X84473Y-12266D01*
X84220Y-12435D01*
X84219Y-12435D01*
X84088Y-12566D01*
X83918Y-12821D01*
X83847Y-12992D01*
X83847Y-12993D01*
X83787Y-13293D01*
X83787Y-13293D01*
X83787Y-13293D01*
X83787Y-13385D01*
X83787Y-13477D01*
X83787Y-13478D01*
X83787Y-13478D01*
X83847Y-13777D01*
X83847Y-13779D01*
X83918Y-13949D01*
X84088Y-14205D01*
X84219Y-14335D01*
X84220Y-14336D01*
X84473Y-14505D01*
X84474Y-14506D01*
X84645Y-14577D01*
X84946Y-14637D01*
X85131Y-14637D01*
X85132Y-14637D01*
X85431Y-14577D01*
X85432Y-14577D01*
X85603Y-14506D01*
X85858Y-14336D01*
X85989Y-14206D01*
X85990Y-14204D01*
X86159Y-13951D01*
X86160Y-13950D01*
X86230Y-13779D01*
X86291Y-13478D01*
X86291Y-13478D01*
X86291Y-13477D01*
X86291Y-29435D01*
X86291Y-29435D01*
X86291Y-29434D01*
X86230Y-29133D01*
X86160Y-28962D01*
X86159Y-28962D01*
X86142Y-28937D01*
X86142Y-26170D01*
X85961Y-25731D01*
X85625Y-25395D01*
X85187Y-25213D01*
X84712Y-25212D01*
X84273Y-25394D01*
X83937Y-25729D01*
X83755Y-26168D01*
X83754Y-26643D01*
X83936Y-27081D01*
X84271Y-27418D01*
X84710Y-27600D01*
X85185Y-27600D01*
X85624Y-27419D01*
X85960Y-27083D01*
X86142Y-26645D01*
X86142Y-26170D01*
X86142Y-28937D01*
X85990Y-28708D01*
X85989Y-28707D01*
X85858Y-28576D01*
X85603Y-28406D01*
X85432Y-28335D01*
X85431Y-28335D01*
X85132Y-28276D01*
X85131Y-28275D01*
X84946Y-28275D01*
X84645Y-28336D01*
X84474Y-28406D01*
X84473Y-28407D01*
X84220Y-28576D01*
X84219Y-28577D01*
X84088Y-28708D01*
X83918Y-28963D01*
X83847Y-29134D01*
X83847Y-29135D01*
X83787Y-29434D01*
X83787Y-29435D01*
X83787Y-29435D01*
X83787Y-29527D01*
X83787Y-29619D01*
X83787Y-29619D01*
X83787Y-29620D01*
X83847Y-29919D01*
X83847Y-29920D01*
X83918Y-30091D01*
X84088Y-30347D01*
X84219Y-30477D01*
X84220Y-30478D01*
X84473Y-30647D01*
X84474Y-30648D01*
X84645Y-30719D01*
X84946Y-30779D01*
X85131Y-30779D01*
X85132Y-30778D01*
X85431Y-30719D01*
X85432Y-30719D01*
X85603Y-30648D01*
X85858Y-30478D01*
X85989Y-30347D01*
X85990Y-30346D01*
X86159Y-30093D01*
X86160Y-30092D01*
X86230Y-29921D01*
X86291Y-29620D01*
X86291Y-29619D01*
X86291Y-29619D01*
X86291Y-31022D01*
X71979Y-31022D01*
X71979Y-30857D01*
X71911Y-30693D01*
X71787Y-30568D01*
X71624Y-30501D01*
X71447Y-30501D01*
X70916Y-30501D01*
X70916Y-30483D01*
X71623Y-30483D01*
X71786Y-30415D01*
X71911Y-30291D01*
X71979Y-30128D01*
X71979Y-29951D01*
X71979Y-29557D01*
X71911Y-29394D01*
X71787Y-29269D01*
X71624Y-29202D01*
X71447Y-29201D01*
X70916Y-29201D01*
X70916Y-28446D01*
X72145Y-28446D01*
X72334Y-28408D01*
X72494Y-28301D01*
X73432Y-27363D01*
X73498Y-27363D01*
X73560Y-27514D01*
X73685Y-27639D01*
X73848Y-27707D01*
X74024Y-27707D01*
X76189Y-27707D01*
X76352Y-27639D01*
X76477Y-27515D01*
X76545Y-27352D01*
X76545Y-27175D01*
X76545Y-26388D01*
X76478Y-26225D01*
X76353Y-26100D01*
X76190Y-26032D01*
X76013Y-26032D01*
X75480Y-26032D01*
X75475Y-26006D01*
X75475Y-26006D01*
X75432Y-25942D01*
X75368Y-25846D01*
X75368Y-25846D01*
X74884Y-25362D01*
X74884Y-25179D01*
X74817Y-25016D01*
X74692Y-24891D01*
X74529Y-24823D01*
X74459Y-24823D01*
X74459Y-24625D01*
X74527Y-24597D01*
X74652Y-24472D01*
X74719Y-24309D01*
X74719Y-24132D01*
X74719Y-23967D01*
X74719Y-23967D01*
X74719Y-23876D01*
X74719Y-23864D01*
X79706Y-23864D01*
X80747Y-24906D01*
X80747Y-25104D01*
X80860Y-25380D01*
X81071Y-25591D01*
X81346Y-25705D01*
X81644Y-25705D01*
X81919Y-25591D01*
X81988Y-25523D01*
X82055Y-25591D01*
X82330Y-25705D01*
X82628Y-25705D01*
X82903Y-25591D01*
X83114Y-25381D01*
X83229Y-25106D01*
X83229Y-24906D01*
X83715Y-24419D01*
X83822Y-24259D01*
X83843Y-24153D01*
X83867Y-24161D01*
X84085Y-24150D01*
X84236Y-24087D01*
X84264Y-23992D01*
X83948Y-23677D01*
X83943Y-23682D01*
X83872Y-23612D01*
X83878Y-23606D01*
X83872Y-23601D01*
X83928Y-23544D01*
X83968Y-23544D01*
X84025Y-23601D01*
X84019Y-23606D01*
X84334Y-23921D01*
X84430Y-23894D01*
X84503Y-23688D01*
X84502Y-23662D01*
X84526Y-23686D01*
X84800Y-23800D01*
X85096Y-23800D01*
X85369Y-23687D01*
X85578Y-23478D01*
X85692Y-23205D01*
X85692Y-23011D01*
X85959Y-22744D01*
X85959Y-22744D01*
X85959Y-22744D01*
X86066Y-22584D01*
X86066Y-22584D01*
X86096Y-22432D01*
X86103Y-22395D01*
X86103Y-22395D01*
X86103Y-22395D01*
X86103Y-19710D01*
X86081Y-19596D01*
X86126Y-19552D01*
X86220Y-19324D01*
X86220Y-19077D01*
X86126Y-18848D01*
X85985Y-18707D01*
X86020Y-18624D01*
X86020Y-18377D01*
X85926Y-18148D01*
X85752Y-17973D01*
X85524Y-17879D01*
X85477Y-17879D01*
X85194Y-17596D01*
X85624Y-17419D01*
X85960Y-17083D01*
X86142Y-16645D01*
X86142Y-16170D01*
X85961Y-15731D01*
X85625Y-15395D01*
X85187Y-15213D01*
X84712Y-15212D01*
X84273Y-15394D01*
X83937Y-15729D01*
X83905Y-15807D01*
X81520Y-13422D01*
X81520Y-13377D01*
X81426Y-13148D01*
X81252Y-12973D01*
X81024Y-12879D01*
X80777Y-12879D01*
X80548Y-12973D01*
X80373Y-13147D01*
X80279Y-13375D01*
X80279Y-13460D01*
X80248Y-13473D01*
X80073Y-13647D01*
X79979Y-13875D01*
X79979Y-14122D01*
X80073Y-14351D01*
X80247Y-14526D01*
X80475Y-14620D01*
X80522Y-14620D01*
X82707Y-16805D01*
X82743Y-16988D01*
X82850Y-17149D01*
X82958Y-17257D01*
X82864Y-17217D01*
X82815Y-17217D01*
X82049Y-16450D01*
X81888Y-16343D01*
X81700Y-16306D01*
X78504Y-16306D01*
X74782Y-12583D01*
X74622Y-12476D01*
X74459Y-12444D01*
X74459Y-11890D01*
X86534Y-11890D01*
X86534Y-31022D01*
X86534Y-31022D01*
G37*
G54D37*
X86534Y-31022D02*
X86291Y-31022D01*
X86291Y-29619D01*
X86291Y-29527D01*
X86291Y-29435D01*
X86291Y-13477D01*
X86291Y-13385D01*
X86291Y-13293D01*
X86291Y-13293D01*
X86291Y-13293D01*
X86230Y-12991D01*
X86160Y-12821D01*
X86159Y-12820D01*
X85990Y-12566D01*
X85989Y-12565D01*
X85858Y-12435D01*
X85603Y-12264D01*
X85432Y-12194D01*
X85431Y-12194D01*
X85132Y-12134D01*
X85131Y-12133D01*
X84946Y-12134D01*
X84645Y-12194D01*
X84474Y-12265D01*
X84473Y-12266D01*
X84220Y-12435D01*
X84219Y-12435D01*
X84088Y-12566D01*
X83918Y-12821D01*
X83847Y-12992D01*
X83847Y-12993D01*
X83787Y-13293D01*
X83787Y-13293D01*
X83787Y-13293D01*
X83787Y-13385D01*
X83787Y-13477D01*
X83787Y-13478D01*
X83787Y-13478D01*
X83847Y-13777D01*
X83847Y-13779D01*
X83918Y-13949D01*
X84088Y-14205D01*
X84219Y-14335D01*
X84220Y-14336D01*
X84473Y-14505D01*
X84474Y-14506D01*
X84645Y-14577D01*
X84946Y-14637D01*
X85131Y-14637D01*
X85132Y-14637D01*
X85431Y-14577D01*
X85432Y-14577D01*
X85603Y-14506D01*
X85858Y-14336D01*
X85989Y-14206D01*
X85990Y-14204D01*
X86159Y-13951D01*
X86160Y-13950D01*
X86230Y-13779D01*
X86291Y-13478D01*
X86291Y-13478D01*
X86291Y-13477D01*
X86291Y-29435D01*
X86291Y-29435D01*
X86291Y-29434D01*
X86230Y-29133D01*
X86160Y-28962D01*
X86159Y-28962D01*
X86142Y-28937D01*
X86142Y-26170D01*
X85961Y-25731D01*
X85625Y-25395D01*
X85187Y-25213D01*
X84712Y-25212D01*
X84273Y-25394D01*
X83937Y-25729D01*
X83755Y-26168D01*
X83754Y-26643D01*
X83936Y-27081D01*
X84271Y-27418D01*
X84710Y-27600D01*
X85185Y-27600D01*
X85624Y-27419D01*
X85960Y-27083D01*
X86142Y-26645D01*
X86142Y-26170D01*
X86142Y-28937D01*
X85990Y-28708D01*
X85989Y-28707D01*
X85858Y-28576D01*
X85603Y-28406D01*
X85432Y-28335D01*
X85431Y-28335D01*
X85132Y-28276D01*
X85131Y-28275D01*
X84946Y-28275D01*
X84645Y-28336D01*
X84474Y-28406D01*
X84473Y-28407D01*
X84220Y-28576D01*
X84219Y-28577D01*
X84088Y-28708D01*
X83918Y-28963D01*
X83847Y-29134D01*
X83847Y-29135D01*
X83787Y-29434D01*
X83787Y-29435D01*
X83787Y-29435D01*
X83787Y-29527D01*
X83787Y-29619D01*
X83787Y-29619D01*
X83787Y-29620D01*
X83847Y-29919D01*
X83847Y-29920D01*
X83918Y-30091D01*
X84088Y-30347D01*
X84219Y-30477D01*
X84220Y-30478D01*
X84473Y-30647D01*
X84474Y-30648D01*
X84645Y-30719D01*
X84946Y-30779D01*
X85131Y-30779D01*
X85132Y-30778D01*
X85431Y-30719D01*
X85432Y-30719D01*
X85603Y-30648D01*
X85858Y-30478D01*
X85989Y-30347D01*
X85990Y-30346D01*
X86159Y-30093D01*
X86160Y-30092D01*
X86230Y-29921D01*
X86291Y-29620D01*
X86291Y-29619D01*
X86291Y-29619D01*
X86291Y-31022D01*
X71979Y-31022D01*
X71979Y-30857D01*
X71911Y-30693D01*
X71787Y-30568D01*
X71624Y-30501D01*
X71447Y-30501D01*
X70916Y-30501D01*
X70916Y-30483D01*
X71623Y-30483D01*
X71786Y-30415D01*
X71911Y-30291D01*
X71979Y-30128D01*
X71979Y-29951D01*
X71979Y-29557D01*
X71911Y-29394D01*
X71787Y-29269D01*
X71624Y-29202D01*
X71447Y-29201D01*
X70916Y-29201D01*
X70916Y-28446D01*
X72145Y-28446D01*
X72334Y-28408D01*
X72494Y-28301D01*
X73432Y-27363D01*
X73498Y-27363D01*
X73560Y-27514D01*
X73685Y-27639D01*
X73848Y-27707D01*
X74024Y-27707D01*
X76189Y-27707D01*
X76352Y-27639D01*
X76477Y-27515D01*
X76545Y-27352D01*
X76545Y-27175D01*
X76545Y-26388D01*
X76478Y-26225D01*
X76353Y-26100D01*
X76190Y-26032D01*
X76013Y-26032D01*
X75480Y-26032D01*
X75475Y-26006D01*
X75475Y-26006D01*
X75432Y-25942D01*
X75368Y-25846D01*
X75368Y-25846D01*
X74884Y-25362D01*
X74884Y-25179D01*
X74817Y-25016D01*
X74692Y-24891D01*
X74529Y-24823D01*
X74459Y-24823D01*
X74459Y-24625D01*
X74527Y-24597D01*
X74652Y-24472D01*
X74719Y-24309D01*
X74719Y-24132D01*
X74719Y-23967D01*
X74719Y-23967D01*
X74719Y-23876D01*
X74719Y-23864D01*
X79706Y-23864D01*
X80747Y-24906D01*
X80747Y-25104D01*
X80860Y-25380D01*
X81071Y-25591D01*
X81346Y-25705D01*
X81644Y-25705D01*
X81919Y-25591D01*
X81988Y-25523D01*
X82055Y-25591D01*
X82330Y-25705D01*
X82628Y-25705D01*
X82903Y-25591D01*
X83114Y-25381D01*
X83229Y-25106D01*
X83229Y-24906D01*
X83715Y-24419D01*
X83822Y-24259D01*
X83843Y-24153D01*
X83867Y-24161D01*
X84085Y-24150D01*
X84236Y-24087D01*
X84264Y-23992D01*
X83948Y-23677D01*
X83943Y-23682D01*
X83872Y-23612D01*
X83878Y-23606D01*
X83872Y-23601D01*
X83928Y-23544D01*
X83968Y-23544D01*
X84025Y-23601D01*
X84019Y-23606D01*
X84334Y-23921D01*
X84430Y-23894D01*
X84503Y-23688D01*
X84502Y-23662D01*
X84526Y-23686D01*
X84800Y-23800D01*
X85096Y-23800D01*
X85369Y-23687D01*
X85578Y-23478D01*
X85692Y-23205D01*
X85692Y-23011D01*
X85959Y-22744D01*
X85959Y-22744D01*
X85959Y-22744D01*
X86066Y-22584D01*
X86066Y-22584D01*
X86096Y-22432D01*
X86103Y-22395D01*
X86103Y-22395D01*
X86103Y-22395D01*
X86103Y-19710D01*
X86081Y-19596D01*
X86126Y-19552D01*
X86220Y-19324D01*
X86220Y-19077D01*
X86126Y-18848D01*
X85985Y-18707D01*
X86020Y-18624D01*
X86020Y-18377D01*
X85926Y-18148D01*
X85752Y-17973D01*
X85524Y-17879D01*
X85477Y-17879D01*
X85194Y-17596D01*
X85624Y-17419D01*
X85960Y-17083D01*
X86142Y-16645D01*
X86142Y-16170D01*
X85961Y-15731D01*
X85625Y-15395D01*
X85187Y-15213D01*
X84712Y-15212D01*
X84273Y-15394D01*
X83937Y-15729D01*
X83905Y-15807D01*
X81520Y-13422D01*
X81520Y-13377D01*
X81426Y-13148D01*
X81252Y-12973D01*
X81024Y-12879D01*
X80777Y-12879D01*
X80548Y-12973D01*
X80373Y-13147D01*
X80279Y-13375D01*
X80279Y-13460D01*
X80248Y-13473D01*
X80073Y-13647D01*
X79979Y-13875D01*
X79979Y-14122D01*
X80073Y-14351D01*
X80247Y-14526D01*
X80475Y-14620D01*
X80522Y-14620D01*
X82707Y-16805D01*
X82743Y-16988D01*
X82850Y-17149D01*
X82958Y-17257D01*
X82864Y-17217D01*
X82815Y-17217D01*
X82049Y-16450D01*
X81888Y-16343D01*
X81700Y-16306D01*
X78504Y-16306D01*
X74782Y-12583D01*
X74622Y-12476D01*
X74459Y-12444D01*
X74459Y-11890D01*
X86534Y-11890D01*
X86534Y-31022D01*
G54D10*
G36*
X57482Y-20456D02*
X57357Y-20581D01*
X57207Y-20581D01*
X57227Y-20531D01*
X57228Y-20282D01*
X57133Y-20052D01*
X56957Y-19876D01*
X56816Y-19818D01*
X56890Y-19787D01*
X56917Y-19692D01*
X56602Y-19377D01*
X56596Y-19382D01*
X56526Y-19312D01*
X56531Y-19306D01*
X56526Y-19301D01*
X56596Y-19230D01*
X56602Y-19235D01*
X56607Y-19230D01*
X56678Y-19301D01*
X56673Y-19306D01*
X56988Y-19621D01*
X57083Y-19594D01*
X57157Y-19388D01*
X57152Y-19299D01*
X57159Y-19303D01*
X57303Y-19332D01*
X57357Y-19332D01*
X57482Y-19456D01*
X57339Y-19598D01*
X57243Y-19830D01*
X57243Y-20081D01*
X57339Y-20313D01*
X57482Y-20456D01*
X57482Y-20456D01*
G37*
G54D37*
X57482Y-20456D02*
X57357Y-20581D01*
X57207Y-20581D01*
X57227Y-20531D01*
X57228Y-20282D01*
X57133Y-20052D01*
X56957Y-19876D01*
X56816Y-19818D01*
X56890Y-19787D01*
X56917Y-19692D01*
X56602Y-19377D01*
X56596Y-19382D01*
X56526Y-19312D01*
X56531Y-19306D01*
X56526Y-19301D01*
X56596Y-19230D01*
X56602Y-19235D01*
X56607Y-19230D01*
X56678Y-19301D01*
X56673Y-19306D01*
X56988Y-19621D01*
X57083Y-19594D01*
X57157Y-19388D01*
X57152Y-19299D01*
X57159Y-19303D01*
X57303Y-19332D01*
X57357Y-19332D01*
X57482Y-19456D01*
X57339Y-19598D01*
X57243Y-19830D01*
X57243Y-20081D01*
X57339Y-20313D01*
X57482Y-20456D01*
G54D10*
G36*
X67272Y-16121D02*
X66091Y-17302D01*
X66091Y-17530D01*
X65679Y-17943D01*
X65597Y-18064D01*
X65569Y-18208D01*
X65569Y-19389D01*
X65597Y-19533D01*
X65679Y-19655D01*
X66086Y-20062D01*
X65698Y-20451D01*
X65698Y-21277D01*
X63582Y-21277D01*
X63438Y-21306D01*
X63317Y-21387D01*
X62726Y-21978D01*
X62645Y-22100D01*
X62616Y-22244D01*
X62616Y-22304D01*
X62274Y-22304D01*
X62154Y-22353D01*
X62063Y-22445D01*
X62013Y-22564D01*
X62013Y-22694D01*
X62013Y-23694D01*
X62062Y-23814D01*
X62138Y-23889D01*
X62096Y-23991D01*
X62096Y-24120D01*
X62096Y-24470D01*
X62145Y-24590D01*
X62161Y-24606D01*
X62145Y-24621D01*
X62096Y-24741D01*
X62096Y-24870D01*
X62096Y-25220D01*
X62145Y-25340D01*
X62237Y-25432D01*
X62356Y-25481D01*
X62486Y-25481D01*
X62616Y-25481D01*
X62616Y-27449D01*
X62514Y-27449D01*
X62514Y-27450D01*
X62395Y-27449D01*
X62199Y-27449D01*
X62080Y-27499D01*
X61988Y-27590D01*
X61938Y-27710D01*
X61938Y-27840D01*
X61938Y-28085D01*
X61929Y-28064D01*
X61838Y-27972D01*
X61718Y-27922D01*
X61589Y-27922D01*
X60802Y-27922D01*
X60682Y-27972D01*
X60590Y-28063D01*
X60541Y-28183D01*
X60540Y-28312D01*
X60540Y-29296D01*
X60590Y-29416D01*
X60681Y-29508D01*
X60752Y-29537D01*
X60783Y-29694D01*
X60895Y-29861D01*
X61098Y-30064D01*
X61098Y-30064D01*
X61133Y-30087D01*
X60763Y-30087D01*
X60643Y-30137D01*
X60551Y-30228D01*
X60502Y-30348D01*
X60501Y-30477D01*
X60501Y-31140D01*
X56678Y-31140D01*
X56678Y-26293D01*
X56514Y-25898D01*
X56212Y-25595D01*
X55817Y-25431D01*
X55389Y-25430D01*
X54993Y-25594D01*
X54691Y-25896D01*
X54526Y-26291D01*
X54526Y-26719D01*
X54689Y-27115D01*
X54992Y-27418D01*
X55387Y-27582D01*
X55815Y-27582D01*
X56210Y-27419D01*
X56513Y-27116D01*
X56677Y-26721D01*
X56678Y-26293D01*
X56678Y-31140D01*
X56647Y-31140D01*
X56647Y-29596D01*
X56647Y-29527D01*
X56647Y-29458D01*
X56647Y-29458D01*
X56647Y-29457D01*
X56587Y-29156D01*
X56534Y-29028D01*
X56533Y-29027D01*
X56364Y-28774D01*
X56363Y-28773D01*
X56265Y-28675D01*
X56010Y-28504D01*
X55882Y-28451D01*
X55880Y-28451D01*
X55581Y-28392D01*
X55580Y-28391D01*
X55442Y-28391D01*
X55140Y-28451D01*
X55012Y-28504D01*
X55011Y-28505D01*
X54758Y-28675D01*
X54757Y-28675D01*
X54659Y-28773D01*
X54488Y-29029D01*
X54435Y-29157D01*
X54435Y-29158D01*
X54376Y-29457D01*
X54376Y-29458D01*
X54376Y-29458D01*
X54376Y-29527D01*
X54376Y-29596D01*
X54376Y-29596D01*
X54376Y-29597D01*
X54435Y-29896D01*
X54435Y-29897D01*
X54488Y-30025D01*
X54659Y-30281D01*
X54757Y-30379D01*
X54758Y-30380D01*
X55011Y-30549D01*
X55012Y-30550D01*
X55140Y-30603D01*
X55442Y-30663D01*
X55580Y-30663D01*
X55581Y-30663D01*
X55880Y-30603D01*
X55882Y-30603D01*
X56010Y-30550D01*
X56265Y-30380D01*
X56363Y-30282D01*
X56364Y-30280D01*
X56533Y-30027D01*
X56534Y-30026D01*
X56587Y-29898D01*
X56647Y-29597D01*
X56647Y-29596D01*
X56647Y-29596D01*
X56647Y-31140D01*
X53898Y-31140D01*
X53898Y-11772D01*
X67272Y-11772D01*
X67272Y-12557D01*
X63881Y-12557D01*
X63738Y-12586D01*
X63616Y-12667D01*
X58948Y-17335D01*
X58498Y-17335D01*
X58378Y-17385D01*
X58366Y-17397D01*
X58353Y-17385D01*
X58234Y-17335D01*
X58104Y-17335D01*
X57514Y-17335D01*
X57394Y-17385D01*
X57302Y-17476D01*
X57259Y-17581D01*
X56708Y-17581D01*
X56678Y-17587D01*
X56678Y-16293D01*
X56647Y-16220D01*
X56647Y-13454D01*
X56647Y-13385D01*
X56647Y-13316D01*
X56647Y-13316D01*
X56647Y-13316D01*
X56587Y-13014D01*
X56534Y-12886D01*
X56533Y-12885D01*
X56364Y-12632D01*
X56363Y-12631D01*
X56265Y-12533D01*
X56010Y-12362D01*
X55882Y-12310D01*
X55880Y-12310D01*
X55581Y-12250D01*
X55580Y-12249D01*
X55442Y-12249D01*
X55140Y-12310D01*
X55012Y-12363D01*
X55011Y-12364D01*
X54758Y-12533D01*
X54757Y-12533D01*
X54659Y-12631D01*
X54488Y-12887D01*
X54435Y-13015D01*
X54435Y-13016D01*
X54376Y-13316D01*
X54376Y-13316D01*
X54376Y-13316D01*
X54376Y-13385D01*
X54376Y-13454D01*
X54376Y-13455D01*
X54376Y-13455D01*
X54435Y-13754D01*
X54435Y-13756D01*
X54488Y-13884D01*
X54659Y-14139D01*
X54757Y-14237D01*
X54758Y-14238D01*
X55011Y-14407D01*
X55012Y-14408D01*
X55140Y-14461D01*
X55442Y-14521D01*
X55580Y-14521D01*
X55581Y-14521D01*
X55880Y-14461D01*
X55882Y-14461D01*
X56010Y-14408D01*
X56265Y-14238D01*
X56363Y-14140D01*
X56364Y-14139D01*
X56533Y-13885D01*
X56534Y-13884D01*
X56587Y-13756D01*
X56647Y-13455D01*
X56647Y-13455D01*
X56647Y-13454D01*
X56647Y-16220D01*
X56514Y-15898D01*
X56212Y-15595D01*
X55817Y-15431D01*
X55389Y-15430D01*
X54993Y-15594D01*
X54691Y-15896D01*
X54526Y-16291D01*
X54526Y-16719D01*
X54689Y-17115D01*
X54992Y-17418D01*
X55387Y-17582D01*
X55815Y-17582D01*
X56210Y-17419D01*
X56513Y-17116D01*
X56677Y-16721D01*
X56678Y-16293D01*
X56678Y-17587D01*
X56564Y-17609D01*
X56443Y-17691D01*
X55336Y-18797D01*
X55255Y-18919D01*
X55226Y-19062D01*
X55226Y-19347D01*
X55072Y-19501D01*
X54976Y-19731D01*
X54976Y-19980D01*
X55052Y-20164D01*
X54360Y-20856D01*
X54278Y-20978D01*
X54250Y-21122D01*
X54250Y-23188D01*
X54278Y-23332D01*
X54360Y-23454D01*
X54828Y-23922D01*
X54828Y-23922D01*
X54949Y-24003D01*
X55093Y-24032D01*
X55093Y-24032D01*
X55093Y-24032D01*
X55981Y-24032D01*
X56026Y-24140D01*
X56117Y-24232D01*
X56237Y-24282D01*
X56366Y-24282D01*
X56966Y-24282D01*
X57086Y-24232D01*
X57178Y-24141D01*
X57227Y-24021D01*
X57228Y-23892D01*
X57228Y-23360D01*
X57234Y-23356D01*
X57257Y-23332D01*
X57357Y-23332D01*
X57482Y-23456D01*
X57339Y-23598D01*
X57243Y-23830D01*
X57243Y-24081D01*
X57339Y-24313D01*
X57482Y-24456D01*
X57339Y-24598D01*
X57243Y-24830D01*
X57243Y-25081D01*
X57339Y-25313D01*
X57516Y-25491D01*
X57748Y-25587D01*
X57998Y-25587D01*
X58230Y-25491D01*
X58366Y-25356D01*
X58500Y-25491D01*
X58732Y-25587D01*
X58983Y-25587D01*
X59215Y-25491D01*
X59392Y-25314D01*
X59488Y-25082D01*
X59489Y-24831D01*
X59393Y-24599D01*
X59250Y-24456D01*
X59392Y-24314D01*
X59488Y-24082D01*
X59489Y-23831D01*
X59393Y-23599D01*
X59250Y-23456D01*
X59392Y-23314D01*
X59488Y-23082D01*
X59489Y-22831D01*
X59393Y-22599D01*
X59250Y-22456D01*
X59392Y-22314D01*
X59488Y-22082D01*
X59489Y-21831D01*
X59393Y-21599D01*
X59250Y-21456D01*
X59392Y-21314D01*
X59488Y-21082D01*
X59489Y-20831D01*
X59393Y-20599D01*
X59250Y-20456D01*
X59392Y-20314D01*
X59488Y-20082D01*
X59489Y-19831D01*
X59393Y-19599D01*
X59250Y-19456D01*
X59392Y-19314D01*
X59488Y-19082D01*
X59489Y-18857D01*
X64387Y-13958D01*
X67272Y-13958D01*
X67272Y-16121D01*
X67272Y-16121D01*
G37*
G54D37*
X67272Y-16121D02*
X66091Y-17302D01*
X66091Y-17530D01*
X65679Y-17943D01*
X65597Y-18064D01*
X65569Y-18208D01*
X65569Y-19389D01*
X65597Y-19533D01*
X65679Y-19655D01*
X66086Y-20062D01*
X65698Y-20451D01*
X65698Y-21277D01*
X63582Y-21277D01*
X63438Y-21306D01*
X63317Y-21387D01*
X62726Y-21978D01*
X62645Y-22100D01*
X62616Y-22244D01*
X62616Y-22304D01*
X62274Y-22304D01*
X62154Y-22353D01*
X62063Y-22445D01*
X62013Y-22564D01*
X62013Y-22694D01*
X62013Y-23694D01*
X62062Y-23814D01*
X62138Y-23889D01*
X62096Y-23991D01*
X62096Y-24120D01*
X62096Y-24470D01*
X62145Y-24590D01*
X62161Y-24606D01*
X62145Y-24621D01*
X62096Y-24741D01*
X62096Y-24870D01*
X62096Y-25220D01*
X62145Y-25340D01*
X62237Y-25432D01*
X62356Y-25481D01*
X62486Y-25481D01*
X62616Y-25481D01*
X62616Y-27449D01*
X62514Y-27449D01*
X62514Y-27450D01*
X62395Y-27449D01*
X62199Y-27449D01*
X62080Y-27499D01*
X61988Y-27590D01*
X61938Y-27710D01*
X61938Y-27840D01*
X61938Y-28085D01*
X61929Y-28064D01*
X61838Y-27972D01*
X61718Y-27922D01*
X61589Y-27922D01*
X60802Y-27922D01*
X60682Y-27972D01*
X60590Y-28063D01*
X60541Y-28183D01*
X60540Y-28312D01*
X60540Y-29296D01*
X60590Y-29416D01*
X60681Y-29508D01*
X60752Y-29537D01*
X60783Y-29694D01*
X60895Y-29861D01*
X61098Y-30064D01*
X61098Y-30064D01*
X61133Y-30087D01*
X60763Y-30087D01*
X60643Y-30137D01*
X60551Y-30228D01*
X60502Y-30348D01*
X60501Y-30477D01*
X60501Y-31140D01*
X56678Y-31140D01*
X56678Y-26293D01*
X56514Y-25898D01*
X56212Y-25595D01*
X55817Y-25431D01*
X55389Y-25430D01*
X54993Y-25594D01*
X54691Y-25896D01*
X54526Y-26291D01*
X54526Y-26719D01*
X54689Y-27115D01*
X54992Y-27418D01*
X55387Y-27582D01*
X55815Y-27582D01*
X56210Y-27419D01*
X56513Y-27116D01*
X56677Y-26721D01*
X56678Y-26293D01*
X56678Y-31140D01*
X56647Y-31140D01*
X56647Y-29596D01*
X56647Y-29527D01*
X56647Y-29458D01*
X56647Y-29458D01*
X56647Y-29457D01*
X56587Y-29156D01*
X56534Y-29028D01*
X56533Y-29027D01*
X56364Y-28774D01*
X56363Y-28773D01*
X56265Y-28675D01*
X56010Y-28504D01*
X55882Y-28451D01*
X55880Y-28451D01*
X55581Y-28392D01*
X55580Y-28391D01*
X55442Y-28391D01*
X55140Y-28451D01*
X55012Y-28504D01*
X55011Y-28505D01*
X54758Y-28675D01*
X54757Y-28675D01*
X54659Y-28773D01*
X54488Y-29029D01*
X54435Y-29157D01*
X54435Y-29158D01*
X54376Y-29457D01*
X54376Y-29458D01*
X54376Y-29458D01*
X54376Y-29527D01*
X54376Y-29596D01*
X54376Y-29596D01*
X54376Y-29597D01*
X54435Y-29896D01*
X54435Y-29897D01*
X54488Y-30025D01*
X54659Y-30281D01*
X54757Y-30379D01*
X54758Y-30380D01*
X55011Y-30549D01*
X55012Y-30550D01*
X55140Y-30603D01*
X55442Y-30663D01*
X55580Y-30663D01*
X55581Y-30663D01*
X55880Y-30603D01*
X55882Y-30603D01*
X56010Y-30550D01*
X56265Y-30380D01*
X56363Y-30282D01*
X56364Y-30280D01*
X56533Y-30027D01*
X56534Y-30026D01*
X56587Y-29898D01*
X56647Y-29597D01*
X56647Y-29596D01*
X56647Y-29596D01*
X56647Y-31140D01*
X53898Y-31140D01*
X53898Y-11772D01*
X67272Y-11772D01*
X67272Y-12557D01*
X63881Y-12557D01*
X63738Y-12586D01*
X63616Y-12667D01*
X58948Y-17335D01*
X58498Y-17335D01*
X58378Y-17385D01*
X58366Y-17397D01*
X58353Y-17385D01*
X58234Y-17335D01*
X58104Y-17335D01*
X57514Y-17335D01*
X57394Y-17385D01*
X57302Y-17476D01*
X57259Y-17581D01*
X56708Y-17581D01*
X56678Y-17587D01*
X56678Y-16293D01*
X56647Y-16220D01*
X56647Y-13454D01*
X56647Y-13385D01*
X56647Y-13316D01*
X56647Y-13316D01*
X56647Y-13316D01*
X56587Y-13014D01*
X56534Y-12886D01*
X56533Y-12885D01*
X56364Y-12632D01*
X56363Y-12631D01*
X56265Y-12533D01*
X56010Y-12362D01*
X55882Y-12310D01*
X55880Y-12310D01*
X55581Y-12250D01*
X55580Y-12249D01*
X55442Y-12249D01*
X55140Y-12310D01*
X55012Y-12363D01*
X55011Y-12364D01*
X54758Y-12533D01*
X54757Y-12533D01*
X54659Y-12631D01*
X54488Y-12887D01*
X54435Y-13015D01*
X54435Y-13016D01*
X54376Y-13316D01*
X54376Y-13316D01*
X54376Y-13316D01*
X54376Y-13385D01*
X54376Y-13454D01*
X54376Y-13455D01*
X54376Y-13455D01*
X54435Y-13754D01*
X54435Y-13756D01*
X54488Y-13884D01*
X54659Y-14139D01*
X54757Y-14237D01*
X54758Y-14238D01*
X55011Y-14407D01*
X55012Y-14408D01*
X55140Y-14461D01*
X55442Y-14521D01*
X55580Y-14521D01*
X55581Y-14521D01*
X55880Y-14461D01*
X55882Y-14461D01*
X56010Y-14408D01*
X56265Y-14238D01*
X56363Y-14140D01*
X56364Y-14139D01*
X56533Y-13885D01*
X56534Y-13884D01*
X56587Y-13756D01*
X56647Y-13455D01*
X56647Y-13455D01*
X56647Y-13454D01*
X56647Y-16220D01*
X56514Y-15898D01*
X56212Y-15595D01*
X55817Y-15431D01*
X55389Y-15430D01*
X54993Y-15594D01*
X54691Y-15896D01*
X54526Y-16291D01*
X54526Y-16719D01*
X54689Y-17115D01*
X54992Y-17418D01*
X55387Y-17582D01*
X55815Y-17582D01*
X56210Y-17419D01*
X56513Y-17116D01*
X56677Y-16721D01*
X56678Y-16293D01*
X56678Y-17587D01*
X56564Y-17609D01*
X56443Y-17691D01*
X55336Y-18797D01*
X55255Y-18919D01*
X55226Y-19062D01*
X55226Y-19347D01*
X55072Y-19501D01*
X54976Y-19731D01*
X54976Y-19980D01*
X55052Y-20164D01*
X54360Y-20856D01*
X54278Y-20978D01*
X54250Y-21122D01*
X54250Y-23188D01*
X54278Y-23332D01*
X54360Y-23454D01*
X54828Y-23922D01*
X54828Y-23922D01*
X54949Y-24003D01*
X55093Y-24032D01*
X55093Y-24032D01*
X55093Y-24032D01*
X55981Y-24032D01*
X56026Y-24140D01*
X56117Y-24232D01*
X56237Y-24282D01*
X56366Y-24282D01*
X56966Y-24282D01*
X57086Y-24232D01*
X57178Y-24141D01*
X57227Y-24021D01*
X57228Y-23892D01*
X57228Y-23360D01*
X57234Y-23356D01*
X57257Y-23332D01*
X57357Y-23332D01*
X57482Y-23456D01*
X57339Y-23598D01*
X57243Y-23830D01*
X57243Y-24081D01*
X57339Y-24313D01*
X57482Y-24456D01*
X57339Y-24598D01*
X57243Y-24830D01*
X57243Y-25081D01*
X57339Y-25313D01*
X57516Y-25491D01*
X57748Y-25587D01*
X57998Y-25587D01*
X58230Y-25491D01*
X58366Y-25356D01*
X58500Y-25491D01*
X58732Y-25587D01*
X58983Y-25587D01*
X59215Y-25491D01*
X59392Y-25314D01*
X59488Y-25082D01*
X59489Y-24831D01*
X59393Y-24599D01*
X59250Y-24456D01*
X59392Y-24314D01*
X59488Y-24082D01*
X59489Y-23831D01*
X59393Y-23599D01*
X59250Y-23456D01*
X59392Y-23314D01*
X59488Y-23082D01*
X59489Y-22831D01*
X59393Y-22599D01*
X59250Y-22456D01*
X59392Y-22314D01*
X59488Y-22082D01*
X59489Y-21831D01*
X59393Y-21599D01*
X59250Y-21456D01*
X59392Y-21314D01*
X59488Y-21082D01*
X59489Y-20831D01*
X59393Y-20599D01*
X59250Y-20456D01*
X59392Y-20314D01*
X59488Y-20082D01*
X59489Y-19831D01*
X59393Y-19599D01*
X59250Y-19456D01*
X59392Y-19314D01*
X59488Y-19082D01*
X59489Y-18857D01*
X64387Y-13958D01*
X67272Y-13958D01*
X67272Y-16121D01*
M02*
