G04 (created by PCBNEW (2013-jul-07)-stable) date nie, 28 cze 2015, 22:06:29*
%MOIN*%
G04 Gerber Fmt 3.4, Leading zero omitted, Abs format*
%FSLAX34Y34*%
G01*
G70*
G90*
G04 APERTURE LIST*
%ADD10C,0.00590551*%
%ADD11C,0.00984252*%
%ADD12C,0.005*%
%ADD13C,0.0039*%
%ADD14C,0.01*%
%ADD15C,0.006*%
%ADD16C,0.012*%
%ADD17C,0.0043*%
%ADD18C,0.0045*%
%ADD19C,0.0035*%
%ADD20C,0.0107*%
G04 APERTURE END LIST*
G54D10*
G54D11*
X60259Y-22698D02*
X60484Y-22698D01*
X60372Y-23092D02*
X60372Y-22698D01*
X60578Y-23092D02*
X60784Y-22829D01*
X60578Y-22829D02*
X60784Y-23092D01*
X60934Y-23092D02*
X60934Y-22698D01*
X61028Y-22698D01*
X61084Y-22717D01*
X61122Y-22754D01*
X61140Y-22792D01*
X61159Y-22867D01*
X61159Y-22923D01*
X61140Y-22998D01*
X61122Y-23036D01*
X61084Y-23073D01*
X61028Y-23092D01*
X60934Y-23092D01*
X60494Y-22108D02*
X60362Y-21920D01*
X60269Y-22108D02*
X60269Y-21714D01*
X60419Y-21714D01*
X60456Y-21733D01*
X60475Y-21751D01*
X60494Y-21789D01*
X60494Y-21845D01*
X60475Y-21883D01*
X60456Y-21901D01*
X60419Y-21920D01*
X60269Y-21920D01*
X60625Y-22108D02*
X60831Y-21845D01*
X60625Y-21845D02*
X60831Y-22108D01*
X60981Y-22108D02*
X60981Y-21714D01*
X61075Y-21714D01*
X61131Y-21733D01*
X61168Y-21770D01*
X61187Y-21808D01*
X61206Y-21883D01*
X61206Y-21939D01*
X61187Y-22014D01*
X61168Y-22051D01*
X61131Y-22089D01*
X61075Y-22108D01*
X60981Y-22108D01*
X60512Y-20988D02*
X60494Y-21006D01*
X60437Y-21025D01*
X60400Y-21025D01*
X60344Y-21006D01*
X60306Y-20969D01*
X60287Y-20931D01*
X60269Y-20856D01*
X60269Y-20800D01*
X60287Y-20725D01*
X60306Y-20688D01*
X60344Y-20650D01*
X60400Y-20631D01*
X60437Y-20631D01*
X60494Y-20650D01*
X60512Y-20669D01*
X60625Y-20631D02*
X60850Y-20631D01*
X60737Y-21025D02*
X60737Y-20631D01*
X60962Y-21006D02*
X61018Y-21025D01*
X61112Y-21025D01*
X61150Y-21006D01*
X61168Y-20988D01*
X61187Y-20950D01*
X61187Y-20913D01*
X61168Y-20875D01*
X61150Y-20856D01*
X61112Y-20838D01*
X61037Y-20819D01*
X61000Y-20800D01*
X60981Y-20781D01*
X60962Y-20744D01*
X60962Y-20706D01*
X60981Y-20669D01*
X61000Y-20650D01*
X61037Y-20631D01*
X61131Y-20631D01*
X61187Y-20650D01*
X60240Y-20139D02*
X60240Y-19745D01*
X60334Y-19745D01*
X60390Y-19764D01*
X60428Y-19802D01*
X60447Y-19839D01*
X60465Y-19914D01*
X60465Y-19970D01*
X60447Y-20045D01*
X60428Y-20083D01*
X60390Y-20120D01*
X60334Y-20139D01*
X60240Y-20139D01*
X60615Y-20120D02*
X60672Y-20139D01*
X60765Y-20139D01*
X60803Y-20120D01*
X60822Y-20102D01*
X60840Y-20064D01*
X60840Y-20027D01*
X60822Y-19989D01*
X60803Y-19970D01*
X60765Y-19952D01*
X60690Y-19933D01*
X60653Y-19914D01*
X60634Y-19895D01*
X60615Y-19858D01*
X60615Y-19820D01*
X60634Y-19783D01*
X60653Y-19764D01*
X60690Y-19745D01*
X60784Y-19745D01*
X60840Y-19764D01*
X61234Y-20139D02*
X61103Y-19952D01*
X61009Y-20139D02*
X61009Y-19745D01*
X61159Y-19745D01*
X61197Y-19764D01*
X61215Y-19783D01*
X61234Y-19820D01*
X61234Y-19877D01*
X61215Y-19914D01*
X61197Y-19933D01*
X61159Y-19952D01*
X61009Y-19952D01*
X60278Y-24076D02*
X60278Y-23682D01*
X60372Y-23682D01*
X60428Y-23701D01*
X60465Y-23739D01*
X60484Y-23776D01*
X60503Y-23851D01*
X60503Y-23907D01*
X60484Y-23982D01*
X60465Y-24020D01*
X60428Y-24057D01*
X60372Y-24076D01*
X60278Y-24076D01*
X60615Y-23682D02*
X60840Y-23682D01*
X60728Y-24076D02*
X60728Y-23682D01*
X61197Y-24076D02*
X61065Y-23889D01*
X60972Y-24076D02*
X60972Y-23682D01*
X61122Y-23682D01*
X61159Y-23701D01*
X61178Y-23720D01*
X61197Y-23757D01*
X61197Y-23814D01*
X61178Y-23851D01*
X61159Y-23870D01*
X61122Y-23889D01*
X60972Y-23889D01*
X60512Y-25159D02*
X60381Y-24971D01*
X60287Y-25159D02*
X60287Y-24765D01*
X60437Y-24765D01*
X60475Y-24784D01*
X60494Y-24803D01*
X60512Y-24840D01*
X60512Y-24896D01*
X60494Y-24934D01*
X60475Y-24953D01*
X60437Y-24971D01*
X60287Y-24971D01*
X60625Y-24765D02*
X60850Y-24765D01*
X60737Y-25159D02*
X60737Y-24765D01*
X60962Y-25140D02*
X61018Y-25159D01*
X61112Y-25159D01*
X61150Y-25140D01*
X61168Y-25121D01*
X61187Y-25084D01*
X61187Y-25046D01*
X61168Y-25009D01*
X61150Y-24990D01*
X61112Y-24971D01*
X61037Y-24953D01*
X61000Y-24934D01*
X60981Y-24915D01*
X60962Y-24878D01*
X60962Y-24840D01*
X60981Y-24803D01*
X61000Y-24784D01*
X61037Y-24765D01*
X61131Y-24765D01*
X61187Y-24784D01*
X79705Y-25159D02*
X79574Y-24971D01*
X79480Y-25159D02*
X79480Y-24765D01*
X79630Y-24765D01*
X79668Y-24784D01*
X79686Y-24803D01*
X79705Y-24840D01*
X79705Y-24896D01*
X79686Y-24934D01*
X79668Y-24953D01*
X79630Y-24971D01*
X79480Y-24971D01*
X79818Y-24765D02*
X80043Y-24765D01*
X79930Y-25159D02*
X79930Y-24765D01*
X80155Y-25140D02*
X80211Y-25159D01*
X80305Y-25159D01*
X80343Y-25140D01*
X80361Y-25121D01*
X80380Y-25084D01*
X80380Y-25046D01*
X80361Y-25009D01*
X80343Y-24990D01*
X80305Y-24971D01*
X80230Y-24953D01*
X80193Y-24934D01*
X80174Y-24915D01*
X80155Y-24878D01*
X80155Y-24840D01*
X80174Y-24803D01*
X80193Y-24784D01*
X80230Y-24765D01*
X80324Y-24765D01*
X80380Y-24784D01*
X79471Y-24175D02*
X79471Y-23781D01*
X79565Y-23781D01*
X79621Y-23800D01*
X79658Y-23837D01*
X79677Y-23875D01*
X79696Y-23950D01*
X79696Y-24006D01*
X79677Y-24081D01*
X79658Y-24118D01*
X79621Y-24156D01*
X79565Y-24175D01*
X79471Y-24175D01*
X79808Y-23781D02*
X80033Y-23781D01*
X79921Y-24175D02*
X79921Y-23781D01*
X80389Y-24175D02*
X80258Y-23987D01*
X80164Y-24175D02*
X80164Y-23781D01*
X80314Y-23781D01*
X80352Y-23800D01*
X80371Y-23818D01*
X80389Y-23856D01*
X80389Y-23912D01*
X80371Y-23950D01*
X80352Y-23968D01*
X80314Y-23987D01*
X80164Y-23987D01*
X79354Y-22797D02*
X79579Y-22797D01*
X79466Y-23190D02*
X79466Y-22797D01*
X79672Y-23190D02*
X79879Y-22928D01*
X79672Y-22928D02*
X79879Y-23190D01*
X80029Y-23190D02*
X80029Y-22797D01*
X80122Y-22797D01*
X80179Y-22815D01*
X80216Y-22853D01*
X80235Y-22890D01*
X80254Y-22965D01*
X80254Y-23022D01*
X80235Y-23097D01*
X80216Y-23134D01*
X80179Y-23172D01*
X80122Y-23190D01*
X80029Y-23190D01*
X79588Y-22206D02*
X79457Y-22019D01*
X79363Y-22206D02*
X79363Y-21812D01*
X79513Y-21812D01*
X79550Y-21831D01*
X79569Y-21850D01*
X79588Y-21887D01*
X79588Y-21944D01*
X79569Y-21981D01*
X79550Y-22000D01*
X79513Y-22019D01*
X79363Y-22019D01*
X79719Y-22206D02*
X79925Y-21944D01*
X79719Y-21944D02*
X79925Y-22206D01*
X80075Y-22206D02*
X80075Y-21812D01*
X80169Y-21812D01*
X80225Y-21831D01*
X80263Y-21869D01*
X80282Y-21906D01*
X80300Y-21981D01*
X80300Y-22037D01*
X80282Y-22112D01*
X80263Y-22150D01*
X80225Y-22187D01*
X80169Y-22206D01*
X80075Y-22206D01*
X79607Y-21184D02*
X79588Y-21203D01*
X79532Y-21222D01*
X79494Y-21222D01*
X79438Y-21203D01*
X79401Y-21166D01*
X79382Y-21128D01*
X79363Y-21053D01*
X79363Y-20997D01*
X79382Y-20922D01*
X79401Y-20884D01*
X79438Y-20847D01*
X79494Y-20828D01*
X79532Y-20828D01*
X79588Y-20847D01*
X79607Y-20866D01*
X79719Y-20828D02*
X79944Y-20828D01*
X79832Y-21222D02*
X79832Y-20828D01*
X80057Y-21203D02*
X80113Y-21222D01*
X80207Y-21222D01*
X80244Y-21203D01*
X80263Y-21184D01*
X80282Y-21147D01*
X80282Y-21109D01*
X80263Y-21072D01*
X80244Y-21053D01*
X80207Y-21034D01*
X80132Y-21016D01*
X80094Y-20997D01*
X80075Y-20978D01*
X80057Y-20941D01*
X80057Y-20903D01*
X80075Y-20866D01*
X80094Y-20847D01*
X80132Y-20828D01*
X80225Y-20828D01*
X80282Y-20847D01*
X79433Y-20139D02*
X79433Y-19745D01*
X79527Y-19745D01*
X79583Y-19764D01*
X79621Y-19802D01*
X79640Y-19839D01*
X79658Y-19914D01*
X79658Y-19970D01*
X79640Y-20045D01*
X79621Y-20083D01*
X79583Y-20120D01*
X79527Y-20139D01*
X79433Y-20139D01*
X79808Y-20120D02*
X79865Y-20139D01*
X79958Y-20139D01*
X79996Y-20120D01*
X80014Y-20102D01*
X80033Y-20064D01*
X80033Y-20027D01*
X80014Y-19989D01*
X79996Y-19970D01*
X79958Y-19952D01*
X79883Y-19933D01*
X79846Y-19914D01*
X79827Y-19895D01*
X79808Y-19858D01*
X79808Y-19820D01*
X79827Y-19783D01*
X79846Y-19764D01*
X79883Y-19745D01*
X79977Y-19745D01*
X80033Y-19764D01*
X80427Y-20139D02*
X80296Y-19952D01*
X80202Y-20139D02*
X80202Y-19745D01*
X80352Y-19745D01*
X80389Y-19764D01*
X80408Y-19783D01*
X80427Y-19820D01*
X80427Y-19877D01*
X80408Y-19914D01*
X80389Y-19933D01*
X80352Y-19952D01*
X80202Y-19952D01*
X60231Y-19155D02*
X60231Y-18761D01*
X60325Y-18761D01*
X60381Y-18780D01*
X60419Y-18817D01*
X60437Y-18855D01*
X60456Y-18930D01*
X60456Y-18986D01*
X60437Y-19061D01*
X60419Y-19099D01*
X60381Y-19136D01*
X60325Y-19155D01*
X60231Y-19155D01*
X60850Y-19117D02*
X60831Y-19136D01*
X60775Y-19155D01*
X60737Y-19155D01*
X60681Y-19136D01*
X60643Y-19099D01*
X60625Y-19061D01*
X60606Y-18986D01*
X60606Y-18930D01*
X60625Y-18855D01*
X60643Y-18817D01*
X60681Y-18780D01*
X60737Y-18761D01*
X60775Y-18761D01*
X60831Y-18780D01*
X60850Y-18799D01*
X61018Y-19155D02*
X61018Y-18761D01*
X61112Y-18761D01*
X61168Y-18780D01*
X61206Y-18817D01*
X61225Y-18855D01*
X61243Y-18930D01*
X61243Y-18986D01*
X61225Y-19061D01*
X61206Y-19099D01*
X61168Y-19136D01*
X61112Y-19155D01*
X61018Y-19155D01*
X79424Y-19155D02*
X79424Y-18761D01*
X79518Y-18761D01*
X79574Y-18780D01*
X79611Y-18817D01*
X79630Y-18855D01*
X79649Y-18930D01*
X79649Y-18986D01*
X79630Y-19061D01*
X79611Y-19099D01*
X79574Y-19136D01*
X79518Y-19155D01*
X79424Y-19155D01*
X80043Y-19117D02*
X80024Y-19136D01*
X79968Y-19155D01*
X79930Y-19155D01*
X79874Y-19136D01*
X79836Y-19099D01*
X79818Y-19061D01*
X79799Y-18986D01*
X79799Y-18930D01*
X79818Y-18855D01*
X79836Y-18817D01*
X79874Y-18780D01*
X79930Y-18761D01*
X79968Y-18761D01*
X80024Y-18780D01*
X80043Y-18799D01*
X80211Y-19155D02*
X80211Y-18761D01*
X80305Y-18761D01*
X80361Y-18780D01*
X80399Y-18817D01*
X80418Y-18855D01*
X80436Y-18930D01*
X80436Y-18986D01*
X80418Y-19061D01*
X80399Y-19099D01*
X80361Y-19136D01*
X80305Y-19155D01*
X80211Y-19155D01*
X60362Y-18171D02*
X60231Y-17983D01*
X60137Y-18171D02*
X60137Y-17777D01*
X60287Y-17777D01*
X60325Y-17796D01*
X60344Y-17814D01*
X60362Y-17852D01*
X60362Y-17908D01*
X60344Y-17946D01*
X60325Y-17964D01*
X60287Y-17983D01*
X60137Y-17983D01*
X60531Y-18171D02*
X60531Y-17777D01*
X79658Y-18072D02*
X79527Y-17885D01*
X79433Y-18072D02*
X79433Y-17679D01*
X79583Y-17679D01*
X79621Y-17697D01*
X79640Y-17716D01*
X79658Y-17754D01*
X79658Y-17810D01*
X79640Y-17847D01*
X79621Y-17866D01*
X79583Y-17885D01*
X79433Y-17885D01*
X79827Y-18072D02*
X79827Y-17679D01*
X72165Y-14474D02*
X72165Y-14662D01*
X72353Y-14681D01*
X72334Y-14662D01*
X72315Y-14624D01*
X72315Y-14531D01*
X72334Y-14493D01*
X72353Y-14474D01*
X72390Y-14456D01*
X72484Y-14456D01*
X72521Y-14474D01*
X72540Y-14493D01*
X72559Y-14531D01*
X72559Y-14624D01*
X72540Y-14662D01*
X72521Y-14681D01*
X72165Y-14343D02*
X72559Y-14212D01*
X72165Y-14081D01*
X71065Y-14687D02*
X71065Y-14443D01*
X71215Y-14574D01*
X71215Y-14518D01*
X71234Y-14481D01*
X71253Y-14462D01*
X71290Y-14443D01*
X71384Y-14443D01*
X71421Y-14462D01*
X71440Y-14481D01*
X71459Y-14518D01*
X71459Y-14631D01*
X71440Y-14668D01*
X71421Y-14687D01*
X71065Y-14331D02*
X71459Y-14200D01*
X71065Y-14068D01*
X71065Y-13975D02*
X71065Y-13731D01*
X71215Y-13862D01*
X71215Y-13806D01*
X71234Y-13768D01*
X71253Y-13750D01*
X71290Y-13731D01*
X71384Y-13731D01*
X71421Y-13750D01*
X71440Y-13768D01*
X71459Y-13806D01*
X71459Y-13918D01*
X71440Y-13956D01*
X71421Y-13975D01*
X70065Y-14631D02*
X70384Y-14631D01*
X70421Y-14612D01*
X70440Y-14593D01*
X70459Y-14556D01*
X70459Y-14481D01*
X70440Y-14443D01*
X70421Y-14424D01*
X70384Y-14406D01*
X70065Y-14406D01*
X70346Y-14237D02*
X70346Y-14049D01*
X70459Y-14274D02*
X70065Y-14143D01*
X70459Y-14012D01*
X70459Y-13656D02*
X70271Y-13787D01*
X70459Y-13881D02*
X70065Y-13881D01*
X70065Y-13731D01*
X70084Y-13693D01*
X70103Y-13674D01*
X70140Y-13656D01*
X70196Y-13656D01*
X70234Y-13674D01*
X70253Y-13693D01*
X70271Y-13731D01*
X70271Y-13881D01*
X70065Y-13543D02*
X70065Y-13318D01*
X70459Y-13431D02*
X70065Y-13431D01*
X70459Y-12662D02*
X70271Y-12793D01*
X70459Y-12887D02*
X70065Y-12887D01*
X70065Y-12737D01*
X70084Y-12700D01*
X70103Y-12681D01*
X70140Y-12662D01*
X70196Y-12662D01*
X70234Y-12681D01*
X70253Y-12700D01*
X70271Y-12737D01*
X70271Y-12887D01*
X70459Y-12531D02*
X70196Y-12325D01*
X70196Y-12531D02*
X70459Y-12325D01*
X70459Y-12175D02*
X70065Y-12175D01*
X70065Y-12081D01*
X70084Y-12025D01*
X70121Y-11987D01*
X70159Y-11968D01*
X70234Y-11950D01*
X70290Y-11950D01*
X70365Y-11968D01*
X70403Y-11987D01*
X70440Y-12025D01*
X70459Y-12081D01*
X70459Y-12175D01*
X69065Y-14684D02*
X69384Y-14684D01*
X69421Y-14665D01*
X69440Y-14646D01*
X69459Y-14609D01*
X69459Y-14534D01*
X69440Y-14496D01*
X69421Y-14477D01*
X69384Y-14459D01*
X69065Y-14459D01*
X69346Y-14290D02*
X69346Y-14103D01*
X69459Y-14328D02*
X69065Y-14196D01*
X69459Y-14065D01*
X69459Y-13709D02*
X69271Y-13840D01*
X69459Y-13934D02*
X69065Y-13934D01*
X69065Y-13784D01*
X69084Y-13746D01*
X69103Y-13728D01*
X69140Y-13709D01*
X69196Y-13709D01*
X69234Y-13728D01*
X69253Y-13746D01*
X69271Y-13784D01*
X69271Y-13934D01*
X69065Y-13596D02*
X69065Y-13371D01*
X69459Y-13484D02*
X69065Y-13484D01*
X69065Y-12996D02*
X69065Y-12771D01*
X69459Y-12884D02*
X69065Y-12884D01*
X69459Y-12678D02*
X69196Y-12471D01*
X69196Y-12678D02*
X69459Y-12471D01*
X69459Y-12322D02*
X69065Y-12322D01*
X69065Y-12228D01*
X69084Y-12172D01*
X69121Y-12134D01*
X69159Y-12115D01*
X69234Y-12097D01*
X69290Y-12097D01*
X69365Y-12115D01*
X69403Y-12134D01*
X69440Y-12172D01*
X69459Y-12228D01*
X69459Y-12322D01*
X68084Y-14499D02*
X68065Y-14537D01*
X68065Y-14593D01*
X68084Y-14649D01*
X68121Y-14687D01*
X68159Y-14706D01*
X68234Y-14724D01*
X68290Y-14724D01*
X68365Y-14706D01*
X68403Y-14687D01*
X68440Y-14649D01*
X68459Y-14593D01*
X68459Y-14556D01*
X68440Y-14499D01*
X68421Y-14481D01*
X68290Y-14481D01*
X68290Y-14556D01*
X68459Y-14312D02*
X68065Y-14312D01*
X68065Y-14218D01*
X68084Y-14162D01*
X68121Y-14125D01*
X68159Y-14106D01*
X68234Y-14087D01*
X68290Y-14087D01*
X68365Y-14106D01*
X68403Y-14125D01*
X68440Y-14162D01*
X68459Y-14218D01*
X68459Y-14312D01*
X68459Y-13918D02*
X68065Y-13918D01*
X68459Y-13693D01*
X68065Y-13693D01*
G54D12*
X68349Y-28657D02*
X69249Y-28657D01*
X69249Y-28657D02*
X69249Y-28007D01*
X68349Y-27307D02*
X68349Y-26657D01*
X68349Y-26657D02*
X69249Y-26657D01*
X69249Y-26657D02*
X69249Y-27307D01*
X68349Y-28007D02*
X68349Y-28657D01*
G54D13*
X75896Y-16235D02*
G75*
G03X75896Y-16235I-50J0D01*
G74*
G01*
X75396Y-16235D02*
X75796Y-16235D01*
X75796Y-16235D02*
X75796Y-16835D01*
X75796Y-16835D02*
X75396Y-16835D01*
X74996Y-16835D02*
X74596Y-16835D01*
X74596Y-16835D02*
X74596Y-16235D01*
X74596Y-16235D02*
X74996Y-16235D01*
X75896Y-17416D02*
G75*
G03X75896Y-17416I-50J0D01*
G74*
G01*
X75396Y-17416D02*
X75796Y-17416D01*
X75796Y-17416D02*
X75796Y-18016D01*
X75796Y-18016D02*
X75396Y-18016D01*
X74996Y-18016D02*
X74596Y-18016D01*
X74596Y-18016D02*
X74596Y-17416D01*
X74596Y-17416D02*
X74996Y-17416D01*
X75896Y-18597D02*
G75*
G03X75896Y-18597I-50J0D01*
G74*
G01*
X75396Y-18597D02*
X75796Y-18597D01*
X75796Y-18597D02*
X75796Y-19197D01*
X75796Y-19197D02*
X75396Y-19197D01*
X74996Y-19197D02*
X74596Y-19197D01*
X74596Y-19197D02*
X74596Y-18597D01*
X74596Y-18597D02*
X74996Y-18597D01*
X75896Y-19778D02*
G75*
G03X75896Y-19778I-50J0D01*
G74*
G01*
X75396Y-19778D02*
X75796Y-19778D01*
X75796Y-19778D02*
X75796Y-20378D01*
X75796Y-20378D02*
X75396Y-20378D01*
X74996Y-20378D02*
X74596Y-20378D01*
X74596Y-20378D02*
X74596Y-19778D01*
X74596Y-19778D02*
X74996Y-19778D01*
X75896Y-23322D02*
G75*
G03X75896Y-23322I-50J0D01*
G74*
G01*
X75396Y-23322D02*
X75796Y-23322D01*
X75796Y-23322D02*
X75796Y-23922D01*
X75796Y-23922D02*
X75396Y-23922D01*
X74996Y-23922D02*
X74596Y-23922D01*
X74596Y-23922D02*
X74596Y-23322D01*
X74596Y-23322D02*
X74996Y-23322D01*
G54D12*
X67966Y-22384D02*
X67966Y-23284D01*
X67966Y-23284D02*
X67466Y-23284D01*
X67466Y-23284D02*
X67466Y-22384D01*
X67466Y-22384D02*
X67966Y-22384D01*
G54D14*
X78672Y-22940D02*
X78672Y-21940D01*
G54D15*
X77591Y-22056D02*
G75*
G03X77452Y-22440I460J-384D01*
G74*
G01*
X77453Y-22440D02*
G75*
G03X77604Y-22838I599J0D01*
G74*
G01*
X78652Y-22440D02*
G75*
G03X78507Y-22050I-599J0D01*
G74*
G01*
X78513Y-22825D02*
G75*
G03X78652Y-22440I-460J384D01*
G74*
G01*
X78540Y-22091D02*
G75*
G03X78052Y-21840I-487J-349D01*
G74*
G01*
X78052Y-21840D02*
G75*
G03X77572Y-22080I0J-600D01*
G74*
G01*
X78052Y-23040D02*
G75*
G03X78525Y-22809I0J599D01*
G74*
G01*
X77579Y-22809D02*
G75*
G03X78052Y-23040I473J368D01*
G74*
G01*
X78052Y-22190D02*
G75*
G03X77802Y-22440I0J-250D01*
G74*
G01*
X78052Y-22040D02*
G75*
G03X77652Y-22440I0J-400D01*
G74*
G01*
X78052Y-22690D02*
G75*
G03X78302Y-22440I0J250D01*
G74*
G01*
X78052Y-22840D02*
G75*
G03X78452Y-22440I0J400D01*
G74*
G01*
G54D14*
X78666Y-21927D02*
G75*
G03X78052Y-21640I-613J-513D01*
G74*
G01*
X78052Y-21641D02*
G75*
G03X77347Y-22064I0J-799D01*
G74*
G01*
X78054Y-23239D02*
G75*
G03X78663Y-22956I-1J798D01*
G74*
G01*
X77358Y-22838D02*
G75*
G03X78052Y-23240I694J397D01*
G74*
G01*
X77348Y-22061D02*
G75*
G03X77252Y-22440I704J-379D01*
G74*
G01*
X77253Y-22440D02*
G75*
G03X77371Y-22859I799J0D01*
G74*
G01*
X78672Y-15066D02*
X78672Y-14066D01*
G54D15*
X77591Y-14182D02*
G75*
G03X77452Y-14566I460J-384D01*
G74*
G01*
X77453Y-14566D02*
G75*
G03X77604Y-14964I599J0D01*
G74*
G01*
X78652Y-14566D02*
G75*
G03X78507Y-14176I-599J0D01*
G74*
G01*
X78513Y-14950D02*
G75*
G03X78652Y-14566I-460J384D01*
G74*
G01*
X78540Y-14217D02*
G75*
G03X78052Y-13966I-487J-349D01*
G74*
G01*
X78052Y-13966D02*
G75*
G03X77572Y-14206I0J-600D01*
G74*
G01*
X78052Y-15166D02*
G75*
G03X78525Y-14935I0J599D01*
G74*
G01*
X77579Y-14935D02*
G75*
G03X78052Y-15166I473J368D01*
G74*
G01*
X78052Y-14316D02*
G75*
G03X77802Y-14566I0J-250D01*
G74*
G01*
X78052Y-14166D02*
G75*
G03X77652Y-14566I0J-400D01*
G74*
G01*
X78052Y-14816D02*
G75*
G03X78302Y-14566I0J250D01*
G74*
G01*
X78052Y-14966D02*
G75*
G03X78452Y-14566I0J400D01*
G74*
G01*
G54D14*
X78666Y-14053D02*
G75*
G03X78052Y-13766I-613J-513D01*
G74*
G01*
X78052Y-13767D02*
G75*
G03X77347Y-14190I0J-799D01*
G74*
G01*
X78054Y-15365D02*
G75*
G03X78663Y-15082I-1J798D01*
G74*
G01*
X77358Y-14964D02*
G75*
G03X78052Y-15366I694J397D01*
G74*
G01*
X77348Y-14187D02*
G75*
G03X77252Y-14566I704J-379D01*
G74*
G01*
X77253Y-14566D02*
G75*
G03X77371Y-14985I799J0D01*
G74*
G01*
X78672Y-17035D02*
X78672Y-16035D01*
G54D15*
X77591Y-16151D02*
G75*
G03X77452Y-16535I460J-384D01*
G74*
G01*
X77453Y-16535D02*
G75*
G03X77604Y-16933I599J0D01*
G74*
G01*
X78652Y-16535D02*
G75*
G03X78507Y-16145I-599J0D01*
G74*
G01*
X78513Y-16919D02*
G75*
G03X78652Y-16535I-460J384D01*
G74*
G01*
X78540Y-16186D02*
G75*
G03X78052Y-15935I-487J-349D01*
G74*
G01*
X78052Y-15935D02*
G75*
G03X77572Y-16175I0J-599D01*
G74*
G01*
X78052Y-17134D02*
G75*
G03X78525Y-16903I0J599D01*
G74*
G01*
X77579Y-16904D02*
G75*
G03X78052Y-17135I473J368D01*
G74*
G01*
X78052Y-16285D02*
G75*
G03X77802Y-16535I0J-249D01*
G74*
G01*
X78052Y-16135D02*
G75*
G03X77652Y-16535I0J-399D01*
G74*
G01*
X78052Y-16785D02*
G75*
G03X78302Y-16535I0J250D01*
G74*
G01*
X78052Y-16935D02*
G75*
G03X78452Y-16535I0J400D01*
G74*
G01*
G54D14*
X78666Y-16022D02*
G75*
G03X78052Y-15735I-613J-513D01*
G74*
G01*
X78052Y-15736D02*
G75*
G03X77347Y-16159I0J-798D01*
G74*
G01*
X78054Y-17334D02*
G75*
G03X78663Y-17051I-1J798D01*
G74*
G01*
X77358Y-16933D02*
G75*
G03X78052Y-17335I694J397D01*
G74*
G01*
X77348Y-16156D02*
G75*
G03X77252Y-16535I704J-379D01*
G74*
G01*
X77253Y-16535D02*
G75*
G03X77371Y-16954I799J0D01*
G74*
G01*
X78672Y-19003D02*
X78672Y-18003D01*
G54D15*
X77591Y-18119D02*
G75*
G03X77452Y-18503I460J-384D01*
G74*
G01*
X77453Y-18503D02*
G75*
G03X77604Y-18901I599J0D01*
G74*
G01*
X78652Y-18503D02*
G75*
G03X78507Y-18113I-599J0D01*
G74*
G01*
X78513Y-18888D02*
G75*
G03X78652Y-18503I-460J384D01*
G74*
G01*
X78540Y-18154D02*
G75*
G03X78052Y-17903I-487J-349D01*
G74*
G01*
X78052Y-17903D02*
G75*
G03X77572Y-18143I0J-600D01*
G74*
G01*
X78052Y-19103D02*
G75*
G03X78525Y-18872I0J599D01*
G74*
G01*
X77579Y-18872D02*
G75*
G03X78052Y-19103I473J368D01*
G74*
G01*
X78052Y-18253D02*
G75*
G03X77802Y-18503I0J-250D01*
G74*
G01*
X78052Y-18103D02*
G75*
G03X77652Y-18503I0J-400D01*
G74*
G01*
X78052Y-18753D02*
G75*
G03X78302Y-18503I0J250D01*
G74*
G01*
X78052Y-18903D02*
G75*
G03X78452Y-18503I0J400D01*
G74*
G01*
G54D14*
X78666Y-17990D02*
G75*
G03X78052Y-17703I-613J-513D01*
G74*
G01*
X78052Y-17704D02*
G75*
G03X77347Y-18127I0J-799D01*
G74*
G01*
X78054Y-19302D02*
G75*
G03X78663Y-19019I-1J798D01*
G74*
G01*
X77358Y-18901D02*
G75*
G03X78052Y-19303I694J397D01*
G74*
G01*
X77348Y-18124D02*
G75*
G03X77252Y-18503I704J-379D01*
G74*
G01*
X77253Y-18503D02*
G75*
G03X77371Y-18922I799J0D01*
G74*
G01*
X78672Y-26877D02*
X78672Y-25877D01*
G54D15*
X77591Y-25993D02*
G75*
G03X77452Y-26377I460J-384D01*
G74*
G01*
X77453Y-26377D02*
G75*
G03X77604Y-26775I599J0D01*
G74*
G01*
X78652Y-26377D02*
G75*
G03X78507Y-25987I-599J0D01*
G74*
G01*
X78513Y-26762D02*
G75*
G03X78652Y-26377I-460J384D01*
G74*
G01*
X78540Y-26028D02*
G75*
G03X78052Y-25777I-487J-349D01*
G74*
G01*
X78052Y-25777D02*
G75*
G03X77572Y-26017I0J-600D01*
G74*
G01*
X78052Y-26977D02*
G75*
G03X78525Y-26746I0J599D01*
G74*
G01*
X77579Y-26746D02*
G75*
G03X78052Y-26977I473J368D01*
G74*
G01*
X78052Y-26127D02*
G75*
G03X77802Y-26377I0J-250D01*
G74*
G01*
X78052Y-25977D02*
G75*
G03X77652Y-26377I0J-400D01*
G74*
G01*
X78052Y-26627D02*
G75*
G03X78302Y-26377I0J250D01*
G74*
G01*
X78052Y-26777D02*
G75*
G03X78452Y-26377I0J400D01*
G74*
G01*
G54D14*
X78666Y-25864D02*
G75*
G03X78052Y-25577I-613J-513D01*
G74*
G01*
X78052Y-25578D02*
G75*
G03X77347Y-26001I0J-799D01*
G74*
G01*
X78054Y-27176D02*
G75*
G03X78663Y-26893I-1J798D01*
G74*
G01*
X77358Y-26775D02*
G75*
G03X78052Y-27177I694J397D01*
G74*
G01*
X77348Y-25998D02*
G75*
G03X77252Y-26377I704J-379D01*
G74*
G01*
X77253Y-26377D02*
G75*
G03X77371Y-26796I799J0D01*
G74*
G01*
X78672Y-20972D02*
X78672Y-19972D01*
G54D15*
X77591Y-20088D02*
G75*
G03X77452Y-20472I460J-384D01*
G74*
G01*
X77453Y-20472D02*
G75*
G03X77604Y-20870I599J0D01*
G74*
G01*
X78652Y-20472D02*
G75*
G03X78507Y-20082I-599J0D01*
G74*
G01*
X78513Y-20856D02*
G75*
G03X78652Y-20472I-460J384D01*
G74*
G01*
X78540Y-20123D02*
G75*
G03X78052Y-19872I-487J-349D01*
G74*
G01*
X78052Y-19872D02*
G75*
G03X77572Y-20112I0J-600D01*
G74*
G01*
X78052Y-21071D02*
G75*
G03X78525Y-20840I0J599D01*
G74*
G01*
X77579Y-20841D02*
G75*
G03X78052Y-21072I473J368D01*
G74*
G01*
X78052Y-20222D02*
G75*
G03X77802Y-20472I0J-250D01*
G74*
G01*
X78052Y-20072D02*
G75*
G03X77652Y-20472I0J-400D01*
G74*
G01*
X78052Y-20722D02*
G75*
G03X78302Y-20472I0J250D01*
G74*
G01*
X78052Y-20872D02*
G75*
G03X78452Y-20472I0J400D01*
G74*
G01*
G54D14*
X78666Y-19959D02*
G75*
G03X78052Y-19672I-613J-513D01*
G74*
G01*
X78052Y-19673D02*
G75*
G03X77347Y-20096I0J-799D01*
G74*
G01*
X78054Y-21271D02*
G75*
G03X78663Y-20988I-1J798D01*
G74*
G01*
X77358Y-20870D02*
G75*
G03X78052Y-21272I694J397D01*
G74*
G01*
X77348Y-20093D02*
G75*
G03X77252Y-20472I704J-379D01*
G74*
G01*
X77253Y-20472D02*
G75*
G03X77371Y-20891I799J0D01*
G74*
G01*
X78672Y-28846D02*
X78672Y-27846D01*
G54D15*
X77591Y-27962D02*
G75*
G03X77452Y-28346I460J-384D01*
G74*
G01*
X77453Y-28346D02*
G75*
G03X77604Y-28744I599J0D01*
G74*
G01*
X78652Y-28346D02*
G75*
G03X78507Y-27956I-599J0D01*
G74*
G01*
X78513Y-28730D02*
G75*
G03X78652Y-28346I-460J384D01*
G74*
G01*
X78540Y-27997D02*
G75*
G03X78052Y-27746I-487J-349D01*
G74*
G01*
X78052Y-27746D02*
G75*
G03X77572Y-27986I0J-600D01*
G74*
G01*
X78052Y-28945D02*
G75*
G03X78525Y-28714I0J599D01*
G74*
G01*
X77579Y-28715D02*
G75*
G03X78052Y-28946I473J368D01*
G74*
G01*
X78052Y-28096D02*
G75*
G03X77802Y-28346I0J-250D01*
G74*
G01*
X78052Y-27946D02*
G75*
G03X77652Y-28346I0J-400D01*
G74*
G01*
X78052Y-28596D02*
G75*
G03X78302Y-28346I0J250D01*
G74*
G01*
X78052Y-28746D02*
G75*
G03X78452Y-28346I0J400D01*
G74*
G01*
G54D14*
X78666Y-27833D02*
G75*
G03X78052Y-27546I-613J-513D01*
G74*
G01*
X78052Y-27547D02*
G75*
G03X77347Y-27970I0J-799D01*
G74*
G01*
X78054Y-29145D02*
G75*
G03X78663Y-28862I-1J798D01*
G74*
G01*
X77358Y-28744D02*
G75*
G03X78052Y-29146I694J397D01*
G74*
G01*
X77348Y-27967D02*
G75*
G03X77252Y-28346I704J-379D01*
G74*
G01*
X77253Y-28346D02*
G75*
G03X77371Y-28765I799J0D01*
G74*
G01*
X78672Y-24909D02*
X78672Y-23909D01*
G54D15*
X77591Y-24025D02*
G75*
G03X77452Y-24409I460J-384D01*
G74*
G01*
X77453Y-24409D02*
G75*
G03X77604Y-24807I599J0D01*
G74*
G01*
X78652Y-24409D02*
G75*
G03X78507Y-24019I-599J0D01*
G74*
G01*
X78513Y-24793D02*
G75*
G03X78652Y-24409I-460J384D01*
G74*
G01*
X78540Y-24060D02*
G75*
G03X78052Y-23809I-487J-349D01*
G74*
G01*
X78052Y-23809D02*
G75*
G03X77572Y-24049I0J-600D01*
G74*
G01*
X78052Y-25008D02*
G75*
G03X78525Y-24777I0J599D01*
G74*
G01*
X77579Y-24778D02*
G75*
G03X78052Y-25009I473J368D01*
G74*
G01*
X78052Y-24159D02*
G75*
G03X77802Y-24409I0J-250D01*
G74*
G01*
X78052Y-24009D02*
G75*
G03X77652Y-24409I0J-400D01*
G74*
G01*
X78052Y-24659D02*
G75*
G03X78302Y-24409I0J250D01*
G74*
G01*
X78052Y-24809D02*
G75*
G03X78452Y-24409I0J400D01*
G74*
G01*
G54D14*
X78666Y-23896D02*
G75*
G03X78052Y-23609I-613J-513D01*
G74*
G01*
X78052Y-23610D02*
G75*
G03X77347Y-24033I0J-798D01*
G74*
G01*
X78054Y-25208D02*
G75*
G03X78663Y-24925I-1J798D01*
G74*
G01*
X77358Y-24807D02*
G75*
G03X78052Y-25209I694J397D01*
G74*
G01*
X77348Y-24030D02*
G75*
G03X77252Y-24409I704J-379D01*
G74*
G01*
X77253Y-24409D02*
G75*
G03X77371Y-24828I799J0D01*
G74*
G01*
G54D12*
X68349Y-23637D02*
X68349Y-23737D01*
X68349Y-23737D02*
X69249Y-23737D01*
X69249Y-23737D02*
X69249Y-23637D01*
X68349Y-23637D02*
X69249Y-23637D01*
X69249Y-23637D02*
X69249Y-22987D01*
X68349Y-22287D02*
X68349Y-21637D01*
X68349Y-21637D02*
X69249Y-21637D01*
X69249Y-21637D02*
X69249Y-22287D01*
X68349Y-22987D02*
X68349Y-23637D01*
X72716Y-20966D02*
X72716Y-21866D01*
X72716Y-21866D02*
X72216Y-21866D01*
X72216Y-21866D02*
X72216Y-20966D01*
X72216Y-20966D02*
X72716Y-20966D01*
X72916Y-21866D02*
X72916Y-20966D01*
X72916Y-20966D02*
X73416Y-20966D01*
X73416Y-20966D02*
X73416Y-21866D01*
X73416Y-21866D02*
X72916Y-21866D01*
X72016Y-20966D02*
X72016Y-21866D01*
X72016Y-21866D02*
X71516Y-21866D01*
X71516Y-21866D02*
X71516Y-20966D01*
X71516Y-20966D02*
X72016Y-20966D01*
G54D16*
X81996Y-17456D02*
X81996Y-25456D01*
X81996Y-25456D02*
X80996Y-25456D01*
X80996Y-25456D02*
X80996Y-17456D01*
X80996Y-17456D02*
X81996Y-17456D01*
X80996Y-18456D02*
X81996Y-18456D01*
X59358Y-17456D02*
X59358Y-25456D01*
X59358Y-25456D02*
X58358Y-25456D01*
X58358Y-25456D02*
X58358Y-17456D01*
X58358Y-17456D02*
X59358Y-17456D01*
X58358Y-18456D02*
X59358Y-18456D01*
X58374Y-17456D02*
X58374Y-25456D01*
X58374Y-25456D02*
X57374Y-25456D01*
X57374Y-25456D02*
X57374Y-17456D01*
X57374Y-17456D02*
X58374Y-17456D01*
X57374Y-18456D02*
X58374Y-18456D01*
X82980Y-17456D02*
X82980Y-25456D01*
X82980Y-25456D02*
X81980Y-25456D01*
X81980Y-25456D02*
X81980Y-17456D01*
X81980Y-17456D02*
X82980Y-17456D01*
X81980Y-18456D02*
X82980Y-18456D01*
X72783Y-15051D02*
X72783Y-16051D01*
X72783Y-16051D02*
X67783Y-16051D01*
X67783Y-16051D02*
X67783Y-15051D01*
X67783Y-15051D02*
X72783Y-15051D01*
X71783Y-15051D02*
X71783Y-16051D01*
G54D13*
X75896Y-24503D02*
G75*
G03X75896Y-24503I-50J0D01*
G74*
G01*
X75396Y-24503D02*
X75796Y-24503D01*
X75796Y-24503D02*
X75796Y-25103D01*
X75796Y-25103D02*
X75396Y-25103D01*
X74996Y-25103D02*
X74596Y-25103D01*
X74596Y-25103D02*
X74596Y-24503D01*
X74596Y-24503D02*
X74996Y-24503D01*
X75896Y-20959D02*
G75*
G03X75896Y-20959I-50J0D01*
G74*
G01*
X75396Y-20959D02*
X75796Y-20959D01*
X75796Y-20959D02*
X75796Y-21559D01*
X75796Y-21559D02*
X75396Y-21559D01*
X74996Y-21559D02*
X74596Y-21559D01*
X74596Y-21559D02*
X74596Y-20959D01*
X74596Y-20959D02*
X74996Y-20959D01*
X75896Y-22140D02*
G75*
G03X75896Y-22140I-50J0D01*
G74*
G01*
X75396Y-22140D02*
X75796Y-22140D01*
X75796Y-22140D02*
X75796Y-22740D01*
X75796Y-22740D02*
X75396Y-22740D01*
X74996Y-22740D02*
X74596Y-22740D01*
X74596Y-22740D02*
X74596Y-22140D01*
X74596Y-22140D02*
X74996Y-22140D01*
G54D12*
X65888Y-30035D02*
X66788Y-30035D01*
X66788Y-30035D02*
X66788Y-29385D01*
X65888Y-28685D02*
X65888Y-28035D01*
X65888Y-28035D02*
X66788Y-28035D01*
X66788Y-28035D02*
X66788Y-28685D01*
X65888Y-29385D02*
X65888Y-30035D01*
X68068Y-24492D02*
X67168Y-24492D01*
X67168Y-24492D02*
X67168Y-25142D01*
X68068Y-25842D02*
X68068Y-26492D01*
X68068Y-26492D02*
X67168Y-26492D01*
X67168Y-26492D02*
X67168Y-25842D01*
X68068Y-25142D02*
X68068Y-24492D01*
X65410Y-28035D02*
X64510Y-28035D01*
X64510Y-28035D02*
X64510Y-28685D01*
X65410Y-29385D02*
X65410Y-30035D01*
X65410Y-30035D02*
X64510Y-30035D01*
X64510Y-30035D02*
X64510Y-29385D01*
X65410Y-28685D02*
X65410Y-28035D01*
G54D14*
X68177Y-18397D02*
X68177Y-19397D01*
G54D15*
X69258Y-19281D02*
G75*
G03X69397Y-18897I-460J384D01*
G74*
G01*
X69396Y-18897D02*
G75*
G03X69245Y-18499I-599J0D01*
G74*
G01*
X68198Y-18897D02*
G75*
G03X68342Y-19287I599J0D01*
G74*
G01*
X68336Y-18513D02*
G75*
G03X68197Y-18897I460J-384D01*
G74*
G01*
X68309Y-19246D02*
G75*
G03X68797Y-19497I487J349D01*
G74*
G01*
X68797Y-19497D02*
G75*
G03X69277Y-19257I0J600D01*
G74*
G01*
X68797Y-18298D02*
G75*
G03X68324Y-18529I0J-599D01*
G74*
G01*
X69271Y-18529D02*
G75*
G03X68797Y-18297I-473J-368D01*
G74*
G01*
X68797Y-19147D02*
G75*
G03X69047Y-18897I0J250D01*
G74*
G01*
X68797Y-19297D02*
G75*
G03X69197Y-18897I0J400D01*
G74*
G01*
X68797Y-18647D02*
G75*
G03X68547Y-18897I0J-250D01*
G74*
G01*
X68797Y-18497D02*
G75*
G03X68397Y-18897I0J-400D01*
G74*
G01*
G54D14*
X68183Y-19410D02*
G75*
G03X68797Y-19697I613J513D01*
G74*
G01*
X68797Y-19696D02*
G75*
G03X69502Y-19273I0J799D01*
G74*
G01*
X68796Y-18098D02*
G75*
G03X68187Y-18381I1J-798D01*
G74*
G01*
X69491Y-18500D02*
G75*
G03X68797Y-18097I-694J-397D01*
G74*
G01*
X69502Y-19276D02*
G75*
G03X69597Y-18897I-704J379D01*
G74*
G01*
X69597Y-18897D02*
G75*
G03X69478Y-18478I-799J0D01*
G74*
G01*
X72373Y-19397D02*
X72373Y-18397D01*
G54D15*
X71292Y-18513D02*
G75*
G03X71153Y-18897I460J-384D01*
G74*
G01*
X71154Y-18897D02*
G75*
G03X71305Y-19295I599J0D01*
G74*
G01*
X72352Y-18897D02*
G75*
G03X72208Y-18507I-599J0D01*
G74*
G01*
X72214Y-19281D02*
G75*
G03X72353Y-18897I-460J384D01*
G74*
G01*
X72241Y-18548D02*
G75*
G03X71753Y-18297I-487J-349D01*
G74*
G01*
X71753Y-18297D02*
G75*
G03X71273Y-18537I0J-600D01*
G74*
G01*
X71753Y-19496D02*
G75*
G03X72226Y-19265I0J599D01*
G74*
G01*
X71280Y-19266D02*
G75*
G03X71753Y-19497I473J368D01*
G74*
G01*
X71753Y-18647D02*
G75*
G03X71503Y-18897I0J-250D01*
G74*
G01*
X71753Y-18497D02*
G75*
G03X71353Y-18897I0J-400D01*
G74*
G01*
X71753Y-19147D02*
G75*
G03X72003Y-18897I0J250D01*
G74*
G01*
X71753Y-19297D02*
G75*
G03X72153Y-18897I0J400D01*
G74*
G01*
G54D14*
X72367Y-18384D02*
G75*
G03X71753Y-18097I-613J-513D01*
G74*
G01*
X71753Y-18098D02*
G75*
G03X71048Y-18521I0J-799D01*
G74*
G01*
X71754Y-19696D02*
G75*
G03X72363Y-19413I-1J798D01*
G74*
G01*
X71059Y-19295D02*
G75*
G03X71753Y-19697I694J397D01*
G74*
G01*
X71049Y-18518D02*
G75*
G03X70953Y-18897I704J-379D01*
G74*
G01*
X70953Y-18897D02*
G75*
G03X71072Y-19316I799J0D01*
G74*
G01*
G54D12*
X68349Y-26492D02*
X69249Y-26492D01*
X69249Y-26492D02*
X69249Y-25842D01*
X68349Y-25142D02*
X68349Y-24492D01*
X68349Y-24492D02*
X69249Y-24492D01*
X69249Y-24492D02*
X69249Y-25142D01*
X68349Y-25842D02*
X68349Y-26492D01*
X67266Y-16285D02*
X68166Y-16285D01*
X68166Y-16285D02*
X68166Y-16785D01*
X68166Y-16785D02*
X67266Y-16785D01*
X67266Y-16785D02*
X67266Y-16285D01*
G54D10*
X81230Y-17690D02*
X81230Y-18222D01*
X81761Y-18222D01*
X81761Y-17690D01*
X81230Y-17690D01*
X81771Y-18956D02*
G75*
G03X81771Y-18956I-275J0D01*
G74*
G01*
X81771Y-19956D02*
G75*
G03X81771Y-19956I-275J0D01*
G74*
G01*
X81771Y-20956D02*
G75*
G03X81771Y-20956I-275J0D01*
G74*
G01*
X81771Y-21956D02*
G75*
G03X81771Y-21956I-275J0D01*
G74*
G01*
X81771Y-22956D02*
G75*
G03X81771Y-22956I-275J0D01*
G74*
G01*
X81771Y-23956D02*
G75*
G03X81771Y-23956I-275J0D01*
G74*
G01*
X81771Y-24956D02*
G75*
G03X81771Y-24956I-275J0D01*
G74*
G01*
X58592Y-17690D02*
X58592Y-18222D01*
X59124Y-18222D01*
X59124Y-17690D01*
X58592Y-17690D01*
X59133Y-18956D02*
G75*
G03X59133Y-18956I-275J0D01*
G74*
G01*
X59133Y-19956D02*
G75*
G03X59133Y-19956I-275J0D01*
G74*
G01*
X59133Y-20956D02*
G75*
G03X59133Y-20956I-275J0D01*
G74*
G01*
X59133Y-21956D02*
G75*
G03X59133Y-21956I-275J0D01*
G74*
G01*
X59133Y-22956D02*
G75*
G03X59133Y-22956I-275J0D01*
G74*
G01*
X59133Y-23956D02*
G75*
G03X59133Y-23956I-275J0D01*
G74*
G01*
X59133Y-24956D02*
G75*
G03X59133Y-24956I-275J0D01*
G74*
G01*
X57608Y-17690D02*
X57608Y-18222D01*
X58139Y-18222D01*
X58139Y-17690D01*
X57608Y-17690D01*
X58149Y-18956D02*
G75*
G03X58149Y-18956I-275J0D01*
G74*
G01*
X58149Y-19956D02*
G75*
G03X58149Y-19956I-275J0D01*
G74*
G01*
X58149Y-20956D02*
G75*
G03X58149Y-20956I-275J0D01*
G74*
G01*
X58149Y-21956D02*
G75*
G03X58149Y-21956I-275J0D01*
G74*
G01*
X58149Y-22956D02*
G75*
G03X58149Y-22956I-275J0D01*
G74*
G01*
X58149Y-23956D02*
G75*
G03X58149Y-23956I-275J0D01*
G74*
G01*
X58149Y-24956D02*
G75*
G03X58149Y-24956I-275J0D01*
G74*
G01*
X82214Y-17690D02*
X82214Y-18222D01*
X82746Y-18222D01*
X82746Y-17690D01*
X82214Y-17690D01*
X82755Y-18956D02*
G75*
G03X82755Y-18956I-275J0D01*
G74*
G01*
X82755Y-19956D02*
G75*
G03X82755Y-19956I-275J0D01*
G74*
G01*
X82755Y-20956D02*
G75*
G03X82755Y-20956I-275J0D01*
G74*
G01*
X82755Y-21956D02*
G75*
G03X82755Y-21956I-275J0D01*
G74*
G01*
X82755Y-22956D02*
G75*
G03X82755Y-22956I-275J0D01*
G74*
G01*
X82755Y-23956D02*
G75*
G03X82755Y-23956I-275J0D01*
G74*
G01*
X82755Y-24956D02*
G75*
G03X82755Y-24956I-275J0D01*
G74*
G01*
X72007Y-15275D02*
X72007Y-15826D01*
X72559Y-15826D01*
X72559Y-15275D01*
X72007Y-15275D01*
X71559Y-15551D02*
G75*
G03X71559Y-15551I-275J0D01*
G74*
G01*
X70559Y-15551D02*
G75*
G03X70559Y-15551I-275J0D01*
G74*
G01*
X69559Y-15551D02*
G75*
G03X69559Y-15551I-275J0D01*
G74*
G01*
X68559Y-15551D02*
G75*
G03X68559Y-15551I-275J0D01*
G74*
G01*
G54D12*
X69600Y-27764D02*
X69500Y-27764D01*
X69500Y-27921D02*
X69500Y-27621D01*
X69642Y-27621D01*
X69914Y-27921D02*
X69742Y-27921D01*
X69828Y-27921D02*
X69828Y-27621D01*
X69800Y-27664D01*
X69771Y-27692D01*
X69742Y-27707D01*
X69657Y-28121D02*
X69514Y-28121D01*
X69500Y-28264D01*
X69514Y-28250D01*
X69542Y-28235D01*
X69614Y-28235D01*
X69642Y-28250D01*
X69657Y-28264D01*
X69671Y-28292D01*
X69671Y-28364D01*
X69657Y-28392D01*
X69642Y-28407D01*
X69614Y-28421D01*
X69542Y-28421D01*
X69514Y-28407D01*
X69500Y-28392D01*
X69857Y-28121D02*
X69885Y-28121D01*
X69914Y-28135D01*
X69928Y-28150D01*
X69942Y-28178D01*
X69957Y-28235D01*
X69957Y-28307D01*
X69942Y-28364D01*
X69928Y-28392D01*
X69914Y-28407D01*
X69885Y-28421D01*
X69857Y-28421D01*
X69828Y-28407D01*
X69814Y-28392D01*
X69800Y-28364D01*
X69785Y-28307D01*
X69785Y-28235D01*
X69800Y-28178D01*
X69814Y-28150D01*
X69828Y-28135D01*
X69857Y-28121D01*
X70142Y-28121D02*
X70171Y-28121D01*
X70200Y-28135D01*
X70214Y-28150D01*
X70228Y-28178D01*
X70242Y-28235D01*
X70242Y-28307D01*
X70228Y-28364D01*
X70214Y-28392D01*
X70200Y-28407D01*
X70171Y-28421D01*
X70142Y-28421D01*
X70114Y-28407D01*
X70100Y-28392D01*
X70085Y-28364D01*
X70071Y-28307D01*
X70071Y-28235D01*
X70085Y-28178D01*
X70100Y-28150D01*
X70114Y-28135D01*
X70142Y-28121D01*
X70371Y-28421D02*
X70371Y-28221D01*
X70371Y-28250D02*
X70385Y-28235D01*
X70414Y-28221D01*
X70457Y-28221D01*
X70485Y-28235D01*
X70500Y-28264D01*
X70500Y-28421D01*
X70500Y-28264D02*
X70514Y-28235D01*
X70542Y-28221D01*
X70585Y-28221D01*
X70614Y-28235D01*
X70628Y-28264D01*
X70628Y-28421D01*
X70757Y-28335D02*
X70900Y-28335D01*
X70728Y-28421D02*
X70828Y-28121D01*
X70928Y-28421D01*
G54D17*
X74085Y-16615D02*
X74020Y-16521D01*
X73973Y-16615D02*
X73973Y-16418D01*
X74048Y-16418D01*
X74067Y-16427D01*
X74076Y-16436D01*
X74085Y-16455D01*
X74085Y-16483D01*
X74076Y-16502D01*
X74067Y-16511D01*
X74048Y-16521D01*
X73973Y-16521D01*
X74273Y-16615D02*
X74161Y-16615D01*
X74217Y-16615D02*
X74217Y-16418D01*
X74198Y-16446D01*
X74179Y-16465D01*
X74161Y-16474D01*
X74367Y-16615D02*
X74404Y-16615D01*
X74423Y-16605D01*
X74433Y-16596D01*
X74451Y-16568D01*
X74461Y-16530D01*
X74461Y-16455D01*
X74451Y-16436D01*
X74442Y-16427D01*
X74423Y-16418D01*
X74386Y-16418D01*
X74367Y-16427D01*
X74358Y-16436D01*
X74348Y-16455D01*
X74348Y-16502D01*
X74358Y-16521D01*
X74367Y-16530D01*
X74386Y-16540D01*
X74423Y-16540D01*
X74442Y-16530D01*
X74451Y-16521D01*
X74461Y-16502D01*
X75145Y-16784D02*
X75276Y-16784D01*
X75070Y-16830D02*
X75210Y-16877D01*
X75210Y-16755D01*
X75079Y-16699D02*
X75079Y-16568D01*
X75276Y-16652D01*
X75079Y-16455D02*
X75079Y-16436D01*
X75088Y-16418D01*
X75098Y-16408D01*
X75117Y-16399D01*
X75154Y-16390D01*
X75201Y-16390D01*
X75239Y-16399D01*
X75257Y-16408D01*
X75267Y-16418D01*
X75276Y-16436D01*
X75276Y-16455D01*
X75267Y-16474D01*
X75257Y-16483D01*
X75239Y-16493D01*
X75201Y-16502D01*
X75154Y-16502D01*
X75117Y-16493D01*
X75098Y-16483D01*
X75088Y-16474D01*
X75079Y-16455D01*
X75276Y-16193D02*
X75182Y-16258D01*
X75276Y-16305D02*
X75079Y-16305D01*
X75079Y-16230D01*
X75088Y-16211D01*
X75098Y-16202D01*
X75117Y-16193D01*
X75145Y-16193D01*
X75164Y-16202D01*
X75173Y-16211D01*
X75182Y-16230D01*
X75182Y-16305D01*
X74085Y-17796D02*
X74020Y-17702D01*
X73973Y-17796D02*
X73973Y-17599D01*
X74048Y-17599D01*
X74067Y-17608D01*
X74076Y-17618D01*
X74085Y-17636D01*
X74085Y-17664D01*
X74076Y-17683D01*
X74067Y-17693D01*
X74048Y-17702D01*
X73973Y-17702D01*
X74273Y-17796D02*
X74161Y-17796D01*
X74217Y-17796D02*
X74217Y-17599D01*
X74198Y-17627D01*
X74179Y-17646D01*
X74161Y-17655D01*
X74386Y-17683D02*
X74367Y-17674D01*
X74358Y-17664D01*
X74348Y-17646D01*
X74348Y-17636D01*
X74358Y-17618D01*
X74367Y-17608D01*
X74386Y-17599D01*
X74423Y-17599D01*
X74442Y-17608D01*
X74451Y-17618D01*
X74461Y-17636D01*
X74461Y-17646D01*
X74451Y-17664D01*
X74442Y-17674D01*
X74423Y-17683D01*
X74386Y-17683D01*
X74367Y-17693D01*
X74358Y-17702D01*
X74348Y-17721D01*
X74348Y-17758D01*
X74358Y-17777D01*
X74367Y-17786D01*
X74386Y-17796D01*
X74423Y-17796D01*
X74442Y-17786D01*
X74451Y-17777D01*
X74461Y-17758D01*
X74461Y-17721D01*
X74451Y-17702D01*
X74442Y-17693D01*
X74423Y-17683D01*
X75145Y-17965D02*
X75276Y-17965D01*
X75070Y-18012D02*
X75210Y-18058D01*
X75210Y-17936D01*
X75079Y-17880D02*
X75079Y-17749D01*
X75276Y-17833D01*
X75079Y-17636D02*
X75079Y-17618D01*
X75088Y-17599D01*
X75098Y-17589D01*
X75117Y-17580D01*
X75154Y-17571D01*
X75201Y-17571D01*
X75239Y-17580D01*
X75257Y-17589D01*
X75267Y-17599D01*
X75276Y-17618D01*
X75276Y-17636D01*
X75267Y-17655D01*
X75257Y-17664D01*
X75239Y-17674D01*
X75201Y-17683D01*
X75154Y-17683D01*
X75117Y-17674D01*
X75098Y-17664D01*
X75088Y-17655D01*
X75079Y-17636D01*
X75276Y-17374D02*
X75182Y-17439D01*
X75276Y-17486D02*
X75079Y-17486D01*
X75079Y-17411D01*
X75088Y-17392D01*
X75098Y-17383D01*
X75117Y-17374D01*
X75145Y-17374D01*
X75164Y-17383D01*
X75173Y-17392D01*
X75182Y-17411D01*
X75182Y-17486D01*
X74085Y-18977D02*
X74020Y-18883D01*
X73973Y-18977D02*
X73973Y-18780D01*
X74048Y-18780D01*
X74067Y-18789D01*
X74076Y-18799D01*
X74085Y-18817D01*
X74085Y-18846D01*
X74076Y-18864D01*
X74067Y-18874D01*
X74048Y-18883D01*
X73973Y-18883D01*
X74273Y-18977D02*
X74161Y-18977D01*
X74217Y-18977D02*
X74217Y-18780D01*
X74198Y-18808D01*
X74179Y-18827D01*
X74161Y-18836D01*
X74339Y-18780D02*
X74470Y-18780D01*
X74386Y-18977D01*
X75145Y-19146D02*
X75276Y-19146D01*
X75070Y-19193D02*
X75210Y-19240D01*
X75210Y-19118D01*
X75079Y-19061D02*
X75079Y-18930D01*
X75276Y-19014D01*
X75079Y-18817D02*
X75079Y-18799D01*
X75088Y-18780D01*
X75098Y-18770D01*
X75117Y-18761D01*
X75154Y-18752D01*
X75201Y-18752D01*
X75239Y-18761D01*
X75257Y-18770D01*
X75267Y-18780D01*
X75276Y-18799D01*
X75276Y-18817D01*
X75267Y-18836D01*
X75257Y-18846D01*
X75239Y-18855D01*
X75201Y-18864D01*
X75154Y-18864D01*
X75117Y-18855D01*
X75098Y-18846D01*
X75088Y-18836D01*
X75079Y-18817D01*
X75276Y-18555D02*
X75182Y-18620D01*
X75276Y-18667D02*
X75079Y-18667D01*
X75079Y-18592D01*
X75088Y-18573D01*
X75098Y-18564D01*
X75117Y-18555D01*
X75145Y-18555D01*
X75164Y-18564D01*
X75173Y-18573D01*
X75182Y-18592D01*
X75182Y-18667D01*
X74085Y-20158D02*
X74020Y-20064D01*
X73973Y-20158D02*
X73973Y-19961D01*
X74048Y-19961D01*
X74067Y-19970D01*
X74076Y-19980D01*
X74085Y-19999D01*
X74085Y-20027D01*
X74076Y-20045D01*
X74067Y-20055D01*
X74048Y-20064D01*
X73973Y-20064D01*
X74273Y-20158D02*
X74161Y-20158D01*
X74217Y-20158D02*
X74217Y-19961D01*
X74198Y-19989D01*
X74179Y-20008D01*
X74161Y-20017D01*
X74451Y-19961D02*
X74358Y-19961D01*
X74348Y-20055D01*
X74358Y-20045D01*
X74376Y-20036D01*
X74423Y-20036D01*
X74442Y-20045D01*
X74451Y-20055D01*
X74461Y-20074D01*
X74461Y-20120D01*
X74451Y-20139D01*
X74442Y-20149D01*
X74423Y-20158D01*
X74376Y-20158D01*
X74358Y-20149D01*
X74348Y-20139D01*
X75145Y-20327D02*
X75276Y-20327D01*
X75070Y-20374D02*
X75210Y-20421D01*
X75210Y-20299D01*
X75079Y-20242D02*
X75079Y-20111D01*
X75276Y-20196D01*
X75079Y-19999D02*
X75079Y-19980D01*
X75088Y-19961D01*
X75098Y-19952D01*
X75117Y-19942D01*
X75154Y-19933D01*
X75201Y-19933D01*
X75239Y-19942D01*
X75257Y-19952D01*
X75267Y-19961D01*
X75276Y-19980D01*
X75276Y-19999D01*
X75267Y-20017D01*
X75257Y-20027D01*
X75239Y-20036D01*
X75201Y-20045D01*
X75154Y-20045D01*
X75117Y-20036D01*
X75098Y-20027D01*
X75088Y-20017D01*
X75079Y-19999D01*
X75276Y-19736D02*
X75182Y-19802D01*
X75276Y-19848D02*
X75079Y-19848D01*
X75079Y-19773D01*
X75088Y-19755D01*
X75098Y-19745D01*
X75117Y-19736D01*
X75145Y-19736D01*
X75164Y-19745D01*
X75173Y-19755D01*
X75182Y-19773D01*
X75182Y-19848D01*
X74085Y-23701D02*
X74020Y-23607D01*
X73973Y-23701D02*
X73973Y-23504D01*
X74048Y-23504D01*
X74067Y-23514D01*
X74076Y-23523D01*
X74085Y-23542D01*
X74085Y-23570D01*
X74076Y-23589D01*
X74067Y-23598D01*
X74048Y-23607D01*
X73973Y-23607D01*
X74273Y-23701D02*
X74161Y-23701D01*
X74217Y-23701D02*
X74217Y-23504D01*
X74198Y-23532D01*
X74179Y-23551D01*
X74161Y-23561D01*
X74442Y-23504D02*
X74404Y-23504D01*
X74386Y-23514D01*
X74376Y-23523D01*
X74358Y-23551D01*
X74348Y-23589D01*
X74348Y-23664D01*
X74358Y-23683D01*
X74367Y-23692D01*
X74386Y-23701D01*
X74423Y-23701D01*
X74442Y-23692D01*
X74451Y-23683D01*
X74461Y-23664D01*
X74461Y-23617D01*
X74451Y-23598D01*
X74442Y-23589D01*
X74423Y-23579D01*
X74386Y-23579D01*
X74367Y-23589D01*
X74358Y-23598D01*
X74348Y-23617D01*
X75145Y-23870D02*
X75276Y-23870D01*
X75070Y-23917D02*
X75210Y-23964D01*
X75210Y-23842D01*
X75079Y-23786D02*
X75079Y-23654D01*
X75276Y-23739D01*
X75079Y-23542D02*
X75079Y-23523D01*
X75088Y-23504D01*
X75098Y-23495D01*
X75117Y-23486D01*
X75154Y-23476D01*
X75201Y-23476D01*
X75239Y-23486D01*
X75257Y-23495D01*
X75267Y-23504D01*
X75276Y-23523D01*
X75276Y-23542D01*
X75267Y-23561D01*
X75257Y-23570D01*
X75239Y-23579D01*
X75201Y-23589D01*
X75154Y-23589D01*
X75117Y-23579D01*
X75098Y-23570D01*
X75088Y-23561D01*
X75079Y-23542D01*
X75276Y-23279D02*
X75182Y-23345D01*
X75276Y-23392D02*
X75079Y-23392D01*
X75079Y-23317D01*
X75088Y-23298D01*
X75098Y-23289D01*
X75117Y-23279D01*
X75145Y-23279D01*
X75164Y-23289D01*
X75173Y-23298D01*
X75182Y-23317D01*
X75182Y-23392D01*
G54D18*
X67095Y-22798D02*
X67087Y-22807D01*
X67061Y-22817D01*
X67044Y-22817D01*
X67018Y-22807D01*
X67001Y-22788D01*
X66993Y-22769D01*
X66984Y-22731D01*
X66984Y-22702D01*
X66993Y-22664D01*
X67001Y-22645D01*
X67018Y-22626D01*
X67044Y-22617D01*
X67061Y-22617D01*
X67087Y-22626D01*
X67095Y-22636D01*
X67250Y-22617D02*
X67215Y-22617D01*
X67198Y-22626D01*
X67190Y-22636D01*
X67173Y-22664D01*
X67164Y-22702D01*
X67164Y-22779D01*
X67173Y-22798D01*
X67181Y-22807D01*
X67198Y-22817D01*
X67233Y-22817D01*
X67250Y-22807D01*
X67258Y-22798D01*
X67267Y-22779D01*
X67267Y-22731D01*
X67258Y-22712D01*
X67250Y-22702D01*
X67233Y-22693D01*
X67198Y-22693D01*
X67181Y-22702D01*
X67173Y-22712D01*
X67164Y-22731D01*
X66826Y-23112D02*
X66723Y-23112D01*
X66774Y-23112D02*
X66774Y-22912D01*
X66757Y-22941D01*
X66740Y-22960D01*
X66723Y-22969D01*
X66937Y-22912D02*
X66954Y-22912D01*
X66971Y-22921D01*
X66980Y-22931D01*
X66988Y-22950D01*
X66997Y-22988D01*
X66997Y-23036D01*
X66988Y-23074D01*
X66980Y-23093D01*
X66971Y-23102D01*
X66954Y-23112D01*
X66937Y-23112D01*
X66920Y-23102D01*
X66911Y-23093D01*
X66903Y-23074D01*
X66894Y-23036D01*
X66894Y-22988D01*
X66903Y-22950D01*
X66911Y-22931D01*
X66920Y-22921D01*
X66937Y-22912D01*
X67108Y-22912D02*
X67126Y-22912D01*
X67143Y-22921D01*
X67151Y-22931D01*
X67160Y-22950D01*
X67168Y-22988D01*
X67168Y-23036D01*
X67160Y-23074D01*
X67151Y-23093D01*
X67143Y-23102D01*
X67126Y-23112D01*
X67108Y-23112D01*
X67091Y-23102D01*
X67083Y-23093D01*
X67074Y-23074D01*
X67066Y-23036D01*
X67066Y-22988D01*
X67074Y-22950D01*
X67083Y-22931D01*
X67091Y-22921D01*
X67108Y-22912D01*
X67246Y-22979D02*
X67246Y-23112D01*
X67246Y-22998D02*
X67254Y-22988D01*
X67271Y-22979D01*
X67297Y-22979D01*
X67314Y-22988D01*
X67323Y-23007D01*
X67323Y-23112D01*
G54D19*
X78912Y-22660D02*
X78912Y-22360D01*
X78983Y-22360D01*
X79026Y-22375D01*
X79055Y-22403D01*
X79069Y-22432D01*
X79083Y-22489D01*
X79083Y-22532D01*
X79069Y-22589D01*
X79055Y-22617D01*
X79026Y-22646D01*
X78983Y-22660D01*
X78912Y-22660D01*
X79341Y-22460D02*
X79341Y-22660D01*
X79269Y-22346D02*
X79198Y-22560D01*
X79383Y-22560D01*
X76593Y-22660D02*
X76493Y-22517D01*
X76421Y-22660D02*
X76421Y-22360D01*
X76535Y-22360D01*
X76564Y-22375D01*
X76578Y-22389D01*
X76593Y-22417D01*
X76593Y-22460D01*
X76578Y-22489D01*
X76564Y-22503D01*
X76535Y-22517D01*
X76421Y-22517D01*
X76693Y-22660D02*
X76850Y-22460D01*
X76693Y-22460D02*
X76850Y-22660D01*
X76964Y-22660D02*
X76964Y-22360D01*
X77035Y-22360D01*
X77078Y-22375D01*
X77107Y-22403D01*
X77121Y-22432D01*
X77135Y-22489D01*
X77135Y-22532D01*
X77121Y-22589D01*
X77107Y-22617D01*
X77078Y-22646D01*
X77035Y-22660D01*
X76964Y-22660D01*
X78966Y-14688D02*
X78966Y-14388D01*
X79037Y-14388D01*
X79080Y-14402D01*
X79109Y-14431D01*
X79123Y-14459D01*
X79137Y-14516D01*
X79137Y-14559D01*
X79123Y-14616D01*
X79109Y-14645D01*
X79080Y-14674D01*
X79037Y-14688D01*
X78966Y-14688D01*
X79423Y-14688D02*
X79252Y-14688D01*
X79337Y-14688D02*
X79337Y-14388D01*
X79309Y-14431D01*
X79280Y-14459D01*
X79252Y-14474D01*
X79609Y-14388D02*
X79637Y-14388D01*
X79666Y-14402D01*
X79680Y-14416D01*
X79694Y-14445D01*
X79709Y-14502D01*
X79709Y-14574D01*
X79694Y-14631D01*
X79680Y-14659D01*
X79666Y-14674D01*
X79637Y-14688D01*
X79609Y-14688D01*
X79580Y-14674D01*
X79566Y-14659D01*
X79552Y-14631D01*
X79537Y-14574D01*
X79537Y-14502D01*
X79552Y-14445D01*
X79566Y-14416D01*
X79580Y-14402D01*
X79609Y-14388D01*
X76694Y-14688D02*
X76594Y-14545D01*
X76523Y-14688D02*
X76523Y-14388D01*
X76637Y-14388D01*
X76666Y-14402D01*
X76680Y-14416D01*
X76694Y-14445D01*
X76694Y-14488D01*
X76680Y-14516D01*
X76666Y-14531D01*
X76637Y-14545D01*
X76523Y-14545D01*
X76823Y-14688D02*
X76823Y-14388D01*
X79109Y-16656D02*
X79109Y-16356D01*
X79180Y-16356D01*
X79223Y-16371D01*
X79252Y-16399D01*
X79266Y-16428D01*
X79280Y-16485D01*
X79280Y-16528D01*
X79266Y-16585D01*
X79252Y-16614D01*
X79223Y-16642D01*
X79180Y-16656D01*
X79109Y-16656D01*
X79423Y-16656D02*
X79480Y-16656D01*
X79509Y-16642D01*
X79523Y-16628D01*
X79552Y-16585D01*
X79566Y-16528D01*
X79566Y-16414D01*
X79552Y-16385D01*
X79537Y-16371D01*
X79509Y-16356D01*
X79452Y-16356D01*
X79423Y-16371D01*
X79409Y-16385D01*
X79394Y-16414D01*
X79394Y-16485D01*
X79409Y-16514D01*
X79423Y-16528D01*
X79452Y-16542D01*
X79509Y-16542D01*
X79537Y-16528D01*
X79552Y-16514D01*
X79566Y-16485D01*
X76294Y-16656D02*
X76294Y-16356D01*
X76366Y-16356D01*
X76408Y-16371D01*
X76437Y-16399D01*
X76451Y-16428D01*
X76466Y-16485D01*
X76466Y-16528D01*
X76451Y-16585D01*
X76437Y-16614D01*
X76408Y-16642D01*
X76366Y-16656D01*
X76294Y-16656D01*
X76766Y-16628D02*
X76751Y-16642D01*
X76708Y-16656D01*
X76680Y-16656D01*
X76637Y-16642D01*
X76608Y-16614D01*
X76594Y-16585D01*
X76580Y-16528D01*
X76580Y-16485D01*
X76594Y-16428D01*
X76608Y-16399D01*
X76637Y-16371D01*
X76680Y-16356D01*
X76708Y-16356D01*
X76751Y-16371D01*
X76766Y-16385D01*
X76894Y-16656D02*
X76894Y-16356D01*
X76966Y-16356D01*
X77008Y-16371D01*
X77037Y-16399D01*
X77051Y-16428D01*
X77066Y-16485D01*
X77066Y-16528D01*
X77051Y-16585D01*
X77037Y-16614D01*
X77008Y-16642D01*
X76966Y-16656D01*
X76894Y-16656D01*
X78912Y-18625D02*
X78912Y-18325D01*
X78983Y-18325D01*
X79026Y-18339D01*
X79055Y-18368D01*
X79069Y-18396D01*
X79083Y-18453D01*
X79083Y-18496D01*
X79069Y-18553D01*
X79055Y-18582D01*
X79026Y-18611D01*
X78983Y-18625D01*
X78912Y-18625D01*
X79255Y-18453D02*
X79226Y-18439D01*
X79212Y-18425D01*
X79198Y-18396D01*
X79198Y-18382D01*
X79212Y-18353D01*
X79226Y-18339D01*
X79255Y-18325D01*
X79312Y-18325D01*
X79341Y-18339D01*
X79355Y-18353D01*
X79369Y-18382D01*
X79369Y-18396D01*
X79355Y-18425D01*
X79341Y-18439D01*
X79312Y-18453D01*
X79255Y-18453D01*
X79226Y-18468D01*
X79212Y-18482D01*
X79198Y-18511D01*
X79198Y-18568D01*
X79212Y-18596D01*
X79226Y-18611D01*
X79255Y-18625D01*
X79312Y-18625D01*
X79341Y-18611D01*
X79355Y-18596D01*
X79369Y-18568D01*
X79369Y-18511D01*
X79355Y-18482D01*
X79341Y-18468D01*
X79312Y-18453D01*
X76400Y-18723D02*
X76400Y-18423D01*
X76471Y-18423D01*
X76514Y-18438D01*
X76543Y-18466D01*
X76557Y-18495D01*
X76571Y-18552D01*
X76571Y-18595D01*
X76557Y-18652D01*
X76543Y-18680D01*
X76514Y-18709D01*
X76471Y-18723D01*
X76400Y-18723D01*
X76685Y-18709D02*
X76728Y-18723D01*
X76800Y-18723D01*
X76828Y-18709D01*
X76843Y-18695D01*
X76857Y-18666D01*
X76857Y-18638D01*
X76843Y-18609D01*
X76828Y-18595D01*
X76800Y-18580D01*
X76743Y-18566D01*
X76714Y-18552D01*
X76700Y-18538D01*
X76685Y-18509D01*
X76685Y-18480D01*
X76700Y-18452D01*
X76714Y-18438D01*
X76743Y-18423D01*
X76814Y-18423D01*
X76857Y-18438D01*
X77157Y-18723D02*
X77057Y-18580D01*
X76985Y-18723D02*
X76985Y-18423D01*
X77100Y-18423D01*
X77128Y-18438D01*
X77143Y-18452D01*
X77157Y-18480D01*
X77157Y-18523D01*
X77143Y-18552D01*
X77128Y-18566D01*
X77100Y-18580D01*
X76985Y-18580D01*
X79010Y-26499D02*
X79010Y-26199D01*
X79082Y-26199D01*
X79125Y-26213D01*
X79153Y-26242D01*
X79167Y-26270D01*
X79182Y-26327D01*
X79182Y-26370D01*
X79167Y-26427D01*
X79153Y-26456D01*
X79125Y-26485D01*
X79082Y-26499D01*
X79010Y-26499D01*
X79282Y-26199D02*
X79482Y-26199D01*
X79353Y-26499D01*
X76330Y-26499D02*
X76330Y-26199D01*
X76401Y-26199D01*
X76444Y-26213D01*
X76473Y-26242D01*
X76487Y-26270D01*
X76501Y-26327D01*
X76501Y-26370D01*
X76487Y-26427D01*
X76473Y-26456D01*
X76444Y-26485D01*
X76401Y-26499D01*
X76330Y-26499D01*
X76587Y-26199D02*
X76758Y-26199D01*
X76673Y-26499D02*
X76673Y-26199D01*
X77030Y-26499D02*
X76930Y-26356D01*
X76858Y-26499D02*
X76858Y-26199D01*
X76973Y-26199D01*
X77001Y-26213D01*
X77016Y-26227D01*
X77030Y-26256D01*
X77030Y-26299D01*
X77016Y-26327D01*
X77001Y-26342D01*
X76973Y-26356D01*
X76858Y-26356D01*
X78912Y-20593D02*
X78912Y-20293D01*
X78983Y-20293D01*
X79026Y-20308D01*
X79055Y-20336D01*
X79069Y-20365D01*
X79083Y-20422D01*
X79083Y-20465D01*
X79069Y-20522D01*
X79055Y-20551D01*
X79026Y-20579D01*
X78983Y-20593D01*
X78912Y-20593D01*
X79341Y-20293D02*
X79283Y-20293D01*
X79255Y-20308D01*
X79241Y-20322D01*
X79212Y-20365D01*
X79198Y-20422D01*
X79198Y-20536D01*
X79212Y-20565D01*
X79226Y-20579D01*
X79255Y-20593D01*
X79312Y-20593D01*
X79341Y-20579D01*
X79355Y-20565D01*
X79369Y-20536D01*
X79369Y-20465D01*
X79355Y-20436D01*
X79341Y-20422D01*
X79312Y-20408D01*
X79255Y-20408D01*
X79226Y-20422D01*
X79212Y-20436D01*
X79198Y-20465D01*
X76508Y-20663D02*
X76494Y-20678D01*
X76451Y-20692D01*
X76423Y-20692D01*
X76380Y-20678D01*
X76351Y-20649D01*
X76337Y-20620D01*
X76323Y-20563D01*
X76323Y-20520D01*
X76337Y-20463D01*
X76351Y-20435D01*
X76380Y-20406D01*
X76423Y-20392D01*
X76451Y-20392D01*
X76494Y-20406D01*
X76508Y-20420D01*
X76594Y-20392D02*
X76766Y-20392D01*
X76680Y-20692D02*
X76680Y-20392D01*
X76851Y-20678D02*
X76894Y-20692D01*
X76966Y-20692D01*
X76994Y-20678D01*
X77008Y-20663D01*
X77023Y-20635D01*
X77023Y-20606D01*
X77008Y-20578D01*
X76994Y-20563D01*
X76966Y-20549D01*
X76908Y-20535D01*
X76880Y-20520D01*
X76866Y-20506D01*
X76851Y-20478D01*
X76851Y-20449D01*
X76866Y-20420D01*
X76880Y-20406D01*
X76908Y-20392D01*
X76980Y-20392D01*
X77023Y-20406D01*
X78912Y-28467D02*
X78912Y-28167D01*
X78983Y-28167D01*
X79026Y-28182D01*
X79055Y-28210D01*
X79069Y-28239D01*
X79083Y-28296D01*
X79083Y-28339D01*
X79069Y-28396D01*
X79055Y-28425D01*
X79026Y-28453D01*
X78983Y-28467D01*
X78912Y-28467D01*
X79355Y-28167D02*
X79212Y-28167D01*
X79198Y-28310D01*
X79212Y-28296D01*
X79241Y-28282D01*
X79312Y-28282D01*
X79341Y-28296D01*
X79355Y-28310D01*
X79369Y-28339D01*
X79369Y-28410D01*
X79355Y-28439D01*
X79341Y-28453D01*
X79312Y-28467D01*
X79241Y-28467D01*
X79212Y-28453D01*
X79198Y-28439D01*
X76410Y-28467D02*
X76310Y-28325D01*
X76239Y-28467D02*
X76239Y-28167D01*
X76353Y-28167D01*
X76381Y-28182D01*
X76396Y-28196D01*
X76410Y-28225D01*
X76410Y-28267D01*
X76396Y-28296D01*
X76381Y-28310D01*
X76353Y-28325D01*
X76239Y-28325D01*
X76496Y-28167D02*
X76667Y-28167D01*
X76581Y-28467D02*
X76581Y-28167D01*
X76753Y-28453D02*
X76796Y-28467D01*
X76867Y-28467D01*
X76896Y-28453D01*
X76910Y-28439D01*
X76924Y-28410D01*
X76924Y-28382D01*
X76910Y-28353D01*
X76896Y-28339D01*
X76867Y-28325D01*
X76810Y-28310D01*
X76781Y-28296D01*
X76767Y-28282D01*
X76753Y-28253D01*
X76753Y-28225D01*
X76767Y-28196D01*
X76781Y-28182D01*
X76810Y-28167D01*
X76881Y-28167D01*
X76924Y-28182D01*
X78814Y-24530D02*
X78814Y-24230D01*
X78885Y-24230D01*
X78928Y-24245D01*
X78956Y-24273D01*
X78971Y-24302D01*
X78985Y-24359D01*
X78985Y-24402D01*
X78971Y-24459D01*
X78956Y-24488D01*
X78928Y-24516D01*
X78885Y-24530D01*
X78814Y-24530D01*
X79085Y-24230D02*
X79271Y-24230D01*
X79171Y-24345D01*
X79214Y-24345D01*
X79242Y-24359D01*
X79256Y-24373D01*
X79271Y-24402D01*
X79271Y-24473D01*
X79256Y-24502D01*
X79242Y-24516D01*
X79214Y-24530D01*
X79128Y-24530D01*
X79099Y-24516D01*
X79085Y-24502D01*
X76316Y-24329D02*
X76487Y-24329D01*
X76401Y-24629D02*
X76401Y-24329D01*
X76558Y-24629D02*
X76716Y-24429D01*
X76558Y-24429D02*
X76716Y-24629D01*
X76830Y-24629D02*
X76830Y-24329D01*
X76901Y-24329D01*
X76944Y-24343D01*
X76973Y-24372D01*
X76987Y-24400D01*
X77001Y-24457D01*
X77001Y-24500D01*
X76987Y-24557D01*
X76973Y-24586D01*
X76944Y-24615D01*
X76901Y-24629D01*
X76830Y-24629D01*
G54D12*
X69536Y-22829D02*
X69522Y-22843D01*
X69479Y-22857D01*
X69450Y-22857D01*
X69408Y-22843D01*
X69379Y-22814D01*
X69365Y-22786D01*
X69350Y-22729D01*
X69350Y-22686D01*
X69365Y-22629D01*
X69379Y-22600D01*
X69408Y-22571D01*
X69450Y-22557D01*
X69479Y-22557D01*
X69522Y-22571D01*
X69536Y-22586D01*
X69793Y-22657D02*
X69793Y-22857D01*
X69722Y-22543D02*
X69650Y-22757D01*
X69836Y-22757D01*
X69590Y-23251D02*
X69419Y-23251D01*
X69504Y-23251D02*
X69504Y-22951D01*
X69476Y-22994D01*
X69447Y-23022D01*
X69419Y-23037D01*
X69776Y-22951D02*
X69804Y-22951D01*
X69833Y-22965D01*
X69847Y-22979D01*
X69862Y-23008D01*
X69876Y-23065D01*
X69876Y-23137D01*
X69862Y-23194D01*
X69847Y-23222D01*
X69833Y-23237D01*
X69804Y-23251D01*
X69776Y-23251D01*
X69747Y-23237D01*
X69733Y-23222D01*
X69719Y-23194D01*
X69704Y-23137D01*
X69704Y-23065D01*
X69719Y-23008D01*
X69733Y-22979D01*
X69747Y-22965D01*
X69776Y-22951D01*
X70133Y-23051D02*
X70133Y-23251D01*
X70004Y-23051D02*
X70004Y-23208D01*
X70019Y-23237D01*
X70047Y-23251D01*
X70090Y-23251D01*
X70119Y-23237D01*
X70133Y-23222D01*
G54D18*
X72325Y-22207D02*
X72316Y-22217D01*
X72290Y-22226D01*
X72273Y-22226D01*
X72248Y-22217D01*
X72230Y-22198D01*
X72222Y-22179D01*
X72213Y-22140D01*
X72213Y-22112D01*
X72222Y-22074D01*
X72230Y-22055D01*
X72248Y-22036D01*
X72273Y-22026D01*
X72290Y-22026D01*
X72316Y-22036D01*
X72325Y-22045D01*
X72496Y-22226D02*
X72393Y-22226D01*
X72445Y-22226D02*
X72445Y-22026D01*
X72428Y-22055D01*
X72410Y-22074D01*
X72393Y-22083D01*
X72565Y-22045D02*
X72573Y-22036D01*
X72590Y-22026D01*
X72633Y-22026D01*
X72650Y-22036D01*
X72659Y-22045D01*
X72668Y-22064D01*
X72668Y-22083D01*
X72659Y-22112D01*
X72556Y-22226D01*
X72668Y-22226D01*
X72337Y-22521D02*
X72235Y-22521D01*
X72286Y-22521D02*
X72286Y-22321D01*
X72269Y-22350D01*
X72252Y-22369D01*
X72235Y-22379D01*
X72449Y-22321D02*
X72466Y-22321D01*
X72483Y-22331D01*
X72492Y-22340D01*
X72500Y-22359D01*
X72509Y-22398D01*
X72509Y-22445D01*
X72500Y-22483D01*
X72492Y-22502D01*
X72483Y-22512D01*
X72466Y-22521D01*
X72449Y-22521D01*
X72432Y-22512D01*
X72423Y-22502D01*
X72415Y-22483D01*
X72406Y-22445D01*
X72406Y-22398D01*
X72415Y-22359D01*
X72423Y-22340D01*
X72432Y-22331D01*
X72449Y-22321D01*
X72620Y-22321D02*
X72637Y-22321D01*
X72655Y-22331D01*
X72663Y-22340D01*
X72672Y-22359D01*
X72680Y-22398D01*
X72680Y-22445D01*
X72672Y-22483D01*
X72663Y-22502D01*
X72655Y-22512D01*
X72637Y-22521D01*
X72620Y-22521D01*
X72603Y-22512D01*
X72595Y-22502D01*
X72586Y-22483D01*
X72577Y-22445D01*
X72577Y-22398D01*
X72586Y-22359D01*
X72595Y-22340D01*
X72603Y-22331D01*
X72620Y-22321D01*
X72757Y-22388D02*
X72757Y-22521D01*
X72757Y-22407D02*
X72766Y-22398D01*
X72783Y-22388D01*
X72809Y-22388D01*
X72826Y-22398D01*
X72835Y-22417D01*
X72835Y-22521D01*
X73985Y-21518D02*
X73977Y-21528D01*
X73951Y-21537D01*
X73934Y-21537D01*
X73908Y-21528D01*
X73891Y-21509D01*
X73882Y-21490D01*
X73874Y-21451D01*
X73874Y-21423D01*
X73882Y-21385D01*
X73891Y-21366D01*
X73908Y-21347D01*
X73934Y-21337D01*
X73951Y-21337D01*
X73977Y-21347D01*
X73985Y-21356D01*
X74071Y-21537D02*
X74105Y-21537D01*
X74122Y-21528D01*
X74131Y-21518D01*
X74148Y-21490D01*
X74157Y-21451D01*
X74157Y-21375D01*
X74148Y-21356D01*
X74140Y-21347D01*
X74122Y-21337D01*
X74088Y-21337D01*
X74071Y-21347D01*
X74062Y-21356D01*
X74054Y-21375D01*
X74054Y-21423D01*
X74062Y-21442D01*
X74071Y-21451D01*
X74088Y-21461D01*
X74122Y-21461D01*
X74140Y-21451D01*
X74148Y-21442D01*
X74157Y-21423D01*
X73715Y-21832D02*
X73613Y-21832D01*
X73664Y-21832D02*
X73664Y-21632D01*
X73647Y-21661D01*
X73630Y-21680D01*
X73613Y-21690D01*
X73827Y-21632D02*
X73844Y-21632D01*
X73861Y-21642D01*
X73870Y-21651D01*
X73878Y-21671D01*
X73887Y-21709D01*
X73887Y-21756D01*
X73878Y-21794D01*
X73870Y-21813D01*
X73861Y-21823D01*
X73844Y-21832D01*
X73827Y-21832D01*
X73810Y-21823D01*
X73801Y-21813D01*
X73793Y-21794D01*
X73784Y-21756D01*
X73784Y-21709D01*
X73793Y-21671D01*
X73801Y-21651D01*
X73810Y-21642D01*
X73827Y-21632D01*
X73998Y-21632D02*
X74015Y-21632D01*
X74033Y-21642D01*
X74041Y-21651D01*
X74050Y-21671D01*
X74058Y-21709D01*
X74058Y-21756D01*
X74050Y-21794D01*
X74041Y-21813D01*
X74033Y-21823D01*
X74015Y-21832D01*
X73998Y-21832D01*
X73981Y-21823D01*
X73973Y-21813D01*
X73964Y-21794D01*
X73955Y-21756D01*
X73955Y-21709D01*
X73964Y-21671D01*
X73973Y-21651D01*
X73981Y-21642D01*
X73998Y-21632D01*
X74135Y-21699D02*
X74135Y-21832D01*
X74135Y-21718D02*
X74144Y-21709D01*
X74161Y-21699D01*
X74187Y-21699D01*
X74204Y-21709D01*
X74213Y-21728D01*
X74213Y-21832D01*
X70848Y-21518D02*
X70840Y-21528D01*
X70814Y-21537D01*
X70797Y-21537D01*
X70771Y-21528D01*
X70754Y-21509D01*
X70745Y-21490D01*
X70737Y-21451D01*
X70737Y-21423D01*
X70745Y-21385D01*
X70754Y-21366D01*
X70771Y-21347D01*
X70797Y-21337D01*
X70814Y-21337D01*
X70840Y-21347D01*
X70848Y-21356D01*
X71020Y-21537D02*
X70917Y-21537D01*
X70968Y-21537D02*
X70968Y-21337D01*
X70951Y-21366D01*
X70934Y-21385D01*
X70917Y-21394D01*
X71191Y-21537D02*
X71088Y-21537D01*
X71140Y-21537D02*
X71140Y-21337D01*
X71123Y-21366D01*
X71105Y-21385D01*
X71088Y-21394D01*
X70861Y-21832D02*
X70758Y-21832D01*
X70810Y-21832D02*
X70810Y-21632D01*
X70792Y-21661D01*
X70775Y-21680D01*
X70758Y-21690D01*
X70972Y-21632D02*
X70990Y-21632D01*
X71007Y-21642D01*
X71015Y-21651D01*
X71024Y-21671D01*
X71032Y-21709D01*
X71032Y-21756D01*
X71024Y-21794D01*
X71015Y-21813D01*
X71007Y-21823D01*
X70990Y-21832D01*
X70972Y-21832D01*
X70955Y-21823D01*
X70947Y-21813D01*
X70938Y-21794D01*
X70930Y-21756D01*
X70930Y-21709D01*
X70938Y-21671D01*
X70947Y-21651D01*
X70955Y-21642D01*
X70972Y-21632D01*
X71144Y-21632D02*
X71161Y-21632D01*
X71178Y-21642D01*
X71187Y-21651D01*
X71195Y-21671D01*
X71204Y-21709D01*
X71204Y-21756D01*
X71195Y-21794D01*
X71187Y-21813D01*
X71178Y-21823D01*
X71161Y-21832D01*
X71144Y-21832D01*
X71127Y-21823D01*
X71118Y-21813D01*
X71110Y-21794D01*
X71101Y-21756D01*
X71101Y-21709D01*
X71110Y-21671D01*
X71118Y-21651D01*
X71127Y-21642D01*
X71144Y-21632D01*
X71281Y-21699D02*
X71281Y-21832D01*
X71281Y-21718D02*
X71290Y-21709D01*
X71307Y-21699D01*
X71332Y-21699D01*
X71350Y-21709D01*
X71358Y-21728D01*
X71358Y-21832D01*
G54D20*
X81357Y-16594D02*
X81357Y-17081D01*
X81336Y-17178D01*
X81296Y-17243D01*
X81235Y-17275D01*
X81194Y-17275D01*
X81520Y-16594D02*
X81805Y-16594D01*
X81622Y-17275D01*
G54D14*
X81328Y-26790D02*
X81328Y-26923D01*
X81642Y-26923D02*
X81042Y-26923D01*
X81042Y-26733D01*
X81042Y-26638D02*
X81042Y-26409D01*
X81642Y-26523D02*
X81042Y-26523D01*
X81642Y-26276D02*
X81042Y-26276D01*
X81042Y-26180D01*
X81071Y-26123D01*
X81128Y-26085D01*
X81185Y-26066D01*
X81300Y-26047D01*
X81385Y-26047D01*
X81500Y-26066D01*
X81557Y-26085D01*
X81614Y-26123D01*
X81642Y-26180D01*
X81642Y-26276D01*
X81642Y-25876D02*
X81042Y-25876D01*
G54D20*
X58846Y-16374D02*
X58846Y-16861D01*
X58825Y-16958D01*
X58785Y-17023D01*
X58723Y-17055D01*
X58683Y-17055D01*
X59009Y-16374D02*
X59274Y-16374D01*
X59131Y-16634D01*
X59192Y-16634D01*
X59233Y-16666D01*
X59253Y-16699D01*
X59274Y-16764D01*
X59274Y-16926D01*
X59253Y-16991D01*
X59233Y-17023D01*
X59192Y-17055D01*
X59070Y-17055D01*
X59029Y-17023D01*
X59009Y-16991D01*
G54D14*
X59185Y-30414D02*
X59214Y-30433D01*
X59242Y-30490D01*
X59242Y-30528D01*
X59214Y-30585D01*
X59157Y-30623D01*
X59100Y-30642D01*
X58985Y-30661D01*
X58900Y-30661D01*
X58785Y-30642D01*
X58728Y-30623D01*
X58671Y-30585D01*
X58642Y-30528D01*
X58642Y-30490D01*
X58671Y-30433D01*
X58700Y-30414D01*
X58642Y-30166D02*
X58642Y-30090D01*
X58671Y-30052D01*
X58728Y-30014D01*
X58842Y-29995D01*
X59042Y-29995D01*
X59157Y-30014D01*
X59214Y-30052D01*
X59242Y-30090D01*
X59242Y-30166D01*
X59214Y-30204D01*
X59157Y-30242D01*
X59042Y-30261D01*
X58842Y-30261D01*
X58728Y-30242D01*
X58671Y-30204D01*
X58642Y-30166D01*
X59242Y-29823D02*
X58642Y-29823D01*
X59071Y-29690D01*
X58642Y-29557D01*
X59242Y-29557D01*
X59242Y-28833D02*
X58957Y-28966D01*
X59242Y-29061D02*
X58642Y-29061D01*
X58642Y-28909D01*
X58671Y-28871D01*
X58700Y-28852D01*
X58757Y-28833D01*
X58842Y-28833D01*
X58900Y-28852D01*
X58928Y-28871D01*
X58957Y-28909D01*
X58957Y-29061D01*
X59242Y-28661D02*
X58642Y-28661D01*
X58671Y-28261D02*
X58642Y-28300D01*
X58642Y-28357D01*
X58671Y-28414D01*
X58728Y-28452D01*
X58785Y-28471D01*
X58900Y-28490D01*
X58985Y-28490D01*
X59100Y-28471D01*
X59157Y-28452D01*
X59214Y-28414D01*
X59242Y-28357D01*
X59242Y-28319D01*
X59214Y-28261D01*
X59185Y-28242D01*
X58985Y-28242D01*
X58985Y-28319D01*
X59242Y-28071D02*
X58642Y-28071D01*
X58928Y-28071D02*
X58928Y-27842D01*
X59242Y-27842D02*
X58642Y-27842D01*
X58642Y-27709D02*
X58642Y-27480D01*
X59242Y-27595D02*
X58642Y-27595D01*
X59185Y-26814D02*
X59214Y-26833D01*
X59242Y-26890D01*
X59242Y-26928D01*
X59214Y-26985D01*
X59157Y-27023D01*
X59100Y-27042D01*
X58985Y-27061D01*
X58900Y-27061D01*
X58785Y-27042D01*
X58728Y-27023D01*
X58671Y-26985D01*
X58642Y-26928D01*
X58642Y-26890D01*
X58671Y-26833D01*
X58700Y-26814D01*
X58642Y-26566D02*
X58642Y-26490D01*
X58671Y-26452D01*
X58728Y-26414D01*
X58842Y-26395D01*
X59042Y-26395D01*
X59157Y-26414D01*
X59214Y-26452D01*
X59242Y-26490D01*
X59242Y-26566D01*
X59214Y-26604D01*
X59157Y-26642D01*
X59042Y-26661D01*
X58842Y-26661D01*
X58728Y-26642D01*
X58671Y-26604D01*
X58642Y-26566D01*
X59242Y-26223D02*
X58642Y-26223D01*
X59071Y-26090D01*
X58642Y-25957D01*
X59242Y-25957D01*
G54D20*
X57614Y-16374D02*
X57614Y-16861D01*
X57593Y-16958D01*
X57553Y-17023D01*
X57491Y-17055D01*
X57451Y-17055D01*
X57797Y-16439D02*
X57818Y-16407D01*
X57858Y-16374D01*
X57960Y-16374D01*
X58001Y-16407D01*
X58021Y-16439D01*
X58042Y-16504D01*
X58042Y-16569D01*
X58021Y-16666D01*
X57777Y-17055D01*
X58042Y-17055D01*
G54D14*
X58085Y-30023D02*
X58114Y-30042D01*
X58142Y-30100D01*
X58142Y-30138D01*
X58114Y-30195D01*
X58057Y-30233D01*
X58000Y-30252D01*
X57885Y-30271D01*
X57800Y-30271D01*
X57685Y-30252D01*
X57628Y-30233D01*
X57571Y-30195D01*
X57542Y-30138D01*
X57542Y-30100D01*
X57571Y-30042D01*
X57600Y-30023D01*
X57542Y-29776D02*
X57542Y-29700D01*
X57571Y-29661D01*
X57628Y-29623D01*
X57742Y-29604D01*
X57942Y-29604D01*
X58057Y-29623D01*
X58114Y-29661D01*
X58142Y-29700D01*
X58142Y-29776D01*
X58114Y-29814D01*
X58057Y-29852D01*
X57942Y-29871D01*
X57742Y-29871D01*
X57628Y-29852D01*
X57571Y-29814D01*
X57542Y-29776D01*
X58142Y-29433D02*
X57542Y-29433D01*
X57971Y-29300D01*
X57542Y-29166D01*
X58142Y-29166D01*
X58142Y-28480D02*
X58142Y-28671D01*
X57542Y-28671D01*
X57828Y-28347D02*
X57828Y-28214D01*
X58142Y-28157D02*
X58142Y-28347D01*
X57542Y-28347D01*
X57542Y-28157D01*
X57828Y-27852D02*
X57828Y-27985D01*
X58142Y-27985D02*
X57542Y-27985D01*
X57542Y-27795D01*
X57542Y-27700D02*
X57542Y-27471D01*
X58142Y-27585D02*
X57542Y-27585D01*
X58085Y-26804D02*
X58114Y-26823D01*
X58142Y-26880D01*
X58142Y-26919D01*
X58114Y-26976D01*
X58057Y-27014D01*
X58000Y-27033D01*
X57885Y-27052D01*
X57800Y-27052D01*
X57685Y-27033D01*
X57628Y-27014D01*
X57571Y-26976D01*
X57542Y-26919D01*
X57542Y-26880D01*
X57571Y-26823D01*
X57600Y-26804D01*
X57542Y-26557D02*
X57542Y-26480D01*
X57571Y-26442D01*
X57628Y-26404D01*
X57742Y-26385D01*
X57942Y-26385D01*
X58057Y-26404D01*
X58114Y-26442D01*
X58142Y-26480D01*
X58142Y-26557D01*
X58114Y-26595D01*
X58057Y-26633D01*
X57942Y-26652D01*
X57742Y-26652D01*
X57628Y-26633D01*
X57571Y-26595D01*
X57542Y-26557D01*
X58142Y-26214D02*
X57542Y-26214D01*
X57971Y-26080D01*
X57542Y-25947D01*
X58142Y-25947D01*
G54D20*
X82257Y-16594D02*
X82257Y-17081D01*
X82236Y-17178D01*
X82196Y-17243D01*
X82135Y-17275D01*
X82094Y-17275D01*
X82522Y-16886D02*
X82481Y-16854D01*
X82461Y-16821D01*
X82440Y-16756D01*
X82440Y-16724D01*
X82461Y-16659D01*
X82481Y-16627D01*
X82522Y-16594D01*
X82603Y-16594D01*
X82644Y-16627D01*
X82664Y-16659D01*
X82685Y-16724D01*
X82685Y-16756D01*
X82664Y-16821D01*
X82644Y-16854D01*
X82603Y-16886D01*
X82522Y-16886D01*
X82481Y-16918D01*
X82461Y-16951D01*
X82440Y-17016D01*
X82440Y-17145D01*
X82461Y-17210D01*
X82481Y-17243D01*
X82522Y-17275D01*
X82603Y-17275D01*
X82644Y-17243D01*
X82664Y-17210D01*
X82685Y-17145D01*
X82685Y-17016D01*
X82664Y-16951D01*
X82644Y-16918D01*
X82603Y-16886D01*
G54D14*
X82785Y-30295D02*
X82814Y-30314D01*
X82842Y-30371D01*
X82842Y-30409D01*
X82814Y-30466D01*
X82757Y-30504D01*
X82700Y-30523D01*
X82585Y-30542D01*
X82500Y-30542D01*
X82385Y-30523D01*
X82328Y-30504D01*
X82271Y-30466D01*
X82242Y-30409D01*
X82242Y-30371D01*
X82271Y-30314D01*
X82300Y-30295D01*
X82242Y-30047D02*
X82242Y-29971D01*
X82271Y-29933D01*
X82328Y-29895D01*
X82442Y-29876D01*
X82642Y-29876D01*
X82757Y-29895D01*
X82814Y-29933D01*
X82842Y-29971D01*
X82842Y-30047D01*
X82814Y-30085D01*
X82757Y-30123D01*
X82642Y-30142D01*
X82442Y-30142D01*
X82328Y-30123D01*
X82271Y-30085D01*
X82242Y-30047D01*
X82842Y-29704D02*
X82242Y-29704D01*
X82671Y-29571D01*
X82242Y-29438D01*
X82842Y-29438D01*
X82842Y-28714D02*
X82557Y-28847D01*
X82842Y-28942D02*
X82242Y-28942D01*
X82242Y-28790D01*
X82271Y-28752D01*
X82300Y-28733D01*
X82357Y-28714D01*
X82442Y-28714D01*
X82500Y-28733D01*
X82528Y-28752D01*
X82557Y-28790D01*
X82557Y-28942D01*
X82842Y-28542D02*
X82242Y-28542D01*
X82271Y-28142D02*
X82242Y-28180D01*
X82242Y-28238D01*
X82271Y-28295D01*
X82328Y-28333D01*
X82385Y-28352D01*
X82500Y-28371D01*
X82585Y-28371D01*
X82700Y-28352D01*
X82757Y-28333D01*
X82814Y-28295D01*
X82842Y-28238D01*
X82842Y-28200D01*
X82814Y-28142D01*
X82785Y-28123D01*
X82585Y-28123D01*
X82585Y-28200D01*
X82842Y-27952D02*
X82242Y-27952D01*
X82528Y-27952D02*
X82528Y-27723D01*
X82842Y-27723D02*
X82242Y-27723D01*
X82242Y-27590D02*
X82242Y-27361D01*
X82842Y-27476D02*
X82242Y-27476D01*
X82528Y-26790D02*
X82528Y-26923D01*
X82842Y-26923D02*
X82242Y-26923D01*
X82242Y-26733D01*
X82242Y-26638D02*
X82242Y-26409D01*
X82842Y-26523D02*
X82242Y-26523D01*
X82842Y-26276D02*
X82242Y-26276D01*
X82242Y-26180D01*
X82271Y-26123D01*
X82328Y-26085D01*
X82385Y-26066D01*
X82500Y-26047D01*
X82585Y-26047D01*
X82700Y-26066D01*
X82757Y-26085D01*
X82814Y-26123D01*
X82842Y-26180D01*
X82842Y-26276D01*
X82842Y-25876D02*
X82242Y-25876D01*
G54D20*
X66757Y-15294D02*
X66757Y-15781D01*
X66736Y-15878D01*
X66696Y-15943D01*
X66635Y-15975D01*
X66594Y-15975D01*
X67144Y-15521D02*
X67144Y-15975D01*
X67042Y-15262D02*
X66940Y-15748D01*
X67205Y-15748D01*
G54D16*
G54D14*
X73061Y-15242D02*
X73061Y-15728D01*
X73080Y-15785D01*
X73100Y-15814D01*
X73138Y-15842D01*
X73214Y-15842D01*
X73252Y-15814D01*
X73271Y-15785D01*
X73290Y-15728D01*
X73290Y-15242D01*
X73461Y-15671D02*
X73652Y-15671D01*
X73423Y-15842D02*
X73557Y-15242D01*
X73690Y-15842D01*
X74052Y-15842D02*
X73919Y-15557D01*
X73823Y-15842D02*
X73823Y-15242D01*
X73976Y-15242D01*
X74014Y-15271D01*
X74033Y-15300D01*
X74052Y-15357D01*
X74052Y-15442D01*
X74033Y-15500D01*
X74014Y-15528D01*
X73976Y-15557D01*
X73823Y-15557D01*
X74166Y-15242D02*
X74395Y-15242D01*
X74280Y-15842D02*
X74280Y-15242D01*
G54D16*
G54D17*
X74085Y-24882D02*
X74020Y-24789D01*
X73973Y-24882D02*
X73973Y-24685D01*
X74048Y-24685D01*
X74067Y-24695D01*
X74076Y-24704D01*
X74085Y-24723D01*
X74085Y-24751D01*
X74076Y-24770D01*
X74067Y-24779D01*
X74048Y-24789D01*
X73973Y-24789D01*
X74273Y-24882D02*
X74161Y-24882D01*
X74217Y-24882D02*
X74217Y-24685D01*
X74198Y-24714D01*
X74179Y-24732D01*
X74161Y-24742D01*
X74442Y-24751D02*
X74442Y-24882D01*
X74395Y-24676D02*
X74348Y-24817D01*
X74470Y-24817D01*
X75145Y-25051D02*
X75276Y-25051D01*
X75070Y-25098D02*
X75210Y-25145D01*
X75210Y-25023D01*
X75079Y-24967D02*
X75079Y-24835D01*
X75276Y-24920D01*
X75079Y-24723D02*
X75079Y-24704D01*
X75088Y-24685D01*
X75098Y-24676D01*
X75117Y-24667D01*
X75154Y-24657D01*
X75201Y-24657D01*
X75239Y-24667D01*
X75257Y-24676D01*
X75267Y-24685D01*
X75276Y-24704D01*
X75276Y-24723D01*
X75267Y-24742D01*
X75257Y-24751D01*
X75239Y-24760D01*
X75201Y-24770D01*
X75154Y-24770D01*
X75117Y-24760D01*
X75098Y-24751D01*
X75088Y-24742D01*
X75079Y-24723D01*
X75276Y-24460D02*
X75182Y-24526D01*
X75276Y-24573D02*
X75079Y-24573D01*
X75079Y-24498D01*
X75088Y-24479D01*
X75098Y-24470D01*
X75117Y-24460D01*
X75145Y-24460D01*
X75164Y-24470D01*
X75173Y-24479D01*
X75182Y-24498D01*
X75182Y-24573D01*
X74085Y-21241D02*
X74020Y-21147D01*
X73973Y-21241D02*
X73973Y-21044D01*
X74048Y-21044D01*
X74067Y-21053D01*
X74076Y-21062D01*
X74085Y-21081D01*
X74085Y-21109D01*
X74076Y-21128D01*
X74067Y-21137D01*
X74048Y-21147D01*
X73973Y-21147D01*
X74273Y-21241D02*
X74161Y-21241D01*
X74217Y-21241D02*
X74217Y-21044D01*
X74198Y-21072D01*
X74179Y-21091D01*
X74161Y-21100D01*
X74339Y-21044D02*
X74461Y-21044D01*
X74395Y-21119D01*
X74423Y-21119D01*
X74442Y-21128D01*
X74451Y-21137D01*
X74461Y-21156D01*
X74461Y-21203D01*
X74451Y-21222D01*
X74442Y-21231D01*
X74423Y-21241D01*
X74367Y-21241D01*
X74348Y-21231D01*
X74339Y-21222D01*
X75145Y-21410D02*
X75276Y-21410D01*
X75070Y-21456D02*
X75210Y-21503D01*
X75210Y-21381D01*
X75079Y-21325D02*
X75079Y-21194D01*
X75276Y-21278D01*
X75079Y-21081D02*
X75079Y-21062D01*
X75088Y-21044D01*
X75098Y-21034D01*
X75117Y-21025D01*
X75154Y-21016D01*
X75201Y-21016D01*
X75239Y-21025D01*
X75257Y-21034D01*
X75267Y-21044D01*
X75276Y-21062D01*
X75276Y-21081D01*
X75267Y-21100D01*
X75257Y-21109D01*
X75239Y-21119D01*
X75201Y-21128D01*
X75154Y-21128D01*
X75117Y-21119D01*
X75098Y-21109D01*
X75088Y-21100D01*
X75079Y-21081D01*
X75276Y-20819D02*
X75182Y-20884D01*
X75276Y-20931D02*
X75079Y-20931D01*
X75079Y-20856D01*
X75088Y-20837D01*
X75098Y-20828D01*
X75117Y-20819D01*
X75145Y-20819D01*
X75164Y-20828D01*
X75173Y-20837D01*
X75182Y-20856D01*
X75182Y-20931D01*
X74085Y-22520D02*
X74020Y-22426D01*
X73973Y-22520D02*
X73973Y-22323D01*
X74048Y-22323D01*
X74067Y-22333D01*
X74076Y-22342D01*
X74085Y-22361D01*
X74085Y-22389D01*
X74076Y-22408D01*
X74067Y-22417D01*
X74048Y-22426D01*
X73973Y-22426D01*
X74273Y-22520D02*
X74161Y-22520D01*
X74217Y-22520D02*
X74217Y-22323D01*
X74198Y-22351D01*
X74179Y-22370D01*
X74161Y-22379D01*
X74348Y-22342D02*
X74358Y-22333D01*
X74376Y-22323D01*
X74423Y-22323D01*
X74442Y-22333D01*
X74451Y-22342D01*
X74461Y-22361D01*
X74461Y-22379D01*
X74451Y-22408D01*
X74339Y-22520D01*
X74461Y-22520D01*
X75145Y-22689D02*
X75276Y-22689D01*
X75070Y-22736D02*
X75210Y-22783D01*
X75210Y-22661D01*
X75079Y-22605D02*
X75079Y-22473D01*
X75276Y-22558D01*
X75079Y-22361D02*
X75079Y-22342D01*
X75088Y-22323D01*
X75098Y-22314D01*
X75117Y-22304D01*
X75154Y-22295D01*
X75201Y-22295D01*
X75239Y-22304D01*
X75257Y-22314D01*
X75267Y-22323D01*
X75276Y-22342D01*
X75276Y-22361D01*
X75267Y-22379D01*
X75257Y-22389D01*
X75239Y-22398D01*
X75201Y-22408D01*
X75154Y-22408D01*
X75117Y-22398D01*
X75098Y-22389D01*
X75088Y-22379D01*
X75079Y-22361D01*
X75276Y-22098D02*
X75182Y-22164D01*
X75276Y-22211D02*
X75079Y-22211D01*
X75079Y-22136D01*
X75088Y-22117D01*
X75098Y-22107D01*
X75117Y-22098D01*
X75145Y-22098D01*
X75164Y-22107D01*
X75173Y-22117D01*
X75182Y-22136D01*
X75182Y-22211D01*
G54D12*
X67129Y-28833D02*
X67115Y-28847D01*
X67072Y-28861D01*
X67044Y-28861D01*
X67001Y-28847D01*
X66972Y-28818D01*
X66958Y-28790D01*
X66944Y-28733D01*
X66944Y-28690D01*
X66958Y-28633D01*
X66972Y-28604D01*
X67001Y-28575D01*
X67044Y-28561D01*
X67072Y-28561D01*
X67115Y-28575D01*
X67129Y-28590D01*
X67415Y-28861D02*
X67244Y-28861D01*
X67329Y-28861D02*
X67329Y-28561D01*
X67301Y-28604D01*
X67272Y-28633D01*
X67244Y-28647D01*
X67687Y-28561D02*
X67544Y-28561D01*
X67529Y-28704D01*
X67544Y-28690D01*
X67572Y-28675D01*
X67644Y-28675D01*
X67672Y-28690D01*
X67687Y-28704D01*
X67701Y-28733D01*
X67701Y-28804D01*
X67687Y-28833D01*
X67672Y-28847D01*
X67644Y-28861D01*
X67572Y-28861D01*
X67544Y-28847D01*
X67529Y-28833D01*
X67101Y-29153D02*
X67101Y-29353D01*
X67029Y-29039D02*
X66958Y-29253D01*
X67144Y-29253D01*
X67258Y-29153D02*
X67258Y-29353D01*
X67258Y-29182D02*
X67272Y-29167D01*
X67301Y-29153D01*
X67344Y-29153D01*
X67372Y-29167D01*
X67387Y-29196D01*
X67387Y-29353D01*
X67501Y-29053D02*
X67701Y-29053D01*
X67572Y-29353D01*
X66750Y-25321D02*
X66650Y-25178D01*
X66578Y-25321D02*
X66578Y-25021D01*
X66692Y-25021D01*
X66721Y-25035D01*
X66735Y-25050D01*
X66750Y-25078D01*
X66750Y-25121D01*
X66735Y-25150D01*
X66721Y-25164D01*
X66692Y-25178D01*
X66578Y-25178D01*
X66921Y-25150D02*
X66892Y-25135D01*
X66878Y-25121D01*
X66864Y-25092D01*
X66864Y-25078D01*
X66878Y-25050D01*
X66892Y-25035D01*
X66921Y-25021D01*
X66978Y-25021D01*
X67007Y-25035D01*
X67021Y-25050D01*
X67035Y-25078D01*
X67035Y-25092D01*
X67021Y-25121D01*
X67007Y-25135D01*
X66978Y-25150D01*
X66921Y-25150D01*
X66892Y-25164D01*
X66878Y-25178D01*
X66864Y-25207D01*
X66864Y-25264D01*
X66878Y-25292D01*
X66892Y-25307D01*
X66921Y-25321D01*
X66978Y-25321D01*
X67007Y-25307D01*
X67021Y-25292D01*
X67035Y-25264D01*
X67035Y-25207D01*
X67021Y-25178D01*
X67007Y-25164D01*
X66978Y-25150D01*
X66121Y-25621D02*
X66121Y-25821D01*
X66050Y-25507D02*
X65978Y-25721D01*
X66164Y-25721D01*
X66250Y-25521D02*
X66450Y-25521D01*
X66321Y-25821D01*
X66621Y-25521D02*
X66650Y-25521D01*
X66678Y-25535D01*
X66692Y-25550D01*
X66707Y-25578D01*
X66721Y-25635D01*
X66721Y-25707D01*
X66707Y-25764D01*
X66692Y-25792D01*
X66678Y-25807D01*
X66650Y-25821D01*
X66621Y-25821D01*
X66592Y-25807D01*
X66578Y-25792D01*
X66564Y-25764D01*
X66550Y-25707D01*
X66550Y-25635D01*
X66564Y-25578D01*
X66578Y-25550D01*
X66592Y-25535D01*
X66621Y-25521D01*
X67021Y-25821D02*
X66921Y-25678D01*
X66850Y-25821D02*
X66850Y-25521D01*
X66964Y-25521D01*
X66992Y-25535D01*
X67007Y-25550D01*
X67021Y-25578D01*
X67021Y-25621D01*
X67007Y-25650D01*
X66992Y-25664D01*
X66964Y-25678D01*
X66850Y-25678D01*
X63974Y-28802D02*
X63874Y-28802D01*
X63874Y-28960D02*
X63874Y-28660D01*
X64017Y-28660D01*
X64117Y-28688D02*
X64131Y-28674D01*
X64160Y-28660D01*
X64231Y-28660D01*
X64260Y-28674D01*
X64274Y-28688D01*
X64289Y-28717D01*
X64289Y-28745D01*
X64274Y-28788D01*
X64103Y-28960D01*
X64289Y-28960D01*
X63138Y-29152D02*
X62995Y-29152D01*
X62981Y-29294D01*
X62995Y-29280D01*
X63023Y-29266D01*
X63095Y-29266D01*
X63123Y-29280D01*
X63138Y-29294D01*
X63152Y-29323D01*
X63152Y-29394D01*
X63138Y-29423D01*
X63123Y-29437D01*
X63095Y-29452D01*
X63023Y-29452D01*
X62995Y-29437D01*
X62981Y-29423D01*
X63338Y-29152D02*
X63366Y-29152D01*
X63395Y-29166D01*
X63409Y-29180D01*
X63423Y-29209D01*
X63438Y-29266D01*
X63438Y-29337D01*
X63423Y-29394D01*
X63409Y-29423D01*
X63395Y-29437D01*
X63366Y-29452D01*
X63338Y-29452D01*
X63309Y-29437D01*
X63295Y-29423D01*
X63281Y-29394D01*
X63266Y-29337D01*
X63266Y-29266D01*
X63281Y-29209D01*
X63295Y-29180D01*
X63309Y-29166D01*
X63338Y-29152D01*
X63623Y-29152D02*
X63652Y-29152D01*
X63681Y-29166D01*
X63695Y-29180D01*
X63709Y-29209D01*
X63723Y-29266D01*
X63723Y-29337D01*
X63709Y-29394D01*
X63695Y-29423D01*
X63681Y-29437D01*
X63652Y-29452D01*
X63623Y-29452D01*
X63595Y-29437D01*
X63581Y-29423D01*
X63566Y-29394D01*
X63552Y-29337D01*
X63552Y-29266D01*
X63566Y-29209D01*
X63581Y-29180D01*
X63595Y-29166D01*
X63623Y-29152D01*
X63852Y-29452D02*
X63852Y-29252D01*
X63852Y-29280D02*
X63866Y-29266D01*
X63895Y-29252D01*
X63938Y-29252D01*
X63966Y-29266D01*
X63981Y-29294D01*
X63981Y-29452D01*
X63981Y-29294D02*
X63995Y-29266D01*
X64023Y-29252D01*
X64066Y-29252D01*
X64095Y-29266D01*
X64109Y-29294D01*
X64109Y-29452D01*
X64238Y-29366D02*
X64381Y-29366D01*
X64209Y-29452D02*
X64309Y-29152D01*
X64409Y-29452D01*
G54D19*
X68577Y-17837D02*
X68577Y-17537D01*
X68649Y-17537D01*
X68692Y-17552D01*
X68720Y-17580D01*
X68734Y-17609D01*
X68749Y-17666D01*
X68749Y-17709D01*
X68734Y-17766D01*
X68720Y-17795D01*
X68692Y-17823D01*
X68649Y-17837D01*
X68577Y-17837D01*
X69034Y-17837D02*
X68863Y-17837D01*
X68949Y-17837D02*
X68949Y-17537D01*
X68920Y-17580D01*
X68892Y-17609D01*
X68863Y-17623D01*
X69098Y-20101D02*
X68998Y-19958D01*
X68927Y-20101D02*
X68927Y-19801D01*
X69041Y-19801D01*
X69069Y-19816D01*
X69084Y-19830D01*
X69098Y-19858D01*
X69098Y-19901D01*
X69084Y-19930D01*
X69069Y-19944D01*
X69041Y-19958D01*
X68927Y-19958D01*
X69227Y-19944D02*
X69327Y-19944D01*
X69369Y-20101D02*
X69227Y-20101D01*
X69227Y-19801D01*
X69369Y-19801D01*
X69498Y-20101D02*
X69498Y-19801D01*
X69569Y-19801D01*
X69612Y-19816D01*
X69641Y-19844D01*
X69655Y-19873D01*
X69669Y-19930D01*
X69669Y-19973D01*
X69655Y-20030D01*
X69641Y-20058D01*
X69612Y-20087D01*
X69569Y-20101D01*
X69498Y-20101D01*
X71530Y-17837D02*
X71530Y-17537D01*
X71601Y-17537D01*
X71644Y-17552D01*
X71673Y-17580D01*
X71687Y-17609D01*
X71701Y-17666D01*
X71701Y-17709D01*
X71687Y-17766D01*
X71673Y-17795D01*
X71644Y-17823D01*
X71601Y-17837D01*
X71530Y-17837D01*
X71816Y-17566D02*
X71830Y-17552D01*
X71859Y-17537D01*
X71930Y-17537D01*
X71959Y-17552D01*
X71973Y-17566D01*
X71987Y-17595D01*
X71987Y-17623D01*
X71973Y-17666D01*
X71801Y-17837D01*
X71987Y-17837D01*
X71547Y-19816D02*
X71518Y-19801D01*
X71475Y-19801D01*
X71432Y-19816D01*
X71404Y-19844D01*
X71390Y-19873D01*
X71375Y-19930D01*
X71375Y-19973D01*
X71390Y-20030D01*
X71404Y-20058D01*
X71432Y-20087D01*
X71475Y-20101D01*
X71504Y-20101D01*
X71547Y-20087D01*
X71561Y-20073D01*
X71561Y-19973D01*
X71504Y-19973D01*
X71861Y-20101D02*
X71761Y-19958D01*
X71690Y-20101D02*
X71690Y-19801D01*
X71804Y-19801D01*
X71832Y-19816D01*
X71847Y-19830D01*
X71861Y-19858D01*
X71861Y-19901D01*
X71847Y-19930D01*
X71832Y-19944D01*
X71804Y-19958D01*
X71690Y-19958D01*
X71990Y-19944D02*
X72090Y-19944D01*
X72132Y-20101D02*
X71990Y-20101D01*
X71990Y-19801D01*
X72132Y-19801D01*
X72261Y-19944D02*
X72361Y-19944D01*
X72404Y-20101D02*
X72261Y-20101D01*
X72261Y-19801D01*
X72404Y-19801D01*
X72532Y-20101D02*
X72532Y-19801D01*
X72704Y-20101D01*
X72704Y-19801D01*
G54D12*
X69550Y-25621D02*
X69407Y-25621D01*
X69407Y-25321D01*
X69807Y-25621D02*
X69635Y-25621D01*
X69721Y-25621D02*
X69721Y-25321D01*
X69692Y-25364D01*
X69664Y-25392D01*
X69635Y-25407D01*
X69550Y-26121D02*
X69378Y-26121D01*
X69464Y-26121D02*
X69464Y-25821D01*
X69435Y-25864D01*
X69407Y-25892D01*
X69378Y-25907D01*
X69821Y-25821D02*
X69678Y-25821D01*
X69664Y-25964D01*
X69678Y-25950D01*
X69707Y-25935D01*
X69778Y-25935D01*
X69807Y-25950D01*
X69821Y-25964D01*
X69835Y-25992D01*
X69835Y-26064D01*
X69821Y-26092D01*
X69807Y-26107D01*
X69778Y-26121D01*
X69707Y-26121D01*
X69678Y-26107D01*
X69664Y-26092D01*
X70092Y-25921D02*
X70092Y-26121D01*
X69964Y-25921D02*
X69964Y-26078D01*
X69978Y-26107D01*
X70007Y-26121D01*
X70050Y-26121D01*
X70078Y-26107D01*
X70092Y-26092D01*
X70235Y-26121D02*
X70235Y-25821D01*
X70235Y-25964D02*
X70407Y-25964D01*
X70407Y-26121D02*
X70407Y-25821D01*
G54D18*
X68388Y-16498D02*
X68379Y-16508D01*
X68353Y-16517D01*
X68336Y-16517D01*
X68311Y-16508D01*
X68293Y-16489D01*
X68285Y-16470D01*
X68276Y-16432D01*
X68276Y-16403D01*
X68285Y-16365D01*
X68293Y-16346D01*
X68311Y-16327D01*
X68336Y-16317D01*
X68353Y-16317D01*
X68379Y-16327D01*
X68388Y-16337D01*
X68559Y-16517D02*
X68456Y-16517D01*
X68508Y-16517D02*
X68508Y-16317D01*
X68491Y-16346D01*
X68473Y-16365D01*
X68456Y-16375D01*
X68713Y-16317D02*
X68679Y-16317D01*
X68662Y-16327D01*
X68653Y-16337D01*
X68636Y-16365D01*
X68628Y-16403D01*
X68628Y-16479D01*
X68636Y-16498D01*
X68645Y-16508D01*
X68662Y-16517D01*
X68696Y-16517D01*
X68713Y-16508D01*
X68722Y-16498D01*
X68731Y-16479D01*
X68731Y-16432D01*
X68722Y-16413D01*
X68713Y-16403D01*
X68696Y-16394D01*
X68662Y-16394D01*
X68645Y-16403D01*
X68636Y-16413D01*
X68628Y-16432D01*
X68400Y-16813D02*
X68298Y-16813D01*
X68349Y-16813D02*
X68349Y-16613D01*
X68332Y-16641D01*
X68315Y-16660D01*
X68298Y-16670D01*
X68512Y-16613D02*
X68529Y-16613D01*
X68546Y-16622D01*
X68555Y-16632D01*
X68563Y-16651D01*
X68572Y-16689D01*
X68572Y-16737D01*
X68563Y-16775D01*
X68555Y-16794D01*
X68546Y-16803D01*
X68529Y-16813D01*
X68512Y-16813D01*
X68495Y-16803D01*
X68486Y-16794D01*
X68478Y-16775D01*
X68469Y-16737D01*
X68469Y-16689D01*
X68478Y-16651D01*
X68486Y-16632D01*
X68495Y-16622D01*
X68512Y-16613D01*
X68683Y-16613D02*
X68700Y-16613D01*
X68718Y-16622D01*
X68726Y-16632D01*
X68735Y-16651D01*
X68743Y-16689D01*
X68743Y-16737D01*
X68735Y-16775D01*
X68726Y-16794D01*
X68718Y-16803D01*
X68700Y-16813D01*
X68683Y-16813D01*
X68666Y-16803D01*
X68658Y-16794D01*
X68649Y-16775D01*
X68640Y-16737D01*
X68640Y-16689D01*
X68649Y-16651D01*
X68658Y-16632D01*
X68666Y-16622D01*
X68683Y-16613D01*
X68820Y-16679D02*
X68820Y-16813D01*
X68820Y-16698D02*
X68829Y-16689D01*
X68846Y-16679D01*
X68872Y-16679D01*
X68889Y-16689D01*
X68898Y-16708D01*
X68898Y-16813D01*
M02*
