G04 (created by PCBNEW (2013-jul-07)-stable) date nie, 28 cze 2015, 22:06:29*
%MOIN*%
G04 Gerber Fmt 3.4, Leading zero omitted, Abs format*
%FSLAX34Y34*%
G01*
G70*
G90*
G04 APERTURE LIST*
%ADD10C,0.00590551*%
%ADD11R,0.08X0.06*%
%ADD12R,0.035X0.055*%
%ADD13R,0.045X0.025*%
%ADD14C,0.0590551*%
%ADD15C,0.15*%
%ADD16R,0.06X0.06*%
%ADD17C,0.06*%
%ADD18R,0.0590551X0.0590551*%
%ADD19C,0.0610236*%
%ADD20R,0.0610236X0.0610236*%
%ADD21R,0.025X0.045*%
%ADD22C,0.0472441*%
%ADD23C,0.0354331*%
%ADD24C,0.038*%
%ADD25C,0.01*%
%ADD26C,0.014*%
G04 APERTURE END LIST*
G54D10*
G54D11*
X68799Y-28307D03*
X68799Y-27007D03*
G54D12*
X75571Y-16535D03*
X74821Y-16535D03*
X75571Y-17716D03*
X74821Y-17716D03*
X75571Y-18897D03*
X74821Y-18897D03*
X75571Y-20078D03*
X74821Y-20078D03*
X75571Y-23622D03*
X74821Y-23622D03*
G54D13*
X67716Y-22534D03*
X67716Y-23134D03*
G54D14*
X77452Y-22440D03*
X78452Y-22440D03*
X77452Y-14566D03*
X78452Y-14566D03*
X77452Y-16535D03*
X78452Y-16535D03*
X77452Y-18503D03*
X78452Y-18503D03*
X77452Y-26377D03*
X78452Y-26377D03*
X77452Y-20472D03*
X78452Y-20472D03*
X77452Y-28346D03*
X78452Y-28346D03*
X77452Y-24409D03*
X78452Y-24409D03*
G54D15*
X55602Y-26506D03*
X55602Y-16506D03*
G54D16*
X56602Y-23656D03*
G54D17*
X56602Y-22556D03*
X56602Y-21456D03*
X56602Y-20406D03*
X56602Y-19306D03*
X55602Y-19856D03*
X55602Y-20956D03*
X55602Y-22006D03*
X55602Y-23106D03*
G54D11*
X68799Y-23287D03*
X68799Y-21987D03*
G54D13*
X72466Y-21116D03*
X72466Y-21716D03*
X73166Y-21716D03*
X73166Y-21116D03*
X71766Y-21116D03*
X71766Y-21716D03*
G54D15*
X84948Y-16406D03*
X84948Y-26406D03*
G54D16*
X83948Y-19256D03*
G54D17*
X83948Y-20356D03*
X83948Y-21456D03*
X83948Y-22506D03*
X83948Y-23606D03*
X84948Y-23056D03*
X84948Y-21956D03*
X84948Y-20906D03*
X84948Y-19806D03*
G54D18*
X81496Y-17956D03*
G54D19*
X81496Y-18956D03*
X81496Y-19956D03*
X81496Y-20956D03*
X81496Y-21956D03*
X81496Y-22956D03*
X81496Y-23956D03*
X81496Y-24956D03*
G54D18*
X58858Y-17956D03*
G54D19*
X58858Y-18956D03*
X58858Y-19956D03*
X58858Y-20956D03*
X58858Y-21956D03*
X58858Y-22956D03*
X58858Y-23956D03*
X58858Y-24956D03*
G54D18*
X57874Y-17956D03*
G54D19*
X57874Y-18956D03*
X57874Y-19956D03*
X57874Y-20956D03*
X57874Y-21956D03*
X57874Y-22956D03*
X57874Y-23956D03*
X57874Y-24956D03*
G54D18*
X82480Y-17956D03*
G54D19*
X82480Y-18956D03*
X82480Y-19956D03*
X82480Y-20956D03*
X82480Y-21956D03*
X82480Y-22956D03*
X82480Y-23956D03*
X82480Y-24956D03*
G54D20*
X72283Y-15551D03*
G54D19*
X71283Y-15551D03*
X70283Y-15551D03*
X69283Y-15551D03*
X68283Y-15551D03*
G54D12*
X75571Y-24803D03*
X74821Y-24803D03*
X75571Y-21259D03*
X74821Y-21259D03*
X75571Y-22440D03*
X74821Y-22440D03*
G54D11*
X66338Y-29685D03*
X66338Y-28385D03*
X67618Y-24842D03*
X67618Y-26142D03*
X64960Y-28385D03*
X64960Y-29685D03*
G54D14*
X69397Y-18897D03*
X68397Y-18897D03*
X71153Y-18897D03*
X72153Y-18897D03*
G54D11*
X68799Y-26142D03*
X68799Y-24842D03*
G54D21*
X67416Y-16535D03*
X68016Y-16535D03*
G54D22*
X67519Y-17913D03*
X67716Y-23523D03*
G54D23*
X66732Y-26082D03*
X85400Y-18500D03*
X80900Y-13500D03*
X80600Y-14000D03*
X85600Y-19200D03*
X71751Y-17519D03*
X68799Y-17519D03*
X70167Y-23198D03*
X73346Y-23897D03*
X73326Y-23425D03*
X70767Y-23818D03*
G54D22*
X59842Y-28346D03*
X60629Y-25590D03*
X61811Y-25196D03*
X71259Y-28740D03*
X73129Y-25492D03*
X69291Y-21161D03*
X70472Y-21751D03*
X66732Y-18700D03*
X65944Y-24803D03*
X66929Y-24015D03*
X67716Y-22145D03*
G54D23*
X71266Y-20666D03*
X72322Y-20669D03*
X70767Y-17519D03*
X69685Y-17519D03*
G54D22*
X62412Y-29700D03*
X68412Y-29100D03*
G54D23*
X71216Y-22066D03*
X67027Y-27854D03*
X73326Y-20767D03*
G54D24*
X68016Y-16535D02*
X68307Y-16535D01*
X68307Y-16535D02*
X68602Y-16830D01*
X69685Y-22736D02*
X69685Y-23956D01*
X69685Y-22736D02*
X69881Y-22539D01*
X69291Y-20275D02*
X68503Y-20275D01*
X68503Y-20275D02*
X67519Y-19291D01*
X67519Y-17913D02*
X67519Y-19291D01*
X69881Y-20866D02*
X69291Y-20275D01*
X69881Y-22539D02*
X69881Y-20866D01*
X69685Y-23956D02*
X68799Y-24842D01*
X67716Y-23523D02*
X68307Y-24114D01*
X68307Y-24114D02*
X68602Y-24114D01*
X68602Y-24114D02*
X68799Y-24311D01*
X68799Y-24311D02*
X68799Y-24842D01*
X72283Y-15551D02*
X72283Y-16299D01*
X68602Y-16830D02*
X67519Y-17913D01*
X71751Y-16830D02*
X68602Y-16830D01*
X72283Y-16299D02*
X71751Y-16830D01*
X67716Y-23523D02*
X67618Y-23622D01*
X67618Y-23622D02*
X67618Y-24842D01*
X68799Y-23287D02*
X67952Y-23287D01*
X67952Y-23287D02*
X67716Y-23523D01*
X67716Y-23523D02*
X67716Y-23134D01*
X66791Y-26142D02*
X66732Y-26082D01*
X67618Y-26142D02*
X66791Y-26142D01*
G54D25*
X58858Y-20956D02*
X59325Y-20956D01*
X84448Y-21456D02*
X84948Y-21956D01*
X84448Y-18779D02*
X84448Y-21456D01*
X83759Y-18090D02*
X84448Y-18779D01*
X83759Y-14166D02*
X83759Y-18090D01*
X81988Y-12395D02*
X83759Y-14166D01*
X65131Y-12395D02*
X81988Y-12395D01*
X60814Y-16712D02*
X65131Y-12395D01*
X60814Y-19468D02*
X60814Y-16712D01*
X59325Y-20956D02*
X60814Y-19468D01*
X82480Y-20956D02*
X83480Y-21956D01*
X83480Y-21956D02*
X84948Y-21956D01*
X78452Y-20472D02*
X81996Y-20472D01*
X81996Y-20472D02*
X82480Y-20956D01*
X78452Y-16535D02*
X79055Y-16535D01*
X81948Y-18425D02*
X82480Y-18956D01*
X80944Y-18425D02*
X81948Y-18425D01*
X79055Y-16535D02*
X80944Y-18425D01*
X84948Y-18078D02*
X86100Y-16927D01*
X84948Y-19806D02*
X84948Y-18078D01*
X59390Y-19956D02*
X58858Y-19956D01*
X65088Y-11900D02*
X82177Y-11900D01*
X60249Y-16738D02*
X65088Y-11900D01*
X60249Y-19097D02*
X60249Y-16738D01*
X59390Y-19956D02*
X60249Y-19097D01*
X86100Y-15822D02*
X82177Y-11900D01*
X86100Y-16927D02*
X86100Y-15822D01*
X78452Y-18503D02*
X79448Y-18503D01*
X81972Y-19448D02*
X82480Y-19956D01*
X80393Y-19448D02*
X81972Y-19448D01*
X79448Y-18503D02*
X80393Y-19448D01*
X57874Y-19956D02*
X57437Y-19956D01*
X56102Y-22606D02*
X55602Y-23106D01*
X56102Y-20216D02*
X56102Y-22606D01*
X56476Y-19842D02*
X56102Y-20216D01*
X57322Y-19842D02*
X56476Y-19842D01*
X57437Y-19956D02*
X57322Y-19842D01*
X58858Y-23956D02*
X59343Y-23956D01*
X85193Y-22506D02*
X83948Y-22506D01*
X86000Y-21700D02*
X85193Y-22506D01*
X86000Y-19100D02*
X86000Y-21700D01*
X85400Y-18500D02*
X86000Y-19100D01*
X65700Y-13500D02*
X80900Y-13500D01*
X62500Y-16700D02*
X65700Y-13500D01*
X62500Y-20800D02*
X62500Y-16700D01*
X59343Y-23956D02*
X62500Y-20800D01*
X78452Y-26377D02*
X81102Y-26377D01*
X81988Y-24448D02*
X82480Y-23956D01*
X81988Y-25492D02*
X81988Y-24448D01*
X81102Y-26377D02*
X81988Y-25492D01*
X57874Y-23956D02*
X57263Y-23346D01*
X57263Y-21068D02*
X56602Y-20406D01*
X57263Y-23346D02*
X57263Y-21068D01*
X78452Y-14566D02*
X79488Y-14566D01*
X82480Y-17559D02*
X82480Y-17956D01*
X79488Y-14566D02*
X82480Y-17559D01*
X59343Y-24956D02*
X63000Y-21300D01*
X63000Y-21300D02*
X63000Y-16900D01*
X63000Y-16900D02*
X65900Y-14000D01*
X65900Y-14000D02*
X80600Y-14000D01*
X58858Y-24956D02*
X59343Y-24956D01*
X85293Y-20906D02*
X84948Y-20906D01*
X85600Y-20600D02*
X85293Y-20906D01*
X85600Y-19200D02*
X85600Y-20600D01*
X85600Y-19200D02*
X85600Y-19200D01*
X78452Y-28346D02*
X80118Y-28346D01*
X82480Y-25984D02*
X82480Y-24956D01*
X80118Y-28346D02*
X82480Y-25984D01*
X55602Y-22006D02*
X55198Y-22006D01*
X56511Y-24956D02*
X57874Y-24956D01*
X55019Y-23464D02*
X56511Y-24956D01*
X55019Y-22185D02*
X55019Y-23464D01*
X55198Y-22006D02*
X55019Y-22185D01*
X72153Y-18897D02*
X72153Y-17921D01*
X72153Y-17921D02*
X71751Y-17519D01*
X83948Y-20356D02*
X83367Y-19775D01*
X59299Y-21956D02*
X58858Y-21956D01*
X61401Y-19854D02*
X59299Y-21956D01*
X61401Y-16604D02*
X61401Y-19854D01*
X65262Y-12743D02*
X61401Y-16604D01*
X81604Y-12743D02*
X65262Y-12743D01*
X83367Y-14506D02*
X81604Y-12743D01*
X83367Y-19775D02*
X83367Y-14506D01*
X78452Y-22440D02*
X81996Y-22440D01*
X81996Y-22440D02*
X82480Y-21956D01*
X68397Y-17921D02*
X68397Y-18897D01*
X68799Y-17519D02*
X68397Y-17921D01*
X70167Y-23198D02*
X70167Y-23710D01*
X73070Y-24173D02*
X73346Y-23897D01*
X70629Y-24173D02*
X73070Y-24173D01*
X70167Y-23710D02*
X70629Y-24173D01*
X71161Y-23425D02*
X73326Y-23425D01*
X70767Y-23818D02*
X71161Y-23425D01*
X65438Y-13076D02*
X81176Y-13076D01*
X59307Y-22956D02*
X61987Y-20277D01*
X61987Y-20277D02*
X61987Y-16527D01*
X61987Y-16527D02*
X65438Y-13076D01*
X58858Y-22956D02*
X59307Y-22956D01*
X83100Y-20607D02*
X83948Y-21456D01*
X83100Y-15000D02*
X83100Y-20607D01*
X81176Y-13076D02*
X83100Y-15000D01*
X78452Y-24409D02*
X80236Y-24409D01*
X81972Y-23464D02*
X82480Y-22956D01*
X81181Y-23464D02*
X81972Y-23464D01*
X80236Y-24409D02*
X81181Y-23464D01*
G54D24*
X67416Y-16535D02*
X67416Y-15555D01*
X67416Y-15555D02*
X67421Y-15551D01*
X66732Y-16240D02*
X66732Y-18700D01*
X56602Y-19306D02*
X56193Y-18897D01*
X56193Y-18897D02*
X55216Y-18897D01*
X55216Y-18897D02*
X54429Y-19685D01*
X54429Y-19685D02*
X54429Y-23622D01*
X54429Y-23622D02*
X57086Y-26279D01*
X57086Y-26279D02*
X61811Y-26279D01*
X61811Y-26279D02*
X64458Y-26279D01*
X64468Y-26279D02*
X65944Y-24803D01*
X67322Y-27165D02*
X65944Y-27165D01*
X67814Y-27657D02*
X67322Y-27165D01*
X70177Y-27657D02*
X67814Y-27657D01*
X71259Y-28740D02*
X70177Y-27657D01*
X66929Y-24015D02*
X66732Y-24212D01*
X67027Y-25492D02*
X73129Y-25492D01*
X66732Y-25196D02*
X67027Y-25492D01*
X66732Y-24212D02*
X66732Y-25196D01*
X74821Y-23622D02*
X74821Y-24803D01*
X74821Y-22440D02*
X74821Y-23622D01*
X74821Y-21259D02*
X74821Y-22440D01*
X74821Y-20078D02*
X74821Y-21259D01*
X74821Y-18897D02*
X74821Y-20078D01*
X73228Y-14566D02*
X74821Y-16160D01*
X65748Y-24803D02*
X64566Y-24803D01*
X64173Y-24409D02*
X64173Y-17322D01*
X64566Y-24803D02*
X64173Y-24409D01*
X64173Y-17322D02*
X66929Y-14566D01*
X66929Y-14566D02*
X73228Y-14566D01*
X74821Y-16160D02*
X74821Y-16535D01*
X74821Y-16535D02*
X74821Y-17716D01*
X74821Y-17716D02*
X74821Y-18897D01*
X72466Y-21716D02*
X72466Y-22218D01*
X70472Y-22047D02*
X70472Y-21751D01*
X70964Y-22539D02*
X70472Y-22047D01*
X72145Y-22539D02*
X70964Y-22539D01*
X72466Y-22218D02*
X72145Y-22539D01*
X73166Y-21716D02*
X72466Y-21716D01*
X66732Y-20078D02*
X66732Y-18700D01*
X69291Y-21161D02*
X67814Y-21161D01*
X67814Y-21161D02*
X66732Y-20078D01*
X68283Y-15551D02*
X67421Y-15551D01*
X67421Y-15551D02*
X66732Y-16240D01*
X66338Y-18700D02*
X66732Y-18700D01*
X65157Y-21062D02*
X65157Y-19881D01*
X65748Y-24803D02*
X65452Y-24803D01*
X65157Y-24507D02*
X65157Y-21062D01*
X65452Y-24803D02*
X65157Y-24507D01*
X65157Y-19881D02*
X66338Y-18700D01*
X65944Y-24803D02*
X65748Y-24803D01*
X64960Y-28149D02*
X65944Y-27165D01*
X65944Y-27165D02*
X65944Y-24803D01*
X65944Y-24803D02*
X65944Y-22933D01*
X65944Y-22933D02*
X66732Y-22145D01*
X66732Y-22145D02*
X67716Y-22145D01*
X64960Y-28149D02*
X64960Y-28385D01*
X64960Y-28385D02*
X64960Y-28149D01*
X67716Y-22145D02*
X66929Y-22933D01*
X66929Y-22933D02*
X66929Y-24015D01*
X68799Y-21987D02*
X67874Y-21987D01*
X67874Y-21987D02*
X67716Y-22145D01*
X67716Y-22534D02*
X67716Y-22145D01*
G54D26*
X71766Y-21116D02*
X71716Y-21116D01*
X71716Y-21116D02*
X71266Y-20666D01*
X72466Y-21116D02*
X72466Y-20812D01*
X72466Y-20812D02*
X72322Y-20669D01*
G54D25*
X71153Y-18897D02*
X70767Y-18511D01*
X70767Y-18511D02*
X70767Y-17519D01*
X69397Y-18897D02*
X69397Y-18397D01*
X69397Y-17807D02*
X69685Y-17519D01*
X69397Y-18397D02*
X69397Y-17807D01*
X75571Y-16535D02*
X75571Y-15766D01*
X76771Y-14566D02*
X77452Y-14566D01*
X75571Y-15766D02*
X76771Y-14566D01*
X75571Y-17716D02*
X76271Y-17716D01*
X76271Y-17716D02*
X77452Y-16535D01*
X75571Y-18897D02*
X77059Y-18897D01*
X77059Y-18897D02*
X77452Y-18503D01*
X75571Y-23622D02*
X77452Y-25502D01*
X77452Y-25502D02*
X77452Y-26377D01*
X75571Y-24803D02*
X75571Y-26465D01*
X75571Y-26465D02*
X77452Y-28346D01*
X75571Y-21259D02*
X76271Y-21259D01*
X76271Y-21259D02*
X77452Y-22440D01*
G54D24*
X68799Y-27007D02*
X68799Y-26142D01*
X62412Y-29700D02*
X64148Y-29700D01*
X64163Y-29685D02*
X64960Y-29685D01*
X64148Y-29700D02*
X64163Y-29685D01*
X66338Y-29685D02*
X67827Y-29685D01*
X67827Y-29685D02*
X68412Y-29100D01*
X64960Y-29685D02*
X65590Y-29685D01*
X65590Y-29685D02*
X66338Y-29685D01*
G54D25*
X75571Y-22440D02*
X76181Y-22440D01*
X77452Y-23712D02*
X77452Y-24409D01*
X76181Y-22440D02*
X77452Y-23712D01*
G54D26*
X71766Y-21716D02*
X71566Y-21716D01*
X71566Y-21716D02*
X71216Y-22066D01*
G54D24*
X67027Y-27854D02*
X67480Y-28307D01*
X67480Y-28307D02*
X68799Y-28307D01*
X66338Y-28385D02*
X66869Y-27854D01*
X66869Y-27854D02*
X67027Y-27854D01*
G54D25*
X75571Y-20078D02*
X77059Y-20078D01*
X77059Y-20078D02*
X77452Y-20472D01*
G54D26*
X73166Y-21116D02*
X73166Y-20927D01*
X73166Y-20927D02*
X73326Y-20767D01*
G54D10*
G36*
X66879Y-14546D02*
X64123Y-17302D01*
X64123Y-24430D01*
X64546Y-24853D01*
X66091Y-24853D01*
X66091Y-27759D01*
X65874Y-27759D01*
X65754Y-27809D01*
X65662Y-27900D01*
X65613Y-28020D01*
X65612Y-28149D01*
X65612Y-28749D01*
X65662Y-28869D01*
X65753Y-28961D01*
X65873Y-29010D01*
X66003Y-29011D01*
X66091Y-29011D01*
X66091Y-29059D01*
X65874Y-29059D01*
X65754Y-29109D01*
X65693Y-29169D01*
X65610Y-29169D01*
X65610Y-28734D01*
X65610Y-28035D01*
X65572Y-27944D01*
X65502Y-27873D01*
X65410Y-27835D01*
X65311Y-27835D01*
X65073Y-27835D01*
X65010Y-27897D01*
X65010Y-28335D01*
X65548Y-28335D01*
X65610Y-28272D01*
X65610Y-28035D01*
X65610Y-28734D01*
X65610Y-28497D01*
X65548Y-28435D01*
X65010Y-28435D01*
X65010Y-28872D01*
X65073Y-28935D01*
X65311Y-28935D01*
X65410Y-28935D01*
X65502Y-28897D01*
X65572Y-28826D01*
X65610Y-28734D01*
X65610Y-29169D01*
X65605Y-29169D01*
X65545Y-29109D01*
X65425Y-29059D01*
X65296Y-29059D01*
X64910Y-29059D01*
X64910Y-28872D01*
X64910Y-28435D01*
X64910Y-28335D01*
X64910Y-27897D01*
X64848Y-27835D01*
X64610Y-27835D01*
X64510Y-27835D01*
X64418Y-27873D01*
X64348Y-27944D01*
X64310Y-28035D01*
X64310Y-28272D01*
X64373Y-28335D01*
X64910Y-28335D01*
X64910Y-28435D01*
X64373Y-28435D01*
X64310Y-28497D01*
X64310Y-28734D01*
X64348Y-28826D01*
X64418Y-28897D01*
X64510Y-28935D01*
X64610Y-28935D01*
X64848Y-28935D01*
X64910Y-28872D01*
X64910Y-29059D01*
X64496Y-29059D01*
X64376Y-29109D01*
X64315Y-29169D01*
X64163Y-29169D01*
X64090Y-29184D01*
X62636Y-29184D01*
X62525Y-29138D01*
X62301Y-29138D01*
X62095Y-29223D01*
X61936Y-29381D01*
X61851Y-29587D01*
X61851Y-29811D01*
X61936Y-30017D01*
X62094Y-30176D01*
X62300Y-30261D01*
X62524Y-30261D01*
X62636Y-30215D01*
X64148Y-30215D01*
X64222Y-30201D01*
X64315Y-30201D01*
X64375Y-30261D01*
X64495Y-30310D01*
X64625Y-30311D01*
X65425Y-30311D01*
X65544Y-30261D01*
X65605Y-30201D01*
X65693Y-30201D01*
X65753Y-30261D01*
X65873Y-30310D01*
X66003Y-30311D01*
X66091Y-30311D01*
X66091Y-31140D01*
X56678Y-31140D01*
X56678Y-26293D01*
X56514Y-25898D01*
X56212Y-25595D01*
X55817Y-25431D01*
X55389Y-25430D01*
X54993Y-25594D01*
X54691Y-25896D01*
X54526Y-26291D01*
X54526Y-26719D01*
X54689Y-27115D01*
X54992Y-27418D01*
X55387Y-27582D01*
X55815Y-27582D01*
X56210Y-27419D01*
X56513Y-27116D01*
X56677Y-26721D01*
X56678Y-26293D01*
X56678Y-31140D01*
X56647Y-31140D01*
X56647Y-29596D01*
X56647Y-29527D01*
X56647Y-29458D01*
X56647Y-29458D01*
X56647Y-29457D01*
X56587Y-29156D01*
X56534Y-29028D01*
X56533Y-29027D01*
X56364Y-28774D01*
X56363Y-28773D01*
X56265Y-28675D01*
X56010Y-28504D01*
X55882Y-28451D01*
X55880Y-28451D01*
X55581Y-28392D01*
X55580Y-28391D01*
X55442Y-28391D01*
X55140Y-28451D01*
X55012Y-28504D01*
X55011Y-28505D01*
X54758Y-28675D01*
X54757Y-28675D01*
X54659Y-28773D01*
X54488Y-29029D01*
X54435Y-29157D01*
X54435Y-29158D01*
X54376Y-29457D01*
X54376Y-29458D01*
X54376Y-29458D01*
X54376Y-29527D01*
X54376Y-29596D01*
X54376Y-29596D01*
X54376Y-29597D01*
X54435Y-29896D01*
X54435Y-29897D01*
X54488Y-30025D01*
X54659Y-30281D01*
X54757Y-30379D01*
X54758Y-30380D01*
X55011Y-30549D01*
X55012Y-30550D01*
X55140Y-30603D01*
X55442Y-30663D01*
X55580Y-30663D01*
X55581Y-30663D01*
X55880Y-30603D01*
X55882Y-30603D01*
X56010Y-30550D01*
X56265Y-30380D01*
X56363Y-30282D01*
X56364Y-30280D01*
X56533Y-30027D01*
X56534Y-30026D01*
X56587Y-29898D01*
X56647Y-29597D01*
X56647Y-29596D01*
X56647Y-29596D01*
X56647Y-31140D01*
X53898Y-31140D01*
X53898Y-11772D01*
X64684Y-11772D01*
X59984Y-16473D01*
X59902Y-16594D01*
X59874Y-16738D01*
X59874Y-18942D01*
X59304Y-19511D01*
X59250Y-19456D01*
X59392Y-19314D01*
X59488Y-19082D01*
X59489Y-18831D01*
X59393Y-18599D01*
X59326Y-18532D01*
X59337Y-18528D01*
X59429Y-18436D01*
X59479Y-18317D01*
X59479Y-18187D01*
X59479Y-17596D01*
X59429Y-17477D01*
X59338Y-17385D01*
X59218Y-17335D01*
X59089Y-17335D01*
X58498Y-17335D01*
X58378Y-17385D01*
X58366Y-17397D01*
X58353Y-17385D01*
X58234Y-17335D01*
X58104Y-17335D01*
X57514Y-17335D01*
X57394Y-17385D01*
X57302Y-17476D01*
X57253Y-17596D01*
X57253Y-17725D01*
X57253Y-18316D01*
X57302Y-18436D01*
X57394Y-18527D01*
X57405Y-18532D01*
X57339Y-18598D01*
X57243Y-18830D01*
X57243Y-19081D01*
X57339Y-19313D01*
X57482Y-19456D01*
X57447Y-19491D01*
X57322Y-19466D01*
X57129Y-19466D01*
X57157Y-19388D01*
X57146Y-19169D01*
X57083Y-19018D01*
X56988Y-18991D01*
X56917Y-19062D01*
X56917Y-18920D01*
X56890Y-18825D01*
X56684Y-18751D01*
X56678Y-18752D01*
X56678Y-16293D01*
X56647Y-16220D01*
X56647Y-13454D01*
X56647Y-13385D01*
X56647Y-13316D01*
X56647Y-13316D01*
X56647Y-13316D01*
X56587Y-13014D01*
X56534Y-12886D01*
X56533Y-12885D01*
X56364Y-12632D01*
X56363Y-12631D01*
X56265Y-12533D01*
X56010Y-12362D01*
X55882Y-12310D01*
X55880Y-12310D01*
X55581Y-12250D01*
X55580Y-12249D01*
X55442Y-12249D01*
X55140Y-12310D01*
X55012Y-12363D01*
X55011Y-12364D01*
X54758Y-12533D01*
X54757Y-12533D01*
X54659Y-12631D01*
X54488Y-12887D01*
X54435Y-13015D01*
X54435Y-13016D01*
X54376Y-13316D01*
X54376Y-13316D01*
X54376Y-13316D01*
X54376Y-13385D01*
X54376Y-13454D01*
X54376Y-13455D01*
X54376Y-13455D01*
X54435Y-13754D01*
X54435Y-13756D01*
X54488Y-13884D01*
X54659Y-14139D01*
X54757Y-14237D01*
X54758Y-14238D01*
X55011Y-14407D01*
X55012Y-14408D01*
X55140Y-14461D01*
X55442Y-14521D01*
X55580Y-14521D01*
X55581Y-14521D01*
X55880Y-14461D01*
X55882Y-14461D01*
X56010Y-14408D01*
X56265Y-14238D01*
X56363Y-14140D01*
X56364Y-14139D01*
X56533Y-13885D01*
X56534Y-13884D01*
X56587Y-13756D01*
X56647Y-13455D01*
X56647Y-13455D01*
X56647Y-13454D01*
X56647Y-16220D01*
X56514Y-15898D01*
X56212Y-15595D01*
X55817Y-15431D01*
X55389Y-15430D01*
X54993Y-15594D01*
X54691Y-15896D01*
X54526Y-16291D01*
X54526Y-16719D01*
X54689Y-17115D01*
X54992Y-17418D01*
X55387Y-17582D01*
X55815Y-17582D01*
X56210Y-17419D01*
X56513Y-17116D01*
X56677Y-16721D01*
X56678Y-16293D01*
X56678Y-18752D01*
X56465Y-18762D01*
X56314Y-18825D01*
X56287Y-18920D01*
X56602Y-19235D01*
X56917Y-18920D01*
X56917Y-19062D01*
X56673Y-19306D01*
X56678Y-19312D01*
X56607Y-19382D01*
X56602Y-19377D01*
X56596Y-19382D01*
X56526Y-19312D01*
X56531Y-19306D01*
X56216Y-18991D01*
X56121Y-19018D01*
X56047Y-19224D01*
X56057Y-19427D01*
X55957Y-19326D01*
X55727Y-19231D01*
X55478Y-19230D01*
X55248Y-19326D01*
X55072Y-19501D01*
X54976Y-19731D01*
X54976Y-19980D01*
X55071Y-20210D01*
X55247Y-20386D01*
X55295Y-20406D01*
X55248Y-20426D01*
X55072Y-20601D01*
X54976Y-20831D01*
X54976Y-21080D01*
X55071Y-21310D01*
X55242Y-21481D01*
X55072Y-21651D01*
X55070Y-21656D01*
X55054Y-21659D01*
X54932Y-21741D01*
X54932Y-21741D01*
X54754Y-21919D01*
X54672Y-22041D01*
X54644Y-22185D01*
X54644Y-23464D01*
X54672Y-23608D01*
X54754Y-23730D01*
X56246Y-25222D01*
X56368Y-25303D01*
X56511Y-25332D01*
X57357Y-25332D01*
X57516Y-25491D01*
X57748Y-25587D01*
X57998Y-25587D01*
X58230Y-25491D01*
X58366Y-25356D01*
X58500Y-25491D01*
X58732Y-25587D01*
X58983Y-25587D01*
X59215Y-25491D01*
X59382Y-25324D01*
X59487Y-25303D01*
X59608Y-25222D01*
X63265Y-21565D01*
X63265Y-21565D01*
X63265Y-21565D01*
X63347Y-21443D01*
X63375Y-21300D01*
X63375Y-17055D01*
X66055Y-14375D01*
X66879Y-14375D01*
X66879Y-14546D01*
X66879Y-14546D01*
G37*
G54D25*
X66879Y-14546D02*
X64123Y-17302D01*
X64123Y-24430D01*
X64546Y-24853D01*
X66091Y-24853D01*
X66091Y-27759D01*
X65874Y-27759D01*
X65754Y-27809D01*
X65662Y-27900D01*
X65613Y-28020D01*
X65612Y-28149D01*
X65612Y-28749D01*
X65662Y-28869D01*
X65753Y-28961D01*
X65873Y-29010D01*
X66003Y-29011D01*
X66091Y-29011D01*
X66091Y-29059D01*
X65874Y-29059D01*
X65754Y-29109D01*
X65693Y-29169D01*
X65610Y-29169D01*
X65610Y-28734D01*
X65610Y-28035D01*
X65572Y-27944D01*
X65502Y-27873D01*
X65410Y-27835D01*
X65311Y-27835D01*
X65073Y-27835D01*
X65010Y-27897D01*
X65010Y-28335D01*
X65548Y-28335D01*
X65610Y-28272D01*
X65610Y-28035D01*
X65610Y-28734D01*
X65610Y-28497D01*
X65548Y-28435D01*
X65010Y-28435D01*
X65010Y-28872D01*
X65073Y-28935D01*
X65311Y-28935D01*
X65410Y-28935D01*
X65502Y-28897D01*
X65572Y-28826D01*
X65610Y-28734D01*
X65610Y-29169D01*
X65605Y-29169D01*
X65545Y-29109D01*
X65425Y-29059D01*
X65296Y-29059D01*
X64910Y-29059D01*
X64910Y-28872D01*
X64910Y-28435D01*
X64910Y-28335D01*
X64910Y-27897D01*
X64848Y-27835D01*
X64610Y-27835D01*
X64510Y-27835D01*
X64418Y-27873D01*
X64348Y-27944D01*
X64310Y-28035D01*
X64310Y-28272D01*
X64373Y-28335D01*
X64910Y-28335D01*
X64910Y-28435D01*
X64373Y-28435D01*
X64310Y-28497D01*
X64310Y-28734D01*
X64348Y-28826D01*
X64418Y-28897D01*
X64510Y-28935D01*
X64610Y-28935D01*
X64848Y-28935D01*
X64910Y-28872D01*
X64910Y-29059D01*
X64496Y-29059D01*
X64376Y-29109D01*
X64315Y-29169D01*
X64163Y-29169D01*
X64090Y-29184D01*
X62636Y-29184D01*
X62525Y-29138D01*
X62301Y-29138D01*
X62095Y-29223D01*
X61936Y-29381D01*
X61851Y-29587D01*
X61851Y-29811D01*
X61936Y-30017D01*
X62094Y-30176D01*
X62300Y-30261D01*
X62524Y-30261D01*
X62636Y-30215D01*
X64148Y-30215D01*
X64222Y-30201D01*
X64315Y-30201D01*
X64375Y-30261D01*
X64495Y-30310D01*
X64625Y-30311D01*
X65425Y-30311D01*
X65544Y-30261D01*
X65605Y-30201D01*
X65693Y-30201D01*
X65753Y-30261D01*
X65873Y-30310D01*
X66003Y-30311D01*
X66091Y-30311D01*
X66091Y-31140D01*
X56678Y-31140D01*
X56678Y-26293D01*
X56514Y-25898D01*
X56212Y-25595D01*
X55817Y-25431D01*
X55389Y-25430D01*
X54993Y-25594D01*
X54691Y-25896D01*
X54526Y-26291D01*
X54526Y-26719D01*
X54689Y-27115D01*
X54992Y-27418D01*
X55387Y-27582D01*
X55815Y-27582D01*
X56210Y-27419D01*
X56513Y-27116D01*
X56677Y-26721D01*
X56678Y-26293D01*
X56678Y-31140D01*
X56647Y-31140D01*
X56647Y-29596D01*
X56647Y-29527D01*
X56647Y-29458D01*
X56647Y-29458D01*
X56647Y-29457D01*
X56587Y-29156D01*
X56534Y-29028D01*
X56533Y-29027D01*
X56364Y-28774D01*
X56363Y-28773D01*
X56265Y-28675D01*
X56010Y-28504D01*
X55882Y-28451D01*
X55880Y-28451D01*
X55581Y-28392D01*
X55580Y-28391D01*
X55442Y-28391D01*
X55140Y-28451D01*
X55012Y-28504D01*
X55011Y-28505D01*
X54758Y-28675D01*
X54757Y-28675D01*
X54659Y-28773D01*
X54488Y-29029D01*
X54435Y-29157D01*
X54435Y-29158D01*
X54376Y-29457D01*
X54376Y-29458D01*
X54376Y-29458D01*
X54376Y-29527D01*
X54376Y-29596D01*
X54376Y-29596D01*
X54376Y-29597D01*
X54435Y-29896D01*
X54435Y-29897D01*
X54488Y-30025D01*
X54659Y-30281D01*
X54757Y-30379D01*
X54758Y-30380D01*
X55011Y-30549D01*
X55012Y-30550D01*
X55140Y-30603D01*
X55442Y-30663D01*
X55580Y-30663D01*
X55581Y-30663D01*
X55880Y-30603D01*
X55882Y-30603D01*
X56010Y-30550D01*
X56265Y-30380D01*
X56363Y-30282D01*
X56364Y-30280D01*
X56533Y-30027D01*
X56534Y-30026D01*
X56587Y-29898D01*
X56647Y-29597D01*
X56647Y-29596D01*
X56647Y-29596D01*
X56647Y-31140D01*
X53898Y-31140D01*
X53898Y-11772D01*
X64684Y-11772D01*
X59984Y-16473D01*
X59902Y-16594D01*
X59874Y-16738D01*
X59874Y-18942D01*
X59304Y-19511D01*
X59250Y-19456D01*
X59392Y-19314D01*
X59488Y-19082D01*
X59489Y-18831D01*
X59393Y-18599D01*
X59326Y-18532D01*
X59337Y-18528D01*
X59429Y-18436D01*
X59479Y-18317D01*
X59479Y-18187D01*
X59479Y-17596D01*
X59429Y-17477D01*
X59338Y-17385D01*
X59218Y-17335D01*
X59089Y-17335D01*
X58498Y-17335D01*
X58378Y-17385D01*
X58366Y-17397D01*
X58353Y-17385D01*
X58234Y-17335D01*
X58104Y-17335D01*
X57514Y-17335D01*
X57394Y-17385D01*
X57302Y-17476D01*
X57253Y-17596D01*
X57253Y-17725D01*
X57253Y-18316D01*
X57302Y-18436D01*
X57394Y-18527D01*
X57405Y-18532D01*
X57339Y-18598D01*
X57243Y-18830D01*
X57243Y-19081D01*
X57339Y-19313D01*
X57482Y-19456D01*
X57447Y-19491D01*
X57322Y-19466D01*
X57129Y-19466D01*
X57157Y-19388D01*
X57146Y-19169D01*
X57083Y-19018D01*
X56988Y-18991D01*
X56917Y-19062D01*
X56917Y-18920D01*
X56890Y-18825D01*
X56684Y-18751D01*
X56678Y-18752D01*
X56678Y-16293D01*
X56647Y-16220D01*
X56647Y-13454D01*
X56647Y-13385D01*
X56647Y-13316D01*
X56647Y-13316D01*
X56647Y-13316D01*
X56587Y-13014D01*
X56534Y-12886D01*
X56533Y-12885D01*
X56364Y-12632D01*
X56363Y-12631D01*
X56265Y-12533D01*
X56010Y-12362D01*
X55882Y-12310D01*
X55880Y-12310D01*
X55581Y-12250D01*
X55580Y-12249D01*
X55442Y-12249D01*
X55140Y-12310D01*
X55012Y-12363D01*
X55011Y-12364D01*
X54758Y-12533D01*
X54757Y-12533D01*
X54659Y-12631D01*
X54488Y-12887D01*
X54435Y-13015D01*
X54435Y-13016D01*
X54376Y-13316D01*
X54376Y-13316D01*
X54376Y-13316D01*
X54376Y-13385D01*
X54376Y-13454D01*
X54376Y-13455D01*
X54376Y-13455D01*
X54435Y-13754D01*
X54435Y-13756D01*
X54488Y-13884D01*
X54659Y-14139D01*
X54757Y-14237D01*
X54758Y-14238D01*
X55011Y-14407D01*
X55012Y-14408D01*
X55140Y-14461D01*
X55442Y-14521D01*
X55580Y-14521D01*
X55581Y-14521D01*
X55880Y-14461D01*
X55882Y-14461D01*
X56010Y-14408D01*
X56265Y-14238D01*
X56363Y-14140D01*
X56364Y-14139D01*
X56533Y-13885D01*
X56534Y-13884D01*
X56587Y-13756D01*
X56647Y-13455D01*
X56647Y-13455D01*
X56647Y-13454D01*
X56647Y-16220D01*
X56514Y-15898D01*
X56212Y-15595D01*
X55817Y-15431D01*
X55389Y-15430D01*
X54993Y-15594D01*
X54691Y-15896D01*
X54526Y-16291D01*
X54526Y-16719D01*
X54689Y-17115D01*
X54992Y-17418D01*
X55387Y-17582D01*
X55815Y-17582D01*
X56210Y-17419D01*
X56513Y-17116D01*
X56677Y-16721D01*
X56678Y-16293D01*
X56678Y-18752D01*
X56465Y-18762D01*
X56314Y-18825D01*
X56287Y-18920D01*
X56602Y-19235D01*
X56917Y-18920D01*
X56917Y-19062D01*
X56673Y-19306D01*
X56678Y-19312D01*
X56607Y-19382D01*
X56602Y-19377D01*
X56596Y-19382D01*
X56526Y-19312D01*
X56531Y-19306D01*
X56216Y-18991D01*
X56121Y-19018D01*
X56047Y-19224D01*
X56057Y-19427D01*
X55957Y-19326D01*
X55727Y-19231D01*
X55478Y-19230D01*
X55248Y-19326D01*
X55072Y-19501D01*
X54976Y-19731D01*
X54976Y-19980D01*
X55071Y-20210D01*
X55247Y-20386D01*
X55295Y-20406D01*
X55248Y-20426D01*
X55072Y-20601D01*
X54976Y-20831D01*
X54976Y-21080D01*
X55071Y-21310D01*
X55242Y-21481D01*
X55072Y-21651D01*
X55070Y-21656D01*
X55054Y-21659D01*
X54932Y-21741D01*
X54932Y-21741D01*
X54754Y-21919D01*
X54672Y-22041D01*
X54644Y-22185D01*
X54644Y-23464D01*
X54672Y-23608D01*
X54754Y-23730D01*
X56246Y-25222D01*
X56368Y-25303D01*
X56511Y-25332D01*
X57357Y-25332D01*
X57516Y-25491D01*
X57748Y-25587D01*
X57998Y-25587D01*
X58230Y-25491D01*
X58366Y-25356D01*
X58500Y-25491D01*
X58732Y-25587D01*
X58983Y-25587D01*
X59215Y-25491D01*
X59382Y-25324D01*
X59487Y-25303D01*
X59608Y-25222D01*
X63265Y-21565D01*
X63265Y-21565D01*
X63265Y-21565D01*
X63347Y-21443D01*
X63375Y-21300D01*
X63375Y-17055D01*
X66055Y-14375D01*
X66879Y-14375D01*
X66879Y-14546D01*
G54D10*
G36*
X86652Y-31140D02*
X86175Y-31140D01*
X86175Y-29596D01*
X86175Y-29527D01*
X86175Y-29458D01*
X86175Y-29458D01*
X86175Y-29457D01*
X86115Y-29156D01*
X86061Y-29028D01*
X86060Y-29027D01*
X86024Y-28973D01*
X86024Y-26193D01*
X85861Y-25798D01*
X85558Y-25495D01*
X85163Y-25331D01*
X84735Y-25330D01*
X84340Y-25494D01*
X84264Y-25570D01*
X84264Y-23992D01*
X83948Y-23677D01*
X83878Y-23748D01*
X83878Y-23606D01*
X83562Y-23291D01*
X83467Y-23318D01*
X83394Y-23524D01*
X83404Y-23743D01*
X83467Y-23894D01*
X83562Y-23921D01*
X83878Y-23606D01*
X83878Y-23748D01*
X83633Y-23992D01*
X83660Y-24087D01*
X83867Y-24161D01*
X84085Y-24150D01*
X84236Y-24087D01*
X84264Y-23992D01*
X84264Y-25570D01*
X84037Y-25796D01*
X83873Y-26191D01*
X83873Y-26619D01*
X84036Y-27015D01*
X84338Y-27318D01*
X84733Y-27482D01*
X85161Y-27482D01*
X85557Y-27319D01*
X85860Y-27016D01*
X86024Y-26621D01*
X86024Y-26193D01*
X86024Y-28973D01*
X85891Y-28774D01*
X85891Y-28773D01*
X85793Y-28675D01*
X85537Y-28504D01*
X85409Y-28451D01*
X85408Y-28451D01*
X85109Y-28392D01*
X85108Y-28391D01*
X84969Y-28391D01*
X84668Y-28451D01*
X84540Y-28504D01*
X84539Y-28505D01*
X84285Y-28675D01*
X84284Y-28675D01*
X84186Y-28773D01*
X84016Y-29029D01*
X83963Y-29157D01*
X83963Y-29158D01*
X83903Y-29457D01*
X83903Y-29458D01*
X83903Y-29458D01*
X83903Y-29527D01*
X83903Y-29596D01*
X83903Y-29596D01*
X83903Y-29597D01*
X83963Y-29896D01*
X83963Y-29897D01*
X84016Y-30025D01*
X84186Y-30281D01*
X84284Y-30379D01*
X84285Y-30380D01*
X84539Y-30549D01*
X84540Y-30550D01*
X84668Y-30603D01*
X84969Y-30663D01*
X85108Y-30663D01*
X85109Y-30663D01*
X85408Y-30603D01*
X85409Y-30603D01*
X85537Y-30550D01*
X85793Y-30380D01*
X85891Y-30282D01*
X85891Y-30280D01*
X86060Y-30027D01*
X86061Y-30026D01*
X86115Y-29898D01*
X86175Y-29597D01*
X86175Y-29596D01*
X86175Y-29596D01*
X86175Y-31140D01*
X66979Y-31140D01*
X66979Y-30205D01*
X66983Y-30201D01*
X67827Y-30201D01*
X68024Y-30161D01*
X68024Y-30161D01*
X68192Y-30050D01*
X68619Y-29622D01*
X68730Y-29576D01*
X68888Y-29418D01*
X68974Y-29212D01*
X68974Y-28988D01*
X68951Y-28933D01*
X69263Y-28933D01*
X69383Y-28883D01*
X69475Y-28792D01*
X69524Y-28672D01*
X69524Y-28543D01*
X69524Y-27943D01*
X69475Y-27823D01*
X69383Y-27731D01*
X69264Y-27681D01*
X69134Y-27681D01*
X68334Y-27681D01*
X68215Y-27731D01*
X68154Y-27791D01*
X67694Y-27791D01*
X67511Y-27609D01*
X68276Y-27609D01*
X68334Y-27633D01*
X68463Y-27633D01*
X69263Y-27633D01*
X69321Y-27609D01*
X76184Y-27609D01*
X76831Y-28256D01*
X76831Y-28469D01*
X76926Y-28697D01*
X77100Y-28872D01*
X77328Y-28967D01*
X77575Y-28967D01*
X77803Y-28873D01*
X77952Y-28724D01*
X78100Y-28872D01*
X78328Y-28967D01*
X78575Y-28967D01*
X78803Y-28873D01*
X78955Y-28722D01*
X80118Y-28722D01*
X80261Y-28693D01*
X80383Y-28612D01*
X81386Y-27609D01*
X81939Y-27609D01*
X81939Y-27055D01*
X82745Y-26249D01*
X82827Y-26127D01*
X82855Y-25984D01*
X82855Y-25472D01*
X83014Y-25314D01*
X83110Y-25082D01*
X83111Y-24831D01*
X83015Y-24599D01*
X82872Y-24456D01*
X83014Y-24314D01*
X83110Y-24082D01*
X83111Y-23831D01*
X83015Y-23599D01*
X82872Y-23456D01*
X83014Y-23314D01*
X83110Y-23082D01*
X83111Y-22831D01*
X83015Y-22599D01*
X82872Y-22456D01*
X83014Y-22314D01*
X83100Y-22107D01*
X83214Y-22222D01*
X83336Y-22303D01*
X83354Y-22307D01*
X83323Y-22381D01*
X83323Y-22630D01*
X83418Y-22860D01*
X83593Y-23036D01*
X83734Y-23095D01*
X83660Y-23125D01*
X83633Y-23220D01*
X83948Y-23535D01*
X83954Y-23530D01*
X84025Y-23601D01*
X84019Y-23606D01*
X84334Y-23921D01*
X84430Y-23894D01*
X84503Y-23688D01*
X84493Y-23486D01*
X84593Y-23586D01*
X84823Y-23682D01*
X85072Y-23682D01*
X85302Y-23587D01*
X85478Y-23411D01*
X85574Y-23181D01*
X85574Y-22932D01*
X85493Y-22737D01*
X86265Y-21965D01*
X86265Y-21965D01*
X86265Y-21965D01*
X86347Y-21843D01*
X86375Y-21700D01*
X86375Y-19100D01*
X86347Y-18956D01*
X86265Y-18834D01*
X85902Y-18471D01*
X85902Y-18400D01*
X85826Y-18215D01*
X85685Y-18074D01*
X85543Y-18015D01*
X86365Y-17193D01*
X86447Y-17071D01*
X86475Y-16927D01*
X86475Y-15822D01*
X86447Y-15678D01*
X86365Y-15556D01*
X85293Y-14484D01*
X85408Y-14461D01*
X85409Y-14461D01*
X85537Y-14408D01*
X85793Y-14238D01*
X85891Y-14140D01*
X85891Y-14139D01*
X86060Y-13885D01*
X86061Y-13884D01*
X86115Y-13756D01*
X86175Y-13455D01*
X86175Y-13455D01*
X86175Y-13454D01*
X86175Y-13385D01*
X86175Y-13316D01*
X86175Y-13316D01*
X86175Y-13316D01*
X86115Y-13014D01*
X86061Y-12886D01*
X86060Y-12885D01*
X85891Y-12632D01*
X85891Y-12631D01*
X85793Y-12533D01*
X85537Y-12362D01*
X85409Y-12310D01*
X85408Y-12310D01*
X85109Y-12250D01*
X85108Y-12249D01*
X84969Y-12249D01*
X84668Y-12310D01*
X84540Y-12363D01*
X84539Y-12364D01*
X84285Y-12533D01*
X84284Y-12533D01*
X84186Y-12631D01*
X84016Y-12887D01*
X83963Y-13015D01*
X83963Y-13016D01*
X83940Y-13131D01*
X82581Y-11772D01*
X86652Y-11772D01*
X86652Y-31140D01*
X86652Y-31140D01*
G37*
G54D25*
X86652Y-31140D02*
X86175Y-31140D01*
X86175Y-29596D01*
X86175Y-29527D01*
X86175Y-29458D01*
X86175Y-29458D01*
X86175Y-29457D01*
X86115Y-29156D01*
X86061Y-29028D01*
X86060Y-29027D01*
X86024Y-28973D01*
X86024Y-26193D01*
X85861Y-25798D01*
X85558Y-25495D01*
X85163Y-25331D01*
X84735Y-25330D01*
X84340Y-25494D01*
X84264Y-25570D01*
X84264Y-23992D01*
X83948Y-23677D01*
X83878Y-23748D01*
X83878Y-23606D01*
X83562Y-23291D01*
X83467Y-23318D01*
X83394Y-23524D01*
X83404Y-23743D01*
X83467Y-23894D01*
X83562Y-23921D01*
X83878Y-23606D01*
X83878Y-23748D01*
X83633Y-23992D01*
X83660Y-24087D01*
X83867Y-24161D01*
X84085Y-24150D01*
X84236Y-24087D01*
X84264Y-23992D01*
X84264Y-25570D01*
X84037Y-25796D01*
X83873Y-26191D01*
X83873Y-26619D01*
X84036Y-27015D01*
X84338Y-27318D01*
X84733Y-27482D01*
X85161Y-27482D01*
X85557Y-27319D01*
X85860Y-27016D01*
X86024Y-26621D01*
X86024Y-26193D01*
X86024Y-28973D01*
X85891Y-28774D01*
X85891Y-28773D01*
X85793Y-28675D01*
X85537Y-28504D01*
X85409Y-28451D01*
X85408Y-28451D01*
X85109Y-28392D01*
X85108Y-28391D01*
X84969Y-28391D01*
X84668Y-28451D01*
X84540Y-28504D01*
X84539Y-28505D01*
X84285Y-28675D01*
X84284Y-28675D01*
X84186Y-28773D01*
X84016Y-29029D01*
X83963Y-29157D01*
X83963Y-29158D01*
X83903Y-29457D01*
X83903Y-29458D01*
X83903Y-29458D01*
X83903Y-29527D01*
X83903Y-29596D01*
X83903Y-29596D01*
X83903Y-29597D01*
X83963Y-29896D01*
X83963Y-29897D01*
X84016Y-30025D01*
X84186Y-30281D01*
X84284Y-30379D01*
X84285Y-30380D01*
X84539Y-30549D01*
X84540Y-30550D01*
X84668Y-30603D01*
X84969Y-30663D01*
X85108Y-30663D01*
X85109Y-30663D01*
X85408Y-30603D01*
X85409Y-30603D01*
X85537Y-30550D01*
X85793Y-30380D01*
X85891Y-30282D01*
X85891Y-30280D01*
X86060Y-30027D01*
X86061Y-30026D01*
X86115Y-29898D01*
X86175Y-29597D01*
X86175Y-29596D01*
X86175Y-29596D01*
X86175Y-31140D01*
X66979Y-31140D01*
X66979Y-30205D01*
X66983Y-30201D01*
X67827Y-30201D01*
X68024Y-30161D01*
X68024Y-30161D01*
X68192Y-30050D01*
X68619Y-29622D01*
X68730Y-29576D01*
X68888Y-29418D01*
X68974Y-29212D01*
X68974Y-28988D01*
X68951Y-28933D01*
X69263Y-28933D01*
X69383Y-28883D01*
X69475Y-28792D01*
X69524Y-28672D01*
X69524Y-28543D01*
X69524Y-27943D01*
X69475Y-27823D01*
X69383Y-27731D01*
X69264Y-27681D01*
X69134Y-27681D01*
X68334Y-27681D01*
X68215Y-27731D01*
X68154Y-27791D01*
X67694Y-27791D01*
X67511Y-27609D01*
X68276Y-27609D01*
X68334Y-27633D01*
X68463Y-27633D01*
X69263Y-27633D01*
X69321Y-27609D01*
X76184Y-27609D01*
X76831Y-28256D01*
X76831Y-28469D01*
X76926Y-28697D01*
X77100Y-28872D01*
X77328Y-28967D01*
X77575Y-28967D01*
X77803Y-28873D01*
X77952Y-28724D01*
X78100Y-28872D01*
X78328Y-28967D01*
X78575Y-28967D01*
X78803Y-28873D01*
X78955Y-28722D01*
X80118Y-28722D01*
X80261Y-28693D01*
X80383Y-28612D01*
X81386Y-27609D01*
X81939Y-27609D01*
X81939Y-27055D01*
X82745Y-26249D01*
X82827Y-26127D01*
X82855Y-25984D01*
X82855Y-25472D01*
X83014Y-25314D01*
X83110Y-25082D01*
X83111Y-24831D01*
X83015Y-24599D01*
X82872Y-24456D01*
X83014Y-24314D01*
X83110Y-24082D01*
X83111Y-23831D01*
X83015Y-23599D01*
X82872Y-23456D01*
X83014Y-23314D01*
X83110Y-23082D01*
X83111Y-22831D01*
X83015Y-22599D01*
X82872Y-22456D01*
X83014Y-22314D01*
X83100Y-22107D01*
X83214Y-22222D01*
X83336Y-22303D01*
X83354Y-22307D01*
X83323Y-22381D01*
X83323Y-22630D01*
X83418Y-22860D01*
X83593Y-23036D01*
X83734Y-23095D01*
X83660Y-23125D01*
X83633Y-23220D01*
X83948Y-23535D01*
X83954Y-23530D01*
X84025Y-23601D01*
X84019Y-23606D01*
X84334Y-23921D01*
X84430Y-23894D01*
X84503Y-23688D01*
X84493Y-23486D01*
X84593Y-23586D01*
X84823Y-23682D01*
X85072Y-23682D01*
X85302Y-23587D01*
X85478Y-23411D01*
X85574Y-23181D01*
X85574Y-22932D01*
X85493Y-22737D01*
X86265Y-21965D01*
X86265Y-21965D01*
X86265Y-21965D01*
X86347Y-21843D01*
X86375Y-21700D01*
X86375Y-19100D01*
X86347Y-18956D01*
X86265Y-18834D01*
X85902Y-18471D01*
X85902Y-18400D01*
X85826Y-18215D01*
X85685Y-18074D01*
X85543Y-18015D01*
X86365Y-17193D01*
X86447Y-17071D01*
X86475Y-16927D01*
X86475Y-15822D01*
X86447Y-15678D01*
X86365Y-15556D01*
X85293Y-14484D01*
X85408Y-14461D01*
X85409Y-14461D01*
X85537Y-14408D01*
X85793Y-14238D01*
X85891Y-14140D01*
X85891Y-14139D01*
X86060Y-13885D01*
X86061Y-13884D01*
X86115Y-13756D01*
X86175Y-13455D01*
X86175Y-13455D01*
X86175Y-13454D01*
X86175Y-13385D01*
X86175Y-13316D01*
X86175Y-13316D01*
X86175Y-13316D01*
X86115Y-13014D01*
X86061Y-12886D01*
X86060Y-12885D01*
X85891Y-12632D01*
X85891Y-12631D01*
X85793Y-12533D01*
X85537Y-12362D01*
X85409Y-12310D01*
X85408Y-12310D01*
X85109Y-12250D01*
X85108Y-12249D01*
X84969Y-12249D01*
X84668Y-12310D01*
X84540Y-12363D01*
X84539Y-12364D01*
X84285Y-12533D01*
X84284Y-12533D01*
X84186Y-12631D01*
X84016Y-12887D01*
X83963Y-13015D01*
X83963Y-13016D01*
X83940Y-13131D01*
X82581Y-11772D01*
X86652Y-11772D01*
X86652Y-31140D01*
G54D10*
G36*
X75540Y-27115D02*
X69524Y-27115D01*
X69524Y-26643D01*
X69496Y-26574D01*
X69524Y-26507D01*
X69524Y-26377D01*
X69524Y-25777D01*
X69475Y-25657D01*
X69383Y-25566D01*
X69264Y-25516D01*
X69134Y-25516D01*
X68334Y-25516D01*
X68215Y-25565D01*
X68208Y-25572D01*
X68202Y-25566D01*
X68083Y-25516D01*
X68010Y-25516D01*
X68067Y-25467D01*
X68082Y-25467D01*
X68202Y-25418D01*
X68208Y-25412D01*
X68214Y-25417D01*
X68334Y-25467D01*
X68463Y-25467D01*
X69263Y-25467D01*
X69383Y-25418D01*
X69475Y-25326D01*
X69524Y-25207D01*
X69524Y-25077D01*
X69524Y-24845D01*
X70049Y-24320D01*
X70088Y-24262D01*
X70188Y-24262D01*
X70364Y-24438D01*
X70364Y-24438D01*
X70486Y-24520D01*
X70486Y-24520D01*
X70601Y-24543D01*
X70629Y-24548D01*
X70629Y-24548D01*
X70629Y-24548D01*
X73070Y-24548D01*
X73214Y-24520D01*
X73336Y-24438D01*
X73374Y-24400D01*
X73446Y-24400D01*
X73630Y-24324D01*
X73772Y-24182D01*
X73849Y-23998D01*
X73849Y-23798D01*
X73782Y-23637D01*
X73829Y-23525D01*
X73829Y-23475D01*
X74162Y-23475D01*
X74162Y-25640D01*
X75196Y-25640D01*
X75196Y-26465D01*
X75224Y-26609D01*
X75306Y-26731D01*
X75540Y-26965D01*
X75540Y-27115D01*
X75540Y-27115D01*
G37*
G54D25*
X75540Y-27115D02*
X69524Y-27115D01*
X69524Y-26643D01*
X69496Y-26574D01*
X69524Y-26507D01*
X69524Y-26377D01*
X69524Y-25777D01*
X69475Y-25657D01*
X69383Y-25566D01*
X69264Y-25516D01*
X69134Y-25516D01*
X68334Y-25516D01*
X68215Y-25565D01*
X68208Y-25572D01*
X68202Y-25566D01*
X68083Y-25516D01*
X68010Y-25516D01*
X68067Y-25467D01*
X68082Y-25467D01*
X68202Y-25418D01*
X68208Y-25412D01*
X68214Y-25417D01*
X68334Y-25467D01*
X68463Y-25467D01*
X69263Y-25467D01*
X69383Y-25418D01*
X69475Y-25326D01*
X69524Y-25207D01*
X69524Y-25077D01*
X69524Y-24845D01*
X70049Y-24320D01*
X70088Y-24262D01*
X70188Y-24262D01*
X70364Y-24438D01*
X70364Y-24438D01*
X70486Y-24520D01*
X70486Y-24520D01*
X70601Y-24543D01*
X70629Y-24548D01*
X70629Y-24548D01*
X70629Y-24548D01*
X73070Y-24548D01*
X73214Y-24520D01*
X73336Y-24438D01*
X73374Y-24400D01*
X73446Y-24400D01*
X73630Y-24324D01*
X73772Y-24182D01*
X73849Y-23998D01*
X73849Y-23798D01*
X73782Y-23637D01*
X73829Y-23525D01*
X73829Y-23475D01*
X74162Y-23475D01*
X74162Y-25640D01*
X75196Y-25640D01*
X75196Y-26465D01*
X75224Y-26609D01*
X75306Y-26731D01*
X75540Y-26965D01*
X75540Y-27115D01*
M02*
