M48
;DRILL file {Pcbnew (2013-jul-07)-stable} date pon, 28 lis 2016, 06:02:05
;FORMAT={-:-/ absolute / inch / decimal}
FMAT,2
INCH,TZ
T1C0.024
T2C0.031
T3C0.032
T4C0.040
T5C0.052
%
G90
G05
M72
T1
X7.2441Y-3.5236
X7.2539Y-3.7008
X7.2539Y-3.9764
X7.2638Y-4.5866
X7.2736Y-4.9902
X7.3819Y-3.6909
X7.3819Y-5.5906
X7.3917Y-3.4843
X7.4114Y-4.2815
X7.4409Y-3.2185
X7.4606Y-4.7736
X7.4803Y-5.1969
X7.5Y-3.878
X7.5Y-4.1437
X7.5098Y-3.6122
X7.5394Y-3.6909
X7.5886Y-4.6161
X7.5984Y-3.2874
X7.6673Y-5.0689
X7.687Y-5.4724
X7.7067Y-3.4154
X7.7953Y-3.9469
X7.8051Y-3.6516
X7.8642Y-5.6693
X7.9134Y-3.1791
X7.9232Y-5.0394
X7.9823Y-3.7894
X7.9921Y-5.3839
X8.002Y-4.3209
X8.0413Y-4.7441
X8.0512Y-3.4154
X8.0512Y-4.5768
X8.0709Y-3.2874
X8.0807Y-3.6122
X8.1004Y-3.9469
X8.1102Y-4.4882
X8.2185Y-5.0295
X8.4646Y-4.5669
X8.4646Y-4.6949
X8.4744Y-3.2874
X8.563Y-3.1791
X8.563Y-3.2874
X8.5728Y-3.9075
X8.6122Y-5.5217
X8.6811Y-5.0492
X8.6909Y-4.8622
X8.7008Y-3.3957
X8.7205Y-4.0453
X8.7402Y-4.2913
X8.7795Y-5.3937
X8.8287Y-3.5335
X8.8287Y-4.7047
X8.878Y-3.9567
X8.878Y-5.0984
X8.9075Y-5.2559
X8.9173Y-3.2972
X8.9567Y-3.4055
X8.9764Y-3.5236
X8.9862Y-4.7638
X8.9961Y-4.3012
X9.0157Y-3.6909
X9.0157Y-4.1043
X9.0453Y-5.6398
X9.065Y-4.6063
X9.1043Y-3.2283
X9.1142Y-4.4193
X9.1535Y-5.2067
X9.1634Y-5.5413
X9.2618Y-4.0354
X9.3504Y-5.2165
X9.3602Y-3.4744
X9.3701Y-5.6791
X9.4291Y-4.2717
X9.4587Y-4.9803
X9.4783Y-3.6614
X9.4882Y-4.6949
X9.498Y-4.4193
X9.5276Y-5.3839
X9.5472Y-3.8091
X9.5669Y-5.5118
X9.6161Y-3.2382
X9.626Y-4.1634
X9.626Y-5.2264
X9.6358Y-4.8228
X9.685Y-5.6398
X9.7244Y-3.5531
X9.7244Y-3.9665
X9.7343Y-4.5079
X9.7343Y-5.0886
T2
X7.56Y-3.94
X7.89Y-4.09
X7.89Y-4.19
X7.9348Y-4.7379
X7.9496Y-4.4869
X8.19Y-3.69
X8.2685Y-3.8963
X8.3856Y-3.7605
X8.485Y-4.8333
X8.52Y-4.12
X8.5362Y-4.7989
X8.67Y-4.2083
X8.738Y-3.9573
X9.0598Y-4.0066
X9.1779Y-4.0538
X9.1858Y-3.9829
X9.3511Y-3.7649
T3
X9.19Y-5.05
X9.2217Y-4.7728
X9.23Y-4.21
X9.29Y-5.05
X9.29Y-5.15
X9.3217Y-4.7728
X9.3217Y-4.8728
X9.33Y-4.21
X9.33Y-4.31
T4
X7.7953Y-4.585
X7.7953Y-4.685
X7.7953Y-4.785
X8.32Y-4.28
X8.34Y-3.71
X8.34Y-3.81
X8.42Y-4.28
X8.44Y-3.71
X8.44Y-3.81
X8.54Y-3.71
X8.54Y-3.81
T5
X8.151Y-5.58
X8.349Y-5.58
T0
M30
