G04 (created by PCBNEW (2013-jul-07)-stable) date pon, 28 lis 2016, 06:01:28*
%MOIN*%
G04 Gerber Fmt 3.4, Leading zero omitted, Abs format*
%FSLAX34Y34*%
G01*
G70*
G90*
G04 APERTURE LIST*
%ADD10C,0.00393701*%
%ADD11R,0.055X0.055*%
%ADD12C,0.055*%
%ADD13R,0.08X0.06*%
%ADD14R,0.06X0.08*%
%ADD15R,0.055X0.035*%
%ADD16R,0.045X0.025*%
%ADD17R,0.025X0.045*%
%ADD18R,0.0787X0.2165*%
%ADD19R,0.06X0.06*%
%ADD20C,0.06*%
%ADD21O,0.11X0.055*%
%ADD22O,0.078X0.156*%
%ADD23C,0.0354331*%
G04 APERTURE END LIST*
G54D10*
G54D11*
X93300Y-43100D03*
G54D12*
X93300Y-42100D03*
X92300Y-42100D03*
G54D11*
X93216Y-48728D03*
G54D12*
X93216Y-47728D03*
X92216Y-47728D03*
G54D11*
X92900Y-51500D03*
G54D12*
X92900Y-50500D03*
X91900Y-50500D03*
G54D13*
X84400Y-40550D03*
X84400Y-39250D03*
G54D14*
X83800Y-53950D03*
X82500Y-53950D03*
G54D15*
X75600Y-38025D03*
X75600Y-38775D03*
X75600Y-40775D03*
X75600Y-40025D03*
G54D16*
X91779Y-43436D03*
X91779Y-42836D03*
G54D17*
X93100Y-46700D03*
X92500Y-46700D03*
G54D16*
X83100Y-43900D03*
X83100Y-44500D03*
X83500Y-40900D03*
X83500Y-41500D03*
X83100Y-45100D03*
X83100Y-45700D03*
X83900Y-46300D03*
X83900Y-45700D03*
X83900Y-45100D03*
X83900Y-44500D03*
X80350Y-52000D03*
X80350Y-51400D03*
G54D17*
X78646Y-49212D03*
X78046Y-49212D03*
G54D16*
X84300Y-41900D03*
X84300Y-41300D03*
G54D17*
X92700Y-49600D03*
X92100Y-49600D03*
G54D16*
X83100Y-46300D03*
X83100Y-46900D03*
X83900Y-47500D03*
X83900Y-46900D03*
G54D18*
X77100Y-37550D03*
X77100Y-41250D03*
G54D19*
X85400Y-38100D03*
G54D20*
X85400Y-37100D03*
X84400Y-38100D03*
X84400Y-37100D03*
X83400Y-38100D03*
X83400Y-37100D03*
G54D19*
X77952Y-45850D03*
G54D20*
X77952Y-46850D03*
X77952Y-47850D03*
G54D19*
X83200Y-42800D03*
G54D20*
X84200Y-42800D03*
G54D21*
X81550Y-52600D03*
X81550Y-51600D03*
X81550Y-50600D03*
X81550Y-49600D03*
X84550Y-49600D03*
X84550Y-50600D03*
X84550Y-51600D03*
X84550Y-52600D03*
G54D22*
X83490Y-55800D03*
X81510Y-55800D03*
G54D12*
X78900Y-46900D03*
X78900Y-45900D03*
X78900Y-44900D03*
X78900Y-43900D03*
X78900Y-42900D03*
X78900Y-41900D03*
X78900Y-40900D03*
X78900Y-39900D03*
X78900Y-38900D03*
X78900Y-37900D03*
X78900Y-36900D03*
X78900Y-35900D03*
X78900Y-34900D03*
G54D11*
X78900Y-47900D03*
G54D12*
X81900Y-34900D03*
X81900Y-35900D03*
X81900Y-36900D03*
X81900Y-37900D03*
X81900Y-38900D03*
X81900Y-39900D03*
X81900Y-40900D03*
X81900Y-41900D03*
X81900Y-42900D03*
X81900Y-43900D03*
X81900Y-44900D03*
X81900Y-45900D03*
X81900Y-46900D03*
X81900Y-47900D03*
G54D15*
X82700Y-40525D03*
X82700Y-41275D03*
G54D23*
X72539Y-37007D03*
X72539Y-39763D03*
X72637Y-45866D03*
X74606Y-47736D03*
X74803Y-51968D03*
X76673Y-50688D03*
X75885Y-46161D03*
X74114Y-42814D03*
X73818Y-36909D03*
X72440Y-35236D03*
X73917Y-34842D03*
X75984Y-32874D03*
X84744Y-32874D03*
X80708Y-32874D03*
X80511Y-34153D03*
X77066Y-34153D03*
X75098Y-36122D03*
X74409Y-32185D03*
X79133Y-31791D03*
X85629Y-31791D03*
X85629Y-32874D03*
X89173Y-32972D03*
X91043Y-32283D03*
X93602Y-34744D03*
X97244Y-35531D03*
X95472Y-38090D03*
X97244Y-39665D03*
X97342Y-45078D03*
X97342Y-50885D03*
X96850Y-56397D03*
X93700Y-56791D03*
X90452Y-56397D03*
X87795Y-53937D03*
X89074Y-52559D03*
X91535Y-52066D03*
X93503Y-52165D03*
X91633Y-55413D03*
X95669Y-55118D03*
X96259Y-52263D03*
X96358Y-48228D03*
X96259Y-41633D03*
X94980Y-44192D03*
X94881Y-46948D03*
X94586Y-49803D03*
X95275Y-53838D03*
X86122Y-55216D03*
X88779Y-50984D03*
X86909Y-48622D03*
X88287Y-47047D03*
X89862Y-47637D03*
X90649Y-46062D03*
X91141Y-44192D03*
X89960Y-43011D03*
X92618Y-40354D03*
X90157Y-41043D03*
X88779Y-39566D03*
X90157Y-36909D03*
X89763Y-35236D03*
X88287Y-35334D03*
X89566Y-34055D03*
X87007Y-33956D03*
X80807Y-36122D03*
X79822Y-37893D03*
X81003Y-39468D03*
X80511Y-45767D03*
X80413Y-47440D03*
X82185Y-50295D03*
X79232Y-50393D03*
X79921Y-53838D03*
X78641Y-56692D03*
X76870Y-54724D03*
X73818Y-55905D03*
X72736Y-49901D03*
X77952Y-39468D03*
X75393Y-36909D03*
X75000Y-41437D03*
X75000Y-38779D03*
X80019Y-43208D03*
X87401Y-42913D03*
X87204Y-40452D03*
X85728Y-39074D03*
X96161Y-32381D03*
X94783Y-36614D03*
X81102Y-44881D03*
X84645Y-45669D03*
X84645Y-46948D03*
X78051Y-36515D03*
X94291Y-42716D03*
X86811Y-50492D03*
M02*
