G04 (created by PCBNEW (2013-jul-07)-stable) date pon, 28 lis 2016, 06:01:28*
%MOIN*%
G04 Gerber Fmt 3.4, Leading zero omitted, Abs format*
%FSLAX34Y34*%
G01*
G70*
G90*
G04 APERTURE LIST*
%ADD10C,0.00393701*%
%ADD11R,0.055X0.055*%
%ADD12C,0.055*%
%ADD13R,0.0551X0.0138*%
%ADD14R,0.06X0.08*%
%ADD15R,0.08X0.06*%
%ADD16R,0.045X0.025*%
%ADD17R,0.025X0.045*%
%ADD18R,0.06X0.06*%
%ADD19C,0.06*%
%ADD20O,0.078X0.156*%
%ADD21R,0.1417X0.063*%
%ADD22O,0.11811X0.0787402*%
%ADD23R,0.035X0.055*%
%ADD24C,0.0354331*%
%ADD25C,0.0393701*%
%ADD26C,0.0590551*%
%ADD27C,0.025*%
%ADD28C,0.014*%
%ADD29C,0.0137795*%
%ADD30C,0.019685*%
G04 APERTURE END LIST*
G54D10*
G54D11*
X93300Y-43100D03*
G54D12*
X93300Y-42100D03*
X92300Y-42100D03*
G54D11*
X93216Y-48728D03*
G54D12*
X93216Y-47728D03*
X92216Y-47728D03*
G54D11*
X92900Y-51500D03*
G54D12*
X92900Y-50500D03*
X91900Y-50500D03*
G54D13*
X91141Y-40944D03*
X91141Y-40551D03*
X91141Y-40157D03*
X91141Y-39763D03*
X91141Y-39370D03*
X91141Y-38976D03*
X91141Y-38582D03*
X91141Y-38188D03*
X91141Y-37795D03*
X91141Y-37401D03*
X91141Y-37007D03*
X91141Y-36614D03*
X87992Y-36614D03*
X87992Y-37007D03*
X87992Y-37401D03*
X87992Y-37795D03*
X87992Y-38188D03*
X87992Y-38582D03*
X87992Y-38976D03*
X87992Y-39370D03*
X87992Y-39763D03*
X87992Y-40157D03*
X87992Y-40551D03*
X87992Y-40944D03*
G54D14*
X82650Y-52700D03*
X81350Y-52700D03*
G54D15*
X83400Y-51224D03*
X83400Y-49771D03*
G54D16*
X88150Y-46000D03*
X88150Y-45400D03*
X88850Y-46000D03*
X88850Y-45400D03*
X89550Y-46000D03*
X89550Y-45400D03*
X87300Y-52500D03*
X87300Y-53100D03*
G54D17*
X82200Y-54000D03*
X82800Y-54000D03*
G54D16*
X86500Y-52500D03*
X86500Y-53100D03*
X75800Y-51500D03*
X75800Y-52100D03*
X75557Y-42859D03*
X75557Y-43459D03*
G54D17*
X91747Y-54055D03*
X92347Y-54055D03*
G54D16*
X76357Y-42859D03*
X76357Y-43459D03*
G54D17*
X91747Y-53267D03*
X92347Y-53267D03*
G54D16*
X76600Y-51500D03*
X76600Y-52100D03*
X94881Y-41432D03*
X94881Y-42032D03*
X85200Y-42900D03*
X85200Y-43500D03*
X94094Y-40566D03*
X94094Y-41166D03*
X86000Y-42900D03*
X86000Y-43500D03*
X77702Y-35087D03*
X77702Y-35687D03*
X86800Y-36100D03*
X86800Y-35500D03*
X86000Y-36100D03*
X86000Y-35500D03*
X78502Y-35087D03*
X78502Y-35687D03*
X94881Y-35369D03*
X94881Y-35969D03*
X95590Y-35369D03*
X95590Y-35969D03*
X80000Y-41200D03*
X80000Y-40600D03*
G54D18*
X85400Y-38100D03*
G54D19*
X85400Y-37100D03*
X84400Y-38100D03*
X84400Y-37100D03*
X83400Y-38100D03*
X83400Y-37100D03*
G54D18*
X77952Y-45850D03*
G54D19*
X77952Y-46850D03*
X77952Y-47850D03*
G54D18*
X83200Y-42800D03*
G54D19*
X84200Y-42800D03*
G54D20*
X83490Y-55800D03*
X81510Y-55800D03*
G54D21*
X88117Y-43800D03*
X90283Y-43800D03*
X89983Y-50500D03*
X87817Y-50500D03*
G54D22*
X76181Y-53149D03*
X84842Y-53149D03*
X93503Y-53149D03*
X76181Y-44488D03*
X84842Y-44488D03*
X93503Y-44488D03*
X76181Y-35826D03*
X84842Y-35826D03*
X93503Y-35826D03*
X93503Y-37007D03*
X93503Y-45669D03*
X93503Y-54330D03*
G54D12*
X78900Y-41900D03*
X78900Y-40900D03*
X81900Y-36900D03*
G54D23*
X88425Y-48800D03*
X89234Y-48800D03*
X89548Y-42125D03*
X88798Y-42125D03*
G54D24*
X72539Y-37007D03*
X72539Y-39763D03*
X72637Y-45866D03*
X74606Y-47736D03*
X74803Y-51968D03*
X76673Y-50688D03*
X75885Y-46161D03*
X74114Y-42814D03*
X73818Y-36909D03*
X72440Y-35236D03*
X73917Y-34842D03*
X75984Y-32874D03*
X84744Y-32874D03*
X80708Y-32874D03*
X80511Y-34153D03*
X77066Y-34153D03*
X75098Y-36122D03*
X74409Y-32185D03*
X79133Y-31791D03*
X85629Y-31791D03*
X85629Y-32874D03*
X89173Y-32972D03*
X91043Y-32283D03*
X93602Y-34744D03*
X97244Y-35531D03*
X95472Y-38090D03*
X97244Y-39665D03*
X97342Y-45078D03*
X97342Y-50885D03*
X96850Y-56397D03*
X93700Y-56791D03*
X90452Y-56397D03*
X87795Y-53937D03*
X89074Y-52559D03*
X91535Y-52066D03*
X93503Y-52165D03*
X91633Y-55413D03*
X95669Y-55118D03*
X96259Y-52263D03*
X96358Y-48228D03*
X96259Y-41633D03*
X94980Y-44192D03*
X94881Y-46948D03*
X94586Y-49803D03*
X95275Y-53838D03*
X86122Y-55216D03*
X88779Y-50984D03*
X86909Y-48622D03*
X88287Y-47047D03*
X89862Y-47637D03*
X90649Y-46062D03*
X91141Y-44192D03*
X89960Y-43011D03*
X92618Y-40354D03*
X90157Y-41043D03*
X88779Y-39566D03*
X90157Y-36909D03*
X89763Y-35236D03*
X88287Y-35334D03*
X89566Y-34055D03*
X87007Y-33956D03*
X80807Y-36122D03*
X79822Y-37893D03*
X81003Y-39468D03*
X80511Y-45767D03*
X80413Y-47440D03*
X82185Y-50295D03*
X79232Y-50393D03*
X79921Y-53838D03*
X78641Y-56692D03*
X76870Y-54724D03*
X73818Y-55905D03*
X72736Y-49901D03*
X77952Y-39468D03*
X75393Y-36909D03*
X75000Y-41437D03*
X75000Y-38779D03*
X80019Y-43208D03*
X87401Y-42913D03*
X87204Y-40452D03*
X85728Y-39074D03*
X96161Y-32381D03*
X94783Y-36614D03*
X81102Y-44881D03*
X84645Y-45669D03*
X84645Y-46948D03*
X78051Y-36515D03*
X94291Y-42716D03*
X86811Y-50492D03*
G54D25*
X86700Y-42083D03*
X85361Y-47988D03*
X93511Y-37648D03*
X85200Y-41200D03*
X90598Y-40065D03*
X75600Y-39400D03*
X83855Y-37604D03*
X79348Y-47378D03*
X82684Y-38963D03*
X91857Y-39829D03*
X87379Y-39573D03*
X91779Y-40537D03*
X84850Y-48333D03*
X79495Y-44868D03*
G54D26*
X83464Y-51950D02*
X83464Y-51574D01*
G54D27*
X83400Y-51510D02*
X83400Y-51150D01*
X83464Y-51574D02*
X83400Y-51510D01*
X86700Y-46650D02*
X86700Y-42083D01*
X85361Y-47988D02*
X86700Y-46650D01*
X89175Y-48800D02*
X89983Y-48800D01*
X89983Y-48800D02*
X90000Y-48800D01*
X90000Y-48800D02*
X89983Y-48800D01*
G54D26*
X83400Y-51950D02*
X83464Y-51950D01*
X83464Y-51950D02*
X85350Y-51950D01*
X89983Y-51217D02*
X89983Y-50500D01*
X89500Y-51700D02*
X89983Y-51217D01*
X85600Y-51700D02*
X89500Y-51700D01*
X85350Y-51950D02*
X85600Y-51700D01*
X89983Y-50500D02*
X89983Y-48800D01*
X89983Y-48800D02*
X89983Y-48517D01*
X89983Y-48517D02*
X91500Y-47000D01*
X91500Y-47000D02*
X91500Y-46100D01*
X91500Y-46100D02*
X92300Y-45300D01*
X92300Y-45300D02*
X92300Y-42100D01*
X92216Y-47728D02*
X91000Y-48944D01*
X91000Y-48944D02*
X91000Y-50500D01*
X83400Y-51950D02*
X82650Y-52700D01*
X89983Y-50500D02*
X91000Y-50500D01*
X91000Y-50500D02*
X91200Y-50500D01*
X91200Y-50500D02*
X91900Y-50500D01*
G54D27*
X82800Y-54000D02*
X83490Y-54000D01*
X83490Y-54000D02*
X83500Y-54000D01*
X83500Y-54000D02*
X83490Y-54000D01*
G54D26*
X83490Y-55800D02*
X83490Y-54000D01*
X83490Y-54000D02*
X83490Y-53540D01*
X83490Y-53540D02*
X82650Y-52700D01*
X92900Y-50500D02*
X93255Y-50500D01*
X94173Y-54330D02*
X93503Y-54330D01*
X94566Y-53937D02*
X94173Y-54330D01*
X94566Y-51811D02*
X94566Y-53937D01*
X93255Y-50500D02*
X94566Y-51811D01*
X93216Y-47728D02*
X93503Y-47440D01*
X93503Y-47440D02*
X93503Y-45669D01*
X93503Y-37007D02*
X93503Y-37641D01*
X93503Y-37641D02*
X93511Y-37648D01*
G54D27*
X76600Y-52100D02*
X75800Y-52100D01*
X76181Y-53149D02*
X76181Y-52631D01*
X75800Y-52375D02*
X75800Y-52100D01*
X75900Y-52475D02*
X75800Y-52375D01*
X76025Y-52475D02*
X75900Y-52475D01*
X76181Y-52631D02*
X76025Y-52475D01*
X86500Y-53100D02*
X87300Y-53100D01*
X84842Y-53149D02*
X85750Y-53149D01*
X85800Y-53100D02*
X86500Y-53100D01*
X85750Y-53149D02*
X85800Y-53100D01*
X92347Y-54055D02*
X92347Y-53267D01*
X93503Y-53149D02*
X92834Y-53149D01*
X92716Y-53267D02*
X92347Y-53267D01*
X92834Y-53149D02*
X92716Y-53267D01*
X76357Y-43459D02*
X75557Y-43459D01*
X76181Y-44488D02*
X76181Y-43976D01*
X76357Y-43800D02*
X76357Y-43459D01*
X76181Y-43976D02*
X76357Y-43800D01*
X85200Y-43500D02*
X86000Y-43500D01*
X84842Y-44488D02*
X84842Y-43857D01*
X84842Y-43857D02*
X85200Y-43500D01*
X94881Y-42032D02*
X94866Y-42047D01*
X94094Y-41574D02*
X94094Y-41166D01*
X94566Y-42047D02*
X94094Y-41574D01*
X94866Y-42047D02*
X94566Y-42047D01*
X93503Y-44488D02*
X94881Y-43110D01*
X94881Y-43110D02*
X94881Y-42032D01*
X76181Y-35826D02*
X77086Y-35826D01*
X77225Y-35687D02*
X77702Y-35687D01*
X77086Y-35826D02*
X77225Y-35687D01*
X77702Y-35687D02*
X78502Y-35687D01*
X86000Y-35500D02*
X85602Y-35500D01*
X85275Y-35826D02*
X84842Y-35826D01*
X85602Y-35500D02*
X85275Y-35826D01*
X86000Y-35500D02*
X86800Y-35500D01*
X94881Y-35969D02*
X95590Y-35969D01*
X93503Y-35826D02*
X94251Y-35826D01*
X94394Y-35969D02*
X94881Y-35969D01*
X94251Y-35826D02*
X94394Y-35969D01*
X80000Y-41200D02*
X79600Y-41200D01*
X79300Y-41500D02*
X79300Y-41900D01*
X79600Y-41200D02*
X79300Y-41500D01*
G54D26*
X78900Y-41900D02*
X79300Y-41900D01*
X79300Y-41900D02*
X84500Y-41900D01*
X84500Y-41900D02*
X85200Y-41200D01*
G54D28*
X91141Y-40157D02*
X90689Y-40157D01*
X90689Y-40157D02*
X90598Y-40065D01*
G54D27*
X89548Y-42125D02*
X89823Y-42125D01*
X89837Y-42112D02*
X90283Y-42112D01*
X89823Y-42125D02*
X89837Y-42112D01*
G54D28*
X91141Y-40944D02*
X90742Y-40944D01*
G54D26*
X90283Y-41404D02*
X90598Y-41089D01*
X90283Y-41404D02*
X90283Y-42112D01*
X90283Y-42112D02*
X90283Y-43800D01*
G54D28*
X90742Y-40944D02*
X90598Y-41089D01*
G54D27*
X78101Y-40101D02*
X80224Y-37978D01*
X82521Y-37978D02*
X83400Y-37100D01*
X80224Y-37978D02*
X82521Y-37978D01*
X88425Y-48800D02*
X87700Y-48800D01*
X87700Y-48800D02*
X87350Y-48450D01*
X80000Y-40600D02*
X79200Y-40600D01*
X79200Y-40600D02*
X78900Y-40900D01*
G54D26*
X86000Y-49800D02*
X87350Y-48450D01*
X87350Y-48450D02*
X88450Y-47350D01*
X90283Y-46000D02*
X90283Y-46517D01*
X86000Y-49800D02*
X86000Y-50500D01*
X89450Y-47350D02*
X90283Y-46517D01*
X88450Y-47350D02*
X89450Y-47350D01*
G54D27*
X89550Y-46000D02*
X90283Y-46000D01*
X90283Y-46000D02*
X90300Y-46000D01*
X90300Y-46000D02*
X90283Y-46000D01*
X77952Y-47850D02*
X78549Y-47850D01*
X78150Y-41650D02*
X78900Y-40900D01*
X78150Y-42150D02*
X78150Y-41650D01*
X78750Y-42750D02*
X78150Y-42150D01*
X78750Y-47650D02*
X78750Y-42750D01*
X78549Y-47850D02*
X78750Y-47650D01*
G54D26*
X90283Y-43800D02*
X90283Y-46000D01*
X84800Y-50500D02*
X85300Y-50500D01*
X78900Y-40900D02*
X78495Y-40495D01*
X78495Y-40495D02*
X78101Y-40101D01*
X78101Y-40101D02*
X77400Y-39400D01*
X77400Y-39400D02*
X75600Y-39400D01*
X81350Y-52700D02*
X81350Y-51850D01*
X82700Y-50500D02*
X84800Y-50500D01*
X84800Y-50500D02*
X86000Y-50500D01*
X86000Y-50500D02*
X87817Y-50500D01*
X81350Y-51850D02*
X82700Y-50500D01*
G54D27*
X82200Y-54000D02*
X81350Y-54000D01*
G54D26*
X81510Y-55800D02*
X81510Y-54510D01*
X81350Y-54350D02*
X81350Y-54000D01*
X81350Y-54000D02*
X81350Y-52700D01*
X81510Y-54510D02*
X81350Y-54350D01*
G54D28*
X85400Y-38100D02*
X84904Y-37604D01*
X84904Y-37604D02*
X83855Y-37604D01*
X81900Y-36900D02*
X82297Y-36502D01*
X83802Y-36502D02*
X84400Y-37100D01*
X82297Y-36502D02*
X83802Y-36502D01*
X83400Y-38100D02*
X83048Y-38451D01*
X79092Y-47122D02*
X79348Y-47378D01*
X79092Y-44681D02*
X79092Y-47122D01*
X79348Y-44425D02*
X79092Y-44681D01*
X79446Y-44425D02*
X79348Y-44425D01*
X83570Y-44425D02*
X79446Y-44425D01*
X84702Y-43293D02*
X83570Y-44425D01*
X84702Y-42575D02*
X84702Y-43293D01*
X85873Y-41404D02*
X84702Y-42575D01*
X85873Y-40656D02*
X85873Y-41404D01*
X85086Y-39868D02*
X85873Y-40656D01*
X82822Y-39868D02*
X85086Y-39868D01*
X82241Y-39287D02*
X82822Y-39868D01*
X82241Y-38667D02*
X82241Y-39287D01*
X82458Y-38451D02*
X82241Y-38667D01*
X83048Y-38451D02*
X82458Y-38451D01*
X84400Y-38100D02*
X83536Y-38963D01*
X83536Y-38963D02*
X82684Y-38963D01*
X91477Y-39763D02*
X91141Y-39763D01*
X91542Y-39829D02*
X91477Y-39763D01*
X91857Y-39829D02*
X91542Y-39829D01*
G54D27*
X88850Y-46000D02*
X88150Y-46000D01*
X89550Y-45400D02*
X88850Y-45400D01*
G54D26*
X84700Y-49750D02*
X87350Y-47100D01*
G54D28*
X83400Y-49850D02*
X83500Y-49750D01*
G54D26*
X84550Y-49750D02*
X84700Y-49750D01*
X83500Y-49750D02*
X84550Y-49750D01*
X87350Y-44567D02*
X88117Y-43800D01*
X87350Y-47100D02*
X87350Y-44567D01*
G54D27*
X88798Y-42125D02*
X88117Y-42125D01*
G54D26*
X88117Y-43800D02*
X88117Y-42125D01*
X88117Y-42125D02*
X88117Y-41463D01*
G54D27*
X87992Y-41338D02*
X87992Y-40944D01*
G54D26*
X88117Y-41463D02*
X87992Y-41338D01*
G54D28*
X88150Y-45400D02*
X88150Y-45125D01*
X88426Y-40551D02*
X87992Y-40551D01*
X88475Y-40600D02*
X88426Y-40551D01*
X88475Y-41100D02*
X88475Y-40600D01*
X88625Y-41250D02*
X88475Y-41100D01*
X88625Y-41425D02*
X88625Y-41250D01*
X88750Y-41550D02*
X88625Y-41425D01*
X89050Y-41550D02*
X88750Y-41550D01*
X89175Y-41675D02*
X89050Y-41550D01*
X89175Y-42950D02*
X89175Y-41675D01*
X89200Y-42975D02*
X89175Y-42950D01*
X89200Y-44375D02*
X89200Y-42975D01*
X88900Y-44675D02*
X89200Y-44375D01*
X88600Y-44675D02*
X88900Y-44675D01*
X88150Y-45125D02*
X88600Y-44675D01*
X87569Y-39763D02*
X87992Y-39763D01*
X87379Y-39573D02*
X87569Y-39763D01*
X91450Y-40551D02*
X91141Y-40551D01*
X91464Y-40537D02*
X91450Y-40551D01*
X91779Y-40537D02*
X91464Y-40537D01*
G54D27*
X91732Y-37795D02*
X92204Y-37795D01*
X75507Y-32342D02*
X89564Y-32342D01*
X75800Y-51500D02*
X75800Y-47425D01*
X73249Y-44874D02*
X73249Y-34600D01*
X75800Y-47425D02*
X73249Y-44874D01*
X73249Y-34600D02*
X75507Y-32342D01*
G54D28*
X91732Y-37795D02*
X91141Y-37795D01*
G54D27*
X92598Y-35376D02*
X89564Y-32342D01*
X92598Y-37401D02*
X92598Y-35376D01*
X92204Y-37795D02*
X92598Y-37401D01*
X76600Y-51500D02*
X75800Y-51500D01*
X91732Y-38582D02*
X94960Y-38582D01*
G54D28*
X91141Y-38582D02*
X91732Y-38582D01*
G54D27*
X94960Y-38582D02*
X96850Y-40472D01*
X87300Y-52500D02*
X87900Y-52500D01*
X96850Y-54930D02*
X96850Y-40472D01*
X95590Y-56190D02*
X96850Y-54930D01*
X91590Y-56190D02*
X95590Y-56190D01*
X87900Y-52500D02*
X91590Y-56190D01*
X86500Y-52500D02*
X87300Y-52500D01*
X94940Y-55118D02*
X95775Y-54283D01*
X91747Y-54424D02*
X92440Y-55118D01*
X92440Y-55118D02*
X94940Y-55118D01*
X91747Y-54055D02*
X91747Y-54424D01*
X95775Y-40341D02*
X94709Y-39275D01*
X95775Y-54283D02*
X95775Y-40341D01*
X91747Y-53267D02*
X91747Y-54055D01*
G54D28*
X91141Y-38976D02*
X91732Y-38976D01*
G54D27*
X94709Y-39275D02*
X94235Y-39275D01*
X93937Y-38976D02*
X91732Y-38976D01*
X94235Y-39275D02*
X93937Y-38976D01*
X76385Y-33451D02*
X74409Y-35427D01*
X92125Y-35748D02*
X92125Y-37165D01*
X91889Y-37401D02*
X91732Y-37401D01*
X92125Y-37165D02*
X91889Y-37401D01*
G54D28*
X91141Y-37401D02*
X91732Y-37401D01*
G54D27*
X89829Y-33451D02*
X76385Y-33451D01*
X92125Y-35748D02*
X89829Y-33451D01*
X74409Y-41711D02*
X75557Y-42859D01*
X74409Y-35427D02*
X74409Y-41711D01*
X76357Y-42859D02*
X75557Y-42859D01*
X87025Y-38150D02*
X87025Y-37069D01*
X86725Y-38450D02*
X87025Y-38150D01*
X86000Y-42900D02*
X86000Y-41850D01*
X86000Y-41850D02*
X86725Y-41125D01*
X86725Y-41125D02*
X86725Y-38450D01*
G54D28*
X87480Y-36614D02*
X87992Y-36614D01*
G54D27*
X87025Y-37069D02*
X87480Y-36614D01*
X85200Y-42900D02*
X86000Y-42900D01*
X94094Y-40566D02*
X94094Y-40236D01*
G54D28*
X91732Y-39370D02*
X91141Y-39370D01*
G54D27*
X92834Y-39370D02*
X91732Y-39370D01*
X93228Y-39763D02*
X92834Y-39370D01*
X93622Y-39763D02*
X93228Y-39763D01*
X94094Y-40236D02*
X93622Y-39763D01*
X94881Y-41432D02*
X94881Y-40866D01*
X94581Y-40566D02*
X94094Y-40566D01*
X94881Y-40866D02*
X94581Y-40566D01*
X78502Y-35087D02*
X83810Y-35087D01*
G54D28*
X91732Y-37007D02*
X91141Y-37007D01*
G54D27*
X91732Y-36220D02*
X91732Y-37007D01*
X90157Y-34645D02*
X91732Y-36220D01*
X84251Y-34645D02*
X90157Y-34645D01*
X83810Y-35087D02*
X84251Y-34645D01*
X77702Y-35087D02*
X78502Y-35087D01*
X89921Y-35850D02*
X90731Y-35850D01*
G54D28*
X91141Y-36496D02*
X91141Y-36614D01*
X91102Y-36456D02*
X91141Y-36496D01*
X91102Y-36220D02*
X91102Y-36456D01*
G54D27*
X90731Y-35850D02*
X91102Y-36220D01*
X86800Y-36100D02*
X89500Y-36100D01*
X89750Y-35850D02*
X89921Y-35850D01*
X89921Y-35850D02*
X89925Y-35850D01*
X89500Y-36100D02*
X89750Y-35850D01*
X86000Y-36100D02*
X86800Y-36100D01*
G54D28*
X91141Y-38188D02*
X91732Y-38188D01*
G54D27*
X96077Y-35369D02*
X96299Y-35590D01*
X96299Y-35590D02*
X96299Y-36377D01*
X96299Y-36377D02*
X94488Y-38188D01*
X94488Y-38188D02*
X91732Y-38188D01*
X96077Y-35369D02*
X95590Y-35369D01*
X95590Y-35369D02*
X94881Y-35369D01*
G54D28*
X83511Y-47939D02*
X83905Y-48333D01*
X83511Y-47939D02*
X80440Y-44868D01*
X80440Y-44868D02*
X79495Y-44868D01*
X83905Y-48333D02*
X84850Y-48333D01*
G54D10*
G36*
X87146Y-36451D02*
X86776Y-36821D01*
X86700Y-36935D01*
X86673Y-37069D01*
X86673Y-38004D01*
X86476Y-38201D01*
X86400Y-38315D01*
X86373Y-38450D01*
X86373Y-40979D01*
X86170Y-41183D01*
X86170Y-40656D01*
X86147Y-40542D01*
X86147Y-40542D01*
X86083Y-40446D01*
X85706Y-40069D01*
X85706Y-38626D01*
X85744Y-38626D01*
X85828Y-38592D01*
X85891Y-38528D01*
X85926Y-38445D01*
X85926Y-38355D01*
X85926Y-37755D01*
X85892Y-37671D01*
X85828Y-37608D01*
X85745Y-37573D01*
X85706Y-37573D01*
X85706Y-37537D01*
X85845Y-37398D01*
X85926Y-37205D01*
X85926Y-36995D01*
X85846Y-36802D01*
X85706Y-36661D01*
X85706Y-36441D01*
X85729Y-36451D01*
X85819Y-36451D01*
X86269Y-36451D01*
X86269Y-36451D01*
X86575Y-36451D01*
X86619Y-36451D01*
X87069Y-36451D01*
X87069Y-36451D01*
X87146Y-36451D01*
X87146Y-36451D01*
G37*
G54D29*
X87146Y-36451D02*
X86776Y-36821D01*
X86700Y-36935D01*
X86673Y-37069D01*
X86673Y-38004D01*
X86476Y-38201D01*
X86400Y-38315D01*
X86373Y-38450D01*
X86373Y-40979D01*
X86170Y-41183D01*
X86170Y-40656D01*
X86147Y-40542D01*
X86147Y-40542D01*
X86083Y-40446D01*
X85706Y-40069D01*
X85706Y-38626D01*
X85744Y-38626D01*
X85828Y-38592D01*
X85891Y-38528D01*
X85926Y-38445D01*
X85926Y-38355D01*
X85926Y-37755D01*
X85892Y-37671D01*
X85828Y-37608D01*
X85745Y-37573D01*
X85706Y-37573D01*
X85706Y-37537D01*
X85845Y-37398D01*
X85926Y-37205D01*
X85926Y-36995D01*
X85846Y-36802D01*
X85706Y-36661D01*
X85706Y-36441D01*
X85729Y-36451D01*
X85819Y-36451D01*
X86269Y-36451D01*
X86269Y-36451D01*
X86575Y-36451D01*
X86619Y-36451D01*
X87069Y-36451D01*
X87069Y-36451D01*
X87146Y-36451D01*
G54D10*
G36*
X87595Y-43258D02*
X87363Y-43258D01*
X87280Y-43292D01*
X87216Y-43356D01*
X87182Y-43439D01*
X87182Y-43529D01*
X87182Y-43997D01*
X87051Y-44127D01*
X87051Y-42330D01*
X87058Y-42323D01*
X87123Y-42167D01*
X87123Y-41999D01*
X87059Y-41843D01*
X86940Y-41724D01*
X86784Y-41660D01*
X86686Y-41660D01*
X86973Y-41373D01*
X87049Y-41259D01*
X87076Y-41125D01*
X87076Y-39868D01*
X87139Y-39932D01*
X87294Y-39996D01*
X87395Y-39996D01*
X87395Y-39996D01*
X87456Y-40037D01*
X87456Y-40037D01*
X87490Y-40044D01*
X87490Y-40133D01*
X87490Y-40271D01*
X87524Y-40354D01*
X87490Y-40436D01*
X87490Y-40527D01*
X87490Y-40665D01*
X87524Y-40748D01*
X87490Y-40830D01*
X87490Y-40920D01*
X87490Y-41058D01*
X87518Y-41126D01*
X87510Y-41138D01*
X87470Y-41338D01*
X87510Y-41538D01*
X87595Y-41665D01*
X87595Y-42125D01*
X87595Y-43258D01*
X87595Y-43258D01*
G37*
G54D29*
X87595Y-43258D02*
X87363Y-43258D01*
X87280Y-43292D01*
X87216Y-43356D01*
X87182Y-43439D01*
X87182Y-43529D01*
X87182Y-43997D01*
X87051Y-44127D01*
X87051Y-42330D01*
X87058Y-42323D01*
X87123Y-42167D01*
X87123Y-41999D01*
X87059Y-41843D01*
X86940Y-41724D01*
X86784Y-41660D01*
X86686Y-41660D01*
X86973Y-41373D01*
X87049Y-41259D01*
X87076Y-41125D01*
X87076Y-39868D01*
X87139Y-39932D01*
X87294Y-39996D01*
X87395Y-39996D01*
X87395Y-39996D01*
X87456Y-40037D01*
X87456Y-40037D01*
X87490Y-40044D01*
X87490Y-40133D01*
X87490Y-40271D01*
X87524Y-40354D01*
X87490Y-40436D01*
X87490Y-40527D01*
X87490Y-40665D01*
X87524Y-40748D01*
X87490Y-40830D01*
X87490Y-40920D01*
X87490Y-41058D01*
X87518Y-41126D01*
X87510Y-41138D01*
X87470Y-41338D01*
X87510Y-41538D01*
X87595Y-41665D01*
X87595Y-42125D01*
X87595Y-43258D01*
G54D10*
G36*
X89824Y-33100D02*
X85706Y-33100D01*
X85706Y-32693D01*
X89418Y-32693D01*
X89824Y-33100D01*
X89824Y-33100D01*
G37*
G54D29*
X89824Y-33100D02*
X85706Y-33100D01*
X85706Y-32693D01*
X89418Y-32693D01*
X89824Y-33100D01*
G54D10*
G36*
X90179Y-34298D02*
X90157Y-34294D01*
X85706Y-34294D01*
X85706Y-33802D01*
X89683Y-33802D01*
X90179Y-34298D01*
X90179Y-34298D01*
G37*
G54D29*
X90179Y-34298D02*
X90157Y-34294D01*
X85706Y-34294D01*
X85706Y-33802D01*
X89683Y-33802D01*
X90179Y-34298D01*
G54D10*
G36*
X90513Y-35498D02*
X89925Y-35498D01*
X89921Y-35498D01*
X89750Y-35498D01*
X89615Y-35525D01*
X89501Y-35601D01*
X89501Y-35601D01*
X89354Y-35748D01*
X87218Y-35748D01*
X87251Y-35670D01*
X87251Y-35580D01*
X87251Y-35330D01*
X87217Y-35246D01*
X87153Y-35183D01*
X87070Y-35148D01*
X86980Y-35148D01*
X86530Y-35148D01*
X86530Y-35148D01*
X86224Y-35148D01*
X86180Y-35148D01*
X85730Y-35148D01*
X85730Y-35148D01*
X85706Y-35148D01*
X85706Y-34997D01*
X90011Y-34997D01*
X90513Y-35498D01*
X90513Y-35498D01*
G37*
G54D29*
X90513Y-35498D02*
X89925Y-35498D01*
X89921Y-35498D01*
X89750Y-35498D01*
X89615Y-35525D01*
X89501Y-35601D01*
X89501Y-35601D01*
X89354Y-35748D01*
X87218Y-35748D01*
X87251Y-35670D01*
X87251Y-35580D01*
X87251Y-35330D01*
X87217Y-35246D01*
X87153Y-35183D01*
X87070Y-35148D01*
X86980Y-35148D01*
X86530Y-35148D01*
X86530Y-35148D01*
X86224Y-35148D01*
X86180Y-35148D01*
X85730Y-35148D01*
X85730Y-35148D01*
X85706Y-35148D01*
X85706Y-34997D01*
X90011Y-34997D01*
X90513Y-35498D01*
G54D10*
G36*
X94530Y-42964D02*
X93627Y-43868D01*
X93291Y-43868D01*
X93053Y-43915D01*
X92852Y-44049D01*
X92821Y-44096D01*
X92821Y-43475D01*
X92832Y-43503D01*
X92896Y-43566D01*
X92979Y-43601D01*
X93069Y-43601D01*
X93619Y-43601D01*
X93703Y-43567D01*
X93766Y-43503D01*
X93801Y-43420D01*
X93801Y-43330D01*
X93801Y-42780D01*
X93767Y-42696D01*
X93703Y-42633D01*
X93620Y-42598D01*
X93530Y-42598D01*
X93406Y-42598D01*
X93583Y-42525D01*
X93724Y-42384D01*
X93801Y-42200D01*
X93801Y-42000D01*
X93725Y-41816D01*
X93584Y-41675D01*
X93400Y-41598D01*
X93200Y-41598D01*
X93016Y-41674D01*
X92875Y-41815D01*
X92800Y-41994D01*
X92781Y-41900D01*
X92668Y-41731D01*
X92499Y-41618D01*
X92300Y-41578D01*
X92100Y-41618D01*
X91931Y-41731D01*
X91818Y-41900D01*
X91778Y-42100D01*
X91778Y-45083D01*
X91131Y-45731D01*
X91018Y-45900D01*
X90978Y-46100D01*
X90978Y-46783D01*
X89614Y-48148D01*
X89501Y-48317D01*
X89500Y-48318D01*
X89500Y-48318D01*
X89454Y-48298D01*
X89364Y-48298D01*
X89014Y-48298D01*
X88930Y-48332D01*
X88867Y-48396D01*
X88832Y-48479D01*
X88832Y-48569D01*
X88832Y-48754D01*
X88823Y-48800D01*
X88832Y-48845D01*
X88832Y-49119D01*
X88867Y-49203D01*
X88930Y-49266D01*
X89013Y-49301D01*
X89103Y-49301D01*
X89453Y-49301D01*
X89461Y-49298D01*
X89461Y-49958D01*
X89229Y-49958D01*
X89146Y-49992D01*
X89082Y-50056D01*
X89048Y-50139D01*
X89048Y-50229D01*
X89048Y-50859D01*
X89082Y-50943D01*
X89146Y-51006D01*
X89229Y-51041D01*
X89319Y-51041D01*
X89420Y-51041D01*
X89283Y-51178D01*
X85706Y-51178D01*
X85706Y-49481D01*
X87718Y-47468D01*
X87718Y-47468D01*
X87775Y-47384D01*
X87831Y-47299D01*
X87831Y-47299D01*
X87871Y-47100D01*
X87871Y-47100D01*
X87871Y-46347D01*
X87879Y-46351D01*
X87969Y-46351D01*
X88419Y-46351D01*
X88419Y-46351D01*
X88625Y-46351D01*
X88669Y-46351D01*
X89119Y-46351D01*
X89203Y-46317D01*
X89266Y-46253D01*
X89301Y-46170D01*
X89301Y-46080D01*
X89301Y-45830D01*
X89268Y-45751D01*
X89325Y-45751D01*
X89369Y-45751D01*
X89819Y-45751D01*
X89903Y-45717D01*
X89966Y-45653D01*
X90001Y-45570D01*
X90001Y-45480D01*
X90001Y-45230D01*
X89967Y-45146D01*
X89903Y-45083D01*
X89820Y-45048D01*
X89730Y-45048D01*
X89280Y-45048D01*
X89280Y-45048D01*
X89074Y-45048D01*
X89030Y-45048D01*
X88645Y-45048D01*
X88722Y-44971D01*
X88900Y-44971D01*
X89013Y-44948D01*
X89109Y-44884D01*
X89409Y-44584D01*
X89409Y-44584D01*
X89409Y-44584D01*
X89473Y-44488D01*
X89473Y-44488D01*
X89491Y-44397D01*
X89496Y-44375D01*
X89496Y-44375D01*
X89496Y-44375D01*
X89496Y-42975D01*
X89473Y-42861D01*
X89473Y-42861D01*
X89471Y-42857D01*
X89471Y-42857D01*
X89471Y-41675D01*
X89471Y-41674D01*
X89448Y-41561D01*
X89448Y-41561D01*
X89384Y-41465D01*
X89384Y-41465D01*
X89259Y-41340D01*
X89163Y-41276D01*
X89050Y-41253D01*
X88921Y-41253D01*
X88921Y-41250D01*
X88898Y-41136D01*
X88898Y-41136D01*
X88834Y-41040D01*
X88771Y-40977D01*
X88771Y-40600D01*
X88748Y-40486D01*
X88748Y-40486D01*
X88684Y-40390D01*
X88635Y-40341D01*
X88539Y-40277D01*
X88493Y-40268D01*
X88494Y-40181D01*
X88494Y-40043D01*
X88459Y-39960D01*
X88493Y-39878D01*
X88494Y-39787D01*
X88494Y-39649D01*
X88459Y-39566D01*
X88493Y-39484D01*
X88494Y-39394D01*
X88494Y-39256D01*
X88459Y-39173D01*
X88493Y-39090D01*
X88494Y-39000D01*
X88494Y-38862D01*
X88459Y-38779D01*
X88493Y-38696D01*
X88494Y-38606D01*
X88494Y-38468D01*
X88459Y-38385D01*
X88493Y-38303D01*
X88494Y-38213D01*
X88494Y-38075D01*
X88459Y-37992D01*
X88493Y-37909D01*
X88494Y-37819D01*
X88494Y-37681D01*
X88459Y-37598D01*
X88493Y-37515D01*
X88494Y-37425D01*
X88494Y-37287D01*
X88459Y-37204D01*
X88493Y-37122D01*
X88494Y-37032D01*
X88494Y-36894D01*
X88459Y-36810D01*
X88493Y-36728D01*
X88494Y-36638D01*
X88494Y-36500D01*
X88473Y-36451D01*
X89500Y-36451D01*
X89634Y-36424D01*
X89748Y-36348D01*
X89895Y-36201D01*
X89921Y-36201D01*
X89925Y-36201D01*
X90586Y-36201D01*
X90738Y-36353D01*
X90674Y-36416D01*
X90639Y-36499D01*
X90639Y-36590D01*
X90639Y-36728D01*
X90674Y-36811D01*
X90639Y-36893D01*
X90639Y-36983D01*
X90639Y-37121D01*
X90674Y-37204D01*
X90639Y-37287D01*
X90639Y-37377D01*
X90639Y-37515D01*
X90674Y-37598D01*
X90639Y-37681D01*
X90639Y-37771D01*
X90639Y-37909D01*
X90674Y-37992D01*
X90639Y-38074D01*
X90639Y-38164D01*
X90639Y-38302D01*
X90674Y-38385D01*
X90639Y-38468D01*
X90639Y-38558D01*
X90639Y-38696D01*
X90674Y-38779D01*
X90639Y-38862D01*
X90639Y-38952D01*
X90639Y-39090D01*
X90674Y-39173D01*
X90639Y-39255D01*
X90639Y-39345D01*
X90639Y-39483D01*
X90674Y-39567D01*
X90642Y-39642D01*
X90514Y-39642D01*
X90358Y-39706D01*
X90239Y-39825D01*
X90174Y-39980D01*
X90174Y-40149D01*
X90239Y-40304D01*
X90357Y-40424D01*
X90513Y-40488D01*
X90639Y-40488D01*
X90639Y-40527D01*
X90639Y-40665D01*
X90674Y-40748D01*
X90737Y-40811D01*
X90821Y-40846D01*
X90911Y-40846D01*
X91136Y-40846D01*
X91141Y-40847D01*
X91450Y-40847D01*
X91455Y-40846D01*
X91462Y-40846D01*
X91467Y-40844D01*
X91483Y-40841D01*
X91539Y-40896D01*
X91694Y-40961D01*
X91862Y-40961D01*
X92018Y-40896D01*
X92137Y-40778D01*
X92202Y-40622D01*
X92202Y-40454D01*
X92138Y-40298D01*
X92048Y-40208D01*
X92097Y-40188D01*
X92216Y-40069D01*
X92281Y-39913D01*
X92281Y-39745D01*
X92271Y-39721D01*
X92689Y-39721D01*
X92979Y-40012D01*
X92979Y-40012D01*
X93093Y-40088D01*
X93228Y-40115D01*
X93476Y-40115D01*
X93676Y-40315D01*
X93643Y-40395D01*
X93643Y-40485D01*
X93643Y-40735D01*
X93677Y-40819D01*
X93724Y-40866D01*
X93677Y-40912D01*
X93643Y-40995D01*
X93643Y-41085D01*
X93643Y-41335D01*
X93677Y-41419D01*
X93741Y-41482D01*
X93743Y-41483D01*
X93743Y-41574D01*
X93769Y-41709D01*
X93846Y-41823D01*
X94318Y-42295D01*
X94432Y-42371D01*
X94530Y-42391D01*
X94530Y-42964D01*
X94530Y-42964D01*
G37*
G54D29*
X94530Y-42964D02*
X93627Y-43868D01*
X93291Y-43868D01*
X93053Y-43915D01*
X92852Y-44049D01*
X92821Y-44096D01*
X92821Y-43475D01*
X92832Y-43503D01*
X92896Y-43566D01*
X92979Y-43601D01*
X93069Y-43601D01*
X93619Y-43601D01*
X93703Y-43567D01*
X93766Y-43503D01*
X93801Y-43420D01*
X93801Y-43330D01*
X93801Y-42780D01*
X93767Y-42696D01*
X93703Y-42633D01*
X93620Y-42598D01*
X93530Y-42598D01*
X93406Y-42598D01*
X93583Y-42525D01*
X93724Y-42384D01*
X93801Y-42200D01*
X93801Y-42000D01*
X93725Y-41816D01*
X93584Y-41675D01*
X93400Y-41598D01*
X93200Y-41598D01*
X93016Y-41674D01*
X92875Y-41815D01*
X92800Y-41994D01*
X92781Y-41900D01*
X92668Y-41731D01*
X92499Y-41618D01*
X92300Y-41578D01*
X92100Y-41618D01*
X91931Y-41731D01*
X91818Y-41900D01*
X91778Y-42100D01*
X91778Y-45083D01*
X91131Y-45731D01*
X91018Y-45900D01*
X90978Y-46100D01*
X90978Y-46783D01*
X89614Y-48148D01*
X89501Y-48317D01*
X89500Y-48318D01*
X89500Y-48318D01*
X89454Y-48298D01*
X89364Y-48298D01*
X89014Y-48298D01*
X88930Y-48332D01*
X88867Y-48396D01*
X88832Y-48479D01*
X88832Y-48569D01*
X88832Y-48754D01*
X88823Y-48800D01*
X88832Y-48845D01*
X88832Y-49119D01*
X88867Y-49203D01*
X88930Y-49266D01*
X89013Y-49301D01*
X89103Y-49301D01*
X89453Y-49301D01*
X89461Y-49298D01*
X89461Y-49958D01*
X89229Y-49958D01*
X89146Y-49992D01*
X89082Y-50056D01*
X89048Y-50139D01*
X89048Y-50229D01*
X89048Y-50859D01*
X89082Y-50943D01*
X89146Y-51006D01*
X89229Y-51041D01*
X89319Y-51041D01*
X89420Y-51041D01*
X89283Y-51178D01*
X85706Y-51178D01*
X85706Y-49481D01*
X87718Y-47468D01*
X87718Y-47468D01*
X87775Y-47384D01*
X87831Y-47299D01*
X87831Y-47299D01*
X87871Y-47100D01*
X87871Y-47100D01*
X87871Y-46347D01*
X87879Y-46351D01*
X87969Y-46351D01*
X88419Y-46351D01*
X88419Y-46351D01*
X88625Y-46351D01*
X88669Y-46351D01*
X89119Y-46351D01*
X89203Y-46317D01*
X89266Y-46253D01*
X89301Y-46170D01*
X89301Y-46080D01*
X89301Y-45830D01*
X89268Y-45751D01*
X89325Y-45751D01*
X89369Y-45751D01*
X89819Y-45751D01*
X89903Y-45717D01*
X89966Y-45653D01*
X90001Y-45570D01*
X90001Y-45480D01*
X90001Y-45230D01*
X89967Y-45146D01*
X89903Y-45083D01*
X89820Y-45048D01*
X89730Y-45048D01*
X89280Y-45048D01*
X89280Y-45048D01*
X89074Y-45048D01*
X89030Y-45048D01*
X88645Y-45048D01*
X88722Y-44971D01*
X88900Y-44971D01*
X89013Y-44948D01*
X89109Y-44884D01*
X89409Y-44584D01*
X89409Y-44584D01*
X89409Y-44584D01*
X89473Y-44488D01*
X89473Y-44488D01*
X89491Y-44397D01*
X89496Y-44375D01*
X89496Y-44375D01*
X89496Y-44375D01*
X89496Y-42975D01*
X89473Y-42861D01*
X89473Y-42861D01*
X89471Y-42857D01*
X89471Y-42857D01*
X89471Y-41675D01*
X89471Y-41674D01*
X89448Y-41561D01*
X89448Y-41561D01*
X89384Y-41465D01*
X89384Y-41465D01*
X89259Y-41340D01*
X89163Y-41276D01*
X89050Y-41253D01*
X88921Y-41253D01*
X88921Y-41250D01*
X88898Y-41136D01*
X88898Y-41136D01*
X88834Y-41040D01*
X88771Y-40977D01*
X88771Y-40600D01*
X88748Y-40486D01*
X88748Y-40486D01*
X88684Y-40390D01*
X88635Y-40341D01*
X88539Y-40277D01*
X88493Y-40268D01*
X88494Y-40181D01*
X88494Y-40043D01*
X88459Y-39960D01*
X88493Y-39878D01*
X88494Y-39787D01*
X88494Y-39649D01*
X88459Y-39566D01*
X88493Y-39484D01*
X88494Y-39394D01*
X88494Y-39256D01*
X88459Y-39173D01*
X88493Y-39090D01*
X88494Y-39000D01*
X88494Y-38862D01*
X88459Y-38779D01*
X88493Y-38696D01*
X88494Y-38606D01*
X88494Y-38468D01*
X88459Y-38385D01*
X88493Y-38303D01*
X88494Y-38213D01*
X88494Y-38075D01*
X88459Y-37992D01*
X88493Y-37909D01*
X88494Y-37819D01*
X88494Y-37681D01*
X88459Y-37598D01*
X88493Y-37515D01*
X88494Y-37425D01*
X88494Y-37287D01*
X88459Y-37204D01*
X88493Y-37122D01*
X88494Y-37032D01*
X88494Y-36894D01*
X88459Y-36810D01*
X88493Y-36728D01*
X88494Y-36638D01*
X88494Y-36500D01*
X88473Y-36451D01*
X89500Y-36451D01*
X89634Y-36424D01*
X89748Y-36348D01*
X89895Y-36201D01*
X89921Y-36201D01*
X89925Y-36201D01*
X90586Y-36201D01*
X90738Y-36353D01*
X90674Y-36416D01*
X90639Y-36499D01*
X90639Y-36590D01*
X90639Y-36728D01*
X90674Y-36811D01*
X90639Y-36893D01*
X90639Y-36983D01*
X90639Y-37121D01*
X90674Y-37204D01*
X90639Y-37287D01*
X90639Y-37377D01*
X90639Y-37515D01*
X90674Y-37598D01*
X90639Y-37681D01*
X90639Y-37771D01*
X90639Y-37909D01*
X90674Y-37992D01*
X90639Y-38074D01*
X90639Y-38164D01*
X90639Y-38302D01*
X90674Y-38385D01*
X90639Y-38468D01*
X90639Y-38558D01*
X90639Y-38696D01*
X90674Y-38779D01*
X90639Y-38862D01*
X90639Y-38952D01*
X90639Y-39090D01*
X90674Y-39173D01*
X90639Y-39255D01*
X90639Y-39345D01*
X90639Y-39483D01*
X90674Y-39567D01*
X90642Y-39642D01*
X90514Y-39642D01*
X90358Y-39706D01*
X90239Y-39825D01*
X90174Y-39980D01*
X90174Y-40149D01*
X90239Y-40304D01*
X90357Y-40424D01*
X90513Y-40488D01*
X90639Y-40488D01*
X90639Y-40527D01*
X90639Y-40665D01*
X90674Y-40748D01*
X90737Y-40811D01*
X90821Y-40846D01*
X90911Y-40846D01*
X91136Y-40846D01*
X91141Y-40847D01*
X91450Y-40847D01*
X91455Y-40846D01*
X91462Y-40846D01*
X91467Y-40844D01*
X91483Y-40841D01*
X91539Y-40896D01*
X91694Y-40961D01*
X91862Y-40961D01*
X92018Y-40896D01*
X92137Y-40778D01*
X92202Y-40622D01*
X92202Y-40454D01*
X92138Y-40298D01*
X92048Y-40208D01*
X92097Y-40188D01*
X92216Y-40069D01*
X92281Y-39913D01*
X92281Y-39745D01*
X92271Y-39721D01*
X92689Y-39721D01*
X92979Y-40012D01*
X92979Y-40012D01*
X93093Y-40088D01*
X93228Y-40115D01*
X93476Y-40115D01*
X93676Y-40315D01*
X93643Y-40395D01*
X93643Y-40485D01*
X93643Y-40735D01*
X93677Y-40819D01*
X93724Y-40866D01*
X93677Y-40912D01*
X93643Y-40995D01*
X93643Y-41085D01*
X93643Y-41335D01*
X93677Y-41419D01*
X93741Y-41482D01*
X93743Y-41483D01*
X93743Y-41574D01*
X93769Y-41709D01*
X93846Y-41823D01*
X94318Y-42295D01*
X94432Y-42371D01*
X94530Y-42391D01*
X94530Y-42964D01*
G54D10*
G36*
X95423Y-54138D02*
X94795Y-54766D01*
X94441Y-54766D01*
X94542Y-54699D01*
X94935Y-54305D01*
X94935Y-54305D01*
X94992Y-54221D01*
X95048Y-54136D01*
X95048Y-54136D01*
X95088Y-53937D01*
X95088Y-53937D01*
X95088Y-51811D01*
X95048Y-51611D01*
X95048Y-51611D01*
X94992Y-51526D01*
X94935Y-51442D01*
X94935Y-51442D01*
X93624Y-50131D01*
X93455Y-50018D01*
X93255Y-49978D01*
X92900Y-49978D01*
X92700Y-50018D01*
X92531Y-50131D01*
X92418Y-50300D01*
X92400Y-50391D01*
X92381Y-50300D01*
X92268Y-50131D01*
X92099Y-50018D01*
X91900Y-49978D01*
X91521Y-49978D01*
X91521Y-49160D01*
X92585Y-48097D01*
X92698Y-47927D01*
X92716Y-47837D01*
X92734Y-47927D01*
X92847Y-48097D01*
X93016Y-48210D01*
X93100Y-48226D01*
X92896Y-48226D01*
X92813Y-48261D01*
X92749Y-48324D01*
X92715Y-48408D01*
X92715Y-48498D01*
X92715Y-49048D01*
X92749Y-49131D01*
X92813Y-49195D01*
X92896Y-49229D01*
X92986Y-49229D01*
X93536Y-49229D01*
X93619Y-49195D01*
X93683Y-49131D01*
X93717Y-49048D01*
X93717Y-48958D01*
X93717Y-48408D01*
X93683Y-48325D01*
X93619Y-48261D01*
X93536Y-48227D01*
X93446Y-48226D01*
X93332Y-48226D01*
X93416Y-48210D01*
X93585Y-48097D01*
X93872Y-47809D01*
X93872Y-47809D01*
X93985Y-47640D01*
X94025Y-47440D01*
X94025Y-47440D01*
X94025Y-46194D01*
X94155Y-46107D01*
X94289Y-45906D01*
X94336Y-45669D01*
X94289Y-45431D01*
X94155Y-45230D01*
X93954Y-45096D01*
X93865Y-45078D01*
X93954Y-45061D01*
X94155Y-44926D01*
X94289Y-44725D01*
X94336Y-44488D01*
X94289Y-44250D01*
X94269Y-44220D01*
X95130Y-43358D01*
X95130Y-43358D01*
X95130Y-43358D01*
X95206Y-43244D01*
X95233Y-43110D01*
X95233Y-42350D01*
X95234Y-42349D01*
X95298Y-42285D01*
X95333Y-42202D01*
X95333Y-42112D01*
X95333Y-41862D01*
X95298Y-41779D01*
X95252Y-41732D01*
X95298Y-41685D01*
X95333Y-41602D01*
X95333Y-41512D01*
X95333Y-41262D01*
X95298Y-41179D01*
X95235Y-41115D01*
X95233Y-41114D01*
X95233Y-40866D01*
X95233Y-40866D01*
X95233Y-40866D01*
X95206Y-40731D01*
X95130Y-40617D01*
X95130Y-40617D01*
X94830Y-40317D01*
X94716Y-40241D01*
X94581Y-40214D01*
X94441Y-40214D01*
X94419Y-40101D01*
X94342Y-39987D01*
X93870Y-39515D01*
X93756Y-39439D01*
X93622Y-39412D01*
X93373Y-39412D01*
X93289Y-39327D01*
X93791Y-39327D01*
X93987Y-39523D01*
X93987Y-39523D01*
X94101Y-39599D01*
X94213Y-39621D01*
X94235Y-39626D01*
X94235Y-39626D01*
X94235Y-39626D01*
X94563Y-39626D01*
X95423Y-40486D01*
X95423Y-54138D01*
X95423Y-54138D01*
G37*
G54D29*
X95423Y-54138D02*
X94795Y-54766D01*
X94441Y-54766D01*
X94542Y-54699D01*
X94935Y-54305D01*
X94935Y-54305D01*
X94992Y-54221D01*
X95048Y-54136D01*
X95048Y-54136D01*
X95088Y-53937D01*
X95088Y-53937D01*
X95088Y-51811D01*
X95048Y-51611D01*
X95048Y-51611D01*
X94992Y-51526D01*
X94935Y-51442D01*
X94935Y-51442D01*
X93624Y-50131D01*
X93455Y-50018D01*
X93255Y-49978D01*
X92900Y-49978D01*
X92700Y-50018D01*
X92531Y-50131D01*
X92418Y-50300D01*
X92400Y-50391D01*
X92381Y-50300D01*
X92268Y-50131D01*
X92099Y-50018D01*
X91900Y-49978D01*
X91521Y-49978D01*
X91521Y-49160D01*
X92585Y-48097D01*
X92698Y-47927D01*
X92716Y-47837D01*
X92734Y-47927D01*
X92847Y-48097D01*
X93016Y-48210D01*
X93100Y-48226D01*
X92896Y-48226D01*
X92813Y-48261D01*
X92749Y-48324D01*
X92715Y-48408D01*
X92715Y-48498D01*
X92715Y-49048D01*
X92749Y-49131D01*
X92813Y-49195D01*
X92896Y-49229D01*
X92986Y-49229D01*
X93536Y-49229D01*
X93619Y-49195D01*
X93683Y-49131D01*
X93717Y-49048D01*
X93717Y-48958D01*
X93717Y-48408D01*
X93683Y-48325D01*
X93619Y-48261D01*
X93536Y-48227D01*
X93446Y-48226D01*
X93332Y-48226D01*
X93416Y-48210D01*
X93585Y-48097D01*
X93872Y-47809D01*
X93872Y-47809D01*
X93985Y-47640D01*
X94025Y-47440D01*
X94025Y-47440D01*
X94025Y-46194D01*
X94155Y-46107D01*
X94289Y-45906D01*
X94336Y-45669D01*
X94289Y-45431D01*
X94155Y-45230D01*
X93954Y-45096D01*
X93865Y-45078D01*
X93954Y-45061D01*
X94155Y-44926D01*
X94289Y-44725D01*
X94336Y-44488D01*
X94289Y-44250D01*
X94269Y-44220D01*
X95130Y-43358D01*
X95130Y-43358D01*
X95130Y-43358D01*
X95206Y-43244D01*
X95233Y-43110D01*
X95233Y-42350D01*
X95234Y-42349D01*
X95298Y-42285D01*
X95333Y-42202D01*
X95333Y-42112D01*
X95333Y-41862D01*
X95298Y-41779D01*
X95252Y-41732D01*
X95298Y-41685D01*
X95333Y-41602D01*
X95333Y-41512D01*
X95333Y-41262D01*
X95298Y-41179D01*
X95235Y-41115D01*
X95233Y-41114D01*
X95233Y-40866D01*
X95233Y-40866D01*
X95233Y-40866D01*
X95206Y-40731D01*
X95130Y-40617D01*
X95130Y-40617D01*
X94830Y-40317D01*
X94716Y-40241D01*
X94581Y-40214D01*
X94441Y-40214D01*
X94419Y-40101D01*
X94342Y-39987D01*
X93870Y-39515D01*
X93756Y-39439D01*
X93622Y-39412D01*
X93373Y-39412D01*
X93289Y-39327D01*
X93791Y-39327D01*
X93987Y-39523D01*
X93987Y-39523D01*
X94101Y-39599D01*
X94213Y-39621D01*
X94235Y-39626D01*
X94235Y-39626D01*
X94235Y-39626D01*
X94563Y-39626D01*
X95423Y-40486D01*
X95423Y-54138D01*
G54D10*
G36*
X95859Y-36320D02*
X94342Y-37837D01*
X93995Y-37837D01*
X94033Y-37648D01*
X94025Y-37611D01*
X94025Y-37532D01*
X94155Y-37446D01*
X94289Y-37245D01*
X94336Y-37007D01*
X94289Y-36770D01*
X94155Y-36569D01*
X93954Y-36434D01*
X93865Y-36417D01*
X93954Y-36399D01*
X94155Y-36265D01*
X94174Y-36236D01*
X94260Y-36293D01*
X94394Y-36320D01*
X94656Y-36320D01*
X94701Y-36320D01*
X95151Y-36320D01*
X95151Y-36320D01*
X95365Y-36320D01*
X95410Y-36320D01*
X95859Y-36320D01*
X95859Y-36320D01*
G37*
G54D29*
X95859Y-36320D02*
X94342Y-37837D01*
X93995Y-37837D01*
X94033Y-37648D01*
X94025Y-37611D01*
X94025Y-37532D01*
X94155Y-37446D01*
X94289Y-37245D01*
X94336Y-37007D01*
X94289Y-36770D01*
X94155Y-36569D01*
X93954Y-36434D01*
X93865Y-36417D01*
X93954Y-36399D01*
X94155Y-36265D01*
X94174Y-36236D01*
X94260Y-36293D01*
X94394Y-36320D01*
X94656Y-36320D01*
X94701Y-36320D01*
X95151Y-36320D01*
X95151Y-36320D01*
X95365Y-36320D01*
X95410Y-36320D01*
X95859Y-36320D01*
G54D10*
G36*
X96499Y-54785D02*
X95445Y-55839D01*
X91736Y-55839D01*
X88148Y-52251D01*
X88103Y-52221D01*
X89500Y-52221D01*
X89500Y-52221D01*
X89699Y-52181D01*
X89699Y-52181D01*
X89868Y-52068D01*
X90351Y-51585D01*
X90351Y-51585D01*
X90408Y-51501D01*
X90464Y-51416D01*
X90464Y-51416D01*
X90504Y-51217D01*
X90504Y-51217D01*
X90504Y-51041D01*
X90736Y-51041D01*
X90784Y-51021D01*
X91000Y-51021D01*
X91200Y-51021D01*
X91900Y-51021D01*
X92099Y-50981D01*
X92268Y-50868D01*
X92381Y-50699D01*
X92400Y-50608D01*
X92418Y-50699D01*
X92531Y-50868D01*
X92700Y-50981D01*
X92784Y-50998D01*
X92580Y-50998D01*
X92496Y-51032D01*
X92433Y-51096D01*
X92398Y-51179D01*
X92398Y-51269D01*
X92398Y-51819D01*
X92432Y-51903D01*
X92496Y-51966D01*
X92579Y-52001D01*
X92669Y-52001D01*
X93219Y-52001D01*
X93303Y-51967D01*
X93366Y-51903D01*
X93401Y-51820D01*
X93401Y-51730D01*
X93401Y-51383D01*
X94045Y-52027D01*
X94045Y-52637D01*
X93954Y-52576D01*
X93716Y-52529D01*
X93291Y-52529D01*
X93053Y-52576D01*
X92852Y-52711D01*
X92788Y-52807D01*
X92700Y-52824D01*
X92624Y-52875D01*
X92600Y-52850D01*
X92517Y-52816D01*
X92427Y-52816D01*
X92177Y-52816D01*
X92094Y-52850D01*
X92047Y-52897D01*
X92000Y-52850D01*
X91917Y-52816D01*
X91827Y-52816D01*
X91577Y-52816D01*
X91494Y-52850D01*
X91430Y-52914D01*
X91395Y-52997D01*
X91395Y-53087D01*
X91395Y-53537D01*
X91395Y-53537D01*
X91395Y-53830D01*
X91395Y-53874D01*
X91395Y-54324D01*
X91395Y-54325D01*
X91395Y-54424D01*
X91422Y-54558D01*
X91498Y-54672D01*
X92192Y-55366D01*
X92306Y-55442D01*
X92440Y-55469D01*
X94940Y-55469D01*
X95075Y-55442D01*
X95189Y-55366D01*
X96023Y-54532D01*
X96023Y-54532D01*
X96023Y-54532D01*
X96099Y-54418D01*
X96126Y-54283D01*
X96126Y-40341D01*
X96102Y-40221D01*
X96499Y-40617D01*
X96499Y-54785D01*
X96499Y-54785D01*
G37*
G54D29*
X96499Y-54785D02*
X95445Y-55839D01*
X91736Y-55839D01*
X88148Y-52251D01*
X88103Y-52221D01*
X89500Y-52221D01*
X89500Y-52221D01*
X89699Y-52181D01*
X89699Y-52181D01*
X89868Y-52068D01*
X90351Y-51585D01*
X90351Y-51585D01*
X90408Y-51501D01*
X90464Y-51416D01*
X90464Y-51416D01*
X90504Y-51217D01*
X90504Y-51217D01*
X90504Y-51041D01*
X90736Y-51041D01*
X90784Y-51021D01*
X91000Y-51021D01*
X91200Y-51021D01*
X91900Y-51021D01*
X92099Y-50981D01*
X92268Y-50868D01*
X92381Y-50699D01*
X92400Y-50608D01*
X92418Y-50699D01*
X92531Y-50868D01*
X92700Y-50981D01*
X92784Y-50998D01*
X92580Y-50998D01*
X92496Y-51032D01*
X92433Y-51096D01*
X92398Y-51179D01*
X92398Y-51269D01*
X92398Y-51819D01*
X92432Y-51903D01*
X92496Y-51966D01*
X92579Y-52001D01*
X92669Y-52001D01*
X93219Y-52001D01*
X93303Y-51967D01*
X93366Y-51903D01*
X93401Y-51820D01*
X93401Y-51730D01*
X93401Y-51383D01*
X94045Y-52027D01*
X94045Y-52637D01*
X93954Y-52576D01*
X93716Y-52529D01*
X93291Y-52529D01*
X93053Y-52576D01*
X92852Y-52711D01*
X92788Y-52807D01*
X92700Y-52824D01*
X92624Y-52875D01*
X92600Y-52850D01*
X92517Y-52816D01*
X92427Y-52816D01*
X92177Y-52816D01*
X92094Y-52850D01*
X92047Y-52897D01*
X92000Y-52850D01*
X91917Y-52816D01*
X91827Y-52816D01*
X91577Y-52816D01*
X91494Y-52850D01*
X91430Y-52914D01*
X91395Y-52997D01*
X91395Y-53087D01*
X91395Y-53537D01*
X91395Y-53537D01*
X91395Y-53830D01*
X91395Y-53874D01*
X91395Y-54324D01*
X91395Y-54325D01*
X91395Y-54424D01*
X91422Y-54558D01*
X91498Y-54672D01*
X92192Y-55366D01*
X92306Y-55442D01*
X92440Y-55469D01*
X94940Y-55469D01*
X95075Y-55442D01*
X95189Y-55366D01*
X96023Y-54532D01*
X96023Y-54532D01*
X96023Y-54532D01*
X96099Y-54418D01*
X96126Y-54283D01*
X96126Y-40341D01*
X96102Y-40221D01*
X96499Y-40617D01*
X96499Y-54785D01*
G54D10*
G36*
X97586Y-57211D02*
X85741Y-57211D01*
X85732Y-57197D01*
X85706Y-57066D01*
X85706Y-53500D01*
X85750Y-53500D01*
X85884Y-53474D01*
X85919Y-53451D01*
X86275Y-53451D01*
X86319Y-53451D01*
X86769Y-53451D01*
X86769Y-53451D01*
X87075Y-53451D01*
X87119Y-53451D01*
X87569Y-53451D01*
X87653Y-53417D01*
X87716Y-53353D01*
X87751Y-53270D01*
X87751Y-53180D01*
X87751Y-52930D01*
X87718Y-52851D01*
X87754Y-52851D01*
X91342Y-56439D01*
X91342Y-56439D01*
X91456Y-56515D01*
X91590Y-56541D01*
X91590Y-56541D01*
X91590Y-56541D01*
X95590Y-56541D01*
X95725Y-56515D01*
X95839Y-56439D01*
X97098Y-55179D01*
X97175Y-55065D01*
X97201Y-54930D01*
X97201Y-40472D01*
X97175Y-40337D01*
X97098Y-40223D01*
X95209Y-38334D01*
X95095Y-38258D01*
X94960Y-38231D01*
X94942Y-38231D01*
X96547Y-36626D01*
X96623Y-36512D01*
X96650Y-36377D01*
X96650Y-35590D01*
X96623Y-35456D01*
X96547Y-35342D01*
X96326Y-35120D01*
X96212Y-35044D01*
X96077Y-35017D01*
X95815Y-35017D01*
X95770Y-35017D01*
X95320Y-35017D01*
X95320Y-35017D01*
X95106Y-35017D01*
X95062Y-35017D01*
X94612Y-35017D01*
X94528Y-35052D01*
X94465Y-35115D01*
X94430Y-35199D01*
X94430Y-35289D01*
X94430Y-35531D01*
X94386Y-35502D01*
X94251Y-35475D01*
X94213Y-35475D01*
X94155Y-35388D01*
X93954Y-35253D01*
X93716Y-35206D01*
X93291Y-35206D01*
X93053Y-35253D01*
X92940Y-35329D01*
X92923Y-35242D01*
X92846Y-35128D01*
X92846Y-35128D01*
X89812Y-32094D01*
X89698Y-32017D01*
X89564Y-31991D01*
X85706Y-31991D01*
X85706Y-31883D01*
X85732Y-31752D01*
X85741Y-31738D01*
X97586Y-31738D01*
X97586Y-57211D01*
X97586Y-57211D01*
G37*
G54D29*
X97586Y-57211D02*
X85741Y-57211D01*
X85732Y-57197D01*
X85706Y-57066D01*
X85706Y-53500D01*
X85750Y-53500D01*
X85884Y-53474D01*
X85919Y-53451D01*
X86275Y-53451D01*
X86319Y-53451D01*
X86769Y-53451D01*
X86769Y-53451D01*
X87075Y-53451D01*
X87119Y-53451D01*
X87569Y-53451D01*
X87653Y-53417D01*
X87716Y-53353D01*
X87751Y-53270D01*
X87751Y-53180D01*
X87751Y-52930D01*
X87718Y-52851D01*
X87754Y-52851D01*
X91342Y-56439D01*
X91342Y-56439D01*
X91456Y-56515D01*
X91590Y-56541D01*
X91590Y-56541D01*
X91590Y-56541D01*
X95590Y-56541D01*
X95725Y-56515D01*
X95839Y-56439D01*
X97098Y-55179D01*
X97175Y-55065D01*
X97201Y-54930D01*
X97201Y-40472D01*
X97175Y-40337D01*
X97098Y-40223D01*
X95209Y-38334D01*
X95095Y-38258D01*
X94960Y-38231D01*
X94942Y-38231D01*
X96547Y-36626D01*
X96623Y-36512D01*
X96650Y-36377D01*
X96650Y-35590D01*
X96623Y-35456D01*
X96547Y-35342D01*
X96326Y-35120D01*
X96212Y-35044D01*
X96077Y-35017D01*
X95815Y-35017D01*
X95770Y-35017D01*
X95320Y-35017D01*
X95320Y-35017D01*
X95106Y-35017D01*
X95062Y-35017D01*
X94612Y-35017D01*
X94528Y-35052D01*
X94465Y-35115D01*
X94430Y-35199D01*
X94430Y-35289D01*
X94430Y-35531D01*
X94386Y-35502D01*
X94251Y-35475D01*
X94213Y-35475D01*
X94155Y-35388D01*
X93954Y-35253D01*
X93716Y-35206D01*
X93291Y-35206D01*
X93053Y-35253D01*
X92940Y-35329D01*
X92923Y-35242D01*
X92846Y-35128D01*
X92846Y-35128D01*
X89812Y-32094D01*
X89698Y-32017D01*
X89564Y-31991D01*
X85706Y-31991D01*
X85706Y-31883D01*
X85732Y-31752D01*
X85741Y-31738D01*
X97586Y-31738D01*
X97586Y-57211D01*
G54D10*
G36*
X85492Y-31922D02*
X75507Y-31922D01*
X75346Y-31954D01*
X75278Y-31999D01*
X75210Y-32045D01*
X72951Y-34303D01*
X72860Y-34440D01*
X72828Y-34600D01*
X72828Y-36318D01*
X72182Y-36318D01*
X72182Y-31807D01*
X85492Y-31807D01*
X85492Y-31922D01*
X85492Y-31922D01*
G37*
G54D30*
X85492Y-31922D02*
X75507Y-31922D01*
X75346Y-31954D01*
X75278Y-31999D01*
X75210Y-32045D01*
X72951Y-34303D01*
X72860Y-34440D01*
X72828Y-34600D01*
X72828Y-36318D01*
X72182Y-36318D01*
X72182Y-31807D01*
X85492Y-31807D01*
X85492Y-31922D01*
G54D10*
G36*
X85492Y-33031D02*
X76385Y-33031D01*
X76224Y-33063D01*
X76088Y-33154D01*
X74112Y-35130D01*
X74021Y-35266D01*
X73989Y-35427D01*
X73989Y-36318D01*
X73669Y-36318D01*
X73669Y-34775D01*
X75681Y-32762D01*
X85492Y-32762D01*
X85492Y-33031D01*
X85492Y-33031D01*
G37*
G54D30*
X85492Y-33031D02*
X76385Y-33031D01*
X76224Y-33063D01*
X76088Y-33154D01*
X74112Y-35130D01*
X74021Y-35266D01*
X73989Y-35427D01*
X73989Y-36318D01*
X73669Y-36318D01*
X73669Y-34775D01*
X75681Y-32762D01*
X85492Y-32762D01*
X85492Y-33031D01*
G54D10*
G36*
X85492Y-34225D02*
X84251Y-34225D01*
X84091Y-34257D01*
X84022Y-34302D01*
X83954Y-34348D01*
X83636Y-34667D01*
X78727Y-34667D01*
X78668Y-34667D01*
X78218Y-34667D01*
X78218Y-34667D01*
X77927Y-34667D01*
X77868Y-34667D01*
X77418Y-34667D01*
X77310Y-34711D01*
X77227Y-34794D01*
X77182Y-34903D01*
X77182Y-35020D01*
X77182Y-35038D01*
X76927Y-35039D01*
X76729Y-35237D01*
X76658Y-35190D01*
X76395Y-35137D01*
X75966Y-35137D01*
X75703Y-35190D01*
X75479Y-35339D01*
X75330Y-35563D01*
X75277Y-35826D01*
X75330Y-36090D01*
X75479Y-36313D01*
X75487Y-36318D01*
X74829Y-36318D01*
X74829Y-35601D01*
X76559Y-33871D01*
X85492Y-33871D01*
X85492Y-34225D01*
X85492Y-34225D01*
G37*
G54D30*
X85492Y-34225D02*
X84251Y-34225D01*
X84091Y-34257D01*
X84022Y-34302D01*
X83954Y-34348D01*
X83636Y-34667D01*
X78727Y-34667D01*
X78668Y-34667D01*
X78218Y-34667D01*
X78218Y-34667D01*
X77927Y-34667D01*
X77868Y-34667D01*
X77418Y-34667D01*
X77310Y-34711D01*
X77227Y-34794D01*
X77182Y-34903D01*
X77182Y-35020D01*
X77182Y-35038D01*
X76927Y-35039D01*
X76729Y-35237D01*
X76658Y-35190D01*
X76395Y-35137D01*
X75966Y-35137D01*
X75703Y-35190D01*
X75479Y-35339D01*
X75330Y-35563D01*
X75277Y-35826D01*
X75330Y-36090D01*
X75479Y-36313D01*
X75487Y-36318D01*
X74829Y-36318D01*
X74829Y-35601D01*
X76559Y-33871D01*
X85492Y-33871D01*
X85492Y-34225D01*
G54D10*
G36*
X85147Y-47544D02*
X85083Y-47571D01*
X84944Y-47709D01*
X84890Y-47841D01*
X84752Y-47841D01*
X84571Y-47915D01*
X84519Y-47967D01*
X84056Y-47967D01*
X83769Y-47681D01*
X83769Y-47681D01*
X80879Y-44791D01*
X83570Y-44791D01*
X83710Y-44763D01*
X83710Y-44763D01*
X83828Y-44684D01*
X83953Y-44559D01*
X83991Y-44751D01*
X84141Y-44975D01*
X84364Y-45124D01*
X84628Y-45177D01*
X85056Y-45177D01*
X85126Y-45163D01*
X85147Y-47544D01*
X85147Y-47544D01*
G37*
G54D30*
X85147Y-47544D02*
X85083Y-47571D01*
X84944Y-47709D01*
X84890Y-47841D01*
X84752Y-47841D01*
X84571Y-47915D01*
X84519Y-47967D01*
X84056Y-47967D01*
X83769Y-47681D01*
X83769Y-47681D01*
X80879Y-44791D01*
X83570Y-44791D01*
X83710Y-44763D01*
X83710Y-44763D01*
X83828Y-44684D01*
X83953Y-44559D01*
X83991Y-44751D01*
X84141Y-44975D01*
X84364Y-45124D01*
X84628Y-45177D01*
X85056Y-45177D01*
X85126Y-45163D01*
X85147Y-47544D01*
G54D10*
G36*
X85233Y-57142D02*
X78548Y-57142D01*
X78548Y-46732D01*
X78457Y-46513D01*
X78366Y-46422D01*
X78419Y-46400D01*
X78502Y-46317D01*
X78547Y-46209D01*
X78548Y-46091D01*
X78548Y-45491D01*
X78503Y-45383D01*
X78420Y-45300D01*
X78311Y-45255D01*
X78194Y-45255D01*
X77594Y-45255D01*
X77485Y-45299D01*
X77402Y-45382D01*
X77357Y-45491D01*
X77357Y-45608D01*
X77357Y-46208D01*
X77402Y-46317D01*
X77485Y-46400D01*
X77538Y-46422D01*
X77448Y-46512D01*
X77357Y-46731D01*
X77357Y-46968D01*
X77447Y-47187D01*
X77615Y-47354D01*
X77833Y-47445D01*
X78070Y-47445D01*
X78289Y-47355D01*
X78457Y-47188D01*
X78547Y-46969D01*
X78548Y-46732D01*
X78548Y-57142D01*
X72182Y-57142D01*
X72182Y-36712D01*
X72828Y-36712D01*
X72828Y-44874D01*
X72860Y-45034D01*
X72951Y-45171D01*
X75379Y-47599D01*
X75379Y-51152D01*
X75324Y-51207D01*
X75279Y-51316D01*
X75279Y-51433D01*
X75279Y-51683D01*
X75324Y-51792D01*
X75332Y-51799D01*
X75324Y-51807D01*
X75279Y-51916D01*
X75279Y-52033D01*
X75279Y-52283D01*
X75324Y-52392D01*
X75397Y-52465D01*
X75411Y-52535D01*
X75491Y-52654D01*
X75479Y-52662D01*
X75330Y-52885D01*
X75277Y-53149D01*
X75330Y-53413D01*
X75479Y-53636D01*
X75703Y-53786D01*
X75966Y-53838D01*
X76395Y-53838D01*
X76658Y-53786D01*
X76882Y-53636D01*
X77031Y-53413D01*
X77084Y-53149D01*
X77031Y-52885D01*
X76882Y-52662D01*
X76669Y-52520D01*
X76883Y-52520D01*
X76992Y-52475D01*
X77075Y-52392D01*
X77120Y-52283D01*
X77120Y-52166D01*
X77120Y-51916D01*
X77075Y-51807D01*
X77067Y-51800D01*
X77075Y-51792D01*
X77120Y-51683D01*
X77120Y-51566D01*
X77120Y-51316D01*
X77075Y-51207D01*
X76992Y-51124D01*
X76883Y-51079D01*
X76766Y-51079D01*
X76316Y-51079D01*
X76316Y-51079D01*
X76220Y-51079D01*
X76220Y-47425D01*
X76220Y-47424D01*
X76188Y-47264D01*
X76097Y-47127D01*
X76097Y-47127D01*
X73669Y-44699D01*
X73669Y-36712D01*
X73989Y-36712D01*
X73989Y-41711D01*
X74021Y-41871D01*
X74112Y-42008D01*
X75037Y-42933D01*
X75037Y-43042D01*
X75082Y-43151D01*
X75089Y-43158D01*
X75082Y-43166D01*
X75037Y-43275D01*
X75037Y-43392D01*
X75037Y-43642D01*
X75082Y-43751D01*
X75165Y-43834D01*
X75273Y-43879D01*
X75390Y-43879D01*
X75661Y-43879D01*
X75479Y-44001D01*
X75330Y-44224D01*
X75277Y-44488D01*
X75330Y-44751D01*
X75479Y-44975D01*
X75703Y-45124D01*
X75966Y-45177D01*
X76395Y-45177D01*
X76658Y-45124D01*
X76882Y-44975D01*
X77031Y-44751D01*
X77084Y-44488D01*
X77031Y-44224D01*
X76882Y-44001D01*
X76754Y-43915D01*
X76776Y-43807D01*
X76832Y-43751D01*
X76877Y-43643D01*
X76877Y-43525D01*
X76877Y-43275D01*
X76832Y-43167D01*
X76825Y-43159D01*
X76832Y-43151D01*
X76877Y-43043D01*
X76877Y-42925D01*
X76877Y-42675D01*
X76832Y-42567D01*
X76749Y-42483D01*
X76641Y-42438D01*
X76524Y-42438D01*
X76074Y-42438D01*
X76073Y-42438D01*
X75782Y-42438D01*
X75731Y-42438D01*
X74829Y-41536D01*
X74829Y-36712D01*
X76025Y-36712D01*
X76221Y-36515D01*
X76395Y-36515D01*
X76658Y-36463D01*
X76882Y-36313D01*
X76927Y-36247D01*
X77086Y-36247D01*
X77086Y-36247D01*
X77247Y-36215D01*
X77247Y-36215D01*
X77383Y-36123D01*
X77400Y-36107D01*
X77477Y-36107D01*
X77535Y-36107D01*
X77985Y-36107D01*
X77985Y-36107D01*
X78277Y-36107D01*
X78335Y-36107D01*
X78785Y-36107D01*
X78894Y-36062D01*
X78977Y-35979D01*
X79022Y-35871D01*
X79022Y-35753D01*
X79022Y-35531D01*
X84012Y-35531D01*
X83991Y-35563D01*
X83939Y-35826D01*
X83991Y-36090D01*
X84141Y-36313D01*
X84364Y-36463D01*
X84628Y-36515D01*
X85049Y-36515D01*
X85049Y-36608D01*
X84899Y-36758D01*
X84737Y-36595D01*
X84518Y-36504D01*
X84321Y-36504D01*
X84060Y-36244D01*
X83942Y-36165D01*
X83802Y-36137D01*
X82297Y-36137D01*
X82157Y-36165D01*
X82039Y-36244D01*
X82039Y-36244D01*
X81953Y-36329D01*
X81787Y-36329D01*
X81577Y-36416D01*
X81416Y-36576D01*
X81329Y-36786D01*
X81329Y-37012D01*
X81416Y-37222D01*
X81576Y-37383D01*
X81786Y-37470D01*
X82012Y-37470D01*
X82222Y-37383D01*
X82383Y-37223D01*
X82470Y-37013D01*
X82470Y-36867D01*
X83651Y-36867D01*
X83804Y-37021D01*
X83804Y-37112D01*
X83758Y-37112D01*
X83577Y-37187D01*
X83438Y-37325D01*
X83364Y-37504D01*
X83282Y-37504D01*
X83063Y-37595D01*
X82895Y-37762D01*
X82804Y-37981D01*
X82804Y-38086D01*
X82458Y-38086D01*
X82318Y-38113D01*
X82199Y-38193D01*
X82199Y-38193D01*
X81983Y-38409D01*
X81904Y-38528D01*
X81876Y-38667D01*
X81876Y-39287D01*
X81904Y-39427D01*
X81983Y-39546D01*
X82564Y-40126D01*
X82682Y-40206D01*
X82682Y-40206D01*
X82822Y-40233D01*
X84934Y-40233D01*
X85083Y-40382D01*
X85085Y-40632D01*
X84974Y-40654D01*
X84782Y-40782D01*
X84255Y-41309D01*
X80520Y-41309D01*
X80520Y-41266D01*
X80520Y-41016D01*
X80475Y-40907D01*
X80392Y-40824D01*
X80283Y-40779D01*
X80166Y-40779D01*
X79716Y-40779D01*
X79716Y-40779D01*
X79600Y-40779D01*
X79439Y-40811D01*
X79370Y-40857D01*
X79302Y-40902D01*
X79002Y-41202D01*
X78931Y-41309D01*
X78900Y-41309D01*
X78798Y-41329D01*
X78787Y-41329D01*
X78776Y-41334D01*
X78674Y-41354D01*
X78587Y-41411D01*
X78577Y-41416D01*
X78569Y-41424D01*
X78482Y-41482D01*
X78424Y-41568D01*
X78416Y-41576D01*
X78412Y-41587D01*
X78354Y-41674D01*
X78334Y-41775D01*
X78329Y-41786D01*
X78329Y-41797D01*
X78309Y-41900D01*
X78329Y-42001D01*
X78329Y-42012D01*
X78334Y-42023D01*
X78354Y-42125D01*
X78411Y-42212D01*
X78416Y-42222D01*
X78424Y-42230D01*
X78482Y-42317D01*
X78568Y-42375D01*
X78576Y-42383D01*
X78587Y-42387D01*
X78674Y-42445D01*
X78775Y-42465D01*
X78786Y-42470D01*
X78797Y-42470D01*
X78900Y-42490D01*
X79300Y-42490D01*
X83683Y-42490D01*
X83604Y-42681D01*
X83604Y-42917D01*
X83695Y-43136D01*
X83862Y-43304D01*
X84081Y-43395D01*
X84084Y-43395D01*
X83419Y-44060D01*
X79446Y-44060D01*
X79348Y-44060D01*
X79348Y-44060D01*
X79208Y-44088D01*
X79089Y-44167D01*
X79089Y-44167D01*
X78833Y-44423D01*
X78754Y-44541D01*
X78726Y-44681D01*
X78726Y-47122D01*
X78754Y-47262D01*
X78833Y-47380D01*
X78855Y-47402D01*
X78855Y-47476D01*
X78930Y-47656D01*
X79068Y-47795D01*
X79249Y-47870D01*
X79445Y-47870D01*
X79626Y-47795D01*
X79764Y-47657D01*
X79840Y-47476D01*
X79840Y-47281D01*
X79765Y-47100D01*
X79627Y-46961D01*
X79457Y-46891D01*
X79457Y-45360D01*
X79593Y-45360D01*
X79774Y-45286D01*
X79826Y-45233D01*
X80289Y-45233D01*
X83253Y-48197D01*
X83253Y-48197D01*
X83646Y-48591D01*
X83646Y-48591D01*
X83765Y-48670D01*
X83905Y-48698D01*
X84519Y-48698D01*
X84570Y-48750D01*
X84751Y-48825D01*
X84789Y-48825D01*
X84455Y-49159D01*
X83500Y-49159D01*
X83417Y-49175D01*
X82941Y-49175D01*
X82832Y-49220D01*
X82749Y-49303D01*
X82704Y-49412D01*
X82704Y-49529D01*
X82704Y-50129D01*
X82749Y-50238D01*
X82832Y-50321D01*
X82941Y-50366D01*
X83058Y-50366D01*
X83858Y-50366D01*
X83921Y-50340D01*
X84550Y-50340D01*
X84700Y-50340D01*
X84925Y-50295D01*
X85117Y-50167D01*
X85170Y-50114D01*
X85180Y-51283D01*
X85105Y-51359D01*
X84095Y-51359D01*
X84095Y-50866D01*
X84050Y-50757D01*
X83967Y-50674D01*
X83858Y-50629D01*
X83741Y-50629D01*
X82941Y-50629D01*
X82832Y-50674D01*
X82749Y-50757D01*
X82704Y-50865D01*
X82704Y-50983D01*
X82704Y-51583D01*
X82749Y-51691D01*
X82786Y-51728D01*
X82510Y-52004D01*
X82291Y-52004D01*
X82182Y-52049D01*
X82099Y-52132D01*
X82054Y-52241D01*
X82054Y-52358D01*
X82054Y-53158D01*
X82099Y-53267D01*
X82182Y-53350D01*
X82291Y-53395D01*
X82408Y-53395D01*
X82510Y-53395D01*
X82600Y-53486D01*
X82507Y-53524D01*
X82424Y-53607D01*
X82379Y-53716D01*
X82379Y-53833D01*
X82379Y-54283D01*
X82424Y-54392D01*
X82507Y-54475D01*
X82616Y-54520D01*
X82733Y-54520D01*
X82899Y-54520D01*
X82899Y-55062D01*
X82856Y-55126D01*
X82804Y-55388D01*
X82804Y-56211D01*
X82856Y-56473D01*
X83005Y-56695D01*
X83227Y-56844D01*
X83490Y-56896D01*
X83752Y-56844D01*
X83974Y-56695D01*
X84123Y-56473D01*
X84175Y-56211D01*
X84175Y-55388D01*
X84123Y-55126D01*
X84080Y-55062D01*
X84080Y-54000D01*
X84080Y-53546D01*
X84141Y-53636D01*
X84364Y-53786D01*
X84628Y-53838D01*
X85056Y-53838D01*
X85203Y-53809D01*
X85233Y-57142D01*
X85233Y-57142D01*
G37*
G54D30*
X85233Y-57142D02*
X78548Y-57142D01*
X78548Y-46732D01*
X78457Y-46513D01*
X78366Y-46422D01*
X78419Y-46400D01*
X78502Y-46317D01*
X78547Y-46209D01*
X78548Y-46091D01*
X78548Y-45491D01*
X78503Y-45383D01*
X78420Y-45300D01*
X78311Y-45255D01*
X78194Y-45255D01*
X77594Y-45255D01*
X77485Y-45299D01*
X77402Y-45382D01*
X77357Y-45491D01*
X77357Y-45608D01*
X77357Y-46208D01*
X77402Y-46317D01*
X77485Y-46400D01*
X77538Y-46422D01*
X77448Y-46512D01*
X77357Y-46731D01*
X77357Y-46968D01*
X77447Y-47187D01*
X77615Y-47354D01*
X77833Y-47445D01*
X78070Y-47445D01*
X78289Y-47355D01*
X78457Y-47188D01*
X78547Y-46969D01*
X78548Y-46732D01*
X78548Y-57142D01*
X72182Y-57142D01*
X72182Y-36712D01*
X72828Y-36712D01*
X72828Y-44874D01*
X72860Y-45034D01*
X72951Y-45171D01*
X75379Y-47599D01*
X75379Y-51152D01*
X75324Y-51207D01*
X75279Y-51316D01*
X75279Y-51433D01*
X75279Y-51683D01*
X75324Y-51792D01*
X75332Y-51799D01*
X75324Y-51807D01*
X75279Y-51916D01*
X75279Y-52033D01*
X75279Y-52283D01*
X75324Y-52392D01*
X75397Y-52465D01*
X75411Y-52535D01*
X75491Y-52654D01*
X75479Y-52662D01*
X75330Y-52885D01*
X75277Y-53149D01*
X75330Y-53413D01*
X75479Y-53636D01*
X75703Y-53786D01*
X75966Y-53838D01*
X76395Y-53838D01*
X76658Y-53786D01*
X76882Y-53636D01*
X77031Y-53413D01*
X77084Y-53149D01*
X77031Y-52885D01*
X76882Y-52662D01*
X76669Y-52520D01*
X76883Y-52520D01*
X76992Y-52475D01*
X77075Y-52392D01*
X77120Y-52283D01*
X77120Y-52166D01*
X77120Y-51916D01*
X77075Y-51807D01*
X77067Y-51800D01*
X77075Y-51792D01*
X77120Y-51683D01*
X77120Y-51566D01*
X77120Y-51316D01*
X77075Y-51207D01*
X76992Y-51124D01*
X76883Y-51079D01*
X76766Y-51079D01*
X76316Y-51079D01*
X76316Y-51079D01*
X76220Y-51079D01*
X76220Y-47425D01*
X76220Y-47424D01*
X76188Y-47264D01*
X76097Y-47127D01*
X76097Y-47127D01*
X73669Y-44699D01*
X73669Y-36712D01*
X73989Y-36712D01*
X73989Y-41711D01*
X74021Y-41871D01*
X74112Y-42008D01*
X75037Y-42933D01*
X75037Y-43042D01*
X75082Y-43151D01*
X75089Y-43158D01*
X75082Y-43166D01*
X75037Y-43275D01*
X75037Y-43392D01*
X75037Y-43642D01*
X75082Y-43751D01*
X75165Y-43834D01*
X75273Y-43879D01*
X75390Y-43879D01*
X75661Y-43879D01*
X75479Y-44001D01*
X75330Y-44224D01*
X75277Y-44488D01*
X75330Y-44751D01*
X75479Y-44975D01*
X75703Y-45124D01*
X75966Y-45177D01*
X76395Y-45177D01*
X76658Y-45124D01*
X76882Y-44975D01*
X77031Y-44751D01*
X77084Y-44488D01*
X77031Y-44224D01*
X76882Y-44001D01*
X76754Y-43915D01*
X76776Y-43807D01*
X76832Y-43751D01*
X76877Y-43643D01*
X76877Y-43525D01*
X76877Y-43275D01*
X76832Y-43167D01*
X76825Y-43159D01*
X76832Y-43151D01*
X76877Y-43043D01*
X76877Y-42925D01*
X76877Y-42675D01*
X76832Y-42567D01*
X76749Y-42483D01*
X76641Y-42438D01*
X76524Y-42438D01*
X76074Y-42438D01*
X76073Y-42438D01*
X75782Y-42438D01*
X75731Y-42438D01*
X74829Y-41536D01*
X74829Y-36712D01*
X76025Y-36712D01*
X76221Y-36515D01*
X76395Y-36515D01*
X76658Y-36463D01*
X76882Y-36313D01*
X76927Y-36247D01*
X77086Y-36247D01*
X77086Y-36247D01*
X77247Y-36215D01*
X77247Y-36215D01*
X77383Y-36123D01*
X77400Y-36107D01*
X77477Y-36107D01*
X77535Y-36107D01*
X77985Y-36107D01*
X77985Y-36107D01*
X78277Y-36107D01*
X78335Y-36107D01*
X78785Y-36107D01*
X78894Y-36062D01*
X78977Y-35979D01*
X79022Y-35871D01*
X79022Y-35753D01*
X79022Y-35531D01*
X84012Y-35531D01*
X83991Y-35563D01*
X83939Y-35826D01*
X83991Y-36090D01*
X84141Y-36313D01*
X84364Y-36463D01*
X84628Y-36515D01*
X85049Y-36515D01*
X85049Y-36608D01*
X84899Y-36758D01*
X84737Y-36595D01*
X84518Y-36504D01*
X84321Y-36504D01*
X84060Y-36244D01*
X83942Y-36165D01*
X83802Y-36137D01*
X82297Y-36137D01*
X82157Y-36165D01*
X82039Y-36244D01*
X82039Y-36244D01*
X81953Y-36329D01*
X81787Y-36329D01*
X81577Y-36416D01*
X81416Y-36576D01*
X81329Y-36786D01*
X81329Y-37012D01*
X81416Y-37222D01*
X81576Y-37383D01*
X81786Y-37470D01*
X82012Y-37470D01*
X82222Y-37383D01*
X82383Y-37223D01*
X82470Y-37013D01*
X82470Y-36867D01*
X83651Y-36867D01*
X83804Y-37021D01*
X83804Y-37112D01*
X83758Y-37112D01*
X83577Y-37187D01*
X83438Y-37325D01*
X83364Y-37504D01*
X83282Y-37504D01*
X83063Y-37595D01*
X82895Y-37762D01*
X82804Y-37981D01*
X82804Y-38086D01*
X82458Y-38086D01*
X82318Y-38113D01*
X82199Y-38193D01*
X82199Y-38193D01*
X81983Y-38409D01*
X81904Y-38528D01*
X81876Y-38667D01*
X81876Y-39287D01*
X81904Y-39427D01*
X81983Y-39546D01*
X82564Y-40126D01*
X82682Y-40206D01*
X82682Y-40206D01*
X82822Y-40233D01*
X84934Y-40233D01*
X85083Y-40382D01*
X85085Y-40632D01*
X84974Y-40654D01*
X84782Y-40782D01*
X84255Y-41309D01*
X80520Y-41309D01*
X80520Y-41266D01*
X80520Y-41016D01*
X80475Y-40907D01*
X80392Y-40824D01*
X80283Y-40779D01*
X80166Y-40779D01*
X79716Y-40779D01*
X79716Y-40779D01*
X79600Y-40779D01*
X79439Y-40811D01*
X79370Y-40857D01*
X79302Y-40902D01*
X79002Y-41202D01*
X78931Y-41309D01*
X78900Y-41309D01*
X78798Y-41329D01*
X78787Y-41329D01*
X78776Y-41334D01*
X78674Y-41354D01*
X78587Y-41411D01*
X78577Y-41416D01*
X78569Y-41424D01*
X78482Y-41482D01*
X78424Y-41568D01*
X78416Y-41576D01*
X78412Y-41587D01*
X78354Y-41674D01*
X78334Y-41775D01*
X78329Y-41786D01*
X78329Y-41797D01*
X78309Y-41900D01*
X78329Y-42001D01*
X78329Y-42012D01*
X78334Y-42023D01*
X78354Y-42125D01*
X78411Y-42212D01*
X78416Y-42222D01*
X78424Y-42230D01*
X78482Y-42317D01*
X78568Y-42375D01*
X78576Y-42383D01*
X78587Y-42387D01*
X78674Y-42445D01*
X78775Y-42465D01*
X78786Y-42470D01*
X78797Y-42470D01*
X78900Y-42490D01*
X79300Y-42490D01*
X83683Y-42490D01*
X83604Y-42681D01*
X83604Y-42917D01*
X83695Y-43136D01*
X83862Y-43304D01*
X84081Y-43395D01*
X84084Y-43395D01*
X83419Y-44060D01*
X79446Y-44060D01*
X79348Y-44060D01*
X79348Y-44060D01*
X79208Y-44088D01*
X79089Y-44167D01*
X79089Y-44167D01*
X78833Y-44423D01*
X78754Y-44541D01*
X78726Y-44681D01*
X78726Y-47122D01*
X78754Y-47262D01*
X78833Y-47380D01*
X78855Y-47402D01*
X78855Y-47476D01*
X78930Y-47656D01*
X79068Y-47795D01*
X79249Y-47870D01*
X79445Y-47870D01*
X79626Y-47795D01*
X79764Y-47657D01*
X79840Y-47476D01*
X79840Y-47281D01*
X79765Y-47100D01*
X79627Y-46961D01*
X79457Y-46891D01*
X79457Y-45360D01*
X79593Y-45360D01*
X79774Y-45286D01*
X79826Y-45233D01*
X80289Y-45233D01*
X83253Y-48197D01*
X83253Y-48197D01*
X83646Y-48591D01*
X83646Y-48591D01*
X83765Y-48670D01*
X83905Y-48698D01*
X84519Y-48698D01*
X84570Y-48750D01*
X84751Y-48825D01*
X84789Y-48825D01*
X84455Y-49159D01*
X83500Y-49159D01*
X83417Y-49175D01*
X82941Y-49175D01*
X82832Y-49220D01*
X82749Y-49303D01*
X82704Y-49412D01*
X82704Y-49529D01*
X82704Y-50129D01*
X82749Y-50238D01*
X82832Y-50321D01*
X82941Y-50366D01*
X83058Y-50366D01*
X83858Y-50366D01*
X83921Y-50340D01*
X84550Y-50340D01*
X84700Y-50340D01*
X84925Y-50295D01*
X85117Y-50167D01*
X85170Y-50114D01*
X85180Y-51283D01*
X85105Y-51359D01*
X84095Y-51359D01*
X84095Y-50866D01*
X84050Y-50757D01*
X83967Y-50674D01*
X83858Y-50629D01*
X83741Y-50629D01*
X82941Y-50629D01*
X82832Y-50674D01*
X82749Y-50757D01*
X82704Y-50865D01*
X82704Y-50983D01*
X82704Y-51583D01*
X82749Y-51691D01*
X82786Y-51728D01*
X82510Y-52004D01*
X82291Y-52004D01*
X82182Y-52049D01*
X82099Y-52132D01*
X82054Y-52241D01*
X82054Y-52358D01*
X82054Y-53158D01*
X82099Y-53267D01*
X82182Y-53350D01*
X82291Y-53395D01*
X82408Y-53395D01*
X82510Y-53395D01*
X82600Y-53486D01*
X82507Y-53524D01*
X82424Y-53607D01*
X82379Y-53716D01*
X82379Y-53833D01*
X82379Y-54283D01*
X82424Y-54392D01*
X82507Y-54475D01*
X82616Y-54520D01*
X82733Y-54520D01*
X82899Y-54520D01*
X82899Y-55062D01*
X82856Y-55126D01*
X82804Y-55388D01*
X82804Y-56211D01*
X82856Y-56473D01*
X83005Y-56695D01*
X83227Y-56844D01*
X83490Y-56896D01*
X83752Y-56844D01*
X83974Y-56695D01*
X84123Y-56473D01*
X84175Y-56211D01*
X84175Y-55388D01*
X84123Y-55126D01*
X84080Y-55062D01*
X84080Y-54000D01*
X84080Y-53546D01*
X84141Y-53636D01*
X84364Y-53786D01*
X84628Y-53838D01*
X85056Y-53838D01*
X85203Y-53809D01*
X85233Y-57142D01*
M02*
